<?xml version="1.0" encoding="UTF-8"?> <svg xmlns="http://www.w3.org/2000/svg" xmlns:xlink="http://www.w3.org/1999/xlink" id="Grupo_224" data-name="Grupo 224" width="143.94" height="44.042" viewBox="0 0 143.94 44.042"><defs><clipPath id="clip-path"><rect id="Rectángulo_606" data-name="Rectángulo 606" width="143.94" height="44.042" fill="#231f20"></rect></clipPath></defs><g id="Grupo_223" data-name="Grupo 223" transform="translate(0 0)" clip-path="url(#clip-path)"><path id="Trazado_1380" data-name="Trazado 1380" d="M171.116,50.994c0-.943.012-1.887-.006-2.83-.007-.33.094-.44.429-.432.876.02,1.752.016,2.628,0,.291-.005.374.1.375.381s-.13.332-.37.328c-.624-.01-1.247.009-1.87-.009-.294-.008-.436.06-.414.389.033.485-.15,1.111.09,1.421.257.332.913.083,1.394.114.218.014.438.008.657,0,.235-.007.418-.011.422.328s-.147.385-.427.377c-.573-.015-1.146.008-1.719-.009-.289-.009-.431.056-.419.386.023.589.024,1.18,0,1.768-.013.328.12.4.414.389.623-.018,1.246,0,1.87-.009.238,0,.373.037.372.327s-.075.389-.371.384c-.892-.016-1.786-.019-2.678,0-.338.008-.384-.147-.38-.427.011-.96,0-1.92,0-2.881" transform="translate(-37.751 -10.531)" fill="#231f20"></path><path id="Trazado_1381" data-name="Trazado 1381" d="M181.437,54.372a2.026,2.026,0,0,1-1.9-1.341c-.074-.214-.108-.4.186-.447.2-.032.4-.234.533.174a1.232,1.232,0,0,0,1.5.881,1.252,1.252,0,0,0,1.02-1.316,1.067,1.067,0,0,0-.636-.907c-.429-.231-.878-.426-1.313-.645a1.588,1.588,0,0,1-1.045-1.577,1.629,1.629,0,0,1,1.289-1.5,1.914,1.914,0,0,1,2.007.609c.117.15.308.316.012.487-.194.111-.332.289-.569-.022a1.115,1.115,0,0,0-1.687-.142.83.83,0,0,0,.043,1.317,5.878,5.878,0,0,0,1.3.662c.584.293,1.133.606,1.3,1.31a2.023,2.023,0,0,1-2.04,2.459" transform="translate(-39.599 -10.505)" fill="#231f20"></path><path id="Trazado_1382" data-name="Trazado 1382" d="M164.113,51.4c.177-.055.306-.09.432-.135a1.73,1.73,0,0,0,1.167-1.715,1.553,1.553,0,0,0-1.122-1.616,5.763,5.763,0,0,0-1.848-.2c-.295-.005-.37.108-.369.386q.014,2.905,0,5.811c0,.3.111.369.386.369s.35-.1.345-.355c-.012-.708-.007-1.415,0-2.122,0-.109-.062-.265.07-.32.169-.07.225.107.3.207.471.677.971,1.338,1.388,2.047a.978.978,0,0,0,1.26.481l-2-2.839m-.85-.641c-.164-.009-.162-.14-.163-.26,0-.3,0-.6,0-.9q0-.251,0-.5c0-.71.023-.733.732-.638.444.061.9.171,1.041.655a1.187,1.187,0,0,1-.195,1.275,1.775,1.775,0,0,1-1.414.373" transform="translate(-35.824 -10.532)" fill="#231f20"></path><path id="Trazado_1383" data-name="Trazado 1383" d="M117.661,34.431q-6.475,0-12.951,0a2.642,2.642,0,0,1-2.826-2.8q-.016-11.485,0-22.968a2.7,2.7,0,0,1,2.907-2.852q12.875,0,25.751,0A2.678,2.678,0,0,1,133.5,8.6c.044.824.006,1.652.02,2.478,0,.253-.065.385-.341.353a3.15,3.15,0,0,0-.354,0q-12.572,0-25.143-.011c-.439,0-.553.1-.552.546q.026,8.171,0,16.341c0,.444.1.553.55.552q9.992-.025,19.984,0c.482,0,.574-.147.572-.592-.018-3.457,0-6.914-.019-10.371,0-.418.06-.585.54-.572,1.432.039,2.867.023,4.3.007.332,0,.468.059.467.435-.013,4.569,0,9.14-.014,13.71a2.75,2.75,0,0,1-2.1,2.9,3.785,3.785,0,0,1-.8.055q-6.475,0-12.951,0" transform="translate(-22.476 -1.281)" fill="#231f20"></path><path id="Trazado_1384" data-name="Trazado 1384" d="M89.089,54.5l-4.976-5.2c-.152.156-.087.314-.088.453-.006,1.348-.009,2.7,0,4.043,0,.274-.026.44-.372.433-.309-.006-.357-.138-.356-.4.007-2.089,0-4.177,0-6.409l5.067,5.288V51.53c0-1.163.008-2.326-.005-3.488,0-.294.105-.375.383-.373s.348.1.347.355c-.007,2.106,0,4.212,0,6.48" transform="translate(-18.377 -10.463)" fill="#231f20"></path><path id="Trazado_1385" data-name="Trazado 1385" d="M120.964,50.253c0-.708.009-1.415,0-2.122,0-.27.058-.4.362-.4s.373.108.37.387c-.012,1.28-.021,2.56,0,3.84a1.6,1.6,0,0,0,2.425,1.514,1.406,1.406,0,0,0,.732-1.341c0-1.314.011-2.628,0-3.941,0-.361.124-.475.472-.457.253.013.309.121.307.344-.008,1.4.027,2.8-.019,4.195a2.244,2.244,0,0,1-2.372,2.121,2.2,2.2,0,0,1-2.259-2.224c-.012-.64,0-1.281,0-1.92Z" transform="translate(-26.687 -10.532)" fill="#231f20"></path><path id="Trazado_1386" data-name="Trazado 1386" d="M65.009,49.058c-1.8-1-2.944-.937-3.931.217a2.708,2.708,0,0,0-.056,3.365c.959,1.2,2.064,1.287,3.982.3.121.8.1.847-.581,1.146a3.4,3.4,0,0,1-3.972-.97,3.317,3.317,0,0,1,.02-4.239,3.411,3.411,0,0,1,3.922-1,.873.873,0,0,1,.616,1.189" transform="translate(-13.17 -10.506)" fill="#231f20"></path><path id="Trazado_1387" data-name="Trazado 1387" d="M136.182,49.066c-1.794-1.019-2.961-.95-3.952.209a2.71,2.71,0,0,0-.051,3.363c.966,1.209,2.129,1.3,3.982.3.11.809.1.845-.592,1.142a3.2,3.2,0,0,1-3.534-.551,3.115,3.115,0,0,1-1.084-3.267,3.3,3.3,0,0,1,2.521-2.553,3.058,3.058,0,0,1,1.979.129c.79.316.787.324.731,1.231" transform="translate(-28.868 -10.502)" fill="#231f20"></path><path id="Trazado_1388" data-name="Trazado 1388" d="M96.884,54.372a2.016,2.016,0,0,1-1.916-1.313c-.07-.195-.177-.391.139-.471.237-.059.435-.173.578.2a1.265,1.265,0,0,0,2.014.6,1.133,1.133,0,0,0-.083-1.941c-.536-.313-1.133-.525-1.659-.853a1.506,1.506,0,0,1-.447-2.271,1.936,1.936,0,0,1,3.059.081c.078.118.178.229-.01.328-.164.087-.3.316-.528.126-.077-.064-.133-.153-.207-.221a1.106,1.106,0,0,0-1.305-.214.887.887,0,0,0-.557.781.8.8,0,0,0,.457.832c.478.249.979.453,1.45.712a1.724,1.724,0,0,1,1.013,2.125,2.052,2.052,0,0,1-2,1.495" transform="translate(-20.936 -10.505)" fill="#231f20"></path><path id="Trazado_1389" data-name="Trazado 1389" d="M142.869,51.348c0-.792-.022-1.584.009-2.374.016-.406-.081-.6-.519-.54-.232.03-.472-.005-.707.009s-.379-.041-.374-.326.094-.389.385-.385q1.591.019,3.183,0c.274,0,.394.077.4.368.01.321-.157.339-.408.344-1.2.024-1.2.03-1.2,1.212,0,1.347,0,2.694,0,4.042,0,.274.132.617-.4.61-.5-.006-.368-.329-.371-.585-.009-.792,0-1.583,0-2.375" transform="translate(-31.17 -10.531)" fill="#231f20"></path><path id="Trazado_1390" data-name="Trazado 1390" d="M105.778,51.37c0,.826,0,1.651,0,2.478,0,.246.026.453-.347.458-.392,0-.38-.206-.38-.479.005-1.584-.016-3.17.014-4.753.009-.486-.082-.735-.623-.641-.2.034-.4-.008-.606.009-.278.023-.39-.072-.386-.367,0-.277.119-.339.368-.337,1.062.009,2.124.011,3.185,0,.281,0,.387.08.384.373s-.122.344-.368.333c-.285-.013-.574.016-.859-.008-.323-.029-.4.11-.391.408.016.842.005,1.686.005,2.528" transform="translate(-22.824 -10.532)" fill="#231f20"></path><path id="Trazado_1391" data-name="Trazado 1391" d="M175.723,8.715A2.694,2.694,0,0,0,172.777,5.8q-6.425,0-12.85,0c-4.25,0-8.5.047-12.748-.021a2.853,2.853,0,0,0-3.059,3q0,12.622-.008,25.245c0,.344.11.417.431.414,1.467-.016,2.935-.026,4.4,0,.41.009.461-.135.46-.487-.012-3.474,0-6.948-.017-10.422,0-.45.1-.592.575-.59q9.966.026,19.932,0c.43,0,.569.083.566.546-.022,3.491-.006,6.982-.02,10.472,0,.375.087.483.472.476,1.467-.024,2.934-.02,4.4,0,.338,0,.422-.1.422-.424q-.013-12.648-.012-25.3m-5.778,8.624c-3.339-.012-6.678-.008-10.017-.008s-6.678-.008-10.017.011c-.425,0-.532-.108-.525-.528.025-1.635.02-3.272,0-4.907,0-.356.059-.494.462-.493q10.067.02,20.134,0c.387,0,.475.111.472.482-.02,1.652-.025,3.305,0,4.958.007.422-.142.487-.514.486" transform="translate(-31.795 -1.275)" fill="#231f20"></path><path id="Trazado_1392" data-name="Trazado 1392" d="M91.288,8.681a2.658,2.658,0,0,0-2.972-2.876H74.4q-7.108,0-14.217-.006c-.335,0-.5.022-.5.445q.02,13.888,0,27.777c0,.335.094.421.421.417,1.468-.017,2.935-.023,4.4,0,.389.007.467-.108.465-.477-.015-3.457,0-6.915-.02-10.372,0-.472.087-.615.592-.613q11.409.028,22.818.012a2.662,2.662,0,0,0,2.923-2.826q.05-5.744,0-11.485m-5.254,8.266c0,.346-.087.457-.447.457q-10.089-.016-20.178,0c-.353,0-.456-.094-.452-.45q.027-2.528,0-5.057c0-.378.093-.481.475-.48,3.354.016,6.709.01,10.063.01,3.337,0,6.675.008,10.013-.01.418,0,.536.1.529.525-.026,1.667-.019,3.337,0,5.006" transform="translate(-13.168 -1.279)" fill="#231f20"></path><path id="Trazado_1393" data-name="Trazado 1393" d="M153.065,47.609a3.381,3.381,0,1,0,3.357,3.408,3.439,3.439,0,0,0-3.357-3.408m-.059,6.061a2.682,2.682,0,0,1,.01-5.364,2.682,2.682,0,0,1-.01,5.364" transform="translate(-33.007 -10.504)" fill="#231f20"></path><path id="Trazado_1394" data-name="Trazado 1394" d="M73.873,47.609a3.38,3.38,0,1,0,.009,6.76,3.38,3.38,0,1,0-.009-6.76m0,6.061A2.682,2.682,0,1,1,76.538,51a2.675,2.675,0,0,1-2.663,2.674" transform="translate(-15.549 -10.504)" fill="#231f20"></path><path id="Trazado_1395" data-name="Trazado 1395" d="M113.949,51.41l.382-.132a1.735,1.735,0,0,0,1.21-1.735,1.594,1.594,0,0,0-1.273-1.659,6.772,6.772,0,0,0-1.652-.154c-.358-.018-.457.107-.454.457.015,1.886.012,3.773,0,5.659,0,.3.039.465.405.458.34-.006.39-.156.376-.434-.015-.3,0-.606,0-.91V51.448a.858.858,0,0,1,.465.434c.456.647.939,1.278,1.334,1.962.294.509.663.5,1.2.391l-1.989-2.825m-.843-.659c-.2-.009-.161-.183-.164-.311-.005-.287,0-.574,0-.86a1.117,1.117,0,0,1,0-.3c.083-.275-.237-.687.2-.825a1.4,1.4,0,0,1,1.527.623,1.162,1.162,0,0,1-.16,1.282,1.664,1.664,0,0,1-1.411.393" transform="translate(-24.746 -10.53)" fill="#231f20"></path><path id="Trazado_1396" data-name="Trazado 1396" d="M43.392,12.921l2.554,22.31L26.265,26.518V0Z" transform="translate(-5.795 0)" fill="#231f20"></path><path id="Trazado_1397" data-name="Trazado 1397" d="M19.606.048V26.491L0,35.429,2.592,12.818Z" transform="translate(0 -0.011)" fill="#231f20"></path><path id="Trazado_1398" data-name="Trazado 1398" d="M.7,43.979l19.544-9.012L39.77,43.773,20.643,48.88Z" transform="translate(-0.154 -7.715)" fill="#231f20"></path></g></svg> 