<?xml version="1.0" encoding="UTF-8"?>
<svg id="Capa_1" data-name="Capa 1" xmlns="http://www.w3.org/2000/svg" viewBox="0 0 312.15 98.13">
  <defs>
    <style>
      .cls-1 {
        fill: #909090;
      }

      .cls-2 {
        fill: #afafac;
      }

      .cls-3 {
        fill: #fff;
      }

      .cls-4 {
        fill: #bdbdbc;
      }
    </style>
  </defs>
  <g>
    <g>
      <path class="cls-3" d="M112.8,22.96h6.97v39.18h-6.97V22.96Z"/>
      <path class="cls-3" d="M148.39,31.15c-.74-.96-1.78-1.76-3.13-2.41-1.35-.65-2.7-.97-4.07-.97-.81,0-1.62.1-2.44.3-.81.2-1.55.52-2.21.94-.66.42-1.21.98-1.63,1.66-.42.68-.64,1.5-.64,2.46,0,.89.18,1.64.55,2.27.37.63.88,1.16,1.52,1.6s1.43.83,2.35,1.16c.92.33,1.94.66,3.04,1,1.25.41,2.55.87,3.9,1.38,1.35.52,2.58,1.2,3.71,2.05,1.12.85,2.05,1.92,2.77,3.21.72,1.29,1.08,2.9,1.08,4.81,0,2.1-.39,3.94-1.16,5.51-.78,1.57-1.81,2.87-3.1,3.9-1.29,1.03-2.8,1.81-4.54,2.32-1.73.52-3.56.77-5.48.77-2.55,0-5.04-.47-7.47-1.41-2.43-.94-4.43-2.33-5.98-4.18l4.98-4.65c.96,1.33,2.24,2.38,3.85,3.15,1.61.77,3.18,1.16,4.73,1.16.81,0,1.64-.1,2.49-.3.85-.2,1.61-.54,2.3-1.02.68-.48,1.24-1.08,1.66-1.8.42-.72.64-1.61.64-2.68s-.24-1.89-.72-2.57c-.48-.68-1.13-1.27-1.94-1.77s-1.77-.93-2.88-1.3c-1.11-.37-2.27-.76-3.49-1.16-1.18-.37-2.36-.81-3.54-1.33-1.18-.52-2.24-1.2-3.18-2.05-.94-.85-1.71-1.89-2.3-3.13-.59-1.24-.88-2.78-.88-4.62,0-1.99.42-3.71,1.25-5.15s1.92-2.63,3.27-3.57c1.35-.94,2.88-1.64,4.59-2.1,1.72-.46,3.46-.69,5.23-.69,1.99,0,4.01.35,6.06,1.05,2.05.7,3.83,1.75,5.34,3.15l-4.54,4.98Z"/>
      <path class="cls-3" d="M172.46,22.96h6.03l16.88,39.18h-7.97l-3.65-8.97h-16.99l-3.54,8.97h-7.8l17.05-39.18ZM181.32,47.2l-6.03-15.94-6.14,15.94h12.18Z"/>
      <path class="cls-3" d="M199.25,22.96h13.62c1.84,0,3.63.19,5.37.58,1.73.39,3.27,1.02,4.62,1.91,1.35.89,2.43,2.05,3.24,3.49.81,1.44,1.22,3.19,1.22,5.26,0,2.84-.8,5.16-2.41,6.95-1.6,1.79-3.79,3-6.56,3.62l10.46,17.38h-8.41l-9.08-16.6h-5.09v16.6h-6.97V22.96ZM211.92,39.84c1,0,1.99-.07,2.99-.22,1-.15,1.89-.42,2.68-.83.79-.41,1.45-.99,1.96-1.74.52-.76.78-1.72.78-2.91,0-1.07-.24-1.95-.72-2.63-.48-.68-1.09-1.23-1.83-1.63-.74-.41-1.58-.68-2.52-.83-.94-.15-1.85-.22-2.74-.22h-6.31v11.01h5.7Z"/>
      <path class="cls-3" d="M262.34,32.14c-1.03-1.4-2.38-2.43-4.04-3.07-1.66-.65-3.28-.97-4.87-.97-2.03,0-3.87.37-5.53,1.11-1.66.74-3.09,1.75-4.29,3.04-1.2,1.29-2.12,2.8-2.77,4.54-.65,1.73-.97,3.62-.97,5.65,0,2.14.31,4.1.94,5.87.63,1.77,1.52,3.29,2.68,4.57s2.55,2.26,4.18,2.96c1.62.7,3.45,1.05,5.48,1.05s3.97-.42,5.59-1.25c1.62-.83,2.93-1.93,3.93-3.29l5.59,3.93c-1.73,2.18-3.86,3.87-6.36,5.06-2.51,1.2-5.44,1.8-8.8,1.8-3.06,0-5.88-.51-8.44-1.52-2.56-1.01-4.77-2.44-6.61-4.26-1.85-1.83-3.28-4-4.32-6.53-1.03-2.53-1.55-5.32-1.55-8.38s.54-5.97,1.63-8.5c1.09-2.53,2.58-4.68,4.48-6.45,1.9-1.77,4.14-3.14,6.72-4.1,2.58-.96,5.39-1.44,8.41-1.44,1.25,0,2.56.12,3.93.36,1.36.24,2.67.61,3.93,1.11,1.25.5,2.43,1.12,3.54,1.85,1.11.74,2.05,1.62,2.82,2.66l-5.31,4.21Z"/>
      <path class="cls-3" d="M270.03,42.44c0-3.14.53-5.97,1.58-8.5,1.05-2.53,2.51-4.68,4.37-6.45,1.86-1.77,4.08-3.14,6.64-4.1,2.56-.96,5.36-1.44,8.38-1.44s5.88.48,8.47,1.44c2.58.96,4.81,2.32,6.7,4.1s3.35,3.92,4.4,6.45c1.05,2.53,1.58,5.36,1.58,8.5s-.53,5.86-1.58,8.38c-1.05,2.53-2.52,4.7-4.4,6.53-1.88,1.83-4.11,3.25-6.7,4.26-2.58,1.01-5.41,1.52-8.47,1.52s-5.82-.51-8.38-1.52c-2.57-1.01-4.78-2.44-6.64-4.26-1.86-1.83-3.32-4-4.37-6.53-1.05-2.53-1.58-5.32-1.58-8.38ZM277.62,42.44c0,2.1.32,4.03.97,5.78.64,1.75,1.57,3.27,2.77,4.57s2.62,2.3,4.26,3.02c1.64.72,3.46,1.08,5.45,1.08s3.82-.36,5.48-1.08c1.66-.72,3.09-1.72,4.29-3.02,1.2-1.29,2.12-2.81,2.77-4.57.64-1.75.97-3.68.97-5.78s-.32-3.91-.97-5.65c-.65-1.73-1.56-3.25-2.74-4.54-1.18-1.29-2.6-2.31-4.26-3.04-1.66-.74-3.51-1.11-5.54-1.11s-3.87.37-5.51,1.11c-1.64.74-3.05,1.75-4.23,3.04-1.18,1.29-2.09,2.8-2.74,4.54-.65,1.73-.97,3.62-.97,5.65Z"/>
    </g>
    <g>
      <rect class="cls-3" width="94.2" height="98.13"/>
      <rect class="cls-1" x="42.23" y="39.25" width="9.77" height="31.4"/>
      <rect class="cls-2" y="31.4" width="19.62" height="3.93" transform="translate(19.62 66.73) rotate(180)"/>
      <rect class="cls-2" y="39.25" width="19.62" height="3.93" transform="translate(19.62 82.43) rotate(180)"/>
      <rect class="cls-2" y="47.1" width="19.62" height="3.93" transform="translate(19.62 98.13) rotate(180)"/>
      <rect class="cls-2" y="54.95" width="19.62" height="3.93" transform="translate(19.62 113.83) rotate(180)"/>
      <rect class="cls-2" y="62.8" width="19.62" height="3.93" transform="translate(19.62 129.53) rotate(180)"/>
      <rect class="cls-4" x="51.99" y="27.48" width="42.21" height="3.93"/>
      <rect class="cls-4" x="51.99" y="35.33" width="42.21" height="3.93"/>
      <rect class="cls-4" x="51.99" y="43.18" width="42.21" height="3.93"/>
      <rect class="cls-4" x="51.99" y="51.03" width="42.21" height="3.93"/>
      <rect class="cls-4" x="51.99" y="58.88" width="42.21" height="3.93"/>
      <rect class="cls-4" x="51.99" y="66.73" width="42.21" height="3.93"/>
      <rect class="cls-1" x="42.23" y="27.48" width="9.77" height="7.85"/>
      <rect class="cls-1" x="21" y="28.85" width="21.23" height="3.93"/>
      <rect class="cls-1" x="21" y="36.7" width="21.23" height="3.93"/>
      <rect class="cls-1" x="21" y="44.55" width="21.23" height="3.93"/>
      <rect class="cls-1" x="21" y="52.4" width="21.23" height="3.93"/>
      <rect class="cls-1" x="21" y="60.25" width="21.23" height="3.93"/>
      <rect class="cls-1" x="51.99" y="32.78" width="20.04" height="3.93" transform="translate(124.02 69.48) rotate(180)"/>
      <rect class="cls-1" x="51.99" y="40.63" width="20.04" height="3.93" transform="translate(124.02 85.18) rotate(180)"/>
      <rect class="cls-1" x="51.99" y="48.48" width="20.04" height="3.93" transform="translate(124.02 100.88) rotate(180)"/>
      <rect class="cls-1" x="51.99" y="56.33" width="20.04" height="3.93" transform="translate(124.02 116.58) rotate(180)"/>
      <rect class="cls-1" x="51.99" y="64.18" width="20.04" height="3.93" transform="translate(124.02 132.28) rotate(180)"/>
      <rect class="cls-1" x="21" y="68.1" width="21.23" height="3.93"/>
      <g>
        <rect class="cls-2" x="19.62" y="27.48" width="22.6" height="3.93"/>
        <rect class="cls-2" x="19.62" y="35.33" width="22.6" height="3.93"/>
        <rect class="cls-2" x="19.62" y="43.18" width="22.6" height="3.93"/>
        <rect class="cls-2" x="19.62" y="51.03" width="22.6" height="3.93"/>
        <rect class="cls-2" x="19.62" y="58.88" width="22.6" height="3.93"/>
        <rect class="cls-2" x="51.99" y="31.4" width="18.66" height="3.93" transform="translate(122.64 66.73) rotate(180)"/>
        <rect class="cls-2" x="51.99" y="39.25" width="18.66" height="3.93" transform="translate(122.64 82.43) rotate(180)"/>
        <rect class="cls-2" x="51.99" y="47.1" width="18.66" height="3.93" transform="translate(122.64 98.13) rotate(180)"/>
        <rect class="cls-2" x="51.99" y="54.95" width="18.66" height="3.93" transform="translate(122.64 113.83) rotate(180)"/>
        <rect class="cls-2" x="51.99" y="62.8" width="18.66" height="3.93" transform="translate(122.64 129.53) rotate(180)"/>
        <rect class="cls-2" x="19.62" y="66.73" width="22.6" height="3.93"/>
      </g>
    </g>
  </g>
  <g>
    <path class="cls-3" d="M172.15,87.58c-1,0-1.99-.12-2.99-.36-1-.24-1.85-.59-2.56-1.05l1.45-3.03c.57.37,1.21.65,1.91.86s1.39.31,2.05.31,1.25-.13,1.66-.39c.41-.26.61-.63.61-1.1,0-.44-.17-.78-.51-1.02-.34-.25-.9-.37-1.68-.37h-1.7v-2.54l3.84-4.17.39,1.41h-7.34v-3.15h10.37v2.56l-3.84,4.13-1.98-1.12h1.1c1.77,0,3.12.4,4.05,1.2.93.8,1.39,1.82,1.39,3.08,0,.8-.22,1.57-.67,2.3s-1.12,1.32-2.03,1.78c-.91.46-2.09.69-3.54.69Z"/>
    <path class="cls-3" d="M184.79,72.69c1.34,0,2.5.27,3.5.81s1.76,1.33,2.3,2.37c.54,1.04.81,2.34.81,3.9,0,1.66-.32,3.07-.96,4.23-.64,1.16-1.53,2.04-2.66,2.66-1.13.61-2.46.92-3.99.92-.8,0-1.57-.09-2.3-.27-.73-.18-1.36-.44-1.89-.78l1.47-2.9c.41.29.84.48,1.29.58.45.1.91.15,1.37.15,1.09,0,1.97-.33,2.63-1,.66-.67.99-1.65.99-2.94,0-.22,0-.45-.02-.71-.01-.25-.03-.5-.04-.75l.98.82c-.23.5-.55.92-.95,1.26-.4.33-.87.59-1.4.77-.53.18-1.14.27-1.82.27-.9,0-1.72-.18-2.46-.55s-1.34-.89-1.78-1.56c-.44-.67-.67-1.47-.67-2.38,0-1,.25-1.86.75-2.6.5-.74,1.17-1.3,2.01-1.7.84-.4,1.79-.59,2.84-.59ZM185.03,75.58c-.38,0-.72.07-1.01.21s-.52.35-.68.62c-.16.27-.25.59-.25.96,0,.56.18,1,.55,1.33s.84.49,1.41.49c.38,0,.73-.08,1.03-.23s.54-.37.71-.63c.16-.27.25-.58.25-.95,0-.34-.08-.65-.25-.92-.16-.27-.4-.49-.7-.64s-.65-.24-1.06-.24Z"/>
    <path class="cls-3" d="M197.77,87.29l6.54-14.31h1.49l6.54,14.31h-1.59l-6.01-13.44h.61l-6.01,13.44h-1.57ZM200.35,83.47l.45-1.23h8.32l.45,1.23h-9.22Z"/>
    <path class="cls-3" d="M214.56,87.29v-14.31h1.25l9.88,12.43h-.65v-12.43h1.49v14.31h-1.25l-9.86-12.43h.65v12.43h-1.51ZM221.92,71.69c-.31,0-.59-.07-.84-.2-.25-.14-.47-.3-.66-.48-.2-.18-.39-.35-.58-.49-.19-.14-.39-.21-.59-.21-.31,0-.56.12-.75.35-.18.23-.29.55-.32.96h-.88c.03-.68.21-1.23.54-1.64.33-.41.77-.61,1.3-.61.31,0,.6.07.85.21.25.14.48.31.67.49.2.18.39.34.57.48.18.14.38.2.58.2.31,0,.57-.11.76-.34.19-.23.29-.54.31-.93h.88c-.01.65-.19,1.19-.53,1.6-.34.41-.78.61-1.31.61Z"/>
    <path class="cls-3" d="M237.28,87.42c-1.08,0-2.08-.18-3-.54-.92-.36-1.72-.87-2.39-1.53-.67-.66-1.2-1.43-1.57-2.31s-.56-1.84-.56-2.89.19-2.01.56-2.89.9-1.65,1.57-2.31c.67-.66,1.47-1.17,2.38-1.53.91-.36,1.92-.54,3.01-.54s2.07.18,2.99.54c.91.36,1.71.87,2.38,1.52s1.2,1.42,1.57,2.31.56,1.85.56,2.9-.19,2.02-.56,2.9-.9,1.66-1.57,2.31c-.67.65-1.47,1.16-2.38,1.52-.91.36-1.91.54-2.99.54ZM237.28,86.07c.86,0,1.65-.15,2.38-.44s1.36-.71,1.9-1.25c.54-.54.96-1.17,1.26-1.88.3-.72.45-1.5.45-2.36s-.15-1.65-.45-2.36c-.3-.72-.72-1.34-1.26-1.88-.54-.54-1.17-.95-1.9-1.25-.73-.29-1.52-.44-2.38-.44s-1.66.15-2.39.44c-.74.29-1.38.71-1.92,1.25-.55.54-.97,1.17-1.27,1.88-.3.72-.45,1.5-.45,2.36s.15,1.63.45,2.35c.3.72.72,1.35,1.27,1.89.54.54,1.19.95,1.92,1.25s1.53.44,2.39.44Z"/>
    <path class="cls-3" d="M251.96,87.42c-1.06,0-2.08-.17-3.06-.52s-1.73-.79-2.26-1.34l.59-1.17c.5.49,1.18.9,2.04,1.24.85.33,1.75.5,2.69.5s1.63-.11,2.2-.34c.57-.23.98-.53,1.25-.91.27-.38.4-.8.4-1.27,0-.56-.16-1.01-.48-1.35-.32-.34-.74-.61-1.26-.81-.52-.2-1.09-.37-1.72-.52-.63-.15-1.25-.31-1.88-.48s-1.2-.4-1.73-.69c-.53-.29-.95-.66-1.27-1.13-.32-.47-.48-1.09-.48-1.85,0-.71.19-1.36.56-1.95.38-.59.95-1.07,1.73-1.43.78-.36,1.77-.54,2.99-.54.8,0,1.6.11,2.39.34.79.23,1.47.54,2.04.93l-.51,1.21c-.61-.41-1.26-.71-1.95-.9-.69-.19-1.35-.29-1.99-.29-.86,0-1.57.12-2.13.35-.56.23-.97.54-1.24.93-.27.39-.4.83-.4,1.32,0,.56.16,1.01.48,1.35s.74.61,1.27.8,1.1.36,1.73.51c.63.15,1.25.31,1.87.49.62.18,1.19.41,1.72.69.52.28.95.65,1.27,1.11s.48,1.07.48,1.82c0,.7-.19,1.34-.57,1.93-.38.59-.96,1.07-1.75,1.43-.78.36-1.79.54-3.02.54Z"/>
  </g>
</svg>