<?xml version="1.0" encoding="UTF-8"?>
<svg id="Layer_2" data-name="Layer 2" xmlns="http://www.w3.org/2000/svg" xmlns:xlink="http://www.w3.org/1999/xlink" viewBox="0 0 1543.01 369.53">
  <defs>
    <style>
      .cls-1 {
        filter: url(#drop-shadow-9);
      }

      .cls-1, .cls-2, .cls-3, .cls-4, .cls-5, .cls-6, .cls-7, .cls-8, .cls-9, .cls-10, .cls-11, .cls-12, .cls-13, .cls-14, .cls-15, .cls-16, .cls-17, .cls-18 {
        stroke-width: 0px;
      }

      .cls-1, .cls-8, .cls-10, .cls-11, .cls-13, .cls-14, .cls-17 {
        fill: #273335;
      }

      .cls-19 {
        stroke: #000;
        stroke-width: 2px;
      }

      .cls-19, .cls-20 {
        fill: none;
        stroke-miterlimit: 10;
      }

      .cls-20 {
        stroke: #d4c3b9;
      }

      .cls-2 {
        fill: #000;
      }

      .cls-3 {
        fill: #d4c3b9;
      }

      .cls-4 {
        fill: #f5f5f5;
      }

      .cls-5 {
        fill: url(#Degradado_sin_nombre_21-2);
        filter: url(#drop-shadow-4);
      }

      .cls-6 {
        fill: url(#Degradado_sin_nombre_21);
        filter: url(#drop-shadow-2);
      }

      .cls-7 {
        fill: url(#Degradado_sin_nombre_21-3);
        filter: url(#drop-shadow-6);
      }

      .cls-8 {
        filter: url(#drop-shadow-7);
      }

      .cls-9 {
        fill: url(#Degradado_sin_nombre_21-6);
        filter: url(#drop-shadow-12);
      }

      .cls-10 {
        filter: url(#drop-shadow-1);
      }

      .cls-11 {
        filter: url(#drop-shadow-13);
      }

      .cls-12 {
        fill: url(#Degradado_sin_nombre_21-4);
        filter: url(#drop-shadow-8);
      }

      .cls-13 {
        filter: url(#drop-shadow-11);
      }

      .cls-14 {
        filter: url(#drop-shadow-5);
      }

      .cls-15 {
        fill: #fff;
      }

      .cls-16 {
        fill: url(#Degradado_sin_nombre_21-7);
        filter: url(#drop-shadow-14);
      }

      .cls-17 {
        filter: url(#drop-shadow-3);
      }

      .cls-18 {
        fill: url(#Degradado_sin_nombre_21-5);
        filter: url(#drop-shadow-10);
      }
    </style>
    <filter id="drop-shadow-1" filterUnits="userSpaceOnUse">
      <feOffset dx="0" dy="0"/>
      <feGaussianBlur result="blur" stdDeviation="2"/>
      <feFlood flood-color="#1d1d1b" flood-opacity=".35"/>
      <feComposite in2="blur" operator="in"/>
      <feComposite in="SourceGraphic"/>
    </filter>
    <linearGradient id="Degradado_sin_nombre_21" data-name="Degradado sin nombre 21" x1="180.92" y1="370.91" x2="271.36" y2="370.91" gradientTransform="translate(642.52 -21.5) rotate(81.02)" gradientUnits="userSpaceOnUse">
      <stop offset="0" stop-color="#f9f9f9"/>
      <stop offset=".98" stop-color="#dadaea"/>
    </linearGradient>
    <filter id="drop-shadow-2" filterUnits="userSpaceOnUse">
      <feOffset dx="0" dy="0"/>
      <feGaussianBlur result="blur-2" stdDeviation="2"/>
      <feFlood flood-color="#1d1d1b" flood-opacity=".35"/>
      <feComposite in2="blur-2" operator="in"/>
      <feComposite in="SourceGraphic"/>
    </filter>
    <filter id="drop-shadow-3" filterUnits="userSpaceOnUse">
      <feOffset dx="0" dy="0"/>
      <feGaussianBlur result="blur-3" stdDeviation="2"/>
      <feFlood flood-color="#1d1d1b" flood-opacity=".35"/>
      <feComposite in2="blur-3" operator="in"/>
      <feComposite in="SourceGraphic"/>
    </filter>
    <linearGradient id="Degradado_sin_nombre_21-2" data-name="Degradado sin nombre 21" x1="617.84" y1="267.61" x2="708.28" y2="267.61" gradientTransform="translate(921.23 -436.93) rotate(81.02)" xlink:href="#Degradado_sin_nombre_21"/>
    <filter id="drop-shadow-4" filterUnits="userSpaceOnUse">
      <feOffset dx="0" dy="0"/>
      <feGaussianBlur result="blur-4" stdDeviation="2"/>
      <feFlood flood-color="#1d1d1b" flood-opacity=".35"/>
      <feComposite in2="blur-4" operator="in"/>
      <feComposite in="SourceGraphic"/>
    </filter>
    <filter id="drop-shadow-5" filterUnits="userSpaceOnUse">
      <feOffset dx="0" dy="0"/>
      <feGaussianBlur result="blur-5" stdDeviation="2"/>
      <feFlood flood-color="#1d1d1b" flood-opacity=".35"/>
      <feComposite in2="blur-5" operator="in"/>
      <feComposite in="SourceGraphic"/>
    </filter>
    <linearGradient id="Degradado_sin_nombre_21-3" data-name="Degradado sin nombre 21" x1="361.71" y1="160.19" x2="452.15" y2="160.19" gradientTransform="translate(630.58 -330.64) rotate(81.02)" xlink:href="#Degradado_sin_nombre_21"/>
    <filter id="drop-shadow-6" filterUnits="userSpaceOnUse">
      <feOffset dx="0" dy="0"/>
      <feGaussianBlur result="blur-6" stdDeviation="2"/>
      <feFlood flood-color="#1d1d1b" flood-opacity=".35"/>
      <feComposite in2="blur-6" operator="in"/>
      <feComposite in="SourceGraphic"/>
    </filter>
    <filter id="drop-shadow-7" filterUnits="userSpaceOnUse">
      <feOffset dx="0" dy="0"/>
      <feGaussianBlur result="blur-7" stdDeviation="2"/>
      <feFlood flood-color="#1d1d1b" flood-opacity=".35"/>
      <feComposite in2="blur-7" operator="in"/>
      <feComposite in="SourceGraphic"/>
    </filter>
    <linearGradient id="Degradado_sin_nombre_21-4" data-name="Degradado sin nombre 21" x1="1050.61" y1="165.28" x2="1141.05" y2="165.28" gradientTransform="translate(1197.28 -848.41) rotate(81.02)" xlink:href="#Degradado_sin_nombre_21"/>
    <filter id="drop-shadow-8" filterUnits="userSpaceOnUse">
      <feOffset dx="0" dy="0"/>
      <feGaussianBlur result="blur-8" stdDeviation="2"/>
      <feFlood flood-color="#1d1d1b" flood-opacity=".35"/>
      <feComposite in2="blur-8" operator="in"/>
      <feComposite in="SourceGraphic"/>
    </filter>
    <filter id="drop-shadow-9" filterUnits="userSpaceOnUse">
      <feOffset dx="0" dy="0"/>
      <feGaussianBlur result="blur-9" stdDeviation="2"/>
      <feFlood flood-color="#1d1d1b" flood-opacity=".35"/>
      <feComposite in2="blur-9" operator="in"/>
      <feComposite in="SourceGraphic"/>
    </filter>
    <linearGradient id="Degradado_sin_nombre_21-5" data-name="Degradado sin nombre 21" x1="794.47" y1="57.87" x2="884.92" y2="57.87" gradientTransform="translate(906.63 -742.12) rotate(81.02)" xlink:href="#Degradado_sin_nombre_21"/>
    <filter id="drop-shadow-10" filterUnits="userSpaceOnUse">
      <feOffset dx="0" dy="0"/>
      <feGaussianBlur result="blur-10" stdDeviation="2"/>
      <feFlood flood-color="#1d1d1b" flood-opacity=".35"/>
      <feComposite in2="blur-10" operator="in"/>
      <feComposite in="SourceGraphic"/>
    </filter>
    <filter id="drop-shadow-11" filterUnits="userSpaceOnUse">
      <feOffset dx="0" dy="0"/>
      <feGaussianBlur result="blur-11" stdDeviation="2"/>
      <feFlood flood-color="#1d1d1b" flood-opacity=".35"/>
      <feComposite in2="blur-11" operator="in"/>
      <feComposite in="SourceGraphic"/>
    </filter>
    <linearGradient id="Degradado_sin_nombre_21-6" data-name="Degradado sin nombre 21" x1="1215.1" y1="-41.59" x2="1305.54" y2="-41.59" gradientTransform="translate(1174.95 -1142.06) rotate(81.02)" xlink:href="#Degradado_sin_nombre_21"/>
    <filter id="drop-shadow-12" filterUnits="userSpaceOnUse">
      <feOffset dx="0" dy="0"/>
      <feGaussianBlur result="blur-12" stdDeviation="2"/>
      <feFlood flood-color="#1d1d1b" flood-opacity=".35"/>
      <feComposite in2="blur-12" operator="in"/>
      <feComposite in="SourceGraphic"/>
    </filter>
    <filter id="drop-shadow-13" filterUnits="userSpaceOnUse">
      <feOffset dx="0" dy="0"/>
      <feGaussianBlur result="blur-13" stdDeviation="2"/>
      <feFlood flood-color="#1d1d1b" flood-opacity=".35"/>
      <feComposite in2="blur-13" operator="in"/>
      <feComposite in="SourceGraphic"/>
    </filter>
    <linearGradient id="Degradado_sin_nombre_21-7" data-name="Degradado sin nombre 21" x1="-79.46" y1="263.07" x2="10.98" y2="263.07" gradientTransform="translate(348.08 87.67) rotate(81.02)" xlink:href="#Degradado_sin_nombre_21"/>
    <filter id="drop-shadow-14" filterUnits="userSpaceOnUse">
      <feOffset dx="0" dy="0"/>
      <feGaussianBlur result="blur-14" stdDeviation="2"/>
      <feFlood flood-color="#1d1d1b" flood-opacity=".35"/>
      <feComposite in2="blur-14" operator="in"/>
      <feComposite in="SourceGraphic"/>
    </filter>
  </defs>
  <g id="Capa_1" data-name="Capa 1">
    <path class="cls-3" d="M1210.77,307.99c-73.23,0-109.33-56.85-138.34-102.52-28.94-45.57-48.54-73.5-85.23-73.5s-56.28,27.93-85.22,73.5c-29.01,45.67-65.1,102.52-138.33,102.52s-109.33-56.85-138.33-102.52c-28.94-45.57-48.53-73.5-85.22-73.5s-56.28,27.93-85.21,73.5c-29,45.68-65.1,102.52-138.33,102.52s-109.33-56.85-138.33-102.52c-28.94-45.57-48.53-73.5-85.22-73.5-17.31,0-31.35-13.86-31.35-30.97s14.04-30.97,31.35-30.97c73.23,0,109.33,56.85,138.33,102.52,28.94,45.57,48.53,73.5,85.22,73.5s56.28-27.93,85.21-73.5c29-45.68,65.1-102.52,138.33-102.52s109.33,56.85,138.33,102.52c28.94,45.57,48.53,73.5,85.22,73.5s56.28-27.93,85.22-73.5c29.01-45.68,65.1-102.52,138.34-102.52s109.33,56.85,138.34,102.52c28.94,45.57,48.54,73.5,85.23,73.5s56.29-27.93,85.23-73.5c29.01-45.67,65.11-102.52,138.34-102.52,17.31,0,31.35,13.86,31.35,30.97s-14.03,30.97-31.35,30.97c-36.69,0-56.29,27.93-85.23,73.5-29.01,45.67-65.11,102.52-138.34,102.52Z"/>
    <g>
      <circle class="cls-4" cx="311.47" cy="259.78" r="63.28" transform="translate(-78.3 147.61) rotate(-23.77)"/>
      <circle class="cls-10" cx="311.47" cy="259.78" r="55.71" transform="translate(-78.28 147.55) rotate(-23.77)"/>
      <circle class="cls-6" cx="311.47" cy="259.78" r="45.22" transform="translate(-47.03 449.47) rotate(-67.71)"/>
    </g>
    <g>
      <circle class="cls-4" cx="760.44" cy="259.78" r="63.28" transform="translate(-40.2 328.61) rotate(-23.77)"/>
      <circle class="cls-17" cx="760.44" cy="259.78" r="55.71" transform="translate(-40.21 328.48) rotate(-23.77)"/>
      <circle class="cls-5" cx="760.44" cy="259.78" r="45.22" transform="translate(231.68 864.9) rotate(-67.71)"/>
    </g>
    <g>
      <circle class="cls-4" cx="535.89" cy="96.31" r="63.28" transform="translate(6.65 224.22) rotate(-23.77)"/>
      <circle class="cls-14" cx="535.89" cy="96.31" r="55.71" transform="translate(6.63 224.13) rotate(-23.77)"/>
      <circle class="cls-7" cx="535.89" cy="96.31" r="45.22" transform="translate(243.55 555.65) rotate(-67.71)"/>
    </g>
    <g>
      <circle class="cls-4" cx="1205.13" cy="259.78" r="63.28" transform="translate(-2.46 507.89) rotate(-23.77)"/>
      <circle class="cls-8" cx="1205.13" cy="259.78" r="55.71" transform="translate(-2.5 507.69) rotate(-23.77)"/>
      <circle class="cls-12" cx="1205.13" cy="259.78" r="45.22" transform="translate(507.73 1276.38) rotate(-67.71)"/>
    </g>
    <g>
      <circle class="cls-4" cx="980.59" cy="96.31" r="63.28" transform="translate(44.39 403.49) rotate(-23.77)"/>
      <circle class="cls-1" cx="980.59" cy="96.31" r="55.71" transform="translate(44.34 403.34) rotate(-23.77)"/>
      <circle class="cls-18" cx="980.59" cy="96.31" r="45.22" transform="translate(519.6 967.13) rotate(-67.71)"/>
    </g>
    <g>
      <circle class="cls-4" cx="1412.82" cy="96.31" r="63.28" transform="translate(81.07 577.74) rotate(-23.77)"/>
      <circle class="cls-13" cx="1412.82" cy="96.31" r="55.71" transform="translate(80.99 577.53) rotate(-23.77)"/>
      <circle class="cls-9" cx="1412.82" cy="96.31" r="45.22" transform="translate(787.92 1367.07) rotate(-67.71)"/>
    </g>
    <g>
      <g>
        <circle class="cls-4" cx="82.89" cy="94.93" r="63.28" transform="translate(-31.24 41.47) rotate(-23.77)"/>
        <circle class="cls-11" cx="82.89" cy="94.93" r="55.71" transform="translate(-31.23 41.45) rotate(-23.77)"/>
        <circle class="cls-16" cx="82.89" cy="94.93" r="45.22" transform="translate(-36.38 135.63) rotate(-67.71)"/>
      </g>
      <g>
        <path class="cls-19" d="M1413.34,106.23v-5.71h-4.37c-.33-1.47-.91-2.85-1.7-4.09l3.09-3.09-4.04-4.04-3.09,3.09c-1.24-.78-2.61-1.37-4.09-1.7v-4.37h-5.71v4.37c-1.47.33-2.85.91-4.09,1.7l-3.09-3.09-4.04,4.04,3.09,3.09c-.78,1.24-1.37,2.61-1.7,4.09h-4.37v5.71h4.37c.33,1.47.91,2.85,1.7,4.09l-3.09,3.09,4.04,4.04,3.09-3.09c1.24.78,2.61,1.37,4.09,1.7v4.37h5.71v-4.37c1.47-.33,2.85-.91,4.09-1.7l3.09,3.09,4.04-4.04-3.09-3.09c.78-1.24,1.37-2.61,1.7-4.09h4.37ZM1396.29,109.88c-3.59,0-6.5-2.91-6.5-6.5s2.91-6.5,6.5-6.5,6.5,2.91,6.5,6.5-2.91,6.5-6.5,6.5Z"/>
        <path class="cls-19" d="M1447.22,88.33v-5.71h-4.37c-.33-1.47-.91-2.85-1.7-4.09l3.09-3.09-4.04-4.04-3.09,3.09c-1.24-.78-2.61-1.37-4.09-1.7v-4.37h-5.71v4.37c-1.47.33-2.85.91-4.09,1.7l-3.09-3.09-4.04,4.04,3.09,3.09c-.78,1.24-1.37,2.61-1.7,4.09h-4.37v5.71h4.37c.33,1.47.91,2.85,1.7,4.09l-3.09,3.09,4.04,4.04,3.09-3.09c1.24.78,2.61,1.37,4.09,1.7v4.37h5.71v-4.37c1.47-.33,2.85-.91,4.09-1.7l3.09,3.09,4.04-4.04-3.09-3.09c.78-1.24,1.37-2.61,1.7-4.09h4.37ZM1430.17,91.98c-3.59,0-6.5-2.91-6.5-6.5s2.91-6.5,6.5-6.5,6.5,2.91,6.5,6.5-2.91,6.5-6.5,6.5Z"/>
      </g>
    </g>
    <g>
      <path class="cls-3" d="M318.79,164.63c0,5.33-4.32,9.64-9.64,9.64s-9.64-4.32-9.64-9.64,4.32-9.64,9.64-9.64,9.64,4.32,9.64,9.64Z"/>
      <line class="cls-20" x1="309.15" y1="154.99" x2="309.15" y2="47.01"/>
    </g>
    <g>
      <path class="cls-3" d="M68.4,183.33c0-5.33,4.32-9.64,9.64-9.64s9.64,4.32,9.64,9.64-4.32,9.64-9.64,9.64-9.64-4.32-9.64-9.64Z"/>
      <line class="cls-20" x1="78.05" y1="192.97" x2="78.05" y2="300.95"/>
    </g>
    <g>
      <path class="cls-3" d="M7.74,332.28h10.65v4.45H2.04v-20.36h15.97v4.45H7.74v11.46ZM7.33,324.25h9.46v4.31H7.33v-4.31Z"/>
      <path class="cls-3" d="M27,336.99c-1.34,0-2.64-.16-3.91-.47-1.27-.31-2.29-.7-3.07-1.16l1.66-3.78c.74.45,1.6.8,2.59,1.06.99.26,1.96.39,2.91.39s1.58-.1,1.93-.29c.36-.19.54-.46.54-.79,0-.31-.17-.54-.51-.68-.34-.15-.79-.26-1.34-.33s-1.16-.17-1.82-.26c-.66-.1-1.32-.23-1.99-.39-.67-.16-1.28-.42-1.83-.76-.55-.34-.99-.8-1.32-1.38s-.49-1.32-.49-2.21c0-1.01.29-1.91.89-2.69.59-.79,1.46-1.41,2.6-1.86,1.14-.46,2.54-.68,4.19-.68,1.11,0,2.23.11,3.36.33,1.13.22,2.09.56,2.87,1l-1.66,3.75c-.78-.45-1.55-.75-2.33-.92-.78-.16-1.51-.25-2.21-.25-.93,0-1.58.11-1.96.32-.38.21-.57.48-.57.79s.16.55.49.71c.33.17.77.29,1.32.38.55.09,1.16.17,1.82.26.66.09,1.32.22,1.99.39.67.17,1.28.43,1.83.77.55.34.99.8,1.32,1.37.33.57.5,1.3.5,2.2,0,.97-.3,1.84-.89,2.62-.59.78-1.46,1.4-2.62,1.86-1.15.47-2.58.7-4.29.7Z"/>
      <path class="cls-3" d="M35.52,325.67v-4.13h11.43v4.13h-11.43ZM44.22,336.99c-2.02,0-3.59-.5-4.71-1.5s-1.69-2.51-1.69-4.52v-13.53h5.53v13.47c0,.56.16,1,.46,1.32.31.32.71.48,1.19.48.66,0,1.22-.17,1.69-.5l1.37,3.87c-.47.31-1.04.54-1.72.68s-1.39.22-2.12.22Z"/>
      <path class="cls-3" d="M50.18,336.73v-15.77h5.27v4.6l-.79-1.31c.47-1.18,1.22-2.07,2.27-2.66,1.05-.59,2.32-.89,3.81-.89v4.97c-.25-.04-.47-.06-.65-.07-.18,0-.38-.01-.6-.01-1.12,0-2.04.31-2.73.92-.7.61-1.05,1.6-1.05,2.98v7.24h-5.53Z"/>
      <path class="cls-3" d="M69.7,336.99c-1.28,0-2.43-.25-3.45-.76-1.02-.5-1.81-1.29-2.39-2.37-.57-1.08-.86-2.44-.86-4.09v-8.81h5.53v7.91c0,1.22.23,2.09.68,2.62.46.52,1.1.79,1.93.79.54,0,1.04-.13,1.48-.38s.8-.65,1.08-1.21c.27-.55.41-1.26.41-2.14v-7.59h5.53v15.77h-5.27v-4.45l1.02,1.25c-.54,1.16-1.33,2.03-2.36,2.6-1.03.57-2.14.86-3.35.86Z"/>
      <path class="cls-3" d="M91.26,336.99c-1.75,0-3.3-.35-4.67-1.05s-2.44-1.66-3.21-2.89c-.78-1.23-1.16-2.64-1.16-4.23s.39-3,1.16-4.22c.78-1.22,1.85-2.18,3.21-2.87s2.92-1.03,4.67-1.03,3.33.38,4.63,1.13c1.3.76,2.22,1.82,2.76,3.2l-4.28,2.18c-.37-.74-.83-1.28-1.37-1.62-.54-.34-1.13-.51-1.78-.51s-1.22.15-1.75.44-.94.71-1.24,1.27-.45,1.23-.45,2.02.15,1.5.45,2.07.71.99,1.24,1.28,1.11.44,1.75.44,1.23-.17,1.78-.51c.54-.34,1-.88,1.37-1.61l4.28,2.18c-.54,1.38-1.46,2.44-2.76,3.2-1.3.76-2.84,1.13-4.63,1.13Z"/>
      <path class="cls-3" d="M99.35,325.67v-4.13h11.43v4.13h-11.43ZM108.05,336.99c-2.02,0-3.59-.5-4.71-1.5s-1.69-2.51-1.69-4.52v-13.53h5.53v13.47c0,.56.16,1,.46,1.32.31.32.71.48,1.19.48.66,0,1.22-.17,1.69-.5l1.37,3.87c-.47.31-1.04.54-1.72.68s-1.39.22-2.12.22Z"/>
      <path class="cls-3" d="M120.64,336.99c-1.28,0-2.43-.25-3.45-.76-1.02-.5-1.81-1.29-2.39-2.37-.57-1.08-.86-2.44-.86-4.09v-8.81h5.53v7.91c0,1.22.23,2.09.68,2.62.46.52,1.1.79,1.93.79.54,0,1.04-.13,1.48-.38s.8-.65,1.08-1.21c.27-.55.41-1.26.41-2.14v-7.59h5.53v15.77h-5.27v-4.45l1.02,1.25c-.54,1.16-1.33,2.03-2.36,2.6-1.03.57-2.14.86-3.35.86Z"/>
      <path class="cls-3" d="M134.14,336.73v-15.77h5.27v4.6l-.79-1.31c.47-1.18,1.22-2.07,2.27-2.66,1.05-.59,2.32-.89,3.81-.89v4.97c-.25-.04-.47-.06-.65-.07-.18,0-.38-.01-.6-.01-1.12,0-2.04.31-2.73.92-.7.61-1.05,1.6-1.05,2.98v7.24h-5.53Z"/>
      <path class="cls-3" d="M150.99,336.99c-1.26,0-2.33-.21-3.2-.64-.87-.43-1.54-1.01-1.99-1.75-.46-.74-.68-1.56-.68-2.47,0-.97.25-1.81.74-2.52.5-.71,1.26-1.25,2.28-1.63,1.03-.38,2.36-.57,3.99-.57h3.72v2.88h-2.97c-.89,0-1.52.15-1.88.44-.36.29-.54.68-.54,1.16s.18.87.55,1.16c.37.29.87.44,1.51.44.6,0,1.15-.15,1.64-.45.5-.3.86-.76,1.09-1.38l.76,2.04c-.29,1.09-.86,1.91-1.7,2.46s-1.95.83-3.33.83ZM155.64,336.73v-2.94l-.38-.73v-5.41c0-.87-.27-1.55-.8-2.02-.53-.47-1.38-.71-2.54-.71-.76,0-1.52.12-2.3.36-.78.24-1.44.58-1.98,1l-1.86-3.75c.89-.58,1.96-1.03,3.21-1.35s2.5-.48,3.74-.48c2.56,0,4.54.59,5.95,1.76s2.11,3.01,2.11,5.51v8.76h-5.15Z"/>
    </g>
    <g>
      <path class="cls-3" d="M524.4,183.33c0-5.33,4.32-9.64,9.64-9.64s9.64,4.32,9.64,9.64-4.32,9.64-9.64,9.64-9.64-4.32-9.64-9.64Z"/>
      <line class="cls-20" x1="534.05" y1="192.97" x2="534.05" y2="300.95"/>
    </g>
    <g>
      <path class="cls-3" d="M458.04,336.73v-20.36h9.31c1.86,0,3.47.3,4.82.9,1.35.6,2.39,1.47,3.13,2.6.74,1.13,1.11,2.48,1.11,4.03s-.37,2.86-1.11,3.97-1.78,1.97-3.13,2.56c-1.35.59-2.95.89-4.82.89h-6.11l2.56-2.42v7.83h-5.76ZM463.8,329.51l-2.56-2.65h5.76c1.2,0,2.1-.26,2.69-.79.59-.52.89-1.25.89-2.18s-.3-1.69-.89-2.21c-.59-.52-1.49-.79-2.69-.79h-5.76l2.56-2.65v11.26ZM470.63,336.73l-5.06-7.42h6.14l5.09,7.42h-6.17Z"/>
      <path class="cls-3" d="M487.57,336.99c-1.86,0-3.49-.35-4.87-1.06-1.39-.71-2.46-1.68-3.23-2.91-.77-1.23-1.15-2.63-1.15-4.2s.37-2.97,1.12-4.2c.75-1.23,1.78-2.19,3.1-2.88,1.32-.69,2.8-1.03,4.45-1.03,1.55,0,2.97.32,4.25.95s2.3,1.56,3.05,2.78c.76,1.22,1.13,2.71,1.13,4.45,0,.19,0,.42-.03.67s-.04.48-.06.7h-12.48v-2.91h9.54l-2.09.81c.02-.72-.11-1.34-.39-1.86-.28-.52-.67-.93-1.16-1.22-.49-.29-1.07-.44-1.73-.44s-1.24.15-1.73.44c-.49.29-.88.7-1.15,1.24-.27.53-.41,1.16-.41,1.88v.84c0,.78.16,1.44.48,2.01s.78.99,1.38,1.29c.6.3,1.32.45,2.15.45.78,0,1.44-.11,1.99-.33s1.1-.57,1.64-1.03l2.91,3.03c-.76.83-1.69,1.47-2.79,1.91s-2.41.65-3.93.65Z"/>
      <path class="cls-3" d="M518.52,320.7c1.22,0,2.31.25,3.27.74.96.5,1.72,1.26,2.27,2.28s.83,2.36.83,3.99v9.02h-5.53v-8.12c0-1.12-.21-1.94-.64-2.46-.43-.51-1.01-.77-1.75-.77-.52,0-1,.13-1.42.38-.43.25-.76.64-.99,1.15-.23.51-.35,1.18-.35,1.99v7.83h-5.53v-8.12c0-1.12-.21-1.94-.62-2.46-.42-.51-1-.77-1.76-.77-.54,0-1.02.13-1.44.38-.42.25-.75.64-.99,1.15-.24.51-.36,1.18-.36,1.99v7.83h-5.53v-15.77h5.27v4.39l-1.05-1.25c.58-1.12,1.38-1.97,2.39-2.55,1.01-.57,2.13-.86,3.37-.86,1.42,0,2.66.36,3.74,1.09,1.08.73,1.8,1.86,2.17,3.39l-1.8-.38c.56-1.28,1.41-2.28,2.54-3.01,1.13-.73,2.44-1.09,3.91-1.09Z"/>
      <path class="cls-3" d="M536.5,336.99c-1.73,0-3.26-.35-4.6-1.05-1.34-.7-2.39-1.66-3.16-2.89-.77-1.23-1.15-2.64-1.15-4.23s.38-3,1.15-4.22c.77-1.22,1.82-2.18,3.16-2.87,1.34-.69,2.87-1.03,4.6-1.03s3.26.34,4.61,1.03c1.35.69,2.4,1.64,3.16,2.87.76,1.22,1.13,2.63,1.13,4.22s-.38,3-1.13,4.23c-.76,1.23-1.81,2.2-3.16,2.89-1.35.7-2.88,1.05-4.61,1.05ZM536.5,332.6c.64,0,1.21-.15,1.7-.44.49-.29.89-.72,1.18-1.29.29-.57.44-1.25.44-2.05s-.15-1.47-.44-2.02c-.29-.55-.68-.97-1.18-1.27-.5-.29-1.06-.44-1.7-.44s-1.18.15-1.67.44c-.49.29-.89.71-1.19,1.27s-.45,1.23-.45,2.02.15,1.48.45,2.05c.3.57.7,1,1.19,1.29.5.29,1.05.44,1.67.44Z"/>
      <path class="cls-3" d="M554.83,336.99c-1.44,0-2.74-.33-3.91-1-1.17-.67-2.11-1.61-2.81-2.82s-1.05-2.66-1.05-4.35.35-3.11,1.05-4.32c.7-1.21,1.63-2.15,2.81-2.81,1.17-.66,2.48-.99,3.91-.99,1.36,0,2.51.29,3.45.87.94.58,1.65,1.47,2.14,2.68.49,1.2.73,2.72.73,4.57s-.23,3.42-.7,4.63c-.46,1.2-1.16,2.09-2.09,2.68-.93.58-2.1.87-3.52.87ZM555.99,332.6c.62,0,1.18-.15,1.67-.44.5-.29.89-.72,1.18-1.29.29-.57.44-1.25.44-2.05s-.15-1.47-.44-2.02-.68-.97-1.18-1.27c-.49-.29-1.05-.44-1.67-.44s-1.21.15-1.7.44c-.5.29-.89.71-1.18,1.27s-.44,1.23-.44,2.02.15,1.48.44,2.05c.29.57.68,1,1.18,1.29.49.29,1.06.44,1.7.44ZM559.45,336.73v-2.71l.03-5.21-.29-5.21v-8.47h5.53v21.59h-5.27Z"/>
      <path class="cls-3" d="M576.53,336.99c-1.86,0-3.49-.35-4.87-1.06-1.39-.71-2.46-1.68-3.23-2.91-.77-1.23-1.15-2.63-1.15-4.2s.37-2.97,1.12-4.2c.75-1.23,1.78-2.19,3.1-2.88,1.32-.69,2.8-1.03,4.45-1.03,1.55,0,2.97.32,4.25.95s2.3,1.56,3.05,2.78c.76,1.22,1.13,2.71,1.13,4.45,0,.19,0,.42-.03.67s-.04.48-.06.7h-12.48v-2.91h9.54l-2.09.81c.02-.72-.11-1.34-.39-1.86-.28-.52-.67-.93-1.16-1.22-.49-.29-1.07-.44-1.73-.44s-1.24.15-1.73.44c-.49.29-.88.7-1.15,1.24-.27.53-.41,1.16-.41,1.88v.84c0,.78.16,1.44.48,2.01s.78.99,1.38,1.29c.6.3,1.32.45,2.15.45.78,0,1.44-.11,1.99-.33s1.1-.57,1.64-1.03l2.91,3.03c-.76.83-1.69,1.47-2.79,1.91s-2.41.65-3.93.65Z"/>
      <path class="cls-3" d="M586.94,336.73v-21.59h5.53v21.59h-5.53Z"/>
      <path class="cls-3" d="M601.02,336.99c-1.26,0-2.33-.21-3.2-.64-.87-.43-1.54-1.01-1.99-1.75-.46-.74-.68-1.56-.68-2.47,0-.97.25-1.81.74-2.52.5-.71,1.26-1.25,2.28-1.63,1.03-.38,2.36-.57,3.99-.57h3.72v2.88h-2.97c-.89,0-1.52.15-1.88.44-.36.29-.54.68-.54,1.16s.18.87.55,1.16c.37.29.87.44,1.51.44.6,0,1.15-.15,1.64-.45.5-.3.86-.76,1.09-1.38l.76,2.04c-.29,1.09-.86,1.91-1.7,2.46s-1.95.83-3.33.83ZM605.68,336.73v-2.94l-.38-.73v-5.41c0-.87-.27-1.55-.8-2.02-.53-.47-1.38-.71-2.54-.71-.76,0-1.52.12-2.3.36-.78.24-1.44.58-1.98,1l-1.86-3.75c.89-.58,1.96-1.03,3.21-1.35s2.5-.48,3.74-.48c2.56,0,4.54.59,5.95,1.76s2.11,3.01,2.11,5.51v8.76h-5.15Z"/>
    </g>
    <g>
      <path class="cls-3" d="M973.4,183.33c0-5.33,4.32-9.64,9.64-9.64s9.64,4.32,9.64,9.64-4.32,9.64-9.64,9.64-9.64-4.32-9.64-9.64Z"/>
      <line class="cls-20" x1="983.05" y1="192.97" x2="983.05" y2="300.95"/>
    </g>
    <g>
      <path class="cls-3" d="M917.19,337.14c-1.61,0-3.1-.26-4.47-.77s-2.55-1.25-3.55-2.2c-1-.95-1.78-2.07-2.34-3.36s-.84-2.71-.84-4.26.28-2.97.84-4.26c.56-1.29,1.34-2.41,2.34-3.36,1-.95,2.18-1.68,3.55-2.2,1.37-.51,2.86-.77,4.47-.77,1.88,0,3.56.33,5.05.99,1.48.66,2.72,1.61,3.71,2.85l-3.67,3.32c-.66-.78-1.38-1.37-2.17-1.77s-1.66-.61-2.63-.61c-.83,0-1.6.14-2.3.41-.7.27-1.29.67-1.79,1.18-.5.51-.88,1.13-1.16,1.85s-.42,1.51-.42,2.38.14,1.67.42,2.39c.28.72.67,1.33,1.16,1.85.49.51,1.09.91,1.79,1.18.7.27,1.46.41,2.3.41.97,0,1.85-.2,2.63-.61s1.51-1,2.17-1.77l3.67,3.32c-.99,1.22-2.23,2.17-3.71,2.84-1.48.67-3.17,1-5.05,1Z"/>
      <path class="cls-3" d="M935.66,336.99c-1.73,0-3.26-.35-4.6-1.05-1.34-.7-2.39-1.66-3.16-2.89-.77-1.23-1.15-2.64-1.15-4.23s.38-3,1.15-4.22c.77-1.22,1.82-2.18,3.16-2.87,1.34-.69,2.87-1.03,4.6-1.03s3.26.34,4.61,1.03c1.35.69,2.4,1.64,3.16,2.87.76,1.22,1.13,2.63,1.13,4.22s-.38,3-1.13,4.23c-.76,1.23-1.81,2.2-3.16,2.89-1.35.7-2.88,1.05-4.61,1.05ZM935.66,332.6c.64,0,1.21-.15,1.7-.44.49-.29.89-.72,1.18-1.29.29-.57.44-1.25.44-2.05s-.15-1.47-.44-2.02c-.29-.55-.68-.97-1.18-1.27-.5-.29-1.06-.44-1.7-.44s-1.18.15-1.67.44c-.49.29-.89.71-1.19,1.27s-.45,1.23-.45,2.02.15,1.48.45,2.05c.3.57.7,1,1.19,1.29.5.29,1.05.44,1.67.44Z"/>
      <path class="cls-3" d="M957.39,320.7c1.22,0,2.33.25,3.32.74.99.5,1.77,1.26,2.34,2.28s.86,2.36.86,3.99v9.02h-5.53v-8.12c0-1.12-.23-1.94-.68-2.46-.46-.51-1.09-.77-1.91-.77-.58,0-1.12.13-1.6.39s-.86.66-1.13,1.21-.41,1.25-.41,2.12v7.62h-5.53v-15.77h5.27v4.48l-1.02-1.31c.6-1.14,1.42-2,2.47-2.58,1.05-.57,2.23-.86,3.55-.86Z"/>
      <path class="cls-3" d="M973.1,336.99c-1.34,0-2.64-.16-3.91-.47-1.27-.31-2.29-.7-3.07-1.16l1.66-3.78c.74.45,1.6.8,2.59,1.06.99.26,1.96.39,2.91.39s1.58-.1,1.93-.29c.36-.19.54-.46.54-.79,0-.31-.17-.54-.51-.68-.34-.15-.79-.26-1.34-.33s-1.16-.17-1.82-.26c-.66-.1-1.32-.23-1.99-.39-.67-.16-1.28-.42-1.83-.76-.55-.34-.99-.8-1.32-1.38s-.49-1.32-.49-2.21c0-1.01.29-1.91.89-2.69.59-.79,1.46-1.41,2.6-1.86,1.14-.46,2.54-.68,4.19-.68,1.11,0,2.23.11,3.36.33,1.13.22,2.09.56,2.87,1l-1.66,3.75c-.78-.45-1.55-.75-2.33-.92-.78-.16-1.51-.25-2.21-.25-.93,0-1.58.11-1.96.32-.38.21-.57.48-.57.79s.16.55.49.71c.33.17.77.29,1.32.38.55.09,1.16.17,1.82.26.66.09,1.32.22,1.99.39.67.17,1.28.43,1.83.77.55.34.99.8,1.32,1.37.33.57.5,1.3.5,2.2,0,.97-.3,1.84-.89,2.62-.59.78-1.46,1.4-2.62,1.86-1.15.47-2.58.7-4.29.7Z"/>
      <path class="cls-3" d="M986.05,319.21c-1.01,0-1.82-.28-2.44-.84-.62-.56-.93-1.26-.93-2.09s.31-1.53.93-2.09c.62-.56,1.43-.84,2.44-.84s1.82.27,2.44.8c.62.53.93,1.22.93,2.05s-.31,1.6-.92,2.17c-.61.57-1.43.86-2.46.86ZM983.29,336.73v-15.77h5.53v15.77h-5.53Z"/>
      <path class="cls-3" d="M999.14,335.91c-1.4,0-2.68-.32-3.86-.95-1.17-.63-2.11-1.51-2.82-2.65-.71-1.13-1.06-2.48-1.06-4.03s.35-2.89,1.06-4.03c.71-1.13,1.65-2.01,2.82-2.63,1.17-.62,2.46-.93,3.86-.93s2.48.27,3.43.8,1.67,1.36,2.17,2.49c.5,1.12.74,2.56.74,4.31s-.25,3.18-.74,4.31c-.49,1.12-1.22,1.96-2.17,2.5s-2.09.81-3.43.81ZM1000.1,342.63c-1.51,0-2.95-.17-4.32-.52-1.37-.35-2.54-.86-3.51-1.54l2.01-3.87c.66.52,1.48.94,2.46,1.24s1.93.45,2.87.45c1.49,0,2.57-.33,3.23-.97.66-.65.99-1.59.99-2.84v-1.86l.29-4.42-.03-4.45v-2.88h5.27v12.89c0,2.99-.8,5.2-2.42,6.63-1.61,1.43-3.89,2.15-6.84,2.15ZM1000.45,331.52c.66,0,1.25-.14,1.76-.41.51-.27.92-.65,1.22-1.13.3-.49.45-1.05.45-1.69s-.15-1.2-.45-1.69c-.3-.48-.71-.86-1.22-1.12s-1.1-.39-1.76-.39-1.25.13-1.77.39-.94.64-1.24,1.12c-.3.49-.45,1.05-.45,1.69s.15,1.2.45,1.69c.3.48.71.86,1.24,1.13.52.27,1.12.41,1.77.41Z"/>
      <path class="cls-3" d="M1023.17,320.7c1.22,0,2.33.25,3.32.74.99.5,1.77,1.26,2.34,2.28s.86,2.36.86,3.99v9.02h-5.53v-8.12c0-1.12-.23-1.94-.68-2.46-.46-.51-1.09-.77-1.91-.77-.58,0-1.12.13-1.6.39s-.86.66-1.13,1.21-.41,1.25-.41,2.12v7.62h-5.53v-15.77h5.27v4.48l-1.02-1.31c.6-1.14,1.42-2,2.47-2.58,1.05-.57,2.23-.86,3.55-.86Z"/>
      <path class="cls-3" d="M1038.12,336.99c-1.26,0-2.33-.21-3.2-.64-.87-.43-1.54-1.01-1.99-1.75-.46-.74-.68-1.56-.68-2.47,0-.97.25-1.81.74-2.52.5-.71,1.26-1.25,2.28-1.63,1.03-.38,2.36-.57,3.99-.57h3.72v2.88h-2.97c-.89,0-1.52.15-1.88.44-.36.29-.54.68-.54,1.16s.18.87.55,1.16c.37.29.87.44,1.51.44.6,0,1.15-.15,1.64-.45.5-.3.86-.76,1.09-1.38l.76,2.04c-.29,1.09-.86,1.91-1.7,2.46s-1.95.83-3.33.83ZM1042.78,336.73v-2.94l-.38-.73v-5.41c0-.87-.27-1.55-.8-2.02-.53-.47-1.38-.71-2.54-.71-.76,0-1.52.12-2.3.36-.78.24-1.44.58-1.98,1l-1.86-3.75c.89-.58,1.96-1.03,3.21-1.35s2.5-.48,3.74-.48c2.56,0,4.54.59,5.95,1.76s2.11,3.01,2.11,5.51v8.76h-5.15Z"/>
    </g>
    <g>
      <path class="cls-3" d="M1409.4,183.33c0-5.33,4.32-9.64,9.64-9.64s9.64,4.32,9.64,9.64-4.32,9.64-9.64,9.64-9.64-4.32-9.64-9.64Z"/>
      <line class="cls-20" x1="1419.05" y1="192.97" x2="1419.05" y2="300.95"/>
    </g>
    <g>
      <path class="cls-3" d="M1353.31,337.14c-1.63,0-3.13-.26-4.51-.79-1.38-.52-2.58-1.27-3.59-2.23-1.02-.96-1.81-2.08-2.37-3.36s-.84-2.69-.84-4.22.28-2.94.84-4.22,1.35-2.4,2.37-3.36c1.02-.96,2.21-1.7,3.59-2.23,1.38-.52,2.88-.79,4.51-.79s3.16.26,4.52.79,2.55,1.27,3.56,2.23c1.01.96,1.8,2.08,2.37,3.36s.86,2.69.86,4.22-.29,2.94-.86,4.23-1.36,2.41-2.37,3.36c-1.01.95-2.2,1.69-3.56,2.21-1.37.52-2.88.79-4.52.79ZM1353.31,332.36c.78,0,1.5-.13,2.17-.41.67-.27,1.25-.66,1.75-1.18.5-.51.88-1.13,1.16-1.85.28-.72.42-1.51.42-2.39s-.14-1.69-.42-2.4c-.28-.71-.67-1.32-1.16-1.83-.49-.51-1.08-.91-1.75-1.18-.67-.27-1.39-.41-2.17-.41s-1.5.14-2.17.41c-.67.27-1.25.67-1.75,1.18-.5.51-.88,1.12-1.16,1.83s-.42,1.51-.42,2.4.14,1.67.42,2.39c.28.72.67,1.33,1.16,1.85.49.51,1.08.91,1.75,1.18.67.27,1.39.41,2.17.41Z"/>
      <path class="cls-3" d="M1367.39,342.37v-21.41h5.27v2.68l-.03,5.21.29,5.24v8.29h-5.53ZM1377.31,336.99c-1.34,0-2.48-.29-3.43-.89s-1.67-1.48-2.17-2.68c-.49-1.19-.74-2.72-.74-4.58s.23-3.42.7-4.61c.47-1.19,1.17-2.08,2.11-2.66s2.12-.87,3.54-.87,2.74.33,3.91,1c1.17.67,2.1,1.61,2.79,2.82s1.03,2.65,1.03,4.32-.34,3.11-1.03,4.33c-.69,1.22-1.62,2.16-2.79,2.82-1.17.66-2.48.99-3.91.99ZM1376.14,332.6c.62,0,1.18-.15,1.67-.44.5-.29.89-.72,1.19-1.28s.45-1.24.45-2.04-.15-1.47-.45-2.04c-.3-.56-.7-.99-1.19-1.28-.49-.29-1.05-.44-1.67-.44s-1.18.15-1.67.44c-.49.29-.89.72-1.19,1.28-.3.56-.45,1.24-.45,2.04s.15,1.47.45,2.04c.3.56.7.99,1.19,1.28.5.29,1.05.44,1.67.44Z"/>
      <path class="cls-3" d="M1395.87,336.99c-1.86,0-3.49-.35-4.87-1.06-1.39-.71-2.46-1.68-3.23-2.91-.77-1.23-1.15-2.63-1.15-4.2s.37-2.97,1.12-4.2c.75-1.23,1.78-2.19,3.1-2.88,1.32-.69,2.8-1.03,4.45-1.03,1.55,0,2.97.32,4.25.95s2.3,1.56,3.05,2.78c.76,1.22,1.13,2.71,1.13,4.45,0,.19,0,.42-.03.67s-.04.48-.06.7h-12.48v-2.91h9.54l-2.09.81c.02-.72-.11-1.34-.39-1.86-.28-.52-.67-.93-1.16-1.22-.49-.29-1.07-.44-1.73-.44s-1.24.15-1.73.44c-.49.29-.88.7-1.15,1.24-.27.53-.41,1.16-.41,1.88v.84c0,.78.16,1.44.48,2.01s.78.99,1.38,1.29c.6.3,1.32.45,2.15.45.78,0,1.44-.11,1.99-.33s1.1-.57,1.64-1.03l2.91,3.03c-.76.83-1.69,1.47-2.79,1.91s-2.41.65-3.93.65Z"/>
      <path class="cls-3" d="M1406.28,336.73v-15.77h5.27v4.6l-.79-1.31c.47-1.18,1.22-2.07,2.27-2.66,1.05-.59,2.32-.89,3.81-.89v4.97c-.25-.04-.47-.06-.65-.07-.18,0-.38-.01-.6-.01-1.12,0-2.04.31-2.73.92-.7.61-1.05,1.6-1.05,2.98v7.24h-5.53Z"/>
      <path class="cls-3" d="M1423.13,336.99c-1.26,0-2.33-.21-3.2-.64-.87-.43-1.54-1.01-1.99-1.75-.46-.74-.68-1.56-.68-2.47,0-.97.25-1.81.74-2.52.5-.71,1.26-1.25,2.28-1.63,1.03-.38,2.36-.57,3.99-.57h3.72v2.88h-2.97c-.89,0-1.52.15-1.88.44-.36.29-.54.68-.54,1.16s.18.87.55,1.16c.37.29.87.44,1.51.44.6,0,1.15-.15,1.64-.45.5-.3.86-.76,1.09-1.38l.76,2.04c-.29,1.09-.86,1.91-1.7,2.46s-1.95.83-3.33.83ZM1427.78,336.73v-2.94l-.38-.73v-5.41c0-.87-.27-1.55-.8-2.02-.53-.47-1.38-.71-2.54-.71-.76,0-1.52.12-2.3.36-.78.24-1.44.58-1.98,1l-1.86-3.75c.89-.58,1.96-1.03,3.21-1.35s2.5-.48,3.74-.48c2.56,0,4.54.59,5.95,1.76s2.11,3.01,2.11,5.51v8.76h-5.15Z"/>
      <path class="cls-3" d="M1444.68,336.99c-1.75,0-3.3-.35-4.67-1.05s-2.44-1.66-3.21-2.89c-.78-1.23-1.16-2.64-1.16-4.23s.39-3,1.16-4.22c.78-1.22,1.85-2.18,3.21-2.87s2.92-1.03,4.67-1.03,3.33.38,4.63,1.13c1.3.76,2.22,1.82,2.76,3.2l-4.28,2.18c-.37-.74-.83-1.28-1.37-1.62-.54-.34-1.13-.51-1.78-.51s-1.22.15-1.75.44-.94.71-1.24,1.27-.45,1.23-.45,2.02.15,1.5.45,2.07.71.99,1.24,1.28,1.11.44,1.75.44,1.23-.17,1.78-.51c.54-.34,1-.88,1.37-1.61l4.28,2.18c-.54,1.38-1.46,2.44-2.76,3.2-1.3.76-2.84,1.13-4.63,1.13Z"/>
      <path class="cls-3" d="M1456.87,319.21c-1.01,0-1.82-.28-2.44-.84-.62-.56-.93-1.26-.93-2.09s.31-1.53.93-2.09c.62-.56,1.43-.84,2.44-.84s1.82.27,2.44.8c.62.53.93,1.22.93,2.05s-.31,1.6-.92,2.17c-.61.57-1.43.86-2.46.86ZM1454.11,336.73v-15.77h5.53v15.77h-5.53Z"/>
      <path class="cls-3" d="M1471.13,336.99c-1.73,0-3.26-.35-4.6-1.05-1.34-.7-2.39-1.66-3.16-2.89-.77-1.23-1.15-2.64-1.15-4.23s.38-3,1.15-4.22c.77-1.22,1.82-2.18,3.16-2.87,1.34-.69,2.87-1.03,4.6-1.03s3.26.34,4.61,1.03c1.35.69,2.4,1.64,3.16,2.87.76,1.22,1.13,2.63,1.13,4.22s-.38,3-1.13,4.23c-.76,1.23-1.81,2.2-3.16,2.89-1.35.7-2.88,1.05-4.61,1.05ZM1471.13,332.6c.64,0,1.21-.15,1.7-.44.49-.29.89-.72,1.18-1.29.29-.57.44-1.25.44-2.05s-.15-1.47-.44-2.02c-.29-.55-.68-.97-1.18-1.27-.5-.29-1.06-.44-1.7-.44s-1.18.15-1.67.44c-.49.29-.89.71-1.19,1.27s-.45,1.23-.45,2.02.15,1.48.45,2.05c.3.57.7,1,1.19,1.29.5.29,1.05.44,1.67.44Z"/>
      <path class="cls-3" d="M1492.86,320.7c1.22,0,2.33.25,3.32.74.99.5,1.77,1.26,2.34,2.28s.86,2.36.86,3.99v9.02h-5.53v-8.12c0-1.12-.23-1.94-.68-2.46-.46-.51-1.09-.77-1.91-.77-.58,0-1.12.13-1.6.39s-.86.66-1.13,1.21-.41,1.25-.41,2.12v7.62h-5.53v-15.77h5.27v4.48l-1.02-1.31c.6-1.14,1.42-2,2.47-2.58,1.05-.57,2.23-.86,3.55-.86Z"/>
      <path class="cls-3" d="M1511.3,336.99c-1.86,0-3.49-.35-4.87-1.06-1.39-.71-2.46-1.68-3.23-2.91-.77-1.23-1.15-2.63-1.15-4.2s.37-2.97,1.12-4.2c.75-1.23,1.78-2.19,3.1-2.88,1.32-.69,2.8-1.03,4.45-1.03,1.55,0,2.97.32,4.25.95s2.3,1.56,3.05,2.78c.76,1.22,1.13,2.71,1.13,4.45,0,.19,0,.42-.03.67s-.04.48-.06.7h-12.48v-2.91h9.54l-2.09.81c.02-.72-.11-1.34-.39-1.86-.28-.52-.67-.93-1.16-1.22-.49-.29-1.07-.44-1.73-.44s-1.24.15-1.73.44c-.49.29-.88.7-1.15,1.24-.27.53-.41,1.16-.41,1.88v.84c0,.78.16,1.44.48,2.01s.78.99,1.38,1.29c.6.3,1.32.45,2.15.45.78,0,1.44-.11,1.99-.33s1.1-.57,1.64-1.03l2.91,3.03c-.76.83-1.69,1.47-2.79,1.91s-2.41.65-3.93.65Z"/>
      <path class="cls-3" d="M1527.45,336.99c-1.34,0-2.64-.16-3.91-.47-1.27-.31-2.29-.7-3.07-1.16l1.66-3.78c.74.45,1.6.8,2.59,1.06.99.26,1.96.39,2.91.39s1.58-.1,1.93-.29c.36-.19.54-.46.54-.79,0-.31-.17-.54-.51-.68-.34-.15-.79-.26-1.34-.33s-1.16-.17-1.82-.26c-.66-.1-1.32-.23-1.99-.39-.67-.16-1.28-.42-1.83-.76-.55-.34-.99-.8-1.32-1.38s-.49-1.32-.49-2.21c0-1.01.29-1.91.89-2.69.59-.79,1.46-1.41,2.6-1.86,1.14-.46,2.54-.68,4.19-.68,1.11,0,2.23.11,3.36.33,1.13.22,2.09.56,2.87,1l-1.66,3.75c-.78-.45-1.55-.75-2.33-.92-.78-.16-1.51-.25-2.21-.25-.93,0-1.58.11-1.96.32-.38.21-.57.48-.57.79s.16.55.49.71c.33.17.77.29,1.32.38.55.09,1.16.17,1.82.26.66.09,1.32.22,1.99.39.67.17,1.28.43,1.83.77.55.34.99.8,1.32,1.37.33.57.5,1.3.5,2.2,0,.97-.3,1.84-.89,2.62-.59.78-1.46,1.4-2.62,1.86-1.15.47-2.58.7-4.29.7Z"/>
      <path class="cls-3" d="M1343.04,361.73v-20.36h5.76v20.36h-5.76Z"/>
      <path class="cls-3" d="M1362.91,345.7c1.22,0,2.33.25,3.32.74.99.5,1.77,1.26,2.34,2.28s.86,2.36.86,3.99v9.02h-5.53v-8.12c0-1.12-.23-1.94-.68-2.46-.46-.51-1.09-.77-1.91-.77-.58,0-1.12.13-1.6.39s-.86.66-1.13,1.21-.41,1.25-.41,2.12v7.62h-5.53v-15.77h5.27v4.48l-1.02-1.31c.6-1.14,1.42-2,2.47-2.58,1.05-.57,2.23-.86,3.55-.86Z"/>
      <path class="cls-3" d="M1393.42,345.7c1.22,0,2.31.25,3.27.74.96.5,1.72,1.26,2.27,2.28s.83,2.36.83,3.99v9.02h-5.53v-8.12c0-1.12-.21-1.94-.64-2.46-.43-.51-1.01-.77-1.75-.77-.52,0-1,.13-1.42.38-.43.25-.76.64-.99,1.15-.23.51-.35,1.18-.35,1.99v7.83h-5.53v-8.12c0-1.12-.21-1.94-.62-2.46-.42-.51-1-.77-1.76-.77-.54,0-1.02.13-1.44.38-.42.25-.75.64-.99,1.15-.24.51-.36,1.18-.36,1.99v7.83h-5.53v-15.77h5.27v4.39l-1.05-1.25c.58-1.12,1.38-1.97,2.39-2.55,1.01-.57,2.13-.86,3.37-.86,1.42,0,2.66.36,3.74,1.09,1.08.73,1.8,1.86,2.17,3.39l-1.8-.38c.56-1.28,1.41-2.28,2.54-3.01,1.13-.73,2.44-1.09,3.91-1.09Z"/>
      <path class="cls-3" d="M1411.4,361.99c-1.73,0-3.26-.35-4.6-1.05-1.34-.7-2.39-1.66-3.16-2.89-.77-1.23-1.15-2.64-1.15-4.23s.38-3,1.15-4.22c.77-1.22,1.82-2.18,3.16-2.87,1.34-.69,2.87-1.03,4.6-1.03s3.26.34,4.61,1.03c1.35.69,2.4,1.64,3.16,2.87.76,1.22,1.13,2.63,1.13,4.22s-.38,3-1.13,4.23c-.76,1.23-1.81,2.2-3.16,2.89-1.35.7-2.88,1.05-4.61,1.05ZM1411.4,357.6c.64,0,1.21-.15,1.7-.44.49-.29.89-.72,1.18-1.29.29-.57.44-1.25.44-2.05s-.15-1.47-.44-2.02c-.29-.55-.68-.97-1.18-1.27-.5-.29-1.06-.44-1.7-.44s-1.18.15-1.67.44c-.49.29-.89.71-1.19,1.27s-.45,1.23-.45,2.02.15,1.48.45,2.05c.3.57.7,1,1.19,1.29.5.29,1.05.44,1.67.44Z"/>
      <path class="cls-3" d="M1422.86,361.73v-21.59h5.53v8.47l-.29,5.21.03,5.21v2.71h-5.27ZM1432.79,361.99c-1.42,0-2.59-.29-3.54-.87-.94-.58-1.64-1.47-2.11-2.68-.46-1.2-.7-2.74-.7-4.63s.25-3.36.74-4.57c.5-1.2,1.22-2.09,2.17-2.68s2.09-.87,3.43-.87c1.43,0,2.74.33,3.91.99,1.17.66,2.1,1.6,2.79,2.81.69,1.21,1.03,2.65,1.03,4.32s-.34,3.14-1.03,4.35-1.62,2.15-2.79,2.82c-1.17.67-2.48,1-3.91,1ZM1431.62,357.6c.62,0,1.18-.15,1.67-.44.5-.29.89-.72,1.19-1.29.3-.57.45-1.25.45-2.05s-.15-1.47-.45-2.02-.7-.97-1.19-1.27c-.49-.29-1.05-.44-1.67-.44s-1.18.15-1.67.44c-.49.29-.89.71-1.19,1.27-.3.55-.45,1.23-.45,2.02s.15,1.48.45,2.05c.3.57.7,1,1.19,1.29.5.29,1.05.44,1.67.44Z"/>
      <path class="cls-3" d="M1445.85,344.21c-1.01,0-1.82-.28-2.44-.84-.62-.56-.93-1.26-.93-2.09s.31-1.53.93-2.09c.62-.56,1.43-.84,2.44-.84s1.82.27,2.44.8c.62.53.93,1.22.93,2.05s-.31,1.6-.92,2.17c-.61.57-1.43.86-2.46.86ZM1443.08,361.73v-15.77h5.53v15.77h-5.53Z"/>
      <path class="cls-3" d="M1452.19,361.73v-21.59h5.53v21.59h-5.53Z"/>
      <path class="cls-3" d="M1464.06,344.21c-1.01,0-1.82-.28-2.44-.84-.62-.56-.93-1.26-.93-2.09s.31-1.53.93-2.09c.62-.56,1.43-.84,2.44-.84s1.82.27,2.44.8c.62.53.93,1.22.93,2.05s-.31,1.6-.92,2.17c-.61.57-1.43.86-2.46.86ZM1461.29,361.73v-15.77h5.53v15.77h-5.53Z"/>
      <path class="cls-3" d="M1475.37,361.99c-1.26,0-2.33-.21-3.2-.64-.87-.43-1.54-1.01-1.99-1.75-.46-.74-.68-1.56-.68-2.47,0-.97.25-1.81.74-2.52.5-.71,1.26-1.25,2.28-1.63,1.03-.38,2.36-.57,3.99-.57h3.72v2.88h-2.97c-.89,0-1.52.15-1.88.44-.36.29-.54.68-.54,1.16s.18.87.55,1.16c.37.29.87.44,1.51.44.6,0,1.15-.15,1.64-.45.5-.3.86-.76,1.09-1.38l.76,2.04c-.29,1.09-.86,1.91-1.7,2.46s-1.95.83-3.33.83ZM1480.03,361.73v-2.94l-.38-.73v-5.41c0-.87-.27-1.55-.8-2.02-.53-.47-1.38-.71-2.54-.71-.76,0-1.52.12-2.3.36-.78.24-1.44.58-1.98,1l-1.86-3.75c.89-.58,1.96-1.03,3.21-1.35s2.5-.48,3.74-.48c2.56,0,4.54.59,5.95,1.76s2.11,3.01,2.11,5.51v8.76h-5.15Z"/>
      <path class="cls-3" d="M1488.67,361.73v-15.77h5.27v4.6l-.79-1.31c.47-1.18,1.22-2.07,2.27-2.66,1.05-.59,2.32-.89,3.81-.89v4.97c-.25-.04-.47-.06-.65-.07-.18,0-.38-.01-.6-.01-1.12,0-2.04.31-2.73.92-.7.61-1.05,1.6-1.05,2.98v7.24h-5.53Z"/>
      <path class="cls-3" d="M1504.26,344.21c-1.01,0-1.82-.28-2.44-.84-.62-.56-.93-1.26-.93-2.09s.31-1.53.93-2.09c.62-.56,1.43-.84,2.44-.84s1.82.27,2.44.8c.62.53.93,1.22.93,2.05s-.31,1.6-.92,2.17c-.61.57-1.43.86-2.46.86ZM1501.5,361.73v-15.77h5.53v15.77h-5.53Z"/>
      <path class="cls-3" d="M1515.58,361.99c-1.26,0-2.33-.21-3.2-.64-.87-.43-1.54-1.01-1.99-1.75-.46-.74-.68-1.56-.68-2.47,0-.97.25-1.81.74-2.52.5-.71,1.26-1.25,2.28-1.63,1.03-.38,2.36-.57,3.99-.57h3.72v2.88h-2.97c-.89,0-1.52.15-1.88.44-.36.29-.54.68-.54,1.16s.18.87.55,1.16c.37.29.87.44,1.51.44.6,0,1.15-.15,1.64-.45.5-.3.86-.76,1.09-1.38l.76,2.04c-.29,1.09-.86,1.91-1.7,2.46s-1.95.83-3.33.83ZM1520.23,361.73v-2.94l-.38-.73v-5.41c0-.87-.27-1.55-.8-2.02-.53-.47-1.38-.71-2.54-.71-.76,0-1.52.12-2.3.36-.78.24-1.44.58-1.98,1l-1.86-3.75c.89-.58,1.96-1.03,3.21-1.35s2.5-.48,3.74-.48c2.56,0,4.54.59,5.95,1.76s2.11,3.01,2.11,5.51v8.76h-5.15Z"/>
      <path class="cls-3" d="M1534.6,361.99c-1.34,0-2.64-.16-3.91-.47-1.27-.31-2.29-.7-3.07-1.16l1.66-3.78c.74.45,1.6.8,2.59,1.06.99.26,1.96.39,2.91.39s1.58-.1,1.93-.29c.36-.19.54-.46.54-.79,0-.31-.17-.54-.51-.68-.34-.15-.79-.26-1.34-.33s-1.16-.17-1.82-.26c-.66-.1-1.32-.23-1.99-.39-.67-.16-1.28-.42-1.83-.76-.55-.34-.99-.8-1.32-1.38s-.49-1.32-.49-2.21c0-1.01.29-1.91.89-2.69.59-.79,1.46-1.41,2.6-1.86,1.14-.46,2.54-.68,4.19-.68,1.11,0,2.23.11,3.36.33,1.13.22,2.09.56,2.87,1l-1.66,3.75c-.78-.45-1.55-.75-2.33-.92-.78-.16-1.51-.25-2.21-.25-.93,0-1.58.11-1.96.32-.38.21-.57.48-.57.79s.16.55.49.71c.33.17.77.29,1.32.38.55.09,1.16.17,1.82.26.66.09,1.32.22,1.99.39.67.17,1.28.43,1.83.77.55.34.99.8,1.32,1.37.33.57.5,1.3.5,2.2,0,.97-.3,1.84-.89,2.62-.59.78-1.46,1.4-2.62,1.86-1.15.47-2.58.7-4.29.7Z"/>
    </g>
    <g>
      <path class="cls-3" d="M238.19,25.14c-1.61,0-3.1-.26-4.47-.77s-2.55-1.25-3.55-2.2c-1-.95-1.78-2.07-2.34-3.36s-.84-2.71-.84-4.26.28-2.97.84-4.26c.56-1.29,1.34-2.41,2.34-3.36,1-.95,2.18-1.68,3.55-2.2,1.37-.51,2.86-.77,4.47-.77,1.88,0,3.56.33,5.05.99,1.48.66,2.72,1.61,3.71,2.85l-3.67,3.32c-.66-.78-1.38-1.37-2.17-1.77s-1.66-.61-2.63-.61c-.83,0-1.6.14-2.3.41-.7.27-1.29.67-1.79,1.18-.5.51-.88,1.13-1.16,1.85s-.42,1.51-.42,2.38.14,1.67.42,2.39c.28.72.67,1.33,1.16,1.85.49.51,1.09.91,1.79,1.18.7.27,1.46.41,2.3.41.97,0,1.85-.2,2.63-.61s1.51-1,2.17-1.77l3.67,3.32c-.99,1.22-2.23,2.17-3.71,2.84-1.48.67-3.17,1-5.05,1Z"/>
      <path class="cls-3" d="M256.66,24.99c-1.73,0-3.26-.35-4.6-1.05-1.34-.7-2.39-1.66-3.16-2.89-.77-1.23-1.15-2.64-1.15-4.23s.38-3,1.15-4.22c.77-1.22,1.82-2.18,3.16-2.87,1.34-.69,2.87-1.03,4.6-1.03s3.26.34,4.61,1.03c1.35.69,2.4,1.64,3.16,2.87.76,1.22,1.13,2.63,1.13,4.22s-.38,3-1.13,4.23c-.76,1.23-1.81,2.2-3.16,2.89-1.35.7-2.88,1.05-4.61,1.05ZM256.66,20.6c.64,0,1.21-.15,1.7-.44.49-.29.89-.72,1.18-1.29.29-.57.44-1.25.44-2.05s-.15-1.47-.44-2.02c-.29-.55-.68-.97-1.18-1.27-.5-.29-1.06-.44-1.7-.44s-1.18.15-1.67.44c-.49.29-.89.71-1.19,1.27s-.45,1.23-.45,2.02.15,1.48.45,2.05c.3.57.7,1,1.19,1.29.5.29,1.05.44,1.67.44Z"/>
      <path class="cls-3" d="M278.39,8.7c1.22,0,2.33.25,3.32.74.99.5,1.77,1.26,2.34,2.28s.86,2.36.86,3.99v9.02h-5.53v-8.12c0-1.12-.23-1.94-.68-2.46-.46-.51-1.09-.77-1.91-.77-.58,0-1.12.13-1.6.39s-.86.66-1.13,1.21-.41,1.25-.41,2.12v7.62h-5.53v-15.77h5.27v4.48l-1.02-1.31c.6-1.14,1.42-2,2.47-2.58,1.05-.57,2.23-.86,3.55-.86Z"/>
      <path class="cls-3" d="M294.1,24.99c-1.34,0-2.64-.16-3.91-.47-1.27-.31-2.29-.7-3.07-1.16l1.66-3.78c.74.45,1.6.8,2.59,1.06.99.26,1.96.39,2.91.39s1.58-.1,1.93-.29c.36-.19.54-.46.54-.79,0-.31-.17-.54-.51-.68-.34-.15-.79-.26-1.34-.33s-1.16-.17-1.82-.26c-.66-.1-1.32-.23-1.99-.39-.67-.16-1.28-.42-1.83-.76-.55-.34-.99-.8-1.32-1.38s-.49-1.32-.49-2.21c0-1.01.29-1.91.89-2.69.59-.79,1.46-1.41,2.6-1.86,1.14-.46,2.54-.68,4.19-.68,1.11,0,2.23.11,3.36.33,1.13.22,2.09.56,2.87,1l-1.66,3.75c-.78-.45-1.55-.75-2.33-.92-.78-.16-1.51-.25-2.21-.25-.93,0-1.58.11-1.96.32-.38.21-.57.48-.57.79s.16.55.49.71c.33.17.77.29,1.32.38.55.09,1.16.17,1.82.26.66.09,1.32.22,1.99.39.67.17,1.28.43,1.83.77.55.34.99.8,1.32,1.37.33.57.5,1.3.5,2.2,0,.97-.3,1.84-.89,2.62-.59.78-1.46,1.4-2.62,1.86-1.15.47-2.58.7-4.29.7Z"/>
      <path class="cls-3" d="M302.63,13.67v-4.13h11.43v4.13h-11.43ZM311.33,24.99c-2.02,0-3.59-.5-4.71-1.5s-1.69-2.51-1.69-4.52V5.44h5.53v13.47c0,.56.16,1,.46,1.32.31.32.71.48,1.19.48.66,0,1.22-.17,1.69-.5l1.37,3.87c-.47.31-1.04.54-1.72.68s-1.39.22-2.12.22Z"/>
      <path class="cls-3" d="M317.29,24.73v-15.77h5.27v4.6l-.79-1.31c.47-1.18,1.22-2.07,2.27-2.66,1.05-.59,2.32-.89,3.81-.89v4.97c-.25-.04-.47-.06-.65-.07-.18,0-.38-.01-.6-.01-1.12,0-2.04.31-2.73.92-.7.61-1.05,1.6-1.05,2.98v7.24h-5.53Z"/>
      <path class="cls-3" d="M336.81,24.99c-1.28,0-2.43-.25-3.45-.76-1.02-.5-1.81-1.29-2.39-2.37-.57-1.08-.86-2.44-.86-4.09v-8.81h5.53v7.91c0,1.22.23,2.09.68,2.62.46.52,1.1.79,1.93.79.54,0,1.04-.13,1.48-.38s.8-.65,1.08-1.21c.27-.55.41-1.26.41-2.14v-7.59h5.53v15.77h-5.27v-4.45l1.02,1.25c-.54,1.16-1.33,2.03-2.36,2.6-1.03.57-2.14.86-3.35.86Z"/>
      <path class="cls-3" d="M355.17,25.4l-6.95-16.44h5.67l5.12,12.74-3.84,3.69ZM353.01,30.63c-.83,0-1.67-.13-2.52-.39s-1.53-.61-2.05-1.03l1.92-3.87c.33.29.71.52,1.15.68.44.16.87.25,1.29.25.6,0,1.08-.14,1.43-.41.35-.27.65-.7.9-1.28l.73-1.83.44-.55,5.35-13.24h5.27l-6.81,16.41c-.54,1.36-1.17,2.42-1.88,3.19-.71.77-1.49,1.3-2.36,1.62-.86.31-1.82.46-2.87.46Z"/>
      <path class="cls-3" d="M376.17,24.99c-1.86,0-3.49-.35-4.87-1.06-1.39-.71-2.46-1.68-3.23-2.91-.77-1.23-1.15-2.63-1.15-4.2s.37-2.97,1.12-4.2c.75-1.23,1.78-2.19,3.1-2.88,1.32-.69,2.8-1.03,4.45-1.03,1.55,0,2.97.32,4.25.95s2.3,1.56,3.05,2.78c.76,1.22,1.13,2.71,1.13,4.45,0,.19,0,.42-.03.67s-.04.48-.06.7h-12.48v-2.91h9.54l-2.09.81c.02-.72-.11-1.34-.39-1.86-.28-.52-.67-.93-1.16-1.22-.49-.29-1.07-.44-1.73-.44s-1.24.15-1.73.44c-.49.29-.88.7-1.15,1.24-.27.53-.41,1.16-.41,1.88v.84c0,.78.16,1.44.48,2.01s.78.99,1.38,1.29c.6.3,1.32.45,2.15.45.78,0,1.44-.11,1.99-.33s1.1-.57,1.64-1.03l2.91,3.03c-.76.83-1.69,1.47-2.79,1.91s-2.41.65-3.93.65Z"/>
    </g>
    <g>
      <path class="cls-3" d="M769.79,164.63c0,5.33-4.32,9.64-9.64,9.64s-9.64-4.32-9.64-9.64,4.32-9.64,9.64-9.64,9.64,4.32,9.64,9.64Z"/>
      <line class="cls-20" x1="760.15" y1="154.99" x2="760.15" y2="47.01"/>
    </g>
    <g>
      <path class="cls-3" d="M684.74,20.28h10.65v4.45h-16.35V4.36h15.97v4.45h-10.27v11.46ZM684.33,12.25h9.46v4.31h-9.46v-4.31Z"/>
      <path class="cls-3" d="M708.59,8.7c1.22,0,2.33.25,3.32.74.99.5,1.77,1.26,2.34,2.28s.86,2.36.86,3.99v9.02h-5.53v-8.12c0-1.12-.23-1.94-.68-2.46-.46-.51-1.09-.77-1.91-.77-.58,0-1.12.13-1.6.39s-.86.66-1.13,1.21-.41,1.25-.41,2.12v7.62h-5.53v-15.77h5.27v4.48l-1.02-1.31c.6-1.14,1.42-2,2.47-2.58,1.05-.57,2.23-.86,3.55-.86Z"/>
      <path class="cls-3" d="M726.83,24.99c-1.75,0-3.3-.35-4.67-1.05s-2.44-1.66-3.21-2.89c-.78-1.23-1.16-2.64-1.16-4.23s.39-3,1.16-4.22c.78-1.22,1.85-2.18,3.21-2.87s2.92-1.03,4.67-1.03,3.33.38,4.63,1.13c1.3.76,2.22,1.82,2.76,3.2l-4.28,2.18c-.37-.74-.83-1.28-1.37-1.62-.54-.34-1.13-.51-1.78-.51s-1.22.15-1.75.44-.94.71-1.24,1.27-.45,1.23-.45,2.02.15,1.5.45,2.07.71.99,1.24,1.28,1.11.44,1.75.44,1.23-.17,1.78-.51c.54-.34,1-.88,1.37-1.61l4.28,2.18c-.54,1.38-1.46,2.44-2.76,3.2-1.3.76-2.84,1.13-4.63,1.13Z"/>
      <path class="cls-3" d="M742.95,24.99c-1.28,0-2.43-.25-3.45-.76-1.02-.5-1.81-1.29-2.39-2.37-.57-1.08-.86-2.44-.86-4.09v-8.81h5.53v7.91c0,1.22.23,2.09.68,2.62.46.52,1.1.79,1.93.79.54,0,1.04-.13,1.48-.38s.8-.65,1.08-1.21c.27-.55.41-1.26.41-2.14v-7.59h5.53v15.77h-5.27v-4.45l1.02,1.25c-.54,1.16-1.33,2.03-2.36,2.6-1.03.57-2.14.86-3.35.86Z"/>
      <path class="cls-3" d="M764.71,24.99c-1.86,0-3.49-.35-4.87-1.06-1.39-.71-2.46-1.68-3.23-2.91-.77-1.23-1.15-2.63-1.15-4.2s.37-2.97,1.12-4.2c.75-1.23,1.78-2.19,3.1-2.88,1.32-.69,2.8-1.03,4.45-1.03,1.55,0,2.97.32,4.25.95s2.3,1.56,3.05,2.78c.76,1.22,1.13,2.71,1.13,4.45,0,.19,0,.42-.03.67s-.04.48-.06.7h-12.48v-2.91h9.54l-2.09.81c.02-.72-.11-1.34-.39-1.86-.28-.52-.67-.93-1.16-1.22-.49-.29-1.07-.44-1.73-.44s-1.24.15-1.73.44c-.49.29-.88.7-1.15,1.24-.27.53-.41,1.16-.41,1.88v.84c0,.78.16,1.44.48,2.01s.78.99,1.38,1.29c.6.3,1.32.45,2.15.45.78,0,1.44-.11,1.99-.33s1.1-.57,1.64-1.03l2.91,3.03c-.76.83-1.69,1.47-2.79,1.91s-2.41.65-3.93.65Z"/>
      <path class="cls-3" d="M785.4,8.7c1.22,0,2.33.25,3.32.74.99.5,1.77,1.26,2.34,2.28s.86,2.36.86,3.99v9.02h-5.53v-8.12c0-1.12-.23-1.94-.68-2.46-.46-.51-1.09-.77-1.91-.77-.58,0-1.12.13-1.6.39s-.86.66-1.13,1.21-.41,1.25-.41,2.12v7.62h-5.53v-15.77h5.27v4.48l-1.02-1.31c.6-1.14,1.42-2,2.47-2.58,1.05-.57,2.23-.86,3.55-.86Z"/>
      <path class="cls-3" d="M793.72,13.67v-4.13h11.43v4.13h-11.43ZM802.42,24.99c-2.02,0-3.59-.5-4.71-1.5s-1.69-2.51-1.69-4.52V5.44h5.53v13.47c0,.56.16,1,.46,1.32.31.32.71.48,1.19.48.66,0,1.22-.17,1.69-.5l1.37,3.87c-.47.31-1.04.54-1.72.68s-1.39.22-2.12.22Z"/>
      <path class="cls-3" d="M808.38,24.73v-15.77h5.27v4.6l-.79-1.31c.47-1.18,1.22-2.07,2.27-2.66,1.05-.59,2.32-.89,3.81-.89v4.97c-.25-.04-.47-.06-.65-.07-.18,0-.38-.01-.6-.01-1.12,0-2.04.31-2.73.92-.7.61-1.05,1.6-1.05,2.98v7.24h-5.53Z"/>
      <path class="cls-3" d="M825.22,24.99c-1.26,0-2.33-.21-3.2-.64-.87-.43-1.54-1.01-1.99-1.75-.46-.74-.68-1.56-.68-2.47,0-.97.25-1.81.74-2.52.5-.71,1.26-1.25,2.28-1.63,1.03-.38,2.36-.57,3.99-.57h3.72v2.88h-2.97c-.89,0-1.52.15-1.88.44-.36.29-.54.68-.54,1.16s.18.87.55,1.16c.37.29.87.44,1.51.44.6,0,1.15-.15,1.64-.45.5-.3.86-.76,1.09-1.38l.76,2.04c-.29,1.09-.86,1.91-1.7,2.46s-1.95.83-3.33.83ZM829.88,24.73v-2.94l-.38-.73v-5.41c0-.87-.27-1.55-.8-2.02-.53-.47-1.38-.71-2.54-.71-.76,0-1.52.12-2.3.36-.78.24-1.44.58-1.98,1l-1.86-3.75c.89-.58,1.96-1.03,3.21-1.35s2.5-.48,3.74-.48c2.56,0,4.54.59,5.95,1.76s2.11,3.01,2.11,5.51v8.76h-5.15Z"/>
    </g>
    <g>
      <path class="cls-3" d="M1211.79,164.63c0,5.33-4.32,9.64-9.64,9.64s-9.64-4.32-9.64-9.64,4.32-9.64,9.64-9.64,9.64,4.32,9.64,9.64Z"/>
      <line class="cls-20" x1="1202.15" y1="154.99" x2="1202.15" y2="47.01"/>
    </g>
    <g>
      <path class="cls-3" d="M1118.59,24.73l8.99-20.36h5.67l9.02,20.36h-5.99l-7.04-17.54h2.27l-7.04,17.54h-5.88ZM1123.51,20.77l1.48-4.25h9.95l1.48,4.25h-12.92Z"/>
      <path class="cls-3" d="M1150.36,24.99c-1.44,0-2.74-.33-3.91-1-1.17-.67-2.11-1.61-2.81-2.82s-1.05-2.66-1.05-4.35.35-3.11,1.05-4.32c.7-1.21,1.63-2.15,2.81-2.81,1.17-.66,2.48-.99,3.91-.99,1.36,0,2.51.29,3.45.87.94.58,1.65,1.47,2.14,2.68.49,1.2.73,2.72.73,4.57s-.23,3.42-.7,4.63c-.46,1.2-1.16,2.09-2.09,2.68-.93.58-2.1.87-3.52.87ZM1151.52,20.6c.62,0,1.18-.15,1.67-.44.5-.29.89-.72,1.18-1.29.29-.57.44-1.25.44-2.05s-.15-1.47-.44-2.02-.68-.97-1.18-1.27c-.49-.29-1.05-.44-1.67-.44s-1.21.15-1.7.44c-.5.29-.89.71-1.18,1.27s-.44,1.23-.44,2.02.15,1.48.44,2.05c.29.57.68,1,1.18,1.29.49.29,1.06.44,1.7.44ZM1154.99,24.73v-2.71l.03-5.21-.29-5.21V3.14h5.53v21.59h-5.27Z"/>
      <path class="cls-3" d="M1184.34,8.7c1.22,0,2.31.25,3.27.74.96.5,1.72,1.26,2.27,2.28s.83,2.36.83,3.99v9.02h-5.53v-8.12c0-1.12-.21-1.94-.64-2.46-.43-.51-1.01-.77-1.75-.77-.52,0-1,.13-1.42.38-.43.25-.76.64-.99,1.15-.23.51-.35,1.18-.35,1.99v7.83h-5.53v-8.12c0-1.12-.21-1.94-.62-2.46-.42-.51-1-.77-1.76-.77-.54,0-1.02.13-1.44.38-.42.25-.75.64-.99,1.15-.24.51-.36,1.18-.36,1.99v7.83h-5.53v-15.77h5.27v4.39l-1.05-1.25c.58-1.12,1.38-1.97,2.39-2.55,1.01-.57,2.13-.86,3.37-.86,1.42,0,2.66.36,3.74,1.09,1.08.73,1.8,1.86,2.17,3.39l-1.8-.38c.56-1.28,1.41-2.28,2.54-3.01,1.13-.73,2.44-1.09,3.91-1.09Z"/>
      <path class="cls-3" d="M1202.32,24.99c-1.73,0-3.26-.35-4.6-1.05-1.34-.7-2.39-1.66-3.16-2.89-.77-1.23-1.15-2.64-1.15-4.23s.38-3,1.15-4.22c.77-1.22,1.82-2.18,3.16-2.87,1.34-.69,2.87-1.03,4.6-1.03s3.26.34,4.61,1.03c1.35.69,2.4,1.64,3.16,2.87.76,1.22,1.13,2.63,1.13,4.22s-.38,3-1.13,4.23c-.76,1.23-1.81,2.2-3.16,2.89-1.35.7-2.88,1.05-4.61,1.05ZM1202.32,20.6c.64,0,1.21-.15,1.7-.44.49-.29.89-.72,1.18-1.29.29-.57.44-1.25.44-2.05s-.15-1.47-.44-2.02c-.29-.55-.68-.97-1.18-1.27-.5-.29-1.06-.44-1.7-.44s-1.18.15-1.67.44c-.49.29-.89.71-1.19,1.27s-.45,1.23-.45,2.02.15,1.48.45,2.05c.3.57.7,1,1.19,1.29.5.29,1.05.44,1.67.44Z"/>
      <path class="cls-3" d="M1224.05,8.7c1.22,0,2.33.25,3.32.74.99.5,1.77,1.26,2.34,2.28s.86,2.36.86,3.99v9.02h-5.53v-8.12c0-1.12-.23-1.94-.68-2.46-.46-.51-1.09-.77-1.91-.77-.58,0-1.12.13-1.6.39s-.86.66-1.13,1.21-.41,1.25-.41,2.12v7.62h-5.53v-15.77h5.27v4.48l-1.02-1.31c.6-1.14,1.42-2,2.47-2.58,1.05-.57,2.23-.86,3.55-.86Z"/>
      <path class="cls-3" d="M1242.76,24.73V4.36h9.31c1.86,0,3.47.3,4.82.9,1.35.6,2.39,1.47,3.13,2.6.74,1.13,1.11,2.48,1.11,4.03s-.37,2.86-1.11,3.99-1.78,1.99-3.13,2.6c-1.35.61-2.95.92-4.82.92h-6.11l2.56-2.5v7.83h-5.76ZM1248.52,17.51l-2.56-2.65h5.76c1.2,0,2.1-.26,2.69-.79.59-.52.89-1.25.89-2.18s-.3-1.69-.89-2.21c-.59-.52-1.49-.79-2.69-.79h-5.76l2.56-2.65v11.26Z"/>
      <path class="cls-3" d="M1269.67,24.73h-5.76V4.36h5.76v20.36ZM1277.93,16.79h-8.67v-4.77h8.67v4.77ZM1277.52,4.36h5.76v20.36h-5.76V4.36Z"/>
    </g>
    <g>
      <path class="cls-2" d="M1202.83,257.03h-1.78c0-.25,0-.47,0-.7-.01-.78-.34-1.1-1.12-1.11-2.93,0-5.86,0-8.79,0-1.54,0-3.08,0-4.68,0,0,.21-.03.39-.03.57,0,1.28,0,2.56,0,3.84,0,1.75-1.15,2.91-2.89,2.92-1.41,0-2.82,0-4.23,0-.04,0-.07.01-.19.04v.58c0,6.68,0,13.36,0,20.03,0,1.05.26,1.32,1.31,1.32,6.43,0,12.87,0,19.3,0,1.05,0,1.32-.27,1.32-1.31,0-.72,0-1.45,0-2.17,0-.04-.02-.07-.04-.14-.56-.07-1-.11-1.36.57-.57,1.07-1.92,1.47-3.09,1.09-1.15-.37-1.93-1.48-1.89-2.71.03-1.19.86-2.23,2.02-2.55,1.19-.32,2.46.15,3.04,1.23.24.44.51.51.94.5,1.94-.02,3.88,0,5.88,0,0-1.07,0-2.09,0-3.12,0-.73,0-1.45,0-2.18,0-.79.33-1.12,1.11-1.12,1.43,0,2.85,0,4.34,0,.01-.18.03-.34.03-.5,0-1.22,0-2.44,0-3.66,0-1.08.26-1.33,1.36-1.33,1.35,0,2.7,0,4.13,0,0-.77,0-1.5,0-2.24,0-.73,0-1.45,0-2.18,0-.75.34-1.08,1.09-1.08,1.44,0,2.89,0,4.39,0,0-1.34,0-2.63,0-3.92,0-.21,0-.42,0-.63.03-.58.36-.94.93-.94,1.81-.02,3.62-.01,5.42,0,.58,0,.91.36.95.93.01.17,0,.34,0,.52,0,6.91,0,13.81,0,20.72v.71h1.79v1.84h-29.2c0,.9,0,1.73,0,2.56,0,1.79-1.15,2.93-2.93,2.94-6.57,0-13.13,0-19.7,0-1.82,0-2.95-1.14-2.95-2.97,0-6.93,0-13.85,0-20.78,0-.94.32-1.69.98-2.35,1.97-1.96,3.94-3.93,5.9-5.91.65-.66,1.41-.98,2.35-.98,4.38.01,8.76.07,13.13-.02,1.99-.04,3.56,1.29,3.19,3.66ZM1224.85,258v21.02h3.58v-21.02h-3.58ZM1219.37,263.5v15.5h3.59v-15.5h-3.59ZM1213.89,268.99v10.02h3.57v-10.02h-3.57ZM1208.39,274.49v4.52h3.59v-4.52h-3.59ZM1180.61,260.71c1.03,0,2.11.04,3.18-.03.27-.02.72-.4.74-.65.08-1.12.04-2.25.04-3.29-1.31,1.31-2.63,2.64-3.96,3.97ZM1197.37,280.87c.49.01.91-.38.94-.87.02-.51-.4-.95-.91-.95-.49,0-.9.41-.91.9,0,.49.39.91.88.92Z"/>
      <path class="cls-2" d="M1214.68,253.85c-1.96,1.97-3.94,3.9-5.84,5.9-.69.72-1.39,1.07-2.39,1-1.15-.08-2.32-.02-3.54-.02v16.45h-1.84v-16.45c-.62,0-1.21-.03-1.78.02-.16.01-.32.27-.42.44-.7,1.17-2.11,1.66-3.37,1.17-1.22-.48-1.95-1.78-1.71-3.04.27-1.37,1.44-2.33,2.82-2.26,1.03.05,1.81.55,2.29,1.46.15.28.3.37.61.37,2.4-.01,4.8,0,7.2-.02.19,0,.43-.07.55-.19,1.92-1.91,3.83-3.83,5.74-5.74.02-.02.03-.07.04-.1-5.82-4.44-5.98-12.69-1.64-17.52,4.04-4.5,10.92-5.28,15.85-1.71,4.97,3.6,6.4,10.41,3.31,15.72-3.05,5.23-9.84,7.61-15.88,4.52ZM1219.33,233.34c-3.9,0-7.85,3.43-8.87,7.65-1.08,4.49,1.07,9.14,5.24,11.3,3.87,2.01,8.36.96,10.45-.94-2.12-2.39-4.26-4.78-6.35-7.2-.26-.3-.44-.77-.45-1.16-.04-3.01-.02-6.03-.02-9.04,0-.21,0-.41,0-.62ZM1230.22,242.38c-.46-5.63-5.44-9-9.02-9.01v9.01h9.02ZM1222.3,244.26c1.81,2.04,3.53,3.98,5.28,5.95,1.55-1.74,2.45-3.67,2.66-5.95h-7.94ZM1196.47,258.89c-.49,0-.9.42-.9.91,0,.49.41.91.9.91.51,0,.94-.43.92-.94-.02-.49-.44-.89-.92-.88Z"/>
      <path class="cls-2" d="M1197.84,243.56c1.39-1.2,2.77-2.37,4.12-3.56.12-.1.12-.4.08-.59-.25-1.14.07-2.09.96-2.81.9-.72,1.91-.83,2.94-.3,1.02.53,1.53,1.41,1.49,2.56-.06,1.79-1.83,3.03-3.56,2.48-.36-.11-.58-.07-.86.17-1.46,1.28-2.95,2.53-4.41,3.81-.19.16-.33.41-.42.64-.41,1.1-1.18,1.79-2.34,1.91-1.19.12-2.11-.39-2.69-1.45-.15-.27-.3-.38-.61-.37-1.03.02-2.05.02-3.08,0-.29,0-.47.06-.62.35-.66,1.23-1.89,1.75-3.23,1.35-.32-.09-.48-.02-.69.19-.68.7-1.35,1.4-2.06,2.06-.28.26-.31.49-.21.84.33,1.15-.13,2.35-1.12,3-.99.66-2.27.61-3.2-.13-.95-.76-1.3-2-.87-3.14.42-1.11,1.49-1.81,2.67-1.77.06,0,.12-.01.17.01.81.43,1.28-.07,1.76-.61.26-.3.56-.57.84-.85.57-.56,1.1-1,.82-2.05-.31-1.2.66-2.42,1.86-2.79,1.23-.38,2.57.12,3.18,1.26.2.37.41.46.79.45,1.01-.02,2.02,0,3.02-.02.16,0,.38-.09.46-.21,1.3-1.98,3.13-2.18,4.78-.46ZM1205.62,238.73c0-.49-.41-.9-.9-.9-.51,0-.94.43-.92.95.02.49.44.89.93.88.49-.01.89-.43.89-.92ZM1187.34,245.13c-.01-.49-.43-.9-.92-.89-.52,0-.93.45-.9.96.03.49.46.88.94.86.49-.02.89-.44.87-.93ZM1196.48,245.17c.01-.49-.39-.91-.88-.93-.51-.02-.95.41-.94.92,0,.49.41.9.9.9.49,0,.9-.4.91-.89ZM1180.06,250.65c-.49-.01-.91.38-.93.88-.02.51.4.95.92.95.49,0,.9-.41.9-.9,0-.49-.4-.91-.89-.92Z"/>
      <path class="cls-2" d="M1198.27,270.77h-10.9v-1.76h10.9v1.76Z"/>
      <path class="cls-2" d="M1181.89,273.57h9.07v1.77h-9.07v-1.77Z"/>
      <path class="cls-2" d="M1181.89,266.18v-1.76h5.41v1.76h-5.41Z"/>
      <path class="cls-2" d="M1192.86,275.34v-1.77h5.41v1.77h-5.41Z"/>
      <path class="cls-2" d="M1187.37,279.92v-1.76h5.41v1.76h-5.41Z"/>
      <path class="cls-2" d="M1193.71,266.19h-4.49v-1.77h4.49v1.77Z"/>
      <path class="cls-2" d="M1181.9,268.98h3.57v1.78h-3.57v-1.78Z"/>
      <path class="cls-2" d="M1185.49,278.17v1.76h-3.58v-1.76h3.58Z"/>
      <path class="cls-2" d="M1191.88,261.61h-2.67v-1.77h2.67v1.77Z"/>
      <path class="cls-2" d="M1198.29,264.43v1.75h-2.69v-1.75h2.69Z"/>
    </g>
    <g>
      <path class="cls-2" d="M336.17,264.09h-1.82v-2.69h-1.83v20.15h1.78v-11.89h1.85v11.9h2.74v1.81h-55.21v-1.77h9.17c0-.78,0-1.51,0-2.25,0-1.23.22-1.45,1.43-1.45.69,0,1.38,0,2.07,0,.04,0,.07-.02.15-.04v-31.19c-.72-.08-1.63.19-1.82-.92h-3.67c0,.79,0,1.59,0,2.38,0,.98-.29,1.28-1.25,1.28-1,0-2,0-2.99,0-.99,0-1.28-.28-1.28-1.25,0-.75,0-1.49,0-2.24,0-.04-.02-.07-.05-.19-.2,0-.42,0-.64,0-.8-.01-1.14-.33-1.14-1.1,0-1.72,0-3.45,0-5.17,0-.44.16-.77.54-1.01,4.23-2.71,8.45-5.42,12.69-8.12.23-.14.54-.21.81-.22,1.71-.02,3.42-.1,5.12.02,1.05.07,2.09.44,3.13.71,9.37,2.47,18.75,4.95,28.12,7.42,1.04.27,1.19.47,1.19,1.56,0,1.53,0,3.06,0,4.6,0,1.02-.28,1.31-1.29,1.31-3.03,0-6.07,0-9.1,0h-.62c-.13.87-.06,1.55.65,2.19,1.38,1.24,2.64,2.62,3.98,3.91.19.19.52.3.79.32.59.05,1.19,0,1.78.02.68.01,1.03.35,1.04,1.03.01,1.15.01,2.3,0,3.45,0,.68-.35,1.03-1.03,1.03-5.45,0-10.9,0-16.35,0-.68,0-1.03-.35-1.04-1.03-.01-1.15-.01-2.3,0-3.45,0-.68.35-1.01,1.03-1.04.04,0,.08,0,.11,0,1.6.31,2.75-.34,3.76-1.56.78-.96,1.7-1.83,2.64-2.64.72-.62.88-1.31.69-2.2h-16.49c-.2,1.03-1.03.9-1.84.89v31.26h1.82c1.76,0,1.83.07,1.83,1.85v1.82h2.74v-9.17h1.86v9.14h1.81v-20.16h-1.78v9.11h-1.83c-.01-.16-.03-.33-.03-.49,0-3.08,0-6.17,0-9.25,0-.95.29-1.24,1.23-1.25,1.04,0,2.07,0,3.11,0,.87,0,1.19.31,1.19,1.17,0,.82,0,1.64,0,2.48h4.61c0-.82,0-1.63,0-2.45,0-.9.3-1.2,1.21-1.2,1.07,0,2.15,0,3.22,0,.75,0,1.08.34,1.09,1.09,0,.84,0,1.68,0,2.55h4.61c0-.78,0-1.57,0-2.37,0-.99.28-1.28,1.25-1.28,1.06,0,2.11,0,3.17,0,.76,0,1.1.33,1.11,1.08,0,1.15,0,2.29,0,3.49ZM306.04,238.35h20.83l.02-.08c-7.57-2-15.14-4-22.8-6.03.22,1.78.43,3.46.61,4.9.51.46.87.78,1.34,1.21ZM303.88,244.78v-5.45h-7.3v5.45h7.3ZM330.61,265.07h-14.67v1.77h14.67v-1.77ZM330.6,255.81v-1.77h-14.67v1.77h14.67ZM330.61,276.1h-14.67v1.77h14.67v-1.77ZM315.94,268.74v5.45h4.54v-5.45h-4.54ZM326.06,274.19h4.54v-5.45h-4.54v5.45ZM295.74,237.42c.19-1.5.37-2.98.57-4.57-2.87,1.84-5.65,3.62-8.56,5.49h6.92c.12-.56.46-.89,1.07-.92ZM305.74,279.78h-11v1.77h11v-1.77ZM323.34,249.09c-1.03,1.03-2.08,2.08-3.04,3.04h6.07c-1.04-1.04-2.08-2.09-3.03-3.04ZM322.39,268.74v5.44h1.78v-5.44h-1.78ZM301.86,237.42c-1.25-1.42-2.44-2.78-3.73-4.25-.19,1.51-.36,2.87-.53,4.25h4.27ZM330.61,279.78h-4.53v1.77h4.53v-1.77ZM320.48,279.78h-4.53v1.77h4.53v-1.77ZM286.3,240.22c.68,1.02,1.3,1.94,1.95,2.92.68-1.01,1.29-1.94,1.95-2.92h-3.9ZM298.41,273.42c1.02-.68,1.95-1.3,2.93-1.95-1.02-.67-1.95-1.29-2.93-1.94v3.89ZM330.64,240.94c-.68,1.01-1.29,1.94-1.93,2.9h3.86c-.65-.98-1.27-1.9-1.94-2.9ZM312.21,243.15c.67-1,1.29-1.93,1.94-2.91h-3.88c.65.98,1.26,1.9,1.94,2.91ZM317.63,240.22c.68,1.02,1.3,1.94,1.95,2.92.68-1.01,1.29-1.94,1.95-2.92h-3.9ZM326.95,243.14c.66-.99,1.28-1.92,1.93-2.88h-3.86c.66.98,1.27,1.9,1.93,2.88ZM299.14,267.79c.99.66,1.92,1.28,2.91,1.94v-3.86c-.98.65-1.91,1.27-2.91,1.93ZM293.88,243.86c-.66-.99-1.28-1.91-1.94-2.91-.67,1-1.29,1.93-1.94,2.91h3.89ZM306.59,243.84h3.87c-.66-.99-1.28-1.92-1.94-2.9-.67,1-1.28,1.92-1.94,2.9ZM299.13,253.08c1.01.67,1.94,1.29,2.91,1.93v-3.85c-.98.65-1.9,1.26-2.91,1.92ZM301.34,249.4c-1.02-.68-1.94-1.29-2.9-1.92v3.85c.98-.66,1.9-1.27,2.9-1.93ZM298.44,254.83v3.85c.99-.66,1.92-1.28,2.9-1.93-1.01-.67-1.93-1.28-2.9-1.92ZM302.04,258.5c-.99.66-1.92,1.27-2.91,1.93,1,.67,1.93,1.28,2.91,1.94v-3.86ZM298.42,266.05c.99-.66,1.92-1.28,2.92-1.94-1-.67-1.93-1.28-2.92-1.94v3.88ZM321.33,243.84h3.87c-.66-.99-1.28-1.92-1.94-2.9-.67,1-1.28,1.92-1.93,2.9ZM302.06,273.2c-1.01.67-1.94,1.29-2.92,1.95,1.01.67,1.93,1.28,2.92,1.94v-3.88ZM315.9,240.94c-.67,1.01-1.29,1.93-1.94,2.91h3.88c-.65-.98-1.26-1.9-1.94-2.91ZM302.19,231.98h-2.64c1.02,1.16,1.98,2.26,2.95,3.35.04-.02.07-.03.11-.05-.13-1.09-.27-2.18-.41-3.3ZM287.37,245.75v1.77h1.77v-1.77h-1.77ZM324.15,281.55v-1.77h-1.78v1.77h1.78ZM322.38,261.38v1.77h1.78v-1.77h-1.78ZM286.52,243.86c-.36-.52-.65-.95-.99-1.45v1.45h.99ZM305.79,241.73c.37-.56.67-1,.98-1.48h-.98v1.48ZM294.67,240.24h-.98c.33.49.62.92.98,1.47v-1.47ZM302.05,246.68h-1.48c.55.36.98.65,1.48.97v-.97ZM333.38,240.23h-1c.34.5.63.94,1,1.49v-1.49ZM298.42,276.89v.97h1.48c-.55-.36-.99-.65-1.48-.97Z"/>
      <path class="cls-2" d="M336.14,265.99v1.77h-1.77v-1.77h1.77Z"/>
      <path class="cls-15" d="M301.13,241.17h-1.79v1.76h1.79v-1.76Z"/>
      <path class="cls-2" d="M301.13,241.17v1.76h-1.79v-1.76h1.79Z"/>
    </g>
    <g>
      <path class="cls-2" d="M510.66,92.31c.25-.48.64-.62,1.17-.62,6.52.01,13.05,0,19.57.02.37,0,.56-.11.74-.44,2.22-4.17,4.51-8.3,6.68-12.5.86-1.68,2.77-1.75,3.77-.27,1.05,1.56,2.24,3.02,3.37,4.52.1.13.21.26.33.42.63-.48,1.28-.89,1.82-1.41.26-.25.42-.69.46-1.06.06-.51-.05-1.05-.07-1.57-.02-1.03.37-1.88,1.19-2.52.59-.46,1.18-.9,1.81-1.37-.24-.33-.47-.62-.68-.92-.38-.53-.33-.99.18-1.37,2.37-1.78,4.73-3.57,7.12-5.33,1.17-.86,2.7-.63,3.57.52.4.53.69,1.15,1.03,1.72v1.02c-.31.49-.52,1.12-.95,1.45-2.37,1.86-4.8,3.65-7.22,5.45-.48.35-.91.27-1.29-.19-.24-.3-.47-.61-.73-.95-.28.21-.54.39-.8.58-1.6,1.21-1.63.99-1.45,3.04.12,1.36-.37,2.41-1.49,3.18-.51.35-.99.74-1.5,1.13,1.22,1.63,2.39,3.2,3.58,4.76.46.61.85,1.23.71,2.09.44,0,.85,0,1.25,0,.93,0,1.2.27,1.2,1.22,0,2.29,0,4.57,0,6.86,0,.18,0,.36,0,.59.25,0,.43,0,.61,0,1.71,0,3.42,0,5.13,0,.91,0,1.19.28,1.19,1.18,0,2.69,0,5.39,0,8.08,0,.87-.29,1.17-1.15,1.17-1.73,0-3.46,0-5.18,0-.18,0-.36,0-.6,0,0,.24,0,.42,0,.6,0,2.27.02,4.54-.02,6.81,0,.39-.24.77-.36,1.16h-43.02v-9.77c.29-.43.7-.56,1.21-.55,1.66.02,3.32,0,4.98,0,.23,0,.46,0,.7,0v-6.96c-1.9,0-3.76-.01-5.62,0-.53,0-.96-.1-1.27-.54v-9.26ZM545.93,85.89c-1.21.91-2.36,1.78-3.52,2.63-.48.36-.99.28-1.29-.15-.29-.41-.19-.89.27-1.24.86-.66,1.73-1.3,2.6-1.95.29-.22.58-.44.89-.68-1.26-1.68-2.49-3.32-3.72-4.96-.39-.52-.48-.51-.79.06-2.66,4.95-5.32,9.9-7.97,14.85-.09.18-.09.4-.14.6.2.02.42.09.61.05,3.76-.78,7.51-1.58,11.27-2.38,1.75-.37,3.51-.75,5.26-1.12.59-.13.62-.23.26-.72-.28-.38-.57-.76-.85-1.14-.95-1.27-1.91-2.54-2.89-3.85ZM547.13,102.14c-.01.19-.03.34-.03.49,0,1.97.01,3.93-.01,5.9,0,.42.11.55.54.55,3.71-.02,7.42,0,11.14-.01.16,0,.32-.02.48-.03v-6.89h-12.11ZM519.36,102.14v6.89h12.11v-6.89h-12.11ZM533.25,109.03h12.09v-6.89h-12.09v6.89ZM552.3,110.83h-12.11v6.88h12.11v-6.88ZM512.42,117.72h12.09v-6.89h-12.09v6.89ZM526.32,117.71h12.08v-6.88h-12.08v6.88ZM540.16,100.33h12.13v-6.88c-1.13,0-2.26-.16-3.32.03-2.84.51-5.66,1.17-8.49,1.79-.13.03-.31.22-.31.34-.02,1.56-.01,3.11-.01,4.72ZM512.42,100.35h12.09v-6.89h-12.08v1.71c.55,0,1.08,0,1.6,0,.59.01.98.37.98.88,0,.51-.4.84-1,.85-.52,0-1.04,0-1.58,0v3.45ZM538.41,95.72c-.12.02-.22.02-.32.04-1.7.36-3.41.73-5.11,1.08-.83.17-1.55-.05-2.08-.73-.53-.68-.57-1.43-.2-2.2.07-.14.14-.29.22-.45h-4.6v6.87h12.08v-4.61ZM552.67,74.15c.51.68,1.01,1.34,1.52,2.03,2.19-1.65,4.35-3.26,6.49-4.89.39-.29.42-.73.17-1.14-.13-.22-.29-.42-.45-.61-.39-.49-.82-.55-1.33-.19-.44.31-.87.65-1.3.97-1.69,1.27-3.38,2.54-5.1,3.83Z"/>
      <path class="cls-2" d="M519.32,96.9c-.56,0-1.11.01-1.67,0-.56-.01-.91-.36-.9-.88,0-.49.35-.84.88-.85,1.13-.02,2.26-.02,3.39,0,.54,0,.92.39.91.88,0,.49-.39.83-.95.85-.56.01-1.11,0-1.67,0Z"/>
    </g>
    <g>
      <path class="cls-2" d="M997.97,87.92v26.98h-16.68c.35,1.64-.24,2.76-1.7,3.39,0,.53.08,1.06-.02,1.55-.24,1.21-1.26,2.03-2.49,2.04-5.67.01-11.34.01-17,0-1.18,0-2.29-.35-3.34-.88-.44-.22-.87-.44-1.31-.66-1.15-.55-2.2-1.38-3.64-1.02v-14.79c.06-.01.15-.06.23-.05.91.15,1.63-.23,2.35-.74.88-.63,1.8-1.22,2.76-1.74,1.31-.71,2.75-1,4.25-1.01,1.13,0,2.25,0,3.44,0v-31.32h19.15c.36-1.38.86-1.76,2.25-1.76,3.25,0,6.5.01,9.76,0,2.14-.01,4.08.58,5.83,1.79.33.23.67.44,1,.67.89.61,1.74,1.36,2.99.97v13.93s-.07.05-.1.05c-1.08-.15-1.99.3-2.94.76-1.3.63-2.65,1.15-3.99,1.7-.23.09-.49.1-.79.15ZM966.61,113.14h29.58v-36.5h-1.71v1.68h-5.19v-1.69h5.05c-.5-.19-.89-.3-1.23-.48-.35-.19-.75-.38-.97-.68-.95-1.33-2.24-1.57-3.79-1.49-1.63.09-2.89-.75-3.72-2.15-.19-.33-.38-.44-.75-.44-5.58.01-11.15,0-16.73,0-.18,0-.35.02-.52.02v29.57c1.73,0,3.41,0,5.1,0,1.13,0,1.86.78,1.83,1.91-.06,2.24-1.94,4.12-4.21,4.18-.9.02-1.81,0-2.73,0v6.06ZM953.52,106.38v11.06c1.31.65,2.59,1.28,3.86,1.93,1.02.52,2.09.78,3.25.78,5.34-.01,10.68,0,16.02,0,.18,0,.37.02.54-.02.44-.09.71-.38.72-.83,0-.48-.27-.78-.73-.87-.16-.03-.33-.02-.49-.02-2.58,0-5.16,0-7.74,0h-.58v-1.74h.63c3.11,0,6.21,0,9.32,0,.15,0,.29,0,.44,0,.55-.03.92-.39.91-.88,0-.47-.36-.82-.88-.85-.16-.01-.33,0-.49,0-4.27,0-8.54,0-12.8,0h-.67v-6.61c-1.31,1-2.72,1.46-4.3,1.37v-1.73c1.67.11,2.95-.59,4.01-1.78.16-.18.31-.37.51-.49.24-.15.53-.31.8-.32,1.14-.04,2.29,0,3.43-.02,1.44-.03,2.63-1.27,2.49-2.59-.09,0-.17-.01-.26-.01-3.41,0-6.83,0-10.24,0-.5,0-1.01.09-1.51.17-1.49.26-2.7,1.11-3.92,1.93-.74.5-1.5,1-2.3,1.53ZM1004.07,73.23c-.24-.13-.46-.23-.65-.36-.91-.6-1.82-1.2-2.72-1.81-1.43-.96-3-1.42-4.72-1.41-3.21.01-6.43,0-9.64,0-.18,0-.36,0-.53,0-.04,1.15.73,2.21,1.85,2.49.5.12,1.06.18,1.56.11,1.53-.22,2.76.21,3.65,1.51.04.06.1.1.15.16.62.69,1.4,1,2.33.97.86-.03,1.73,0,2.64,0v11.29c2.27-.45,4.06-1.84,6.09-2.63v-10.3Z"/>
      <path class="cls-2" d="M992.24,100.08h-21.67v-19.22h21.67v19.22ZM989.82,97.66v-14.39h-16.83v14.39h16.83Z"/>
      <path class="cls-2" d="M985.8,78.33v-1.67h1.68v1.67h-1.68Z"/>
      <path class="cls-2" d="M978.95,95.63c-1.01-1.01-2.06-2.05-3.11-3.11.54-.49,1.11-1,1.81-1.63.32.42.75.97,1.2,1.55,2.65-2.65,5.15-5.15,7.68-7.68.59.65,1.11,1.22,1.58,1.73-3.01,3-6.08,6.07-9.16,9.14Z"/>
    </g>
    <path class="cls-2" d="M766.67,268.64c-7.96,6.11-18.78,4.52-24.83-2.66-5.96-7.08-5.51-17.7,1.06-24.31,6.56-6.59,17.12-7.09,24.22-1.17,7.26,6.05,8.86,16.95,2.74,24.94.13.13.25.27.39.41,3.86,3.86,7.72,7.71,11.56,11.58.36.37.66.89.78,1.38.24.99-.28,1.93-1.15,2.38-.88.46-1.92.31-2.67-.43-1.75-1.74-3.48-3.49-5.22-5.23-2.19-2.19-4.37-4.39-6.56-6.58-.1-.1-.2-.19-.33-.31ZM742.14,254.36c0,7.51,6.05,13.57,13.55,13.56,7.45-.01,13.46-6.06,13.45-13.53,0-7.48-6.06-13.54-13.53-13.52-7.39.01-13.47,6.1-13.47,13.49Z"/>
    <g>
      <path class="cls-2" d="M91.11,67.33c1.27.45,2.06,1.28,2.07,2.7,0,.67,0,1.35,0,2.02,0,.17,0,.34,0,.56.98,0,1.91,0,2.84,0,1.59,0,2.47.88,2.47,2.47,0,.91,0,1.83,0,2.81.92,0,1.8.05,2.68-.01,1.72-.11,2.63,1.15,2.63,2.61-.03,12.45-.02,24.91-.02,37.36,0,1.76-.85,2.61-2.6,2.61-9.13,0-18.27-.02-27.4.02-1.43,0-2.75-.85-2.63-2.66.06-.86,0-1.72,0-2.64-.95,0-1.84,0-2.73,0-1.69,0-2.55-.86-2.55-2.55,0-.9,0-1.79,0-2.75-.85,0-1.66,0-2.47,0-1.74,0-2.82-1.07-2.82-2.81,0-12.18.01-24.36-.02-36.53,0-1.61.55-2.69,2.1-3.21h28.44ZM62.25,88.56c0,6.12,0,12.25,0,18.37,0,1.02.28,1.3,1.28,1.3,8.89,0,17.78,0,26.67,0,1.04,0,1.32-.28,1.32-1.33,0-12.19,0-24.39,0-36.58,0-1.05-.28-1.33-1.31-1.33-8.89,0-17.78,0-26.67,0-1.01,0-1.29.28-1.29,1.3,0,6.09,0,12.18,0,18.26ZM93.18,74.28v.68c0,10.55-.03,21.1.03,31.66.01,2.14-1.16,3.32-3.27,3.3-7.25-.07-14.5-.03-21.74-.03h-.66c0,.93,0,1.81,0,2.69,0,.85.1.96.95.96,9.12,0,18.23,0,27.35,0,.91,0,.99-.09.99-1.02,0-12.4,0-24.81,0-37.21,0-.14,0-.28,0-.42-.01-.4-.23-.6-.62-.61-.98,0-1.97,0-3.02,0ZM72.81,115.19c0,.91,0,1.77,0,2.63,0,.89.09.99.97.99,9.12,0,18.23,0,27.35,0,.87,0,.98-.11.98-.99,0-12.44,0-24.87,0-37.31,0-.16.05-.34-.02-.46-.11-.19-.3-.45-.47-.46-1.03-.04-2.06-.02-3.13-.02v.73c0,10.71-.03,21.41.02,32.12,0,1.86-1.07,2.81-2.77,2.79-7.42-.06-14.84-.02-22.26-.02h-.67Z"/>
      <path class="cls-2" d="M64.52,98.63c0-.83,0-1.66,0-2.49,0-.6.29-.91.88-.92,1.71-.02,3.42-.02,5.13,0,.57,0,.86.31.87.88.01,1.71.01,3.42,0,5.13,0,.56-.31.87-.88.87-1.71.01-3.42.01-5.13,0-.56,0-.86-.32-.87-.88-.01-.86,0-1.73,0-2.59ZM69.72,96.91h-3.51v3.51h3.51v-3.51Z"/>
      <path class="cls-2" d="M64.52,78.56c0-.83,0-1.66,0-2.49,0-.65.3-.95.96-.95,1.66,0,3.32,0,4.98,0,.65,0,.94.3.94.96,0,1.66,0,3.32,0,4.98,0,.65-.29.94-.96.95-1.66.01-3.32.01-4.98,0-.66,0-.94-.31-.94-.96,0-.83,0-1.66,0-2.49ZM69.72,76.82h-3.51v3.5h3.51v-3.5Z"/>
      <path class="cls-2" d="M64.52,88.61c0-.83,0-1.66,0-2.49,0-.66.29-.95.95-.95,1.66,0,3.32,0,4.98,0,.66,0,.95.29.95.95,0,1.66,0,3.32,0,4.98,0,.66-.29.95-.95.95-1.66,0-3.32,0-4.98,0-.66,0-.95-.3-.95-.95,0-.83,0-1.66,0-2.49ZM66.2,90.36h3.52v-3.49h-3.52v3.49Z"/>
      <path class="cls-2" d="M81.3,80.82c-2.23,0-4.46,0-6.69,0-.19,0-.39,0-.56-.04-.41-.12-.63-.41-.6-.85.03-.44.29-.68.72-.75.1-.02.21,0,.31,0,4.56,0,9.12,0,13.68,0,.09,0,.17,0,.26,0,.47.04.79.35.81.78.02.45-.3.81-.79.87-.14.02-.28,0-.41,0-2.25,0-4.49,0-6.74,0Z"/>
      <path class="cls-2" d="M81.33,89.21c2.23,0,4.46,0,6.69,0,.17,0,.35,0,.52.02.41.06.65.32.69.73.04.41-.15.71-.54.84-.21.07-.44.07-.66.07-4.46,0-8.91,0-13.37,0-.22,0-.46,0-.66-.07-.4-.12-.57-.43-.54-.84.04-.41.28-.66.68-.73.17-.03.34-.02.52-.02,2.23,0,4.46,0,6.69,0Z"/>
      <path class="cls-2" d="M81.35,100.91c-2.23,0-4.46,0-6.68,0-.21,0-.42,0-.62-.04-.38-.09-.59-.35-.6-.74-.02-.41.18-.7.57-.82.19-.06.41-.06.62-.06,4.47,0,8.95,0,13.42,0,.17,0,.35,0,.52.04.43.09.66.37.66.81,0,.43-.24.71-.68.79-.19.03-.38.03-.57.03-2.21,0-4.42,0-6.63,0Z"/>
      <path class="cls-2" d="M78.92,98.07c-1.48,0-2.97,0-4.45,0-.67,0-1.02-.29-1.02-.83,0-.54.35-.83,1.02-.83,2.99,0,5.97,0,8.96,0,.63,0,1.03.35,1.01.86-.02.49-.39.8-1.01.8-1.5,0-3,0-4.51,0Z"/>
      <path class="cls-2" d="M78.94,76.32c1.5,0,3.01,0,4.51,0,.49,0,.85.17.96.68.09.41-.18.84-.62.94-.2.04-.41.04-.62.04-2.84,0-5.67,0-8.51,0-.12,0-.24,0-.36,0-.55-.04-.87-.35-.87-.83,0-.48.32-.81.88-.81,1.54-.01,3.08,0,4.62,0h0Z"/>
      <path class="cls-2" d="M78.9,88.01c-1.5,0-3.01,0-4.51,0-.67,0-1.06-.43-.93-1,.12-.51.51-.65.98-.65,1.73,0,3.46,0,5.19,0,1.28,0,2.56,0,3.84,0,.71,0,1.12.53.9,1.11-.16.42-.49.55-.9.55-1.52,0-3.04,0-4.57,0Z"/>
    </g>
  </g>
</svg>