<?xml version="1.0" encoding="UTF-8"?>
<svg id="Capa_1" xmlns="http://www.w3.org/2000/svg" version="1.1" viewBox="0 0 1826.92 1090.72">
  <!-- Generator: Adobe Illustrator 29.5.0, SVG Export Plug-In . SVG Version: 2.1.0 Build 137)  -->
  <defs>
    <style>
      .st0 {
        fill: #090a0a;
      }
    </style>
  </defs>
  <g>
    <g>
      <path class="st0" d="M725.38,714.74c0-26.65,19.37-44.86,43.69-44.86,14.04,0,24.44,6.11,31.85,15.34l-6.24,4.03c-5.46-7.54-14.95-12.61-25.61-12.61-20.15,0-35.88,15.47-35.88,38.1s15.73,38.1,35.88,38.1c10.66,0,20.15-5.07,25.61-12.61l6.24,3.9c-7.67,9.49-17.81,15.47-31.85,15.47-24.31,0-43.69-18.2-43.69-44.86Z"/>
      <path class="st0" d="M854.87,669.89c25.35,0,42.13,19.5,42.13,44.86s-16.77,44.86-42.13,44.86-42.13-19.5-42.13-44.86,16.64-44.86,42.13-44.86ZM854.87,676.65c-21.06,0-34.32,15.99-34.32,38.1s13.26,38.1,34.32,38.1,34.32-16.25,34.32-38.1-13.52-38.1-34.32-38.1Z"/>
      <path class="st0" d="M977.34,758.04l-54.61-74.89v74.89h-7.41v-86.72h7.54l54.35,73.85v-73.85h7.41v86.72h-7.28Z"/>
      <path class="st0" d="M1006.2,740.23c5.59,6.5,14.69,12.61,27.04,12.61,17.81,0,22.88-9.88,22.88-17.29,0-12.22-11.57-15.6-23.79-18.85-13.65-3.77-28.21-7.67-28.21-23.66,0-14.17,12.74-23.14,28.47-23.14,13,0,22.62,4.55,29.38,12.22l-4.94,5.46c-6.24-7.54-15.08-10.92-24.83-10.92-11.57,0-20.28,6.63-20.28,15.99,0,10.27,10.79,13.26,22.62,16.38,14.04,4.03,29.38,8.45,29.38,26,0,11.18-7.41,24.57-30.81,24.57-14.3,0-25.09-5.72-31.72-13.78l4.81-5.59Z"/>
      <path class="st0" d="M1103.45,758.04v-79.96h-28.34v-6.76h64.23v6.76h-28.34v79.96h-7.54Z"/>
      <path class="st0" d="M1205.51,758.04l-24.31-35.88h-19.11v35.88h-7.41v-86.72h32.38c14.95,0,26.39,9.49,26.39,25.35s-11.18,24.44-24.05,24.96l25.09,36.41h-8.97ZM1186.4,678.08h-24.31v37.31h24.31c11.44,0,19.24-7.8,19.24-18.72s-7.8-18.59-19.24-18.59Z"/>
      <path class="st0" d="M1231.9,671.32h7.54v53.31c0,17.55,9.23,28.21,26.26,28.21s26.26-10.66,26.26-28.21v-53.31h7.54v53.44c0,21.45-11.44,34.84-33.8,34.84s-33.8-13.52-33.8-34.84v-53.44Z"/>
      <path class="st0" d="M1317.84,714.74c0-26.65,19.37-44.86,43.68-44.86,14.04,0,24.44,6.11,31.85,15.34l-6.24,4.03c-5.46-7.54-14.95-12.61-25.61-12.61-20.15,0-35.88,15.47-35.88,38.1s15.73,38.1,35.88,38.1c10.66,0,20.15-5.07,25.61-12.61l6.24,3.9c-7.67,9.49-17.81,15.47-31.85,15.47-24.31,0-43.68-18.2-43.68-44.86Z"/>
      <path class="st0" d="M1430.56,758.04v-79.96h-28.34v-6.76h64.23v6.76h-28.34v79.96h-7.54Z"/>
      <path class="st0" d="M1516.89,669.89c25.35,0,42.12,19.5,42.12,44.86s-16.77,44.86-42.12,44.86-42.13-19.5-42.13-44.86,16.64-44.86,42.13-44.86ZM1516.89,676.65c-21.06,0-34.32,15.99-34.32,38.1s13.26,38.1,34.32,38.1,34.32-16.25,34.32-38.1-13.52-38.1-34.32-38.1Z"/>
      <path class="st0" d="M1628.18,758.04l-24.31-35.88h-19.11v35.88h-7.41v-86.72h32.38c14.95,0,26.39,9.49,26.39,25.35s-11.18,24.44-24.05,24.96l25.09,36.41h-8.97ZM1609.07,678.08h-24.31v37.31h24.31c11.44,0,19.24-7.8,19.24-18.72s-7.8-18.59-19.24-18.59Z"/>
      <path class="st0" d="M1654.57,758.04v-86.72h55v6.76h-47.59v32.11h46.68v6.76h-46.68v34.32h47.59v6.76h-55Z"/>
      <path class="st0" d="M1727.9,740.23c5.59,6.5,14.69,12.61,27.04,12.61,17.81,0,22.88-9.88,22.88-17.29,0-12.22-11.57-15.6-23.79-18.85-13.65-3.77-28.21-7.67-28.21-23.66,0-14.17,12.74-23.14,28.47-23.14,13,0,22.62,4.55,29.38,12.22l-4.94,5.46c-6.24-7.54-15.08-10.92-24.83-10.92-11.57,0-20.28,6.63-20.28,15.99,0,10.27,10.79,13.26,22.62,16.38,14.04,4.03,29.38,8.45,29.38,26,0,11.18-7.41,24.57-30.81,24.57-14.3,0-25.09-5.72-31.72-13.78l4.81-5.59Z"/>
    </g>
    <g>
      <path class="st0" d="M1161.77,406.74c-6.91.02-14,.91-20.71,2.59-36.13,9.05-60.32,40.47-60.35,77.82-.02,27.46-.07,54.92.06,82.37.02,4.91.45,9.91,1.4,14.72,7.73,39.22,39.68,65.34,79.99,65.38,76.06.06,152.12.02,228.19.02h5.39v-137.22h-192.02v31.64h160.22v73.37h-5.67c-66.51,0-133.02.02-199.54,0-23.78,0-45.13-19.75-45.68-43.55-.69-30-.77-60.03-.09-90.03.59-26.04,21.23-45.01,47.29-45.01,77.6,0,155.19,0,232.79,0h5.99v-32.2h-4.48c-77.6,0-155.19-.07-232.79.11Z"/>
      <path class="st0" d="M978.87,407.59c-74.35-.06-148.7-.02-223.05,0-1.8,0-3.6.16-5.27.24v240.71h31.42v-75.87h7.36c60.71,0,121.41.01,182.12-.03,4.93,0,9.87-.23,14.79-.62,28.98-2.3,55.58-26.79,59.02-55.67,1.63-13.63,1.2-27.55,1.17-41.33-.06-37.79-29.77-67.39-67.56-67.42ZM1014.4,506.94c-.31,17.72-15.66,33.58-33.39,33.63-65.32.21-130.64.09-195.96.08-.67,0-1.33-.14-2.89-.32v-5.34c0-30.02.11-60.03-.11-90.05-.04-4.86,1.56-5.95,6.12-5.94,62.76.13,125.53.04,188.29.11,18.56.02,32.69,10.35,37.01,27,.88,3.4.89,7.08.93,10.63.11,10.06.18,20.13,0,30.19Z"/>
      <path class="st0" d="M1758.96,645.65c-44.81-78.56-89.64-157.11-134.39-235.71-1.49-2.62-3.19-3.4-6.06-3.37-13.13.13-26.27.21-39.39-.04-3.88-.07-6.03,1.04-8.01,4.52-44.11,77.59-88.37,155.09-132.59,232.62-.82,1.43-1.51,2.93-2.67,5.19,11.09,0,21.43-.13,31.75.07,3.32.06,5.23-.97,6.86-3.93,6.83-12.38,14.04-24.54,20.82-36.94,1.8-3.29,3.82-4.49,7.56-4.48,63.61.11,127.22.11,190.83,0,3.55,0,5.5,1.15,7.21,4.21,7.07,12.63,14.33,25.16,21.71,37.62.88,1.49,2.89,3.24,4.42,3.28,10.89.28,21.78.15,33.43.15-.8-1.71-1.09-2.49-1.5-3.2ZM1516.18,571.57c27.41-47.82,54.45-94.99,82.2-143.4,27.47,48.18,54.36,95.36,81.75,143.4h-163.95Z"/>
    </g>
  </g>
  <g>
    <path class="st0" d="M331.43,433.08c0-73.08,0-146.17,0-219.25,0-4.04-.08-8.08.08-12.1.84-21.56,9.88-28.23,26.12-18.95,54.99,31.45,109.93,63.04,164.87,94.59,34.94,20.06,69.42,41.36,104.96,59.77,19.68,10.2,25.3,26.82,25.27,49.75-.15,99.54-.06,199.07-.06,298.61,0,25.56.11,51.11-.04,76.67-.03,5.78-.39,11.71-1.53,17.3-2.72,13.36-6.99,16.31-17.94,12.84-85.14-26.96-170.27-53.99-255.41-80.98-5.1-1.62-10.23-3.05-15.33-4.65-23.67-7.44-30.94-18.47-30.96-47.63-.06-75.32-.02-150.65-.03-225.97Z"/>
    <path class="st0" d="M313.53,434.14c0,74.46.02,148.92-.01,223.38-.01,29.02-7.2,40.71-29.97,49.39-73.55,28.01-147.09,56.07-220.64,84.06-13.43,5.11-18.54,1.4-20.82-15.33-.78-5.71-.77-11.62-.77-17.43-.02-124.25.05-248.5-.02-372.75-.01-21.32,5.95-36.66,22.82-48.06,73.09-49.39,145.5-100.21,218.16-150.5,2.93-2.03,5.78-4.29,8.86-5.94,10.62-5.7,18.9-1.01,21.36,12.42.95,5.19.95,10.69.95,16.05.06,74.91.04,149.82.04,224.73h.04Z"/>
    <path class="st0" d="M636.88,806.49c-33.04,5.98-62.79,11.41-92.55,16.75-62.25,11.19-124.36,23.82-186.85,32.66-20.36,2.88-41.81-3.26-62.57-6.87-73.86-12.82-147.65-26.31-221.45-39.59-4.43-.8-8.81-1.99-16.34-3.71,32.91-11.13,62.9-21.28,92.89-31.42,44.59-15.07,89.12-30.4,133.79-45.12,29.13-9.6,58.17-6.3,87.23,1.89,84.74,23.88,169.57,47.32,254.36,70.98,2.79.78,5.48,2.09,11.48,4.42Z"/>
  </g>
</svg>