<?xml version="1.0" encoding="UTF-8"?>
<svg id="Layer_2" data-name="Layer 2" xmlns="http://www.w3.org/2000/svg" viewBox="0 0 126.42 64.2">
  <defs>
    <style>
      .cls-1 {
        fill: #002f63;
      }

      .cls-1, .cls-2, .cls-3, .cls-4 {
        stroke-width: 0px;
      }

      .cls-2 {
        fill: #00bdc2;
      }

      .cls-3 {
        fill: #00bbc1;
      }

      .cls-4 {
        fill: #fff;
      }
    </style>
  </defs>
  <g id="Capa_1" data-name="Capa 1">
    <g>
      <rect class="cls-1" width="126.42" height="64.2"/>
      <path class="cls-4" d="M52.07,33.45l3.25,1.95c-.4.64-.88,1.25-1.44,1.8-1.85,1.86-4.09,2.79-6.7,2.79s-4.84-.93-6.69-2.78c-1.85-1.85-2.77-4.09-2.77-6.7s.92-4.85,2.77-6.7c1.85-1.85,4.08-2.78,6.69-2.78s4.84.92,6.7,2.77c.55.57,1.03,1.18,1.44,1.82l-3.25,1.95c-.24-.38-.53-.74-.87-1.08-1.11-1.11-2.45-1.67-4.01-1.67s-2.9.56-4.01,1.67c-1.11,1.11-1.66,2.45-1.66,4.02s.55,2.91,1.66,4.02c1.11,1.11,2.45,1.67,4.01,1.67s2.9-.56,4.01-1.67c.34-.34.63-.7.87-1.08"/>
      <rect class="cls-4" x="70.64" y="25.22" width="3.78" height="14.77"/>
      <polygon class="cls-4" points="74.43 24.46 74.43 21.11 70.64 21.11 74.43 24.46"/>
      <polygon class="cls-4" points="80.37 21.11 84.69 30.51 88.9 21.11 92.95 21.11 84.69 39.99 76.33 21.11 80.37 21.11"/>
      <path class="cls-4" d="M106.8,34.53c-1.11,1.11-2.45,1.67-4.01,1.67s-2.9-.56-4.01-1.67c-.63-.63-1.08-1.34-1.36-2.12h11.69l-2.7-3.79h-8.99c.28-.78.73-1.49,1.36-2.12,1.11-1.11,2.45-1.67,4.01-1.67.34,0,.66.03.97.08l-2.66-3.73c-1.9.32-3.56,1.2-5,2.64-1.85,1.85-2.77,4.09-2.77,6.7s.92,4.85,2.77,6.7c1.85,1.85,4.08,2.78,6.69,2.78s4.84-.93,6.7-2.79l.89-1.01-3.37-1.9c-.06.08-.13.15-.21.23"/>
      <path class="cls-3" d="M72.17,46.17h1.02c.21,0,.34,0,.37,0,.04,0,.07-.01.1-.03.06-.03.09-.12.09-.25s-.04-.22-.11-.24c-.02,0-.18-.02-.46-.02h-1.02v.55ZM72.17,44.96h1.01c.22,0,.35-.01.4-.04.06-.03.08-.11.08-.24s-.03-.21-.1-.23c-.03,0-.15-.02-.38-.02h-1.01v.52ZM70.76,46.96v-3.29h2.5c.53,0,.85,0,.95.01.23.01.39.05.5.12.1.06.18.15.22.26.05.11.07.27.07.47,0,.24-.03.41-.1.52-.07.11-.19.19-.37.24.15.03.27.06.34.11.17.11.25.33.25.68,0,.27-.04.47-.13.6-.06.09-.14.15-.24.19-.1.04-.25.07-.43.08-.12,0-.47.01-1.06.02h-2.51ZM78.2,44.49c-.47,0-.76.01-.86.04-.11.03-.18.1-.22.21-.03.11-.05.33-.05.66,0,.2,0,.34.03.43.04.16.14.26.32.28.13.02.39.03.78.03.36,0,.6,0,.72-.02.12-.01.21-.05.26-.1.05-.04.09-.11.11-.2.02-.09.03-.23.03-.42,0-.23,0-.4-.02-.51-.01-.11-.04-.19-.08-.25-.05-.07-.13-.11-.23-.13-.11-.02-.37-.02-.79-.02M78.2,43.65c.76,0,1.28.02,1.57.05.41.05.66.23.76.54.06.21.09.57.09,1.07s-.03.87-.09,1.08c-.09.31-.35.49-.76.54-.29.04-.8.05-1.56.05s-1.29-.02-1.58-.05c-.41-.05-.66-.23-.76-.54-.06-.21-.09-.58-.09-1.1s.03-.85.09-1.06c.09-.31.35-.49.76-.54.28-.03.81-.05,1.57-.05M82.76,46.12h.99c.18,0,.32,0,.4-.03.09-.02.15-.05.18-.09.04-.05.07-.12.08-.22.02-.1.02-.25.02-.46s0-.36-.02-.46c-.01-.1-.04-.18-.07-.24-.04-.06-.1-.1-.17-.11-.07-.02-.22-.03-.43-.03h-.98v1.63ZM81.26,46.96v-3.29h2.55c.45,0,.75,0,.89.01.14,0,.29.02.44.05.35.07.58.25.69.56.04.12.07.24.08.37.01.13.02.33.02.6,0,.29,0,.52-.02.67-.02.15-.05.29-.09.41-.11.29-.32.47-.65.54-.15.03-.32.05-.49.06-.17.01-.46.02-.85.02h-2.55ZM86.25,43.66h1.31l1.06,1.32,1.02-1.32h1.3l-1.7,2.13v1.17h-1.25v-1.17l-1.75-2.13ZM91.33,43.66h4.1v.84h-1.3v2.45h-1.5v-2.45h-1.29v-.84ZM96.12,43.66h3.79v.77h-2.4v.48h2.27v.72h-2.27v.53h2.42v.79h-3.8v-3.29ZM103.98,45.69h1.36c0,.16,0,.26,0,.31,0,.26-.04.45-.11.6-.08.16-.23.27-.47.33-.23.06-1.03.1-1.6.09l-1.1-.03c-.8-.02-1.61-.27-1.62-.92l-.02-1.35c-.01-.83.45-1.08,1.48-1.09h1.26c.4-.01,1.1,0,1.28.02.18.02.33.06.44.11.14.07.24.18.3.32.06.14.09.34.09.61,0,.01,0,.2,0,.29h-1.36c0-.11-.01-.31-.02-.35,0-.04-.03-.07-.05-.09-.04-.03-.13-.06-.28-.07-.15-.02-.37-.02-.67-.02s-.51,0-.62.02c-.12.01-.2.04-.24.08-.06.05-.1.13-.12.24-.02.11-.03.3-.03.55s.01.42.03.53c.02.1.06.18.12.22.05.04.14.07.26.09.12.01.32.02.62.02.37,0,.61,0,.73-.02.12-.01.2-.04.25-.08.06-.06.09-.19.09-.39h0ZM105.95,43.66h1.33v1.08h1.66v-1.08h1.43v3.29h-1.43v-1.44h-1.66v1.44h-1.33v-3.29Z"/>
      <path class="cls-4" d="M59.34,21.11v-7.55h3.76v7.55h2.86l3.79,3.78h-6.65v5.66c0,1.56.55,2.89,1.66,4,1.1,1.11,2.43,1.66,3.99,1.66v3.77c-2.6,0-4.82-.92-6.65-2.77-1.84-1.84-2.76-4.07-2.76-6.67v-5.66h-1.6l-2.95-3.78h4.55Z"/>
      <path class="cls-2" d="M19.17,31.3l-.03.09c-.47,1.18-1.81,1.75-2.99,1.27-1.09-.44-1.66-1.63-1.35-2.74l.02-.09c.34-1.22,1.6-1.95,2.83-1.61,1.23.34,1.94,1.6,1.61,2.83-.02.08-.05.17-.08.25"/>
      <path class="cls-2" d="M19.39,35.66l.04.07c.4.75.13,1.68-.62,2.08-.69.37-1.54.16-1.99-.47l-.05-.07c-.49-.7-.32-1.66.37-2.15.7-.49,1.66-.32,2.15.37.03.05.07.1.1.15"/>
      <path class="cls-2" d="M21.94,38.63l.04.03c.36.27.44.78.17,1.14-.25.34-.71.43-1.06.23l-.05-.03c-.39-.22-.53-.72-.31-1.12.22-.39.73-.53,1.12-.31.03.01.06.03.08.05"/>
      <path class="cls-2" d="M25.2,38.91h.06c.34.08.55.4.49.74-.06.31-.35.52-.66.5h-.06c-.34-.03-.6-.33-.57-.67.03-.34.33-.6.67-.57.02,0,.05,0,.07,0"/>
      <path class="cls-4" d="M32.06,21.03v1.88c-1.63-1.25-3.52-1.88-5.67-1.88-2.61,0-4.84.93-6.69,2.78-.61.61-1.12,1.27-1.53,1.97l2.67,3.54c.22-1.07.73-2.01,1.54-2.83,1.11-1.11,2.45-1.67,4.01-1.67s2.9.56,4.01,1.67c1.11,1.11,1.66,2.45,1.66,4.02s-.56,2.91-1.66,4.02c-1.11,1.11-2.45,1.67-4.01,1.67-.13,0-.26,0-.38-.01l2.67,3.54c1.23-.29,2.37-.82,3.39-1.61v1.88h3.78v-18.96h-3.78Z"/>
      <polygon class="cls-4" points="74.43 24.46 74.43 21.11 70.64 21.11 74.43 24.46"/>
    </g>
  </g>
</svg>