<?xml version="1.0" encoding="UTF-8"?>
<svg id="Layer_2" data-name="Layer 2" xmlns="http://www.w3.org/2000/svg" viewBox="0 0 135.37 47.89">
  <defs>
    <style>
      .cls-1 {
        fill: #c99b92;
      }

      .cls-1, .cls-2, .cls-3, .cls-4, .cls-5, .cls-6, .cls-7, .cls-8, .cls-9, .cls-10, .cls-11 {
        stroke-width: 0px;
      }

      .cls-2 {
        fill: #aa3836;
      }

      .cls-3 {
        fill: #aa3735;
      }

      .cls-4 {
        fill: #dbd1d4;
      }

      .cls-5 {
        fill: #b1524d;
      }

      .cls-6 {
        fill: #b599b8;
      }

      .cls-7 {
        fill: #ac3f3d;
      }

      .cls-8 {
        fill: #ac3d3b;
      }

      .cls-9 {
        fill: #aa3734;
      }

      .cls-10 {
        fill: #ba746e;
      }

      .cls-11 {
        fill: #ab3a37;
      }
    </style>
  </defs>
  <g id="Capa_1" data-name="Capa 1">
    <g>
      <path class="cls-8" d="M20.96,5.2c.03.08.05.17.08.25.9,2.34-.1,3.87-2.71,3.68,0,0-.04,0-.04,0-.06-.39-.44-.57-.67-.47-.23.09-.43.44-.22.82.11.19.08.46.11.68,0,.18,0,.36.01.54-.08.69.26,1.05.93,1.04.42,0,.77.12,1.03.39.26.26.05.34-.21.33-.03-.1-.08-.16-.2-.14-.36-.12-.71-.19-1.06.02-.3-.11-.38.15-.39.31-.02.26.26.11.38.19.99.4,2.05.33,3.21.34-.75.49-1.46.31-2.14.35-.5-.37-1.03-.15-1.7-.11.54.68,1.18.37,1.7.48.1.28.46.05.62.35-.6.33-1.24.11-1.85.17-.68.06-1.09.71-.91,1.46,0,.04,0,.09.02.13-.82.46-.58,1.54-1.22,2.1,0,.13-.02.25-.02.38-.22.26-.69.42-.29.9.14.17-.08.16-.16.17-.23.05-.45.21-.43.38.09.79-.84,1.05-.88,1.78,0,.19-.37.38.08.49.05.01.09.07.13.1-.91-.14-.43,1.27-1.31,1.17,0-.07,0-.14,0-.21.2-.13.18-.33.2-.53.2-.24.28-.52.31-.97-.49.35-1.05.37-1.16.98-.73.73-1.68,1.26-1.96,2.39-.05.2-.52.24-.63.61-.09.3-.02.37.24.38,0,.05,0,.1,0,.15-.94.03-.9.98-.97,1.42-.18,1.26-.83,2.23-1.39,3.32.14.04.32.08.58.14-1.43.3-1.53.51-1.25,1.88.07.34.01.7.01,1.16-.4-.58-.37-1.18-.5-1.73-.08-.33-.4-.42-.47-.21-.21.65-.71.44-1.13.52-.49.09-.97.24-1.58.39.12-.39.33-.43.54-.48,1.01-.26,1.88-.79,2.76-1.32,1.28-.77,1.58-2.16,1.94-3.41.52-1.82,1.36-3.39,2.67-4.74.74-.76.98-1.85,1.69-2.65.31-.35.57-.79.96-1.02,2.05-1.24,2.36-3.45,2.99-5.43.24-.77-.37-1.61-.59-2.41-.65-2.34-1.55-4.62-1.97-7.03.18.06.36.12.53.18.08.2-.31.52,0,.57.69.12.15.52.24.77-.09.31.07.55.22.79.08.01.16.03.24.04-.02.03-.03.06-.01.1-.08,1.01.43,1.83.86,2.67.1.44-.21,1,.37,1.31.34.17-.22.87.54.86-.02-.62.1-1.22-.06-1.82-.04-.18-.09-.35-.13-.52.17-1.55-.22-3.13.51-4.66.36-.76-1.37-2.14-2.19-1.84-.3.11-.46.33-.45.66-.22.12-.44.24-.67.35.45-1.11,1.17-2.07,1.84-3.03.42-.61,1.22-.27,1.83.04.26.13.48.32.8.54.21-.98.58-1.74,1.75-1.65.37.03.59.22.85.39.93.65,1.93,1.22,2.68,2.11-.04.04-.09.09-.13.14-.79-.57-1.56-1.15-2.36-1.7-1.41-.95-1.58-.87-1.92.71,0,.02.04.05.1.14,1.02-.69,1.86-.23,2.71.45.78.62,1.61,1.16,2.43,1.73.55.59,1.1,1.19,1.65,1.78.08-.07.15-.14.23-.21-.41-.71-.97-1.3-1.64-1.8-.17-.18-.34-.36-.51-.55.05-.05.1-.11.15-.16,1.34.68,2.21,1.79,2.85,3.1,1,2.04,2.16,3.97,3.44,5.84.76,1.1.97,2.43,1.24,3.71.59,2.83,1.49,5.57,2.65,8.2.79,1.78.34,3.06-1.08,4.22-2.11,1.72-4.18,3.49-6.28,5.23-1.75,1.46-3.48,2.95-5.28,4.34-4.38,3.39-8.85,6.61-14.37,7.99-2.22.55-4.37,1.38-6.54,2.11-.35.12-.66.15-1.22-.06,3.29-1.06,6.38-2.05,9.48-3.05.16.03.29-.02.37-.16.05,0,.11-.01.16-.02.17.04.29-.03.37-.18,1.3-.3,2.42-1,3.7-1.67-.34-.05-.51-.07-.68-.09-.02-.05-.03-.15-.06-.15-.13-.03-.1.09-.12.16-1.11.65-2.35.99-3.54,1.46-.37.06-.77.06-.9.52-1.3.03-2.45.64-3.68.97-.44.11-.84.41-1.38.22.27-.44.75-.41,1.13-.53,3.07-1.02,6.12-2.08,9.04-3.49.14,0,.27.01.41.02,0,.12-.01.23-.02.35.02.16-.02.46.17.42.19-.04.54-.07.53-.44.07-.09.14-.25.22-.26,1.24-.13,1.91-1.25,2.98-1.68.18-.04.18-.2.22-.33,1.26-.56,2.18-1.6,3.34-2.31.22-.09.19-.33.28-.49.21-.34-.13-.37-.29-.51h-.01c.72-.14,1.57.07,2.08-.67.17-.25.46-.36.61-.54.53-.64,1.51-.8,1.77-1.7.26-.09.62-.05.58-.49l.02-.02c.51-.34,1.15-.52,1.5-1.09l.16-.24c.39.07.57-.17.73-.46.11-.1.19-.21.15-.37.71-.47,1.57-.76,2.13-1.5q-.45-.09-.32-.28c.84.1,1.33-.5,1.89-.94,1.95-1.53,2.17-3.12.77-5.24h.01c-.07-1.08-.67-2.01-.97-3.04-.53-1.81-.98-3.63-1.44-5.45-.2-.8-.44-1.59-1.76-1.82.97-.15.84-.48.6-.88-2.27-3.65-4.73-7.12-8.51-9.41-.37-.23-.72-.51-1.2-.47-.58.22-.9.58-.7,1.24.02.24-.33.55.15.7h.18c.22.12.44.23.7.16,0,.6.45.84.89,1.09.15.78.71,1.04,1.41,1.14.05.16-.33.34,0,.5,0,.05.02.11.02.16-.48.29-.04.33.12.46-.08.04-.27.02-.19.17.05.1.21.05.31-.04.18-.22.45.12.64-.09.06,0,.12,0,.18,0,.01.06.02.12.03.18-.06.23-.11.47-.17.7-.08.12-.15.24-.23.36-.03.06-.05.11-.08.17-.02.07-.04.13-.06.2.02.26.19.17.34.15.03,1.08.49,2.05.88,3.02.14.27.14.64.55.7.37.18-.19.47.09.67.66-.05,1.18-.66,1.91-.45-.3.44-.84.42-1.23.67-.25.17-.6.33-.55.68.05.36.47.1.67.29-.17.23-.57-.07-.71.32.25.27.62.02.99.23-1.33-.03-.66.89-.77,1.41-.05.24.18.53.28.8,0,.05,0,.1,0,.15,0,.55.26.88.78,1.08.58.23,1.11.56,1.68.86-.38.42-.67.07-.96,0-.71-.19-1.43-.38-2.09.15,0,0,.02.02.02.02-.05.03-.11.07-.16.1.07.03.13.06.19.08.05.06.11.13.16.19-.11.02-.22.03-.32.05-.22-.05-.46,0-.45.23.01.15.29.08.45.05.04.47-.48.03-.53.3,2.06.36,3.13,2.1,4.87,3.32-.74-.1-1.37-.56-2.04-1.18-.66-.62-1.38-1.17-2.3-1.36-.05-.17-.19-.16-.33-.16-.44-.29-.93-.41-1.46-.35-.32.03-.44.13-.21.42.02.1.04.2.05.29,0,.44.26.54.64.52.38-.02.76,0,1.15.15h-1.63c.56.98,1.44.29,2.06.66-.44.17-.89.03-1.32.09-.82.12.42.8-.3.94-.9-1.4-1.62-2.91-1.48-4.66.15-1.86.46-3.71.63-5.56.29-3.11,0-6.08-2.1-8.61-.07-.09-.14-.19-.2-.29-.17-.17-.28-.44-.67-.36.2.18.37.33.54.48.04.05.09.11.13.16M25.43,18.11c-.04.07-.09.14-.13.21,0,.01.04.04.05.07.04-.07.09-.14.13-.21.07-.04.19-.07.19-.11,0-.15-.13-.11-.22-.12,0-.37-.22-.49-.54-.53-.03-.03-.05-.05-.08-.08.02.03.05.06.07.09.02.33.21.49.53.53,0,.05-.01.1-.02.15M23.33,17.42c0-.06-.02-.11-.03-.17-.03.02-.05.03-.09.05l.12.12c.01.06.02.11.03.17.03-.02.06-.03.09-.05-.04-.04-.08-.08-.12-.12M24.83,18.84c.11.05,0,.34.19.24.16-.09-.05-.22-.09-.33-.02-.23-.15-.2-.29-.11-.04.03-.07.08-.11.12.1.03.2.06.3.09M24.22,17.08c.28-.27.05-.45-.11-.66-.12-.15-.31-.37-.08-.53.69-.49.24-1.18.35-1.76.04-.21-.07-.42-.34-.4-.39.02-.25.29-.21.51.02.11.02.23.04.35-.73.57-.25,1.42-.45,2.13-.13.47.62-.02.79.34-.07.03-.14.06-.21.08.02.02.04.06.05.06.06-.04.12-.07.18-.11M16.94,3.09c.19.64.64.88,1.28.84,1.08-.36,1.19-.9.33-1.67-.35-.31-.71-.64-1.12-.84-.45-.22-1.01-.31-1.35.19-.33.48-.11.84.4,1.09.18.09.31.26.47.39M20.85,6.88c-.02-1.55-.82-2.37-2.14-2.22-.44.05-.81.34-.82.66-.04.9.06,1.8.16,2.7.02.18.09.47.38.52,1.38.26,2.64,0,2.42-1.66M18.97,4.28c.37.06.75.11,1.24.18-.45-.4-.84-.36-1.24-.18M25.11,16.59c-.07.1-.14.15-.15.22,0,.07.03.2.07.21.13.03.21-.07.2-.19,0-.07-.07-.13-.13-.24M24.56,19.12c-.08.1-.14.15-.16.21-.01.03.04.09.06.14.07-.04.15-.07.19-.13.02-.03-.05-.11-.09-.22M22.69,36.64c-.05-.02-.1-.06-.14-.05-.05,0-.08.06-.13.09.07.02.13.05.2.06.02,0,.05-.07.07-.11"/>
      <path class="cls-3" d="M77.44,3.61c0,4.66-.02,9.33-.02,14,0,1.16.53,1.66,2.06,2.06-.46.3-3.78.36-5.06-.03,2.71-.22,2.47-1.95,2.46-3.63-.03-3.98,0-7.97-.01-11.96,0-1.31-.17-1.49-1.45-1.91-.2-.06-.72.03-.63-.42.07-.35.45-.19.69-.19,1.03-.02,2.07.03,3.1-.02.53-.02.78.16.96.64.88,2.32,1.78,4.63,2.68,6.94.94,2.44,1.89,4.88,2.91,7.49,1.43-3.88,2.8-7.59,4.16-11.29.41-1.11.85-2.22,1.22-3.34.11-.33.29-.42.57-.42,1.32,0,2.64,0,4,0-.02.44-.25.44-.53.48-1.04.17-1.53.75-1.53,1.82,0,4.6,0,9.21,0,13.82,0,1.18.52,1.73,1.73,1.89.14.02.3,0,.38.27h-6.5c.01-.07,0-.16.03-.18,2.05-.79,2.06-.8,2.06-3.05V3.6c-.05-.01-.1-.02-.15-.03-.36.88-.74,1.74-1.07,2.63-1.5,4.07-2.96,8.15-4.48,12.21-.19.51-.2,1.39-.78,1.42-.66.04-.66-.86-.85-1.35-1.33-3.32-2.57-6.68-3.85-10.02-.63-1.63-1.29-3.24-1.94-4.86-.02-.09.04-.22-.13-.22,0,0-.01.15-.02.23"/>
      <path class="cls-3" d="M125.77,43.44c-2.67.84-4.91.05-6.47-2.13-1.28-1.79-2.46-3.64-3.48-5.57-.4-.75-.93-.84-1.65-.82-1.72.04-1.72.01-1.72,1.71,0,1.48,0,2.95,0,4.43,0,1.55.51,2.1,2.05,2.25.16.02.37-.06.48.27h-7.11c.18-.43.59-.31.84-.4.99-.38,1.45-.82,1.45-1.84.02-4.46.06-8.91-.02-13.37-.02-1.28-.15-1.99-1.79-2.21-.2-.02-.38-.11-.39-.28-.02-.26.24-.2.39-.2,3,.07,6.02-.3,8.97.33,2.45.52,3.62,1.46,3.83,3.58.25,2.59-.75,4.02-3.02,5.07-.13.06-.29.04-.42.25,1.45,2.44,2.86,4.96,4.78,7.11.84.94,1.92,1.69,3.29,1.83M112.45,30.53c0,1.09.02,2.18,0,3.27,0,.44.13.64.6.62.62-.03,1.24,0,1.86-.01,2-.06,3.2-1.12,3.67-3.09.26-1.07.12-2.09-.16-3.1-.42-1.51-1.54-2.3-3.12-2.3h-1.24c-1.05,0-1.57.48-1.6,1.51-.03,1.03,0,2.06,0,3.09"/>
      <path class="cls-2" d="M87.82,34.55c.32-3.85,1.71-7.16,5.55-8.96,2.47-1.16,5.74-.4,7.71,1.39,2.41,2.2,3.36,4.99,3.23,8.1-.13,3.22-1.29,6.02-4.13,7.91-3.49,2.31-6.86,1.53-9.49-1.17-1.92-1.98-2.7-4.44-2.87-7.27M101.85,34.53c.08-2.23-.32-4.36-1.5-6.28-1.08-1.76-2.54-2.89-4.75-2.67-1.83.18-2.89,1.39-3.74,2.83-1.53,2.61-1.8,5.44-1.35,8.38.34,2.24,1.2,4.21,2.9,5.74,1.13,1.02,2.46,1.43,3.95.89,1.32-.48,2.28-1.42,2.98-2.6,1.16-1.93,1.6-4.04,1.5-6.28"/>
      <path class="cls-2" d="M116.01,11.61c.02-3.36.86-5.66,2.57-7.65,3.45-4,9.34-3.4,12.09.92,2.37,3.71,2.48,7.64.33,11.47-1.48,2.63-3.84,4.23-6.92,4.22-2.58-.01-4.61-1.39-6.08-3.47-1.31-1.85-2.05-3.93-1.99-5.49M130.04,10.93c.05-.83-.03-1.64-.18-2.45-.38-2.04-.97-3.94-2.56-5.44-1.79-1.68-4.21-1.75-5.99-.07-.98.93-1.64,2.04-2.1,3.29-.76,2.08-1.01,4.24-.66,6.43.35,2.22,1.1,4.31,2.82,5.89,2.06,1.89,4.02,1.7,5.96-.14,2.13-2.02,2.67-4.71,2.72-7.52"/>
      <path class="cls-9" d="M106.15,19.82h-7.09c2.25-.33,2.25-1.92,2.23-3.64-.06-3.96-.03-7.91-.04-11.87,0-1.64-.15-1.83-1.78-2.29-.18-.05-.37-.09-.39-.29-.02-.2.18-.2.31-.2,2.97.09,5.96-.3,8.9.3,1.83.37,3.45,1.21,3.91,3.2.73,3.12-.3,6.08-4.06,7.14-1.28.36-2.55.33-3.83.31-.71-.02-.84.25-.81.88.04,1.24-.01,2.48.02,3.72.05,2,.43,2.01,2.16,2.49.14.04.3-.02.48.27M103.52,7.66h-.02c0,1.21.02,2.42,0,3.63-.02.51.16.68.66.65.71-.04,1.43.07,2.12-.03,1.32-.18,2.44-.7,3.06-2.02.71-1.52.58-3.06.35-4.63-.27-1.85-1.35-2.88-3.18-3.22-1.96-.36-2.94.37-2.98,2.35-.02,1.09,0,2.18,0,3.27"/>
      <path class="cls-9" d="M61.46,43.41c.29-.09.59-.18.88-.29.79-.3,1.23-.85,1.23-1.73,0-4.55.05-9.1-.03-13.65-.02-1.44-.28-1.61-1.63-1.99-.18-.05-.48.07-.45-.26.02-.3.3-.22.49-.23.98,0,1.95,0,2.92,0,2.84,0,5.67.02,8.51-.02.72-.01.9.23.88.91-.05,1.33-.01,2.66-.02,3.99,0,.25.08.56-.34.58-.48.03-.42-.31-.41-.6.03-1.29-.1-2.49-1.11-3.49-.51-.5-1.11-.69-1.72-.76-1.14-.13-2.3-.15-3.45.02-.93.14-1.34.6-1.35,1.53-.02,2.12,0,4.25-.01,6.38,0,.44.09.66.58.62.56-.04,1.12.02,1.68-.02,1.1-.07,1.95-.96,2-2.06.02-.29,0-.59,0-.89,0-.17-.02-.37.24-.39.29-.03.34.16.34.39,0,.15,0,.29,0,.44,0,1.83,0,3.66,0,5.49,0,.27.11.59-.21.88-.27-.4-.29-.84-.35-1.28-.18-1.38-.9-2.02-2.27-2.05q-2-.04-2,1.93c0,1.45,0,2.9,0,4.34,0,1.22.6,1.82,1.83,1.88.18,0,.35,0,.53,0,.17,0,.28.07.29.25,0,.18-.09.27-.26.27-2.26,0-4.51,0-6.76,0-.01-.09-.02-.17-.03-.25"/>
      <path class="cls-2" d="M50.45,16.86c0,.86,0,1.71,0,2.56,0,.18.09.45-.24.47-.28.01-.4-.15-.46-.42-.28-1.21-.56-1.31-1.62-.56-4.23,3-9.87,1.2-11.69-3.35-1.45-3.62-1.34-7.24.6-10.6,1.33-2.32,3.49-3.6,6.3-3.7,1.91-.06,3.56.42,5.08,1.55.65.49.92.35,1.14-.49.07-.27.08-.66.44-.65.49.01.26.45.26.69.02,1.5.02,3.01,0,4.51,0,.27.12.63-.38.61-.44-.02-.29-.35-.33-.58-.38-3.03-2.25-5.11-5.47-5.08-2.71.02-4.56,1.51-5.31,4.39-.73,2.78-.9,5.59-.01,8.36.59,1.86,1.38,3.62,3.22,4.63,1.65.9,4.18.59,5.63-.62,1.28-1.08,1.72-2.52,1.95-4.07.05-.37-.07-.86.52-.8.55.05.3.55.31.85.04.77.01,1.54.01,2.3h.04Z"/>
      <path class="cls-2" d="M70.97,19.83h-6.1c-.13-.29.14-.29.27-.35,1.29-.57,1.66-1.5,1.11-2.86-.42-1.05-.88-2.08-1.25-3.15-.15-.44-.38-.53-.77-.53-1.72,0-3.43.01-5.14,0-.37,0-.62.09-.76.45-.43,1.11-.92,2.21-1.3,3.34-.48,1.46.07,2.39,1.58,2.8.16.04.36-.02.48.13,0,.31-.23.23-.38.23-1.33,0-2.66.01-3.98,0-.18,0-.46.12-.51-.17-.03-.17.15-.29.33-.37.99-.43,1.46-1.26,1.83-2.24,1.73-4.68,3.5-9.33,5.26-13.99.09-.24.25-.46.33-.71.15-.46.53-.7.93-.68.36.02.3.51.41.79,1.45,3.74,2.89,7.49,4.32,11.24.33.87.59,1.77.94,2.63.52,1.32,1.07,2.63,2.41,3.43M58.92,12.05c-.1.13-.26.28.04.36h5.47c.3-.09.14-.22.03-.34-.91-2.39-1.82-4.79-2.83-7.43-.96,2.62-1.84,5.02-2.72,7.41"/>
      <path class="cls-9" d="M135.37,43.57h-6.55c.04-.24.16-.25.27-.27,1.52-.33,1.78-.83,1.8-2.14.07-4.42.09-8.85-.02-13.27-.03-1.42-.02-1.82-1.73-2.13-.14-.03-.31,0-.33-.2-.02-.18.09-.28.26-.28h6.25c-.09.49-.37.44-.62.48-.87.14-1.45.74-1.46,1.59-.02,4.81-.02,9.61-.01,14.42,0,.71.71,1.35,1.56,1.52.18.04.42-.09.58.27"/>
      <path class="cls-9" d="M77.91,43.57c.17-.36.41-.25.59-.3,1.1-.24,1.66-.83,1.66-1.95.02-4.57,0-9.15-.02-13.72,0-1.05-.48-1.56-1.53-1.85-.24-.07-.55.04-.65-.41h6.62c-.12.33-.34.38-.6.41-.99.13-1.49.71-1.52,1.71-.01.44-.04.88-.04,1.32,0,3.84,0,7.67,0,11.51,0,2.29.06,2.39,2.3,3.27h-6.8Z"/>
      <path class="cls-11" d="M40.53,43.13c-.5.65-1.05,1.27-1.77,1.68-.85.49-1.53.1-1.61-.88-.02-.26-.02-.53-.03-.79.07-.24.71-.41.09-.74.67-.99,1.18-2.08,1.69-3.15.31-.65.3-1.34.06-2.02.05-.05.1-.11.15-.16.35.07.27.46.5.69,1.06-1.9,2.09-3.78,3.14-5.64,1.85-3.3,3.88-6.49,6-9.62.31-.45.68-.4.97-.23.39.22.2.61,0,.93-1.31,2.12-2.64,4.22-3.92,6.35-2.03,3.37-3.91,6.82-5.72,10.31-.58,1.12-1.11,2.25-1.52,3.44-.06.18-.28.33-.03.54.22.18.44.17.65.02.4-.3.77-.62,1.16-.93.06.07.13.13.19.2"/>
      <path class="cls-11" d="M41.77,41.36c1.08-1.34,1.9-2.9,3.4-3.86.85-.54,1.73-.98,2.77-.95.64.02,1.33.18,1.55.77.24.64.2,1.39-.39,1.96-1.06,1.05-2.33,1.67-3.78,1.88-1.52.22-1.69.33-1.95,1.77-.18.98.71,1.74,1.67,1.47.92-.26,1.7-.74,2.39-1.37.17-.15.31-.38.71-.16-1.24,1.16-2.47,2.19-4.23,2.18-.87,0-1.74-1.1-1.81-2.09-.04-.47.23-.99-.15-1.43-.06-.06-.13-.12-.19-.18M48.68,37.52c.07-.44-.12-.64-.64-.61-.39.02-.74.08-1.09.27-.89.49-1.37,1.34-1.91,2.12-.33.49-1.03,1.13-.66,1.57.4.47,1.2-.05,1.79-.26,1.22-.44,2.53-2.05,2.52-3.09"/>
      <path class="cls-11" d="M35.9,44.17c-.38.33-.8.59-1.29.73-1.38.42-2.32-.26-2.42-1.71-.11-1.56.5-2.87,1.43-4.03.92-1.15,2.01-2.14,3.52-2.51.73-.18,1.44-.28,1.99.42-.05.05-.1.1-.15.16-.86-.35-1.6-.11-2.28.44-1.57,1.26-2.46,2.97-3.21,4.76-.24.57-.52,1.3.15,1.86.68.57,1.25.02,1.86-.2.08-.03.15-.09.23-.13l.2.19Z"/>
      <path class="cls-11" d="M51.51,38.68c.38-.59.77-1.18,1.16-1.76.24-.35.57-.53.97-.26.38.26.42.57.18.98-.98,1.73-1.94,3.48-2.9,5.22-.13.23-.22.48-.35.71-.13.22-.18.42,0,.64.2.23.36,0,.54,0,.36-.02.6-.33,1.07-.42-.47.87-1.15,1.21-1.95,1.26-.76.05-1.1-.9-.71-1.83.37-.86.73-1.72,1.1-2.58h0c.18-.06.16-.22.18-.36v.02c.16-.12.27-.24,0-.35,0-.12,0-.24,0-.36.05-.07.1-.13.15-.19.5,0,.85-.09.55-.71"/>
      <path class="cls-7" d="M21.72,36.47h.01c-1.03.62-1.81,1.61-2.9,2.12-.4.19-.02.58-.24.61-.91.13-1.41.91-2.17,1.27h-.34s-.08-.07-.12-.12c.98-.79,1.96-1.59,2.95-2.38,1.17-.94,2.3-1.93,3.49-2.83,1.01-.77,2.01-1.54,2.99-2.34.55-.45,1.16-.83,1.61-1.39.43-.53,1.02-.79,1.63-1.05h.38c.05.18.25.31.18.54-.21,0-.37.09-.4.32-.43.05-.92.02-1.23.36-.61.67-1.37,1.17-2.03,1.77-.27.1-.26.4-.44.57-.68.03-.83.82-1.25,1-.73.29-1.08,1.11-1.89,1.22-.09.01-.15.23-.22.35"/>
      <path class="cls-11" d="M54.92,32.65c.4-.05.71.16.68.69-.04.52-.34.87-.87.9-.44.02-.73-.26-.71-.69.02-.47.18-.92.91-.9"/>
      <path class="cls-5" d="M53.09,42.58c1.09-1.3,2.17-2.59,3.26-3.89.06.05.12.1.18.15-.98,1.39-2.07,2.69-3.26,3.92-.06-.06-.13-.12-.19-.18"/>
      <path class="cls-2" d="M19.42,20.97c-.13-1.1.37-2.12.37-3.2,0-.14-.01-.33.19-.33.17,0,.29.11.26.35-.12,1.02.26,2.15-.59,3.03-.07.05-.15.1-.22.15"/>
      <path class="cls-7" d="M33.78,22.91c-.29.38.2.61.17.93-.02.3.24.62-.16,1.01.09-1.33-1.14-2.04-1.29-3.3.61.38.47,1.32,1.3,1.37h-.01"/>
      <path class="cls-5" d="M30.6,29.11c-.46.51-1.06.84-1.59,1.25h-.38c.13-.32.89-.54.07-1,.69-.09,1.3-.17,1.9-.25M29.43,29.62s-.06-.09-.09-.09c-.05,0-.1.04-.15.06.03.04.05.1.08.1.05,0,.1-.04.15-.07"/>
      <path class="cls-10" d="M21.73,5.02c-.44-.24-.88-.48-.89-1.09.08-.15.05-.62.36-.13.26.41.67.61,1.15.71-.09.34-.39.38-.62.51"/>
      <path class="cls-10" d="M9.85,25.9s0-.09,0-.15c1-.39,2.05-.57,3.1-.72-.99.44-2.05.66-3.11.86"/>
      <path class="cls-7" d="M14.31,41.34c-.14,0-.27-.01-.41-.02.69-.45,1.37-.9,2.06-1.34.04.04.08.09.12.13-.02.16-.04.33-.05.5-.73-.13-1.08.64-1.72.73"/>
      <path class="cls-10" d="M35.9,44.17l-.2-.19c.51-.52,1.01-1.04,1.52-1.57.62.33-.02.5-.1.74-.51.21-.69.82-1.22,1.02"/>
      <path class="cls-10" d="M17.74,26.11c-.09.29-.51.25-.37.62.35.21.64-.32,1.08-.13-.41.37-.87.54-1.35.52-.23-.01-.1-.36-.09-.54,0-.43.31-.49.73-.46"/>
      <path class="cls-10" d="M15.7,18.48c0-.13.01-.25.02-.38.98.03,1.7-.71,2.65-.8-.83.53-1.71.94-2.67,1.19"/>
      <path class="cls-5" d="M31.13,28.67c-.27-.15-.05-.3,0-.45.61-.1.86-.85,1.66-.89-.44.71-1.07.99-1.66,1.33"/>
      <path class="cls-5" d="M41.77,41.36c.06.06.13.12.19.18-.44.56-.88,1.13-1.43,1.6-.07-.07-.13-.13-.19-.2.48-.53.95-1.05,1.43-1.58"/>
      <path class="cls-10" d="M20.14,3.77h-.18c.09-.26.2-.53-.15-.7-.2-.66.11-1.02.7-1.24.06.68-.49,1.24-.37,1.94"/>
      <path class="cls-7" d="M33.9,25.05c.11.8.18,1.38-.58,1.79.04-.64.22-1.15.58-1.79"/>
      <path class="cls-5" d="M11.43,24.38c.63.17.97-.92,1.66-.33-.45.5-1.02.58-1.66.33"/>
      <path class="cls-10" d="M25.46,12.81c-.41-.06-.41-.43-.54-.7.57.11,1.04-.36,1.67-.33-.2.37-.56.35-.82.46-.27.12-.51.2-.31.56"/>
      <path class="cls-5" d="M50.8,39.58v.36c0,.12-.12.24,0,.35v-.02c-.25.02-.38.11-.18.37h0c-.42-.22-.44.31-.71.36-.07-.07-.13-.13-.2-.2.36-.41.72-.82,1.08-1.22"/>
      <path class="cls-7" d="M14.66,4.48c-.18-.06-.36-.12-.53-.18,0-.18,0-.36,0-.53.22-.12.44-.24.67-.35.13.37.16.74-.13,1.07"/>
      <path class="cls-10" d="M19.42,20.97c.07-.05.15-.09.22-.15.27-.09.53-.19.8-.29.04.04.07.08.11.12-.35.24-.66.57-1.04.68-.33.09-.25-.18-.08-.36"/>
      <path class="cls-10" d="M17.74,17.94c-.44.54-1.03.85-1.77.79.59-.26,1.18-.53,1.77-.79"/>
      <path class="cls-1" d="M23.14,6.66c-.33-.16.05-.33,0-.5.09-.27.2-.58.5-.17.18.25.29.56.42.85-.2-.04-.4-.07-.6-.1.1-.12.19-.24-.04-.33v-.05.05c-.09.08-.18.17-.27.25"/>
      <path class="cls-1" d="M23.52,21.68c-.02-.1-.04-.2-.05-.3.55-.23,1.13.38,1.67-.07.14,0,.27,0,.33.16-.61.39-1.3.12-1.94.21"/>
      <path class="cls-1" d="M9.85,44.16c-.09.14-.22.19-.37.16-.2-.21-.46-.11-.69-.16.13-.46.53-.46.9-.52.05.17.11.34.17.51"/>
      <path class="cls-10" d="M26.16,17.59c0-.05-.01-.1,0-.15.54-.05,1.08-.1,1.76-.17-.62.47-1.21.3-1.75.32"/>
      <path class="cls-5" d="M51.51,38.68c.3.61-.05.71-.55.71.13-.28.31-.52.55-.71"/>
      <path class="cls-11" d="M53.09,42.58c.06.06.13.12.19.18-.19.29-.39.57-.79.78.07-.47.27-.75.6-.96"/>
      <path class="cls-10" d="M18.59,15.17c-.23.3-.53.42-1.04.54.36-.44.68-.53,1.04-.54"/>
      <path class="cls-8" d="M23.87,2.52c.34.04.57.22.71.53-.05.05-.1.11-.15.16-.29-.11-.49-.33-.69-.55.04-.05.09-.09.13-.14"/>
      <path class="cls-11" d="M49.73,40.81c.07.07.13.13.2.2-.13.18-.22.41-.51.4-.13-.33.07-.48.31-.61"/>
      <path class="cls-10" d="M24.22,8.79c-.06-.08-.12-.16-.18-.25.06-.05.11-.11.17-.16.13-.02.26-.05.38-.07.04.28-.22.34-.37.48"/>
      <path class="cls-10" d="M18.33,18.13c-.06.06-.11.13-.17.15-.07.03-.17,0-.12-.11.02-.06.11-.11.18-.14.02,0,.07.05.12.09"/>
      <path class="cls-11" d="M48.69,42.31c-.07.07-.13.18-.21.22-.09.04-.24.04-.2-.13.03-.09.13-.17.22-.23.11-.08.11.06.18.14"/>
      <path class="cls-5" d="M24.03,9.1c.06-.07.13-.15.19-.22.03.06.07.11.1.17-.1.02-.19.04-.29.05"/>
      <path class="cls-10" d="M16.94,15.64s-.02-.09-.02-.13c.07.01.13.02.2.04-.06.03-.12.07-.18.1"/>
      <path class="cls-10" d="M17.4,15.43s-.04-.02-.06-.03c.02-.03.04-.06.06-.08.02.02.04.04.05.06-.02.02-.04.04-.06.05"/>
      <path class="cls-5" d="M23.86,14.59c-.01-.11-.01-.23-.03-.35-.04-.22-.18-.49.21-.51.26-.02.38.19.34.4-.11.59.35,1.28-.35,1.76-.23.16-.04.38.08.53.17.21.39.38.11.66l-.02-.02c-.17-.37-.93.13-.79-.34.2-.71-.27-1.55.45-2.13.02.11.03.22.04.33.04-.02.07-.03.11-.05-.05-.09-.1-.18-.15-.28"/>
      <path class="cls-1" d="M17.04,9.77c.16.6.05,1.2.06,1.82-.75.01-.2-.68-.54-.86.09-.35.13-.73.48-.97"/>
      <path class="cls-10" d="M16.94,3.09c.78-.25.97.39,1.28.84-.64.04-1.09-.21-1.28-.84"/>
      <path class="cls-10" d="M15.54,5.91c-.12.25-.41.4-.44.71-.15-.25-.31-.48-.22-.79.18.11.37.08.56,0,.03.02.06.05.09.07"/>
      <path class="cls-7" d="M14.29,41.69c.24,0,.47-.01.7-.02,0,.36-.34.4-.53.44-.2.04-.15-.26-.17-.42"/>
      <path class="cls-10" d="M25.45,17.96c-.31-.04-.51-.2-.53-.53h0c.32.03.55.16.54.52h-.01Z"/>
      <path class="cls-1" d="M29.17,31.25c-.13-.01-.25-.02-.38-.04.03-.24.18-.31.4-.32.04-.01.09-.02.13-.02.04.16-.04.27-.15.37"/>
      <path class="cls-10" d="M25.11,16.59c.06.11.12.17.13.24,0,.13-.07.22-.2.19-.04,0-.08-.14-.07-.21,0-.07.08-.12.15-.22"/>
      <path class="cls-1" d="M24.56,19.11c.05.11.11.19.09.22-.04.06-.12.09-.19.13-.02-.05-.07-.1-.06-.14.02-.06.08-.11.16-.21"/>
      <path class="cls-5" d="M24.82,18.84c-.1-.03-.2-.06-.3-.09.04-.04.07-.09.11-.12.14-.09.27-.11.29.11-.01.05-.04.09-.1.1"/>
      <path class="cls-10" d="M15.78,6.33c-.09.2-.19.4-.45.43-.02-.04-.01-.07.01-.1.05-.19.17-.33.33-.44.04.04.07.07.11.11"/>
      <path class="cls-5" d="M23.46,6.73c-.1.03-.19.06-.29.09,0-.05-.02-.11-.02-.16.09-.08.19-.17.28-.25h0c.23.08.14.2.04.33"/>
      <path class="cls-1" d="M10.01,44.14c.03-.24.09-.44.37-.18-.07.16-.2.22-.37.18"/>
      <path class="cls-5" d="M23.33,17.42s.08.08.12.12c-.03.02-.06.03-.09.05-.01-.05-.02-.11-.03-.17Z"/>
      <path class="cls-10" d="M25.49,18.18c-.04.07-.09.14-.13.21-.02-.02-.06-.06-.05-.06.04-.07.08-.14.13-.21.02.02.04.04.06.07"/>
      <path class="cls-5" d="M23.33,17.42s-.08-.08-.12-.12c.03-.02.06-.04.09-.05.01.05.02.11.03.17"/>
      <path class="cls-10" d="M25.46,17.95c.1,0,.23-.04.22.12,0,.04-.13.07-.19.11-.02-.02-.04-.04-.06-.07,0-.05.01-.1.02-.15h.01"/>
      <path class="cls-5" d="M24.22,17.08c-.06.04-.12.08-.18.11,0,0-.03-.04-.04-.05.07-.03.14-.06.2-.08l.02.03"/>
      <path class="cls-7" d="M13.4,42.19h-.18c.02-.07,0-.18.12-.15.03,0,.04.1.05.15"/>
      <path class="cls-10" d="M23.76,8.74c.13.11.02.15-.06.2.02-.07.04-.13.06-.2"/>
      <path class="cls-10" d="M24.92,17.42s-.05-.06-.07-.09c.03.03.05.05.08.08h0"/>
      <polygon class="cls-8" points="23.42 6.4 23.42 6.4 23.42 6.35 23.42 6.4"/>
      <path class="cls-10" d="M15.57,7.24c0-.21.2-.39.29-.32.2.15-.11.19-.15.31,0,.02-.09.01-.15.02"/>
      <path class="cls-10" d="M15.78,5.61c-.08.1-.16.2-.24.29-.03-.02-.06-.05-.09-.07.07-.11.15-.22.23-.32.04.04.07.07.1.1"/>
      <path class="cls-10" d="M15.67,6.22c.05-.07.11-.13.16-.2.04.04.07.07.11.11-.05.06-.11.13-.16.19-.04-.04-.07-.07-.11-.11"/>
      <path class="cls-10" d="M15.83,6.02c.06-.02.12-.05.18-.07-.02.06-.04.12-.07.18-.04-.04-.07-.07-.11-.11"/>
      <path class="cls-10" d="M15.68,5.51s.1-.11.11-.1c.11.07.05.14-.02.2-.03-.03-.07-.06-.1-.1"/>
      <path class="cls-8" d="M23.86,14.59c.05.09.1.18.15.28-.04.02-.07.03-.11.05-.02-.11-.03-.22-.04-.33Z"/>
      <path class="cls-6" d="M20.92,5.63c-.01.49-.02.99-.03,1.48-.24-.5-.31-1,.03-1.48"/>
      <path class="cls-4" d="M20.72,0c.31,0,.62,0,.93,0-.31.23-.62.23-.93,0"/>
    </g>
  </g>
</svg>