<?xml version="1.0" encoding="UTF-8"?>
<svg id="Layer_2" data-name="Layer 2" xmlns="http://www.w3.org/2000/svg" viewBox="0 0 77.95 78.03">
  <defs>
    <style>
      .cls-1 {
        fill: #b15f69;
      }

      .cls-1, .cls-2, .cls-3, .cls-4, .cls-5, .cls-6, .cls-7, .cls-8 {
        stroke-width: 0px;
      }

      .cls-2 {
        fill: #ae3836;
      }

      .cls-3 {
        fill: #ab3c39;
      }

      .cls-4 {
        fill: #ba756f;
      }

      .cls-5 {
        fill: #ab3b39;
      }

      .cls-6 {
        fill: #ae4f58;
      }

      .cls-7 {
        fill: #ab3a37;
      }

      .cls-8 {
        fill: #ac3e3b;
      }
    </style>
  </defs>
  <g id="Capa_1" data-name="Capa 1">
    <g>
      <path class="cls-5" d="M0,39.08C-.23,17.44,17.22,1.48,35.35.13c11.1-.83,20.99,2.19,29.35,9.54,9.01,7.92,13.42,18.08,13.24,30.06-.16,10.59-4.15,19.72-11.71,27.14-6.98,6.85-15.53,10.64-25.25,11.12-11,.54-20.75-3.02-28.79-10.7C4.17,59.62.07,50.2,0,39.08M77.37,38.82C77.49,17.53,60.31.63,39.33.46,17.21.28,1.35,17.73.5,37.02c-.55,12.62,4.12,23.19,13.73,31.4,7.67,6.55,16.68,9.53,26.77,9.05,19.03-.92,36.65-16.86,36.38-38.64"/>
      <path class="cls-3" d="M67.42,39.03c.36,15.45-12.96,29.24-29.82,28.49-14.58-.65-26.21-12.26-27.13-26.44-1.15-17.94,13.12-30.93,29-30.65,15.18.28,28.22,12.68,27.95,28.6M67.02,39.32c-.07-8.34-2.99-15.49-9.19-21.11-6.07-5.51-13.31-7.75-21.47-7.12-6.68.53-12.43,3.2-17.1,7.9-6.13,6.18-8.99,13.71-8.25,22.45,1.15,13.56,12.44,25.47,27.54,25.6,15.9.14,28.16-12.19,28.48-27.73"/>
      <path class="cls-5" d="M50.77,69.68c.1.12.2.24.31.36-.03.07-.11.17-.09.21.06.12.19.14.32.08v.04c-.03.14.03.2.17.21h0c-.14.49.31.67.5.99.08.14.22.12.3-.02.08-.13.02-.24-.1-.32,0-.81,0-1.63,0-2.44,0-.52.2-1.14-.73-1.12-.41,0-.17-.4,0-.45.45-.13.88-.45,1.24-.29-.23,2.09-.02,4.14-.16,6.35-1.02-.97-1.56-2.15-2.68-3.11.05,1.51-.14,2.87.21,4.42-1.71-1.68-2.64-3.8-4.46-5.16.2-.29.57-.28.88-.41.43-.18.69-.37.7.4,0,.44.57.88.89,1.31.4.53.81,1.06,1.3,1.54-.22-1.3.9-2.93-1.13-3.79.56-.43,1.2-.52,1.77-.71.27-.09.22.2.04.34-.19.02-.37.08-.35.32.02.19.18.22.33.26.07.12.14.25.22.38-.14.47.22.51.51.61"/>
      <path class="cls-3" d="M56.5,13.22c.85-.12,1.12-.87,1.57-1.43.52-.65,1-1.34,1.57-1.95.36-.39.43-.74.25-1.27.8.88,2.11,1.12,2.56,2.32.38.99-.06,1.94-.99,2.13-.87.17-1.42.76-1.19,1.58.18.68-.19,1.48.69,2.12-1.49-.44-1.88-1.33-1.51-2.97.04-.18.14-.36.16-.55.05-.4.04-.84-.4-1-.35-.12-.51.29-.72.5-.13.13-.19.34-.31.49-.53.65-.53.65-.02,1.28-.57-.01-1.01-.28-1.8-1.11.05-.05.09-.1.14-.15M60.52,12.45c.69,0,1.42-.67,1.42-1.33,0-.58-.35-.96-.87-1.14-.28-.1-1.69,1.34-1.59,1.67.14.46.45.85,1.04.8"/>
      <path class="cls-3" d="M25.01,10.13c.1.71.7.51,1.34.66-.88.41-1.6.73-2.37,1.1.51-1.38-1-4.79-2.48-5.6,1.25-.35,2.21-1.28,3.54-1.17.15.34.38.35.66.16.04,0,.08,0,.09.05.05.4.04.83.59.89.21.6-.28,1.02-.39,1.54-.13.03-.32.13-.18.23.74.53,1.35,1.3,2.37,1.33h1.09c-.71.77-1.35.86-2.18.39-.75-.41-1.35-1.07-2.19-1.33l-.23-.2c.85-.7,1.03-1.49.48-2.19-.41-.51-.96-.53-1.47-.24-.53.31-.49.75-.1,1.21.14.16.18.4.27.6,0,1.03.38,1.89,1.16,2.56"/>
      <path class="cls-8" d="M14.31,11.68c.34-.6,1.47-.86,2.32-.49,1.87.81,2.55,1.99,2.36,4.01-.1,1.14-1.44,1.91-2.92,1.75-1.49-.16-3.7-2.73-2.6-4.54.21-.35.32-.78.85-.74-.83,1.55-.43,2.89,1.22,4.13.92.69,2.01.77,2.6.18.48-.48.35-1.64-.18-2.52-.84-1.41-2.05-1.96-3.65-1.77"/>
      <path class="cls-3" d="M13.57,64.4s-.02.08-.04.08c-.53.16.13.82-.25.83-.51.02-.79-.53-1.12-.9.02-.18.08-.34.24-.43,1.46-.79,2.48-2.12,3.74-3.14.24-.19.11-.45-.08-.68-.86-1.07-1.76-1.12-3.14-.17-.02-.02-.04-.05-.06-.07.02.02.04.04.06.07,0,.05-.04.07-.08.07-.93.28-1.54,1.05-1.43,1.8-.02.26-.05.51-.07.77-.12.07-.24.14-.36.2-.52-1.13-.15-2.53.87-3.29,1.5-1.11,2.98-1.1,4.21,0,.67.59.94,1.49,1.7,2.06-.7-.2-1.27-.12-1.67.51-.41-.1-.45-.05-.45.43l-.06.05c-.26-.11-.26.08-.29.24h0c-.25,0-.38.12-.41.37h-.01c-.71.11-1.17.47-1.31,1.2"/>
      <path class="cls-8" d="M73.99,27.06c.05.84.41,1.5.59,2.23.3,1.24-.05,2.01-1.1,2.41-.86.33-1.78-.12-2.35-1.06-.22-.36.04-1.2-.84-.99-.65.16-1.41.18-1.44,1.2-.44-.73-.59-1.45-.66-2.25.83.66,4.95-.43,5.81-1.55M74.26,29.59c0-.23-.05-.44-.21-.63-.22-.26-.43-.25-.75-.14-.7.25-1.52.19-2.13.73-.03.02-.03.13,0,.18.32.52.44,1.27,1.27,1.26.85,0,1.81-.77,1.82-1.41"/>
      <path class="cls-8" d="M6.28,26.68c-.54.32-.87.22-1.18.22-.95,0-.88.84-1.09,1.37-.22.55.39.54.71.69.23.1.47.22.72.26.36.05.85.38,1.03-.22.13-.43.04-.85-.53-.95-.07-.01-.12-.11-.34-.31,1.01.02,1.69.42,2.45.65-.07.11-.1.19-.14.2-.46.12-1.17-.06-1.17.68,0,.58.67.42,1.03.62.58.32,1.12.42,1.62-.29.09.87-.39,1.45-.43,2.21-.76-1.02-4.9-2.31-5.76-1.8.09-1.3.74-2.41.97-3.62.06-.35.34-.24.54-.24.52.01.94.28,1.57.54"/>
      <path class="cls-8" d="M59.53,61.97c.46-.42.84-.78,1.31-1.2.33,2.07,1.11,3.84,1.75,5.66.07.2.27.44.03.61-.26.19-.54.05-.81-.1-1.26-.71-2.54-1.41-3.8-2.11-.17-.09-.34-.19-.52-.24-.26-.06-.73.07-.71-.29.03-.45.58-.56.91-.81.23-.17.44-.11.61.2.12.23.43.37.65.55.81.69,1.27.04,1.75-.48.55-.59.19-1.11-.13-1.65-.26-.45-.62-.04-1.04-.16M61.79,65.45c-.18-.43-.07-1.16-.68-1.36-.2-.07-.87.49-.84.65.14.61.86.65,1.3.99.08.06.33.06.22-.28"/>
      <path class="cls-7" d="M40.64,75.86c-.97,0-1.94.07-2.9-.13-.83-.18-1.31-.63-1.36-1.5-.06-.9.28-1.55,1.18-1.85.24-.08.55-.06.72-.21.32-.27,1.08.12,1.04-.69-.04-.6.24-1.34-.75-1.53h2.18c-.41.3-.86.63-.63,1.26-.25.37-.23.78-.2,1.19,0,.73-.02,1.45-.02,2.18,0,.3-.08.66.37.76.13.07.26.14.4.22,0,.1,0,.2-.01.3M37.51,74.76c.1.62.59.73,1.08.75.61.02.51-.57.65-.91.11-.25.06-.57.06-.86.01-1.3-.25-1.46-1.54-.91-.54-.14-.6.32-.57.59.05.45-.41,1.06.33,1.35"/>
      <path class="cls-5" d="M31.08,70.25v1.16c-.59.83-1.17,1.67-1.75,2.5-.93.27-1.83.51-2.71-.26-1.02-.88-1.15-2-.91-3.17.32-1.53,1.38-2.41,2.85-2.55-.02.24-.18.35-.4.39-.09.08-.09.17-.02.26-.01.04-.04.06-.09.06-.86.08-1.38.77-1.4,1.85,0,.06-.04.11-.09.14-.12.05-.15.12-.03.21-.04.44-.1.87-.11,1.31-.03.8.42,1.32,1.09,1.64.6.29,1.05-.12,1.42-.45,1.29-1.16,1.57-2.62,1.13-4.26.81-.02.39,1.03,1.02,1.17"/>
      <path class="cls-5" d="M8.55,44.86c-.97-.72-5.19,0-5.86,1.05-.08-.77-.41-1.41-.21-2.19,1.01.82,2.09.18,3.11.09.81-.07,1.72-.08,2.47-.58.2-.14.36.06.35.16-.04.48.42.89.15,1.47"/>
      <path class="cls-5" d="M70.18,57.56c-.57-1.47-2.05-2.54-3.52-2.53-1.52,0-2.15.98-1.56,2.36.08.2.57.45.19.59-.44.15-.82-.34-1.2-.57-.25-.15-.19-.39.16-.43.21-.02.2-.2.24-.36.6-2.43,1.83-3.04,4.28-2.15.04.55.38.7.87.62,0,0,.05.04.04.04.04.79.92,1.33.68,2.21-.06.07-.12.14-.17.22"/>
      <path class="cls-7" d="M36.03,8.06c-.6.46-1.19.25-1.7.47-.24.1-.48-.01-.21-.46.43-.72-.09-1.5-.11-2.26-.02-.6-.16-1.2-.2-1.81-.04-.57-.17-1.18-.91-1.39.77-.13,1.45-.45,2.33-.23-1.13.53-.54,1.32-.43,2.05.14.87.3,1.76.32,2.64,0,.6.25.85.9.99"/>
      <path class="cls-8" d="M75.78,39.41c.12,2.08-.48,3.07-2.1,3.47-1.7.42-3.36-.31-3.95-1.81-.31-.81-.37-1.63.4-2.28.11.17.28.22.47.25-.91,1.02-.91,1.91.11,2.47,1.25.68,2.58.86,3.9.14.93-.51,1.12-.99.79-2.04.12-.06.25-.13.38-.19"/>
      <path class="cls-7" d="M48.86,9.75c-1.66-1.16-1.36-3.12-.21-4.57,1.18-1.49,2.63-1.56,4.16-.2.34.3.58,0,.94.12-.45.41-.39.97-.63,1.45-.08.16-.08.39-.3.34-.16-.03-.11-.21-.1-.39.1-1.32-.46-1.92-1.91-2.09-1.51.02-2.84,2.82-2.07,4.34,0,.24.38.32.24.61-.04.12-.08.24-.12.36"/>
      <path class="cls-3" d="M64.7,21.82c-.78-.41-.81-1.15-.07-1.99.82-.93,1.96-1.45,2.95-2.15.41-.28.83-.5.66-1.16.41.57.81,1.14,1.36,1.92-.91-.49-1.42-.11-1.97.31-.61.47-1.28.85-1.93,1.28-.64.43-1.14.95-1.03,1.81h.02Z"/>
      <path class="cls-8" d="M10.83,51.69c.28.2.11.53.23.77-.47.25-1.17.21-1.24.97-.44.35-.88.71-1.5.63-.08.05-.17.1-.26.16-.41.31-.8.65-1.36.64-.07-.26-.14-.52-.2-.78.32-.14.68-.23.95-.43.19-.14.67-.06.51-.53-.1-.32-.32-.46-.66-.44-.22.02-.45,0-.75,0,.24-.51.74-.53,1.09-.74.18-.11.58-.23.49.4-.1.63.36.99.98.57.49-.34,1.44-.2,1.32-1.2.13,0,.26,0,.39-.01"/>
      <path class="cls-7" d="M12.36,21.83c.07,0,.13,0,.19.04.2.38-.36.77.02,1.15-.21.28-.46.68-.58-.02-.06-.36-.28-.46-.53-.61-.79-.48-1.56-.98-2.34-1.48-.61-.39-1.19-.86-2.19-.34.47-.77.77-1.33,1.14-1.83.3-.41.39-.17.36.18-.47.26-.4.52,0,.78,1.17.74,2.35,1.48,3.52,2.21.15.1.3.11.41-.07"/>
      <path class="cls-5" d="M70.6,39.04c-.18-.03-.36-.08-.47-.25.9-1.31,2.17-1.3,3.52-1,.24.37.7.4,1.01.66.22.19.7.29.39.77-1.45-.84-2.94-.83-4.44-.18"/>
      <path class="cls-8" d="M48.86,9.75c.04-.12.08-.24.12-.36,1.3.93,1.87.76,2.31-.53.2-.6-.31-.68-.52-1.13.84,0,1.44.46,2.25.73-.9.38-1.02,1.16-1.26,1.86-.11.33-.21.63-.56.19-.3-.39-.71-.15-1.07-.18-.51-.04-.89-.3-1.28-.58"/>
      <path class="cls-3" d="M6.5,54.08c.07.26.14.52.2.78-.27.29-.46.63-.47,1.32-.65-1.42-1.17-2.58-1.7-3.73-.08-.18-.2-.37.06-.48.16-.07.39-.1.56-.04.25.08.01.25,0,.37-.12.71.34,1.22.61,1.79.18.38.5.02.75-.01"/>
      <path class="cls-8" d="M67.69,22.09c.55-.38,1.11-.75,1.65-1.14.47-.34,1.15-.55.83-1.46.39.5.89.79.96,1.52-.81-.43-1.31.1-1.88.44-.47.28-.85.72-1.43.78-.04-.05-.09-.1-.13-.15"/>
      <path class="cls-1" d="M12.36,21.83c-.11.18-.25.16-.41.07-1.18-.74-2.35-1.48-3.52-2.21-.41-.26-.48-.51,0-.78.06.5.49.65.82.87,1.03.7,2.17,1.22,3.11,2.05"/>
      <path class="cls-6" d="M48.74,8.77c-.77-1.52.56-4.32,2.07-4.34-1.28.78-1.89,1.94-1.97,3.41-.02.31.16.65-.1.93"/>
      <path class="cls-3" d="M10.83,51.69c-.13,0-.26,0-.39.01-.21-1.16-.92-1.6-2.15-1.32.11-.21.14-.32.2-.36,1.3-.73,1.38-.7,2,.67.14.32.23.67.34,1"/>
      <path class="cls-6" d="M31.08,70.25c-.63-.14-.21-1.19-1.02-1.17-.5-.71-1.19-.68-1.92-.5v-.26c.24-.03.39-.14.41-.39,1.62.16,2.4.88,2.52,2.31"/>
      <path class="cls-8" d="M64.68,21.84c.93.93,1.94.91,3,.25.04.05.09.1.13.15-1.14,1.03-2.36,1.04-3.15.07-.19-.23-.03-.33.03-.49h-.02"/>
      <path class="cls-8" d="M69.78,59.14c-.09.43-.97.37-.66,1.08.02.06-.35.13-.49,0-.37-.34-.9-.46-1.27-1.04.85.11,1.63.34,2.3-.2.04.06.08.12.13.18"/>
      <path class="cls-6" d="M25.01,10.13c-.78-.67-1.17-1.53-1.16-2.56.22.27.29.74.81.61l.23.2c-.31.2-.5.41-.26.81.17.28.25.62.37.93"/>
      <path class="cls-1" d="M75.04,39.21c.31-.47-.16-.57-.39-.77-.3-.26-.77-.29-1.01-.66.95-.04,1.64.49,2.13,1.62-.12.06-.25.13-.38.19-.12-.13-.24-.26-.36-.39"/>
      <path class="cls-1" d="M29.33,73.92c.58-.83,1.17-1.67,1.75-2.5-.11,1.17-.69,2-1.75,2.5"/>
      <path class="cls-3" d="M9.82,53.43c.07-.76.77-.72,1.23-.97.18.28.37.57.65,1-.74-.2-1.32-.31-1.89-.03"/>
      <path class="cls-8" d="M12.4,63.98c-.17.1-.23.25-.25.43-.38-.53-.92-.95-1.17-1.58.12-.07.24-.14.36-.2.25.53.65.94,1.06,1.35"/>
      <path class="cls-6" d="M28.18,9.33c-1.02-.03-1.63-.8-2.36-1.33-.14-.1.05-.2.18-.23.59.71,1.53.93,2.18,1.56"/>
      <path class="cls-4" d="M39.9,72.4c-.02-.41-.04-.82.2-1.19.28,1.06.29,2.11,0,3.17-.1-.65.17-1.35-.2-1.97"/>
      <path class="cls-1" d="M70.36,57.34c.24-.88-.64-1.42-.68-2.21.63.38.91.97,1.03,1.67-.12.18-.23.37-.35.55"/>
      <path class="cls-8" d="M70.36,57.34c.12-.18.23-.36.35-.55,0,.8.05,1.62-.73,2.15-.06-.04-.12-.08-.18-.13.25-.39.39-.8.39-1.26.06-.07.12-.14.17-.22"/>
      <path class="cls-1" d="M12.57,23.01c-.38-.38.18-.77-.02-1.15.28.04.47-.32.83-.17-.16.53-.42.96-.81,1.32"/>
      <path class="cls-6" d="M13.57,64.4c.14-.73.61-1.09,1.31-1.2-.44.4-.87.8-1.31,1.2"/>
      <path class="cls-1" d="M39.9,72.4c.37.63.09,1.32.2,1.97-.06.34-.01.66.16.97-.45-.1-.37-.45-.37-.76,0-.73,0-1.46.01-2.18"/>
      <path class="cls-6" d="M52.19,71.23c.12.08.19.19.1.33-.08.13-.22.16-.3.01-.18-.32-.65-.5-.5-.99.24.22.47.43.7.65"/>
      <path class="cls-1" d="M69.64,55.09c-.5.08-.83-.06-.87-.62.36.11.62.35.87.62"/>
      <path class="cls-1" d="M26.38,6.23c-.55-.06-.55-.49-.59-.89.37.18.54.5.59.89"/>
      <path class="cls-6" d="M50.04,68.69c-.15-.03-.32-.06-.33-.26-.02-.25.16-.3.35-.32,0,.19-.01.39-.02.58"/>
      <path class="cls-1" d="M25.69,5.28c-.28.19-.51.18-.66-.16.26-.11.47,0,.66.16"/>
      <path class="cls-6" d="M50.77,69.68c-.29-.1-.66-.14-.51-.61.27.12.47.3.51.61"/>
      <path class="cls-6" d="M15.65,62.54c0-.48.04-.53.45-.43-.07.22-.25.34-.45.43"/>
      <path class="cls-6" d="M14.89,63.2c.03-.24.16-.37.41-.36-.09.18-.2.32-.41.36"/>
      <path class="cls-6" d="M51.31,70.33c-.13.06-.25.05-.32-.08-.02-.04.06-.14.09-.21.08.1.15.19.23.29"/>
      <path class="cls-6" d="M15.29,62.84c.03-.16.04-.35.29-.24-.1.08-.19.16-.29.24"/>
      <path class="cls-3" d="M56.35,13.37c-.06-.09-.13-.17-.2-.26.16-.12.27-.06.34.11-.05.05-.1.1-.14.15"/>
      <path class="cls-4" d="M40.64,75.85c0-.1,0-.2,0-.3.06.05.16.1.17.16.02.1-.06.16-.18.14"/>
      <path class="cls-3" d="M8.07,54.22c.08-.05.17-.1.25-.16-.08.05-.17.1-.25.16"/>
      <path class="cls-8" d="M69.65,58.96s.1-.1.14-.14c.06.04.12.08.18.13l-.19.19c-.04-.06-.09-.12-.13-.18"/>
      <path class="cls-6" d="M51.48,70.58c-.13,0-.19-.07-.16-.2.05.07.11.14.16.2"/>
      <path class="cls-6" d="M12.85,60.07c-.5.58-1.06,1.11-1.43,1.8-.1-.76.5-1.52,1.43-1.8"/>
      <path class="cls-6" d="M12.93,59.99h0s-.04-.05-.06-.07c.02.02.04.05.06.07"/>
      <path class="cls-1" d="M37.75,72.82c-.24.63-.65,1.23-.24,1.94-.74-.28-.28-.9-.33-1.35-.03-.27.03-.73.57-.59"/>
      <path class="cls-1" d="M28.05,68.65c-.55.55-1.04,1.15-1.4,1.85.01-1.08.54-1.77,1.4-1.85"/>
      <path class="cls-1" d="M28.15,68.58h0c-.07-.09-.07-.18.02-.26,0,.09,0,.18-.01.26"/>
      <path class="cls-1" d="M26.57,70.64c0,.07-.02.14-.03.21-.12-.09-.1-.16.03-.21"/>
      <path class="cls-2" d="M47.24,19.74c-.63,1.36-1.09,2.74-.87,4.15.42,2.72.57,5.44.59,8.19,0,.77-.17,1.41-.62,2.07-2.11,3.09-2.43,6.49-1.52,10.05.39,1.5.79,2.98,1.19,4.5.59-.28.56-.83.72-1.26.83-2.18,1.74-4.33,2.74-6.44.96-2.02,2.75-3.21,4.59-4.28,1.27-.74,2.55-1.46,3.94-2,.51-.2.73-.24.86.39.63,3.08-.06,6.15-3.14,8.29-1.7,1.18-3.6,1.98-5.66,2.23-1.2.15-1.77.76-2.15,1.82-1.23,3.41-2.5,6.8-3.75,10.19-.14.37-.24.77-.87.53-.71-.28-.3-.62-.17-.97.71-1.95,1.4-3.92,2.17-5.86.2-.51-.04-.9-.14-1.3-.39-1.71-.95-3.38-1.28-5.1-.29-1.5-.59-1.86-2.54-1.99-2.02-.14-3.89.6-5.59,1.58-2.17,1.25-4.42,1.21-6.81,1-1.72-.16-3.48-.12-5.23.07-1.44.16-2.9.18-4.35.26-.66.04-.59-.41-.51-.76.2-.95.48-1.99,1.2-2.61,1.23-1.05,1.53-2.45,1.9-3.85.29-1.11.58-2.22.8-3.34.09-.47.27-.7.72-.86,1.36-.47,2.67-1.06,4.09-1.33.12-.02.28-.14.36-.1,1.19.57,1.29-.32,1.45-1.08.2-.95.6-1.82.87-2.74.27-.89.86-1.19,1.67-1.29.6-.07,1.21-.13,1.81-.2.37-.05.63-.24.81-.58.8-1.51,1.74-2.95,2.4-4.51.46-1.08,1.22-1.26,2.16-1.34.29-.03.59,0,.88,0,1.28.01,2.5.04,3.65-.85.97-.74,2.27-.86,3.63-.66M30.13,34.47c0,.39-.07.79.01,1.17,1.01,4.54,6.04,7.81,10.6,5.01.79-.49.91-.95.57-1.7-.09-.21-.19-.42-.31-.61-2.31-3.62-5.74-6.05-9.11-8.55-.34-.25-.62-.18-.77.21-.55,1.44-1.02,2.9-.99,4.46M36.04,42.95c-1.84-.79-3.52-1.48-5.26-1.99-1.41-.42-2.88-.71-4.32-.7-2.61.02-4.59,1.38-6.01,3.54-.11.17-.41.37-.18.67.19.25.45.22.71.18,3.27-.48,6.55-.5,9.81-.14,1.95.22,3.53-.45,5.25-1.56M32.83,28.95c3.66,2.88,7.46,5.54,9.66,9.83.99-1.5.93-3.12.92-4.73-.02-2.03-1.4-3.9-3.31-4.62-2.38-.89-4.83-.43-7.27-.47M45.6,20.87c-3.9,1.05-5.21,4.07-3.54,7.52.63,1.31,1.8,2.27,2.2,3.72.2.72.25,1.46.45,2.38.41-.64.94-1.1.97-1.59.1-1.68.07-3.38.01-5.07-.08-2.27-.89-4.53-.1-6.96M49.25,44.63c4.59-.69,9.41-3.29,8.5-8.54-3.9,1.8-7.57,3.78-8.5,8.54M29.42,38.31c.15-.37.1-.59.03-.85-.2-.73-.39-1.48-.49-2.23-.1-.78-.59-1.27-1.34-1.06-.93.26-1.83.65-2.92,1.05,1.65,1.08,3.14,2.06,4.72,3.09M28.55,39.08c-1.55-1.01-2.86-1.87-4.18-2.73-.31-.2-.66-.38-.8.15-.28,1.08-.52,2.17-.81,3.38,1.87-.78,3.67-.99,5.78-.8M37.78,23.39c-.65,1.22-1.18,2.22-1.8,3.38.87-.23,1.51.17,2.22.15.58-.02.86-.06.56-.75-.36-.82-.6-1.69-.98-2.78M41.26,22.42c-.83,0-1.44,0-2.05,0-.35,0-.6.07-.43.49.33.86.48,1.79,1.1,2.7.33-1.16.64-2.18,1.38-3.18M41.31,41.68c1.97.61,2.18.42,1.74-1.69-.47.73-1.05,1.21-1.74,1.69"/>
    </g>
  </g>
</svg>