<?xml version="1.0" encoding="UTF-8"?>
<svg id="Layer_2" data-name="Layer 2" xmlns="http://www.w3.org/2000/svg" viewBox="0 0 114.48 57.82">
  <defs>
    <style>
      .cls-1 {
        fill: #80bc00;
      }

      .cls-1, .cls-2 {
        stroke-width: 0px;
      }

      .cls-2 {
        fill: #fff;
      }
    </style>
  </defs>
  <g id="Capa_1" data-name="Capa 1">
    <g>
      <path class="cls-1" d="M114.48,28.91c0,15.97-25.63,28.91-57.24,28.91S0,44.87,0,28.91,25.63,0,57.24,0s57.24,12.94,57.24,28.91"/>
      <path class="cls-2" d="M107.65,34.09c-.43-.36-1.08-.34-1.47.05-.56.57-1.32.84-2.08.74-.81-.12-1.52-.65-1.98-1.51-.1-.2-.18-.4-.27-.6.35-1.21.41-2.38.41-3.09,0-2.81-.67-3.2-1.4-3.2-.35,0-.73.16-1.04.58-1.48-.68-3.11-.79-4.55-.18-1.66.7-2.92,2.21-3.26,3.95-.21,1.08-.17,2.1.12,3.01-1.21,1-2.86,1.32-4.06.86-.24-.09-.48-.21-.71-.37,1.23-3.55,1.62-8.15,1.11-13.34-.43-4.25-1.75-6.68-3.63-6.68-.03,0-.05,0-.07,0-1.9.06-3.07,2.56-3.2,6.87-.19,6.39,1.02,11.18,3.36,13.7-.55,1.26-1.24,2.31-2.05,3.15-1.31,1.35-2.9,2.04-4.71,2.04s-3.49-.71-4.78-2.05c-.71-.74-1.44-1.79-2.03-3.3,2.24-2.39,3.73-6.7,4.05-12.26.25-4.4-.94-7.45-2.98-7.6-2.1-.15-3.57,2.69-4.13,7.98-.52,4.99-.13,8.65.68,11.33-.66.45-1.37.69-2.11.69-1.24,0-2.31-.48-3-1.47-.35-.51-.61-1.09-.79-1.7.29-1.19.41-2.37.41-3.25,0-.71,0-2.59-1.42-2.59-1.03,0-1.48.95-1.48,3.07,0,.65.06,1.68.34,2.79-.24.79-.56,1.55-1.01,2.15-.55.74-1.16,1.11-1.9,1.11-.86,0-1.49-.31-1.98-.98-.27-.36-.47-.8-.63-1.26.37-1.27.43-2.51.43-3.24,0-2.23-.46-3.23-1.48-3.23-.5,0-1.43,0-1.43,3.56,0,1.1.13,2.26.38,3.03-.33,1.04-1.29,2.05-2.6,2.05-2.09,0-2.55-1.95-2.65-2.78-.17-1.45-.05-2.5.03-3.19.1-.75.16-1.41-.4-1.87-.55-.46-1.27-.29-1.49-.24-1.52.36-2.85.31-3.77.14-.18-.47-.4-.86-.63-1.11-.54-.56-1.31-.67-1.92-.28-.85.55-.87,1.33-.63,1.82.23.47.75.84,1.46,1.12.26,1.56.19,4.04-1.13,5.47-.58.63-1.44.97-2.28.87-.84-.11-1.53-.62-1.99-1.51-.1-.2-.19-.4-.27-.6.35-1.21.42-2.38.42-3.09,0-2.81-.68-3.2-1.41-3.2-.37,0-.75.2-1.03.58-1.51-.68-3.11-.79-4.55-.18-1.67.7-2.92,2.21-3.26,3.95-.22,1.1-.17,2.14.13,3.05.06.17.13.35.21.51-1.15,1.75-4.08,3.03-6.75,3.03-3.27,0-5.65-1.39-7.01-4.07-1.7-3.35-1.28-7.79,1.24-10.68,2.47-2.84,5.63-3.52,7.75-2.94.83.22,2.27.87,2.48,2.6.17,1.3-.49,2.79-1.6,3.64-.45.35-.53.97-.16,1.39.37.42,1.03.49,1.49.15,1.66-1.27,2.62-3.44,2.37-5.41-.26-2.06-1.76-3.66-4-4.27-2.86-.78-6.89.02-9.99,3.59-3.06,3.51-3.74,8.77-1.67,12.85,1.7,3.36,5.02,5.28,9.09,5.28,3.18,0,6.35-1.46,8.02-3.54.81.65,1.83,1.01,2.92,1.01,1.77,0,3.21-.68,4.21-1.99.77,1.01,1.84,1.64,3.09,1.79,1.54.19,3.08-.4,4.12-1.53,1.5-1.62,1.9-4.19,1.71-6.28.88.08,1.83.06,2.78-.07.25-.04.35.03.32.27-.07.76-.13,1.79.03,3.16.34,2.78,2.14,4.52,4.72,4.52,1.5,0,2.68-.62,3.57-1.79.88,1.22,2.15,1.87,3.73,1.87,1.2,0,2.81-.47,4.02-2.58,1.09,1.62,2.82,2.46,4.83,2.46,1,0,1.94-.26,2.82-.75.65,1.44,1.42,2.5,2.16,3.26,1.7,1.76,3.89,2.69,6.33,2.69s4.56-.92,6.26-2.68c.84-.86,1.57-1.93,2.17-3.17.22.12.45.23.69.32,1.86.7,4.07.33,5.79-1.01.87.97,2.13,1.52,3.47,1.52,1.78,0,3.22-.68,4.21-2,.76.99,1.83,1.63,3.04,1.79,1.42.19,2.89-.31,3.91-1.34.39-.4.36-1.02-.06-1.38M32.27,33.85c-.6.83-1.44,1.22-2.54,1.22-.73,0-1.4-.3-1.87-.83-.64-.72-.86-1.81-.61-3.05.23-1.12,1.02-2.08,2.07-2.53.42-.18.85-.26,1.29-.26.62,0,1.27.16,1.92.49-.12,1.11-.07,2.52.32,3.86-.14.39-.33.76-.58,1.08M70.39,23.05c.36-3.47,1.02-5.04,1.49-5.72.24-.36.59-.35.79.03.39.76.82,2.37.66,5.01-.25,4.33-1.23,7.84-2.67,10.02-.51-2.31-.69-5.35-.27-9.35M85.75,32.58c-1.32-2.1-2.26-5.75-2.1-11.33.07-2.38.46-3.71.8-4.39.2-.4.57-.41.8-.04.39.66.89,1.98,1.13,4.35.45,4.4.21,8.3-.64,11.41M99.09,33.85c-.6.83-1.43,1.22-2.54,1.22-.73,0-1.4-.3-1.87-.83-.64-.72-.86-1.81-.61-3.05.23-1.12,1.02-2.08,2.08-2.53.41-.18.84-.26,1.29-.26.62,0,1.26.16,1.91.49-.12,1.11-.06,2.52.33,3.86-.15.39-.34.76-.58,1.08"/>
    </g>
  </g>
</svg>