<?xml version="1.0" encoding="UTF-8"?>
<svg id="Layer_2" data-name="Layer 2" xmlns="http://www.w3.org/2000/svg" viewBox="0 0 146.96 86.88">
  <defs>
    <style>
      .cls-1 {
        fill: #dd047d;
      }

      .cls-1, .cls-2, .cls-3, .cls-4, .cls-5, .cls-6 {
        stroke-width: 0px;
      }

      .cls-2 {
        fill: #ffd003;
      }

      .cls-3 {
        fill: #f9f8f9;
      }

      .cls-4 {
        fill: #e3c347;
      }

      .cls-5 {
        fill: #fff;
      }

      .cls-6 {
        fill: #322761;
      }
    </style>
  </defs>
  <g id="Capa_1" data-name="Capa 1">
    <g>
      <path class="cls-3" d="M64.52,21.25c.17.6.72.14,1.07.43-.31.04-.6.07-.88.1.71.05,1.19.37,1.69.92.39.43,1.37.31,1.8.07.69-.37,1.27-.25,1.91-.19-.67.26-.95.84-1.22,1.45-1.22,2.73-3.04,4.93-5.58,6.55-.6.39-1,.23-1.32-.22-.72-1-1.71-1.61-2.82-2.05-1.2-.48-2.35-.5-3.32.54-.77.83-.92,1.77-.59,2.85.17.54.27,1.08.01,1.67-.4.94-.8,1.91-1.03,2.9-.3,1.34-.52,2.69-.62,4.08-.15,2.03-.07,3.91,1.24,5.61.26.33.65.6.77,1.04-.05.5-.38.6-.8.57-.69-.05-1.38-.15-2.06-.16-.66-.01-1.14.23-1,1.03.09.51-.23,1.02-.02,1.54.03.06-.04.24-.05.23-.78-.08-.74.71-1.07,1.08-.48.53-.7.54-.91-.31-.19.34-.02.95-.59.67-.06.38-.8.43-.49,1.02.19.36-.14.26-.31.31-.56.17-1.23.07-1.66.61-.1.13-.32.18-.27.39.05.22.25.21.42.22.33.02.61.13.55.51-.15.92.43.52.76.4.82-.32,1.04-.21,1.18.69-.53-.02-1.07-.04-1.6-.05-.01-.11,0-.24-.17-.2-.04,0-.05.14-.08.21-1.68.67-2.96,1.77-3.71,3.45-.86,1.94-1.35,3.96-1.6,6.07-.24,1.97-.29,3.87.53,5.74.89,2.04,3.42,3.01,5.46,2.12,1.64-.72,2.54-2.12,3.59-3.41.09.6-.08,1.19-.12,1.78-.04.66-.36,1.08-1.02,1.23-.48.11-.79.47-1.12.79-.23.22-.4.54-.74.57-.7.05-1.14.26-.85,1.09.05.15-.05.29-.22.31-.29.03-.68.13-.81-.14-.58-1.25-1.79-1.01-2.79-1.2-.5-.09-.75-.21-.68-.73.09-.62-.25-.74-.78-.7-.58.05-.93-.19-.98-.83-.03-.31-.15-.61-.25-.92-.38-1.13-.38-1.13-1.09-.35.11-.99.22-1.99.33-2.98.16-1.48.22-2.98.38-4.46.2-1.82.32-3.61-.21-5.39-.34-1.15-.92-2.02-2.25-2.29-.6-.12-1.06.2-1.6.14.06-.45.06-.45-.27-.38-.6.12-1.15.04-1.53-.51-.21-.31-.43-.35-.8-.31-.79.08-1.69.55-2.31-.44-.14-.23-1.22.13-1.15.33.25.77-.38.51-.68.64-.51.22-.62-.22-.71-.52-.14-.45-.37-.43-.71-.25-.48.25-.73.64-.85,1.14-.05.19-.04.42.17.41.8-.07.48.6.66.94-.04.12-.07.24-.1.35-.36-.05-.6.02-.61.47,0,.39.13.59.54.56.2,1.22-.04,2.44-.04,3.67-.27.03-.68-.08-.64.35.04.51-.23.98-.09,1.52.2.76-.51,1.83-1.18,1.96-.16-.99-.05-1.98.05-2.97.23-.14.48.69.69-.02.05-.16.16-.39.1-.49-.22-.32-.52.09-.79-.02.15-1.8.39-3.6.36-5.41.06.02.11.03.16.05.21.09.17.64.53.39.35-.24-.12-.41-.18-.63-.17-.63-.96-1.07-.36-2.07-.79.49-.94.93-.72,1.52-1.7-.52-2.42-.06-2.44,1.68-.04,3.95-.02,7.91,0,11.86,0,.51.07,1.05.19,1.52.21.81-.09,1.77.64,2.43-.13.11-.27.22-.39.34-.12.11-.16.35-.39.27-.18-.07-.24-.24-.24-.42,0-.84-.7-1.47-.61-2.36.04-.39-.32-.5-.64-.15-.24.26-.5.63-.79-.13-.06.39-.09.6.04.78.58.79.49,1.53-.32,2.04-.53.33-.73.93-1.2,1.31-.42.34-.74.55-1.15.04-.04-.05-.08-.08-.12-.12q-.94-.77-.27-1.59c.53.46,1.05.45,1.63.05.62-.43.93-.99,1-1.74.09-1.02.2-2.04.36-3.05.46-2.92.74-5.86.67-8.82-.03-1.32-.35-2.63-1.21-3.72.62-.14,1.21-.52,1.88-.06.31.21.59-.08.85-.26.18-.12.26-.29.08-.42-.48-.35-.19-.77-.17-1.18.04-.82.12-1.64.04-2.45-.06-.55.02-.78.58-.92.32-.08.88.07.93-.56.04-.55-.13-.92-.63-1.21-.72-.42-1.31-.94-.96-1.95.09-.27.11-.65-.09-.93-.32-.42-.13-.74.13-1.08.39.85.47,1.86,1.29,2.51.74.58,1.57.76,2.15.35.57-.41.74-1.38.25-2.19-.69-1.13-.83-2.39-.88-3.64-.15-3.6-.06-7.2-.01-10.81,0-.49-.07-.96-.15-1.45-.11-.65-.47-1.01-1.01-1.14-.61-.15-1.03.28-1.28.78-.73,1.5-1.01,3.15-1.54,4.72-.87,2.59-1.88,5.09-3.18,7.49-.2.38-.44.74-.68,1.09-.15.23-.4.19-.64.17-.24-.02-.25-.19-.26-.37-.06-1.62-.04-3.24.24-4.84.29-1.68.72-3.34.81-5.05.04-.78-.26-1.27-1.06-1.39-1.04-.15-1.68.26-1.94,1.1-.57,1.86-.66,3.8-.82,5.7-.16,1.88-.34,3.83.39,5.69.32.82.85,1.43,1.65,1.6,1.04.22,1.94-.21,2.65-1.02.95-1.09,1.57-2.37,2.26-3.61.55-1,.72-2.18,1.54-3.19-.07,2.49.03,4.83.16,7.17-.41-.11-.76.19-1.19.1-1.4-.28-1.45-.21-1.58,1.16-.04.45-.03,1.05-.79.55-.19-.12-.48-.05-.31.26.46.85-.2.68-.62.72-.35.03-.7-.02-1.05.02-.56.07-.76.54-.38.84.95.75-.34,1.09-.24,1.71.06.38-.6.28-.88.21-.91-.21-1.82.16-2.74-.12-.58-.18-.85.2-1.05.83-.34,1.08-.29,2.15-.32,3.23,0,.18,0,.41-.16.47-.74.26-.49.87-.54,1.38-1.6,0-2.06.32-2.05,1.51.02,1.73-.11,3.46-.18,5.18-.13,3.1-.03,6.21-.03,9.32,0,.11.07.21.11.32q-1.87.26-1.87-1.61c0-1.11.14-2.25-.5-3.32-.54.37-.57.98-.67,1.51-.15.73-.51,1.05-1.2.8-.33-.12-.69.31-.95-.12.29-.42.65-.8.85-1.26.26-.59.48-1.13,1.26-1.09.1,0,.36-.05.34-.31-.03-.23-.18-.27-.37-.27-.36,0-.55-.18-.48-.55.14-.75.37-1.5.42-2.25.09-1.38.47-2.77-.1-4.14-.28-.67-.93-.79-1.38-.22-.28.36-.5.76-.71,1.17-.46.88-.87,1.78-1.35,2.65-.12.22-.31.57-.65.49-.37-.08-.25-.46-.29-.73-.1-.76.21-1.47.23-2.23.02-.61-.17-.86-.75-.87.73-1.1-.85-.41-.74-1.08.55-.44,1.26-.27,1.93-.28,1.43-.02,1.43,0,1.43-1.46,0-.15-.01-.29,0-.44.08-.69-.22-.97-.91-.9-.35.03-.7.04-1.05,0-.59-.07-.89-.43-.76-1,.18-.77.41-1.51.1-2.3-.03-.08,0-.17,0-.26-.01-.84.96-.38,1.17-.88.17-.41-.21-1.08.71-1.06.64.01.9-.31.77-1.08-.28-1.64.26-2.07,1.93-1.75.96.19.96.18.85-.8-.03-.26-.07-.57.18-.72.61-.37.92-1.06,1.48-1.44.46-.32.67-.67.76-1.15.16-.88.57-1.71.38-2.66-.2-1.03.27-2.08.14-3.11-.2-1.63.23-3.28-.16-4.91-.05-.19.04-.43-.15-.56-.89-.59-.55-1.36-.3-2.1.1-.3.28-.57.41-.87.29-.71.18-1.47-.88-1.28-.03,0-.06,0-.09,0-1.9,0-1.99-.17-1.47-1.98.19-.67.74-.58,1.15-.73.39-.14.7-.23.64-.73-.04-.3.14-.49.4-.6.24-.11.49-.24.55-.52.09-.46.21-.77.74-1,.43-.19.19-.98.57-1.38.99.69,3.01.23,3.98-.63.22-.2.28-.31.02-.61-.55-.64-1-.5-1.6-.09-.74.51-1.47.29-2.11-.26-.54-.46-.88-1.71-.59-2.4.3-.73.8-1.24,1.7-1.11.55.08,1.18-.19,1.62.4.04.05.31-.03.43-.11.84-.59.8-.82-.04-1.41-.26-.18-.58-.19-.79-.43.19-.46.57-.19.87-.26,1.25-.31,2.21.25,3.17.89.73.49,1.6.41,2.42.48.85.07,1.6-.03,2.28-.77.39-.42,1.25-.31,1.82-.68.14-.09.38,0,.43.18.16.58.69.62,1.12.83.21.1.28.13.48-.08.8-.86,1.42-.82,2.07.09.27.39.6.46.96.22.76-.51,1.74-.54,2.5.02.24.17.46.37.75.43.38.08.75.04.68-.49-.1-.77.41-.97.98-1.03.79-.08,1.54-.05,2.07.76.39.59,1.83.77,2.49.41.07-.04.16-.13.15-.18-.04-.25-.24-.28-.46-.31-.17-.02-.48.07-.4-.27.05-.24.29-.26.5-.2.6.17,1.18.24,1.74-.15.28-.19.45.06.63.28.44.53.92.52,1.38,0,.13-.15.22-.37.48-.25.14.06.26.23.2.35-.31.65.11.78.59.89.18.04.3.18.32.37-.52.12-1.11-.12-1.57.3-.18.16-.67.01-.5.5.13.37.21.75.8.65.45-.08.93-.01,1.39-.01.33,0,.61.12.56.49-.04.34-.36.19-.56.2-.41.01-.82-.03-1.22.02-.93.11-1.65.98-1.51,1.84.12.73.8,1.72,1.89,1.43.82-.22,1.6-.23,2.41-.13.55.06.62-.2.6-.65-.03-.58-.03-1.16,0-1.74.05-1.35-.2-2.5-1.76-2.84.15-.63.67-.33,1.01-.37.92-.1,1.67-.7,2.63-.76.76-.05,1.49-.29,2.29-.13.46.09,1.08.23,1.3-.5.01-.04.31,0,.47,0-.04.63-.32,1.29.84,1.25,1.17-.04.57-.78.68-1.25.34-.04.49.07.57.45.13.67.56.8,1.01.31.4-.42.7-.85,1.39-.83.42.01.36-.53.51-.82.12-.22-.18-.74.44-.59.44.11.75.29.69.82-.02.14-.04.29-.05.43-.96-.47-.96.47-1.3.9-.12.15-.44.27-.18.56.22.24.51.23.71.1.56-.35,1.16-.69,1.45-1.34.44-.11.88-.37.93.46.03.4.46.75.94.74.32,0,.53.19.79.29.04-.06.08-.1.1-.15.18-.38-.76-.58-.21-.96.46-.31,2.1.01,2.33.43.19.36.44.4.77.41.67.03.8.34.46,1.06-.63-.58-1.36-.71-2.13-.4-.36.14-.63.18-1.03.06-1.02-.3-1.24-.07-1.23,1.02,0,1.16.03,2.33,0,3.49-.03.71.44.51.81.54.4.03.75.07.72-.54-.04-.78-.02-1.57,0-2.35.01-.47.17-.93.71-.91.5.02,1,.25,1.01.9.02.73,0,1.45.03,2.18,0,.27-.13.6.25.75M39.03,51.96c-.81-.6-1.78-.34-2.67-.45-1.82-.23-3.65-.14-5.4.53-.49.19-.76.51-.61,1.06.15.54.62.49,1,.4,2.02-.45,3.97,0,5.9.45,1.14.27,2.27-.21,1.95-1.65.48.04.68-.29.95-.62.43-.53.27-1.35.84-1.75.49-.35.42-.61.15-1.05-.5-.81-.22-1.26.73-1.29,1.1-.04,1.53-.49,1.53-1.6q0-1.19,1.15-1.19c.85,0,1.92.28,1.67-1.23,0-.03.01-.06.03-.08.55-.76.03-1.14-.54-1.49-.18-.11-.34-.2-.39-.42-.14-.71-.5-.46-.87-.2-.68.49-1.44.7-2.29.63-.47-.04-.93-.25-1.42.08-.66.44-.1.96-.13,1.42-.08,1.3-.39,1.56-1.57,1.08-.69-.28-1.24.08-1.25.82,0,.46-.03.93,0,1.39.05.59-.14.86-.77.81-.71-.06-1.43-.01-2.14-.07-1.41-.11-2.83.18-4.24-.2-.28-.08-1.04-.34-1.2.3-.13.51-.32.82-.78,1.05-.37.19-.5.64-.43.98.2.9-.34.74-.84.67-.18-.03-.37-.22-.58.2.67-.1.76.42.98.8.29.51.7.92,1.22,1.21.23.12.43.14.64-.05.21-.19.39-.44.25-.69-.61-1.1.24-.81.79-.91.43-.08.94.4,1.22-.03.35-.54.8-.47,1.29-.48.94-.02,1.86.24,2.84.04.83-.17,1.72-.04,2.58-.03.29,0,.74.03.47.43-.28.43-.03.78-.08,1.16M49.43,32.27c.18,2.07-.58,9.44-.92,11.19-.14.74-.35,1.19-1.2,1.39-1.27.3-2.33,1.12-3.28,2-.86.8-1.6,1.72-1.83,2.94-.41,2.12,1.66,3.81,3.23,3.52,1.25-.23,2.25-.88,3.05-1.93,1.12-1.48,1.77-3.18,2.38-4.9.2-.57.56-.73,1.01-.86.38-.1.6-.26.61-.71,0-.43-.08-.75-.54-.84-.52-.1-.47-.34-.4-.81.24-1.45.59-2.88.62-4.37.02-.77.07-1.55.16-2.32.29-2.57.28-5.14-.03-7.71-.07-.62-.34-1.05-1-1.2-.64-.14-1.1.1-1.48.6-.27.37-.6.7-.85,1.08-.34.52-.58.69-1.15.17-1.3-1.18-3.86-1.16-5.1-.08-1.07.94-1.87,2.07-2.53,3.33-.58,1.1-.87,2.29-1.27,3.44-.36,1.02-.53,2.22-.05,3.3.31.7.67,1.57,1.5,1.64.65.06,1.4-.06,2.02-.53.98-.73,1.76-1.65,2.51-2.58,1.51-1.86,2.95-3.79,4.51-5.81M13.54,34.13c.08-1.4-.07-2.46-.23-3.52-.17-1.13-.9-1.56-2.08-1.35-.73.13-1.19.87-.98,1.82.24,1.11.19,2.24.26,3.35.2,3.01.13,6.03-.13,9.04-.1,1.09-.29,2.16-.43,3.25-.05.42-.21.62-.68.71-1.05.2-2.08.58-2.86,1.29-.98.9-1.87,1.9-2.47,3.15-.77,1.59-.07,3.64,1.59,4.28,1.21.47,3.46-.08,4.49-1.33,1.19-1.45,2.15-3.06,2.55-4.94.07-.35.25-.64.8-.43.41.15.81.48,1.3.41.46-.07,1.03,0,1.14-.65.09-.55-.03-1.02-.7-1.17-.41-.09-.79-.4-1.19-.42-.76-.04-.77-.49-.69-1.01.35-2.4.55-4.81.53-7.23-.01-1.85.06-3.71-.22-5.23M27.99,41.37c-.13.83.18,2.01.73,3.11,1.29,2.55,3.04,3.06,5.26,2.36,2.2-.69,3.36-2.57,4.36-4.48.69-1.33.08-2.41-1.16-2.29-.6.06-.97.42-1.11,1-.37,1.53-1.22,2.78-2.25,3.92-.49.55-1.2.6-1.84.44-.53-.13-.7-.66-.8-1.2-.18-.95.03-1.89-.07-2.84-.07-.67.18-.99.9-1.2,2.85-.83,4.97-2.51,5.84-5.48.66-2.25-.47-4.96-2.68-5.3-2.28-.36-4.23,1.23-4.93,2.61-1.44,2.79-2.17,5.78-2.24,9.35M27.66,20.8c.65.21,1.04.73,1.75.54,1.76-.46,2.21-1.63,2.13-3.02-.1-1.88-1.85-2.79-3.31-2.11-.27.12-.4.08-.67-.08-.82-.49-1.43-.11-1.43.82,0,1.71.03,3.43-.01,5.14-.01.6.2.74.75.71.47-.03.87,0,.79-.67-.05-.41,0-.84,0-1.33M32.21,18.69c-.25,1.48,1.48,2.81,2.68,2.73,1.88-.14,2.89-1.31,2.89-2.88,0-1.36-.98-2.62-3.1-2.57-1.1.03-2.67,1.05-2.47,2.72M21.59,18.7c.24-1.51-1.34-2.85-2.98-2.76-1.19.06-2.68,1.39-2.63,2.64.07,1.58,1.27,2.72,2.62,2.8,1.76.11,3-1.06,2.99-2.68M54.75,18.73c.03,1.58,1.25,2.73,2.9,2.65,1.72-.09,2.68-1.3,2.68-2.84,0-1.77-1.46-2.58-2.97-2.57-1.39,0-2.83,1.24-2.61,2.76M49.81,15.97c-.36.07-.73-.05-1.1.13-1.35.65-2.18,2.18-1.31,3.84.75,1.43,2.58,1.89,3.78,1.06.27-.19.85-.29.54-.78-.23-.37-.55-.82-1.19-.39-.55.37-1.23.28-1.63-.25-.38-.51-.47-1.17-.05-1.75.46-.63,1.09-.62,1.68-.28.66.38.86-.12,1.13-.5.41-.57-.21-.57-.45-.75-.41-.3-.88-.41-1.39-.33M23.89,16.7c0-1.04-.68-.62-1.11-.68-.57-.08-.47.36-.47.7,0,1.3,0,2.61,0,3.91,0,.24-.1.51.3.6.94.2,1.24-.01,1.24-.95,0-.43.02-.87,0-1.3-.03-.75.38-1.21,1.03-1.39.36-.09.61-.11.53-.55-.06-.35.21-.82-.19-1.01-.33-.17-.73-.03-.98.33-.06.09-.16.16-.37.35M38.43,18.66h0c0,.67,0,1.34,0,2.01,0,.18-.09.4.16.53.65.32,1.33-.07,1.34-.78,0-.41-.03-.82.01-1.22.08-.75.17-1.45,1.16-1.67.71-.16.41-.92.32-1.34-.09-.46-.56-.13-.85-.03-.29.1-.4.43-.88.05-.66-.52-1.3,0-1.29.89,0,.52,0,1.05,0,1.57M52.58,18.6h-.01c0,.7.03,1.39,0,2.09-.04.72.45.49.81.53.42.05.71.02.7-.56-.04-1.36-.04-2.73,0-4.09.02-.59-.31-.57-.71-.57-.43,0-.82-.04-.78.6.04.66,0,1.33,0,2M41.85,56c1.34.07,1.53-.1,1.55-1.36,0-.2-.04-.45.05-.59.51-.76-.23-.8-.56-.86-2.06-.41-2.09-.35-2.13,1.75-.02.84.16,1.31,1.08,1.07M25.75,51.76c-.95,0-1.37.34-1.38,1.13-.02.84.73,1.68,1.5,1.67.71,0,1.29-.6,1.29-1.31,0-.9-.56-1.49-1.4-1.49M12.33,26.59c0-.98-.56-1.54-1.55-1.54-.75,0-1.22.46-1.24,1.21-.02.69.85,1.61,1.51,1.59.85-.02,1.28-.45,1.29-1.26"/>
      <path class="cls-3" d="M88.29,16.91c1.15.38,2.21.44,3.28.04.5-.19,1.07-.24,1.53,0,.56.3.59.06.57-.37-.01-.2-.03-.41-.08-.6-.08-.26,0-.47.19-.62.2-.16.37,0,.54.12.14.11.28.41.49.18.21-.23-.05-.41-.2-.58-.04-.04-.09-.08-.12-.12-.19-.25-.81-.31-.54-.73.23-.36.76-.23,1.12-.07.8.35,1.56.35,2.34-.04.8-.4,1.04-.25,1.06.66,0,.33.18.39.36.26,1.33-.98,2.9-.54,4.35-.78,1.07-.18,1.24-.31,1.54-1.34.33-1.13.07-2.27.2-3.36.17-1.39-.37-2.72-.07-4.08.14-.64-.29-1.29.04-1.96.32-.66.79-.94,1.46-.66.78.33,1.06-.1,1.28-.7.08-.21-.03-.62.21-.6.84.07,1.01-.65,1.42-1.08.53-.55,1.21-.48,1.85-.47.53,0,1.02.35,1.61.14.36-.13.47.29.5.56.05.46.02.93.02,1.4.01.78.4,1.04,1.18.79,1.24-.4,1.73-.1,1.59,1.17-.11.94.1,1.68.6,2.44.32.49.52.48.77-.02.12-.23.25-.54.57-.39.33.15.22.53.15.78-.1.32-.3.58-.18.97.09.3-.21.44-.51.45-.57.01-.86.31-.85.88,0,.4-.48.55-.49.89-.03,1.17-.03,2.33.03,3.5.02.33.37.47.73.51.89.09,1.77.11,2.64-.14.59-.17,1.15.06,1.71.17.42.08.42.5.44.85.02.31.18.48.49.5.25.01.51-.06.61-.26.15-.3-.19-.36-.36-.5-.24-.2-.33-.42-.01-.63.36-.24.96-.24.96.12.02,1.04,1.31,1.2,1.34,2.2,0,.36,1.47.72,1.94.51.59-.27,1.17-.28,1.77-.06.13.05.32.04.31.24,0,.21-.18.28-.36.31-.17.02-.35,0-.52.03-.28.04-.48.22-.56.49-.09.32.14.48.4.58.34.14.55.39.75.69.15.23.27.57.65.46.37-.11.41-.45.43-.78,0-.14,0-.3.05-.43.03-.1.13-.22.22-.24.18-.05.24.11.27.25.06.25.11.51.16.76.07.35.27.55.61.4.48-.22.84.04,1.24.2.99.4,1.08.55.7,1.54-.16.43-.04.7.3.87.34.16.68.27.93.59.26.32.43,0,.61-.18.23-.24.5-.44.84-.2.22.15.41.35.29.66-.12.29-.2.61-.67.48-.24-.07-.49.08-.42.39.06.24.26.3.48.14.38-.27.42.04.51.29.25.71.68,1,1.48.78.6-.16,1.12.05,1.11.81,0,.51.21.96.34,1.43.05.17.13.43.28.4.78-.16,1.1.76,1.94.71.59-.04.66.9.54,1.51-.19.97-.3,1.92-.14,2.91.06.4.18.58.59.55.65-.05,1.23.52,1.93.2.19-.09.55.19.38.41-.66.83-.2,1.68-.06,2.48.21,1.19.02,2.35-.1,3.5-.07.69.08,1.28.45,1.67.62.65.69,1.36.67,2.16,0,.38-.13.93.52.87.51-.05.95-.25.88-.94-.03-.32-.12-.68.12-1,.26.54.11,2.7-.21,3.14-.13.19-.31.23-.53.24-.2,0-.5-.3-.58.07-.12.51.12.95.4,1.38.17.25.29.27.56.11.56-.34.74.02.74.51,0,1.43.11,2.86-.03,4.27-.1,1.02-.57,1.99-.53,3.06,0,.28-.26.63-.68.44-.38-.17-.57-.48-.42-.92.14-.41.29-.82.4-1.24.06-.22-.05-.42-.29-.45-.21-.03-.35.14-.34.32.05,1.33-.94,2.37-1.01,3.67-.05.92-.08,1.86-.49,2.72-.02.05-.06.15-.04.16.88.59.15,1.44.36,2.15.31,1.07-.18,1.71-1.29,1.91-.16.03-.43.1-.45.2-.18.78-1.01,1.25-.96,2.13.02.34,0,.6-.35.89-.36.3.03.8.14,1.19.1.36.34.68.08,1.13-.78-.76-1.57.3-2.43-.02-.24-.09-.4.41-.31.83.15.66.27,1.37-.36,1.88-.44-.04-.07-.8-.54-.61-.35.14-.81.36-.64,1.03.13.49-.21.95-.75,1.12-.34.11-.5.33-.38.66.12.33.38.12.59.09.34-.06.7-.16.98.14.09.09.09.22,0,.32-.28.31-.65.18-.99.18-.45,0-.86-.17-1.36-.05-.49.12-.65.37-.9.76-.47.74-1.3,1.19-1.75,1.99-.08.13-.49.09-.74.1-1.21.03-1.45.28-1.46,1.51,0,.23,0,.47,0,.7,0,.39-.22.62-.6.57-.52-.06-1.02.22-1.54.04-.27-.09-.51.03-.62.33-.59,1.76-1.94,2.35-3.66,2.44-.95.05-1.89,0-2.83-.12-.54-.07-1.08.37-1.68.33-.07,0-.22.18-.2.23.23.71-.52,1.31-.2,2.07.17.4-.38.49-.62.42-.7-.2-1.46,0-2.12-.37-.43-.24-.84-.11-1.24.11-.36.2-.77.45-1.15.22-.8-.47-1.65-.49-2.53-.47-.16,0-.35-.06-.49-.15-1.29-.77-1.58-.54-2.84,0-1.09.47-2.55.71-3.61.35-.8-.27-1.77-.17-2.52-.81-.4-.34-1.15.02-1.75-.02-1.37-.08-2.26-.82-3.08-1.73-.33-.37-.56-.58-.98-.2-.17.15-.38.12-.58.13-1.21.02-2.42-.38-3.63-.01-.19.06-.52.1-.57-.22-.05-.3.26-.34.46-.44.21-.1.44-.16.64-.27.23-.13.3-.36.2-.6-.11-.27-.32-.15-.52-.1-.55.14-.98.19-.59-.62.3-.62-.31-.58-.61-.63-.33-.05-.68.06-1.03.1-.77.09-1.38-.01-1.43-1-.01-.31-.28-.48-.58-.58-.38-.12-.66-.38-.76-.77-.06-.23-.08-.52-.41-.4-.27.1-.48.28-.4.67.09.42.09.86.15,1.29.02.14.11.29-.06.38-.18.09-.33-.03-.46-.15-.36-.33-.23-.76-.23-1.15-.02-1.43-.29-1.62-1.65-1.15-.45.15-.81.03-.78-.48.05-.78-.54-1.42-.38-2.21.03-.14-.07-.36-.22-.3-.63.3-1.24-.26-1.88,0-.68.27-.88-.24-.61-.65.63-.96-.27-1.78-.11-2.67.03-.15-.16-.21-.31-.25-1.62-.36-1.75-1.98-2.54-3.04-.07-.09.03-.33.08-.49.14-.47.42-.95-.41-1.09-.3-.05-.24-.41-.29-.66-.14-.74-.17-1.6-1.36-1.2-.27.09-.52-.13-.63-.37-.16-.35-.18-.73.07-1.07.43-.6.52-1.21,0-1.81-.23-.26.01-.41.09-.61.26-.65-.01-1.12-.64-1.18-.91-.08-1.45-1.07-1.07-1.97.07-.16.17-.3.27-.44.17-.25.07-.49-.13-.6-.29-.16-.31.17-.38.33-.14.32-.22.66-.35.98-.08.21-.18.49-.48.4-.25-.08-.46-.27-.37-.6.19-.71.23-1.53.61-2.12.51-.79.21-1.65.5-2.44.09-.24-.13-.6-.44-.42-.68.41-.55-.08-.58-.45-.04-.5.07-.98.18-1.46.07-.31.25-.51.55-.62.6-.22.87-.85.64-1.43-.12-.3-.37-.31-.64-.35-.69-.1-.89-.57-.63-1.14.45-1.01.37-1.99-.06-2.93-.36-.79-.07-1.58-.11-2.36,0-.25.09-.51.55-.43.52.08,1.08-.06,1.63-.11.31-.03.51-.2.5-.5-.04-.74.18-1.42.33-2.13.14-.65.26-1.34-.06-2.03-.2-.43-.18-.99.04-1.45.18-.38.15-.68,0-1.06-.33-.85-.07-1.19.81-1.21.2,0,.41,0,.61,0,1.07,0,1.25-.19,1.26-1.28,0-.52-.03-1.04.25-1.52.19-.32.13-.68-.06-1-.18-.32-.21-.66-.19-1.01.01-.19-.08-.46.19-.51.19-.04.27.18.36.32.11.17.24.39.45.37.29-.02.21-.3.21-.49,0-.48.32-.5.65-.47.71.07.94-.3.92-.93,0-.23-.04-.48.02-.7.26-.89.64-1.36,1.5-1.11.86.24,1.23-.09,1.27-.99,0-.06,0-.12,0-.17.02-1.55.5-1.95,2.08-1.58.74.17.82-.24.81-.73-.03-1.26.86-1.96,2.04-1.52.68.26.85.08.71-.59-.1-.46-.11-.93.16-1.35.29-.45.02-.9,0-1.44M130.14,77.94h0c.71-.05,1.04-.71,1.53-1.06.69-.49,1.5-.99,1.8-1.9.38-.14.65-.38.77-.77.54-.41,1.14-.76,1.35-1.48h0c.2,0,.29-.14.42-.27.99-1.06,1.63-2.38,2.5-3.52,1.42-1.86,2.51-3.86,3.03-6.15.08-.18.16-.35.25-.53.58-.92.92-1.94,1.23-2.96.66-2.16.91-4.39,1.07-6.66.14-2.17.14-4.34-.16-6.48-.1-.69.14-1.44-.3-2.08l-.06-.34c.05-.25.13-.51-.14-.7-.05-.41.08-.85-.23-1.21.01-1.07-.41-2.02-.8-2.98-.03-.11-.06-.22-.08-.33-.13-.51-.15-1.07-.58-1.46-.19-.45-.37-.9-.56-1.35.03-.12-.02-.2-.12-.26.02-.04,0-.08-.03-.11.05-.45-.35-.64-.55-.94.05-.35-.15-.61-.32-.87-.53-.84-1.08-1.68-1.63-2.51-.11-.57-.31-1.07-.6-1.59-.41-.73-1.02-1.25-1.54-1.86-.92-1.07-1.79-2.19-2.76-3.19-1.68-1.73-3.75-3.04-5.7-4.45-2.89-2.09-6.11-3.42-9.59-4.18-.31-.07-.55-.08-.81.05-.31-.12-.63-.24-.94-.36-1.53-.67-3.14-.93-4.79-1-4.71-.18-9.4-.14-13.91,1.55-1.8.68-3.66,1.24-5.26,2.37-.17.08-.34.17-.51.25-1.47.66-2.79,1.56-4.04,2.57h-.01c-.88.33-1.39,1.13-2.13,1.62-2.6,1.73-4.49,4.13-6.19,6.64-1.66,2.46-3.3,4.97-4.2,7.87-.82,2.64-1.67,5.28-1.93,8.04-.07.74-.3,1.49-.11,2.24-.12,1.27-.11,2.54-.03,3.81-.06.59-.21,1.2.14,1.76.05.47.11.93.16,1.4-.15,1.17.19,2.26.5,3.37.57,2.04.85,4.16,2.11,5.95-.13.41.35.53.4.86-.13.44.1.8.3,1.14.85,1.39,1.75,2.75,2.59,4.14,1.81,3,4.24,5.4,7.06,7.42.67.48,1.19,1.19,2.02,1.44.02.04.06.05.1.04.45.56.97.98,1.75.79.17.3.29.65.72.7.47.57,1.06,1.03,1.73,1.26,1.76.62,3.37,1.61,5.24,1.95,1.15.21,2.22.8,3.42.76.4.1.78.26,1.21.21.22.26.53.3.85.35,2.27.33,4.55.18,6.83.17.41,0,.87.15,1.25-.16.12,0,.23-.02.35-.03.06,0,.11,0,.17,0,.23,0,.47-.01.7-.02.11.04.19,0,.24-.11.27-.03.53-.06.8-.09.55.05,1.08-.03,1.59-.27.68.06,1.24-.44,1.91-.4.9.13,1.66-.38,2.48-.6.46-.12,1.04-.09,1.35-.6.12-.07.25-.14.37-.21,1.19-.13,2.21-.64,3.12-1.41.37-.02.65-.21.9-.46.34.03.5-.18.62-.46.3-.01.55-.15.79-.31.92-.63,1.85-1.26,2.78-1.89.12.02.17-.03.16-.15M110.84,2.7c-2.69-.29-5.27,2.23-5.31,5.1-.03,2.61,2.44,5.26,5.07,5.26,3.17,0,5.42-2.6,5.41-5.11,0-2.98-2.11-5.35-5.18-5.25"/>
      <path class="cls-6" d="M71.27,68.32s-.09.1-.14.15c-.37.21-.75.4-1.11.63-1.56.97-3.2,1.82-4.64,2.98-.15.12-.36.14-.35.42.04.92-.23,1.81-.33,2.71-.23,2.04-1,3.89-1.9,5.7-.03.05-.05.1-.04.15-.1.03-.16.08-.12.19-.02.12-.03.23-.05.35-1.38,1.84-2.78,3.65-4.88,4.75-.85.25-1.71.49-2.59.13-.7-.51-1.39-.97-1.78-1.85-.74-1.67-.13-3.12.58-4.53.74-1.46,1.91-2.64,2.99-3.85.15-.14.3-.27.45-.41.11,0,.17-.05.15-.17.03-.04.05-.09.04-.15.06-.01.13,0,.17-.04,1.68-1.46,3.32-2.95,5.08-4.31.16-.13.17-.3.15-.47-.34-2.53-1.78-3.8-4.44-2.57-1.09.5-2.03,1.19-2.95,1.94l-.29.22c-1.03-.06-1.67-.5-1.87-1.39-.2-.88.21-1.5.92-2.02.89-.66,1.71-1.41,2.56-2.12.25-.06.37-.25.49-.45.97-.79,1.83-1.68,2.47-2.77h0c.27.03.36-.12.34-.36h0c.06-.05.13-.11.19-.17.1-.02.15-.07.13-.18.65-.99,1.45-1.91,1.42-3.19-.02-.67-.19-1.37-1-1.31-1.05.08-2.1.22-2.96,1.04-.98.93-1.88,1.91-2.68,2.99-.31.41-.71.83-1.31.57-.85-.37-1.24-1.91-.58-2.58,1.32-1.34,2.72-2.57,4.4-3.48,1.15-.62,2.39-.65,3.61-.82l.03.05c.72.53,1.57.87,1.92,1.84.64,1.76.35,3.37-.53,4.92-.64,1.14-1.39,2.22-2.1,3.32-.21.32-.41.48.19.69,1.08.37,2.13.89,2.93,1.76.11.16.22.31.33.47.24.6.52,1.19.7,1.81.1.34.31.38.48.22.72-.7,1.68-1.09,2.34-1.85h0c.79-.32,1.4-.93,2.09-1.4.41.02.84-.08,1.21.18.63.68.44,1.46.29,2.24M56.28,83.66c.13-.03.31-.06.46-.13,1.04-.47,1.89-1.2,2.6-2.06,1.65-2.01,2.63-4.35,3.2-6.87.04-.17.13-.36-.05-.45-.14-.06-.28.07-.43.18-1.79,1.35-3.35,2.94-4.77,4.66-.88,1.08-1.71,2.2-1.92,3.64-.1.67.22.97.89,1.03"/>
      <path class="cls-1" d="M55.64,47c-.12-.44-.51-.71-.77-1.04-1.31-1.69-1.39-3.58-1.24-5.61.1-1.39.32-2.74.62-4.08.22-1,.62-1.96,1.03-2.9.25-.59.15-1.13-.01-1.67-.33-1.07-.19-2.01.59-2.85.97-1.04,2.12-1.01,3.32-.54,1.11.44,2.09,1.05,2.82,2.05.32.45.72.6,1.32.22,2.54-1.62,4.36-3.83,5.58-6.55.27-.61.56-1.19,1.22-1.45h.17c1.35.52,1.58,1.28.73,2.43-.12.16-.23.32-.34.49-1.72,2.77-3.97,5.03-6.7,6.81-.47.3-.58.61-.43,1.06.64,1.93.79,3.91.45,5.9-.46,2.72-1.14,5.36-3.4,7.27-.57.48-1.13.75-1.87.7-.63-.04-1.27-.08-1.87.18-.4-.14-.8-.28-1.2-.42M61.92,36.91c-.11-.74-.23-1.56-.37-2.37-.09-.53-.43-.67-.94-.54-.52.13-1.07.34-1.59.3-.83-.07-1.06.36-1.31,1.01-.61,1.6-.99,3.25-1.31,4.91-.29,1.52,0,3.06.78,4.43.6,1.05,1.29,1.11,2.17.28.37-.35.73-.73.95-1.21.96-2.13,1.35-4.41,1.63-6.8M59.31,30.61c0,.37-.02.67,0,.97.02.22-.15.55.26.61.32.04.68.06.87-.22.17-.25-.1-.47-.27-.65-.24-.26-.44-.59-.88-.71"/>
      <path class="cls-6" d="M28.53,61.71c0-1.22.24-2.44.04-3.67.02-.34.05-.68.07-1.02.04-.12.07-.24.1-.35.3-.17.47-.55.87-.57.35,0,.69,0,1.04,0l.07.03h.08c.31.39.73.71.93,1.2,0,.23,0,.47,0,.7-.08,2.48-.15,4.96-.23,7.45.74-1.65,1.49-3.26,1.95-4.98.09-.03.17-.07.14-.19.02-.06.03-.11.05-.17.41-.67.8-1.34,1.06-2.09.25,0,.31-.16.34-.35.19-.05.15-.21.16-.34.15-.09.31-.16.32-.37.36-.36.72-.71,1.07-1.07.12.02.16-.05.17-.15.06-.05.12-.09.18-.14.54.06,1-.26,1.6-.14,1.33.26,1.91,1.13,2.25,2.29.53,1.78.41,3.57.21,5.39-.16,1.48-.22,2.97-.38,4.46-.11.99-.22,1.99-.33,2.98-.02.23-.04.46-.06.69l-.54,1.73h0c-.14.02-.22.12-.33.22-.78.74-1.54.66-2.13-.15-.18-.24.05-.6-.29-.75-.02-.23-.04-.46-.05-.69.17-1.09.39-2.18.49-3.27.17-1.76.26-3.52.39-5.28.17-.35.15-.71.1-1.08.26-1.21-.18-2.41-.1-3.62.01-.16-.08-.46-.33-.53-.23-.07-.38.1-.51.26-.14.18-.27.37-.4.56-1.39,1.92-2.12,4.15-2.9,6.35-.55,1.54-1.15,3.07-1.39,4.71-.06.12-.11.24-.17.35-.02.11-.04.22-.06.34h.01c-.1.01-.16.07-.13.18,0,.06,0,.12,0,.18,0,.11-.01.23-.02.34-.04.05-.06.1-.05.16-.1.29-.25.57-.31.86-.17.96-.87,1.63-1.69,1.59-.77-.04-1.45-.87-1.46-1.81-.02-1.04-.02-2.09-.03-3.13l.05-5.87c.27-.19.11-.46.12-.71v-.52Z"/>
      <path class="cls-6" d="M9.83,72.46c-.04-.11-.11-.21-.11-.32,0-3.11-.11-6.22.03-9.32.07-1.73.2-3.45.18-5.18-.01-1.19.45-1.52,2.05-1.51h0c.03.09.06.17.18.13.06.01.12.02.18.03.58.56.75,1.24.71,2.02-.08,1.47-.24,2.93-.19,4.4.03.81,0,1.63,0,2.44.1.02.19.03.29.05.74-2.2,1.44-4.43,2.61-6.45.01-.06.02-.11.04-.17.36-.51.71-1.02,1.07-1.51,1.06-1.45,2.1-2.17,4.01-1.29h0c.07.05.13.11.19.17.02.1.07.17.18.16.86,1.09,1.17,2.4,1.21,3.72.08,2.96-.21,5.9-.67,8.82-.16,1.01-.27,2.03-.36,3.05-.07.75-.38,1.31-1,1.74-.58.4-1.1.41-1.63-.05-.43-.63-.57-1.33-.52-2.08.29-.19.16-.46.14-.71.01-.23.03-.47.04-.7.27-1.38.33-2.78.37-4.18.2-.07.14-.22.12-.36.01-.26,0-.53.04-.78.38-2.01.35-4.02.15-6.04-.02-.26.02-.55-.27-.67-.31-.13-.51.14-.65.33-.41.55-.83,1.1-1.14,1.71-1.93,3.75-3.09,7.78-4.12,11.84-.23.92-.52,1.57-1.33,1.99-.28,0-.56,0-.83,0-.1-.36-.5-.32-.71-.54.06-.23-.15-.33-.22-.5,0-.07-.01-.15-.02-.22v-.03Z"/>
      <path class="cls-6" d="M51.74,69.71c-1.05,1.29-1.95,2.7-3.59,3.41-2.04.89-4.58-.08-5.46-2.12-.81-1.87-.77-3.77-.53-5.74.26-2.11.75-4.13,1.6-6.07.74-1.68,2.02-2.78,3.71-3.45.08,0,.16,0,.24,0,.53.02,1.07.03,1.6.05h0c.02.1.08.15.19.12.35-.01.51.43.87.39.63.39.95.98,1.24,1.65.5,1.13.33,2.26.19,3.41-.04.05-.05.1-.03.16-.06.12-.12.24-.18.36h0c-1.04,2.11-2.65,3.65-4.88,4.34-1.53.47-1.88,1.38-1.66,2.78.07.46.05.93.09,1.39.13,1.35,1.03,1.83,2.24,1.22.36-.19.67-.44.91-.77.75-1.04,1.35-2.15,1.74-3.38.26-.81,1.11-1.25,1.8-.99.61.23.83.93.53,1.78-.18.5-.41.99-.62,1.48h0ZM50.39,59.72c0-.58-.14-1.28-.78-1.59-.72-.34-1.34.07-1.8.65-.26.33-.54.64-.77,1-.91,1.41-1.24,3.02-1.66,4.6-.17.64.24.5.58.41.83-.22,1.55-.69,2.22-1.19,1.24-.94,2.11-2.15,2.22-3.89"/>
      <path class="cls-3" d="M56.85,47.42c.6-.26,1.25-.22,1.88-.18.74.05,1.3-.22,1.87-.7,2.25-1.91,2.93-4.55,3.4-7.27.34-1.99.19-3.97-.45-5.9-.15-.45-.03-.76.43-1.06,2.73-1.78,4.98-4.03,6.7-6.81.1-.17.22-.33.34-.49.85-1.14.62-1.91-.73-2.43.03-.15.07-.29.27-.26,1.05.14,2.11.14,3.16-.02.23-.04.41,0,.51.22.11.23.11.47-.08.65-.49.46-.47.88,0,1.33.18.18.19.43.06.65-.14.25-.36.27-.6.17-.48-.18-.98-.09-1.47-.09-.79,0-1.11.36-.93,1.13.18.75.16,1.37-.42,1.99-.44.46-.05,1.03.2,1.52.12.24.43.47.19.77-.24.29-.48,0-.7-.08-.93-.33-1.71.05-2.45.53-.29.19-.18.53-.2.81-.05.61-.38.99-.99.99-.84,0-1.19.18-.98,1.18.19.88-.15,1.83-.14,2.76,0,1.33.16,2.67-.14,3.99-.05.23.08.51.11.76.09.76-.03,1.43-.69,1.94-.31.24-.67.45-.77.9-.06.25-.27.37-.53.35-.73-.06-.76.41-.77.95,0,1.8-.02,1.92-1.8,1.9-1.36-.02-2.72,0-4.08-.09-.08,0-.15-.08-.22-.13"/>
      <path class="cls-6" d="M26.67,62.58c-.11.99-.21,1.97-.05,2.97-.04.99-.08,1.98-.12,2.97.33,1.01.06,2.07.3,3.1.32,1.4.08,1.68-1.2,2.13-.34.1-.45-.29-.72-.34-.73-.67-.44-1.62-.64-2.43-.12-.48-.19-1.02-.2-1.52-.03-3.95-.04-7.91,0-11.86.02-1.74.74-2.19,2.44-1.68.3.15.39.47.56.73.04,1.81-.2,3.61-.36,5.41v.52"/>
      <path class="cls-3" d="M51.74,69.71c.21-.49.44-.98.62-1.48.31-.84.08-1.55-.53-1.78-.7-.26-1.54.18-1.8.99-.39,1.23-.99,2.34-1.74,3.38-.24.33-.55.59-.91.77-1.21.62-2.11.13-2.24-1.22-.05-.46-.02-.93-.09-1.39-.22-1.4.13-2.31,1.66-2.79,2.24-.69,3.84-2.23,4.88-4.34,0,.51.39,1.02.04,1.52-.36.53-.44,1.08-.29,1.71.05.22-.21.54.21.6.29.04.65.34.87-.05.29-.51.75-.47,1.21-.45.39.02.72-.05,1.03-.35.72-.69,1.27-.69,2.21-.09-.85.71-1.67,1.46-2.56,2.12-.71.53-1.12,1.14-.92,2.02.2.89.85,1.32,1.87,1.39.35.36,1.03.68.14,1.2-.28.16-.51.13-.68-.13-.62-.98-1.53-1.46-2.66-1.57-.11-.01-.22-.06-.34-.09"/>
      <path class="cls-3" d="M51.81,61.36c.14-1.15.31-2.28-.19-3.41-.29-.66-.61-1.26-1.24-1.65.19-.41.55-.42.89-.31.32.11.5.42.43.76-.07.33,0,.53.33.55.28.02.43-.18.43-.44.02-.95.64-.83,1.22-.65,1,.3,1.49,0,1.59-1.02.1-1.05,1.1-1.71,2.15-1.42.15.04.32.1.39-.05.44-.91,1.23-.6,1.94-.59.7.01,1.4,0,2.09.02.21,0,.53-.08.53.27,0,.29-.28.23-.47.25-.26.02-.43.14-.53.38-1.23.17-2.47.19-3.61.82-1.67.91-3.08,2.14-4.4,3.48-.66.67-.27,2.21.58,2.58.6.26,1-.16,1.31-.57.81-1.08,1.7-2.06,2.68-2.99.86-.82,1.91-.95,2.96-1.04.81-.06.98.64,1,1.31.03,1.28-.76,2.21-1.42,3.19-.28-.1-1.01.05-.75-.31.47-.64.15-1.55.9-1.99-.45-.33-.84-.33-1.22,0-.3.26-.68.29-.98.16-.68-.28-.81.14-1.07.61-.39.7-.56,1.51-1.35,2.01-.53.33-.98.14-1.4.08-.94-.13-1.88.37-2.8-.04"/>
      <path class="cls-6" d="M1.68,60.11c.58,0,.76.26.75.87-.02.75-.33,1.47-.23,2.23.04.27-.09.65.29.73.33.08.52-.27.65-.49.48-.87.89-1.77,1.35-2.65.21-.4.43-.81.7-1.17.45-.57,1.1-.45,1.38.22.57,1.36.19,2.76.1,4.14-.05.76-.28,1.5-.42,2.25-.07.37.12.54.48.55.19,0,.34.05.37.27.03.26-.24.31-.34.31-.79-.04-1,.5-1.26,1.09-.2.45-.56.84-.85,1.25-.18.11-.35.23-.53.34-.4,0-.8,0-1.2.01-.17-.18-.35-.36-.52-.54-.44-1.14.24-2.28,1.71-2.55.56-.1.74-.35.85-.76.43-1.63.71-3.29.66-4.98,0-.15.1-.39-.15-.43-.22-.03-.24.19-.32.34-.5.92-.99,1.85-1.52,2.75-.56.96-1.34,1.16-2.1.58-.06-.05-.11-.11-.16-.16-.43-1.25-.38-2.53-.18-3.81.17-.13.34-.27.51-.4M4.27,68.04c0-.24-.17-.23-.29-.2-.37.1-.66.31-.73.72-.03.15.01.33.2.28.43-.1.63-.46.83-.8"/>
      <path class="cls-3" d="M11.62,73.75c.81-.42,1.09-1.07,1.33-1.99,1.03-4.06,2.2-8.09,4.12-11.84.31-.61.73-1.16,1.14-1.71.14-.19.34-.46.65-.33.29.12.24.41.27.67.19,2.02.23,4.04-.15,6.04-.05.25-.03.52-.04.78-.57.05-.78-.16-.87-.77-.11-.81-.04-1.53.31-2.24.09-.18.35-.43.08-.61-.3-.2-.61-.49-1.03-.31-.27.12-.54.25-.54.6,0,.58,0,1.16,0,1.74,0,.48-.12.82-.72.62-.46-.16-.59.09-.68.5-.21.94.21,1.86.03,2.81-.12.64-.26,1.08-1.01.9-.19-.05-.33-.06-.43.14-.1.21,0,.33.16.43.33.21.53.33,0,.61-.51.27-.74.79-.43,1.39.04.08.08.16.1.24.54,2.11.2,2.43-1.9,2.32-.12,0-.23,0-.35,0"/>
      <path class="cls-6" d="M14.07,14.42c.21.24.53.25.79.43.84.59.88.82.04,1.41-.12.08-.4.16-.43.11-.44-.59-1.07-.32-1.62-.4-.9-.13-1.4.38-1.7,1.11-.29.69.05,1.94.59,2.4.65.55,1.38.77,2.11.25.6-.42,1.05-.56,1.6.09.26.3.2.42-.02.61-.97.86-2.99,1.32-3.98.63-.23-.13-.46-.26-.7-.39-.17-.3-.41-.52-.69-.71-.03-.2-.11-.33-.33-.34-.06-.27-.07-.57-.19-.82-.45-1-.13-1.88.37-2.76.82-1.43,2.14-1.72,3.63-1.67.17.01.35.03.52.04"/>
      <path class="cls-3" d="M55.56,70.08c.91-.75,1.85-1.44,2.95-1.94,2.67-1.23,4.1.04,4.44,2.57.02.17.02.34-.15.47-1.76,1.36-3.4,2.85-5.08,4.31-.04.03-.11.03-.17.04-.3-.85.15-1.69.99-1.96.69-.22,1.24-.67,1.62-1.31.07-.12.11-.3.21-.36.62-.39.72-.83.2-1.37-.02-.02-.04-.06-.03-.08.47-1.43-.54-1.02-1.17-.87-.76.19-1.75-.06-2.14,1-.1.27-.56.3-.67.09-.23-.44-.69-.38-1-.6"/>
      <path class="cls-6" d="M44.79,15.99c1.56.35,1.81,1.49,1.76,2.84-.02.58-.02,1.16,0,1.74.02.45-.06.71-.6.65-.8-.09-1.59-.08-2.41.13-1.09.29-1.77-.7-1.89-1.43-.14-.87.58-1.73,1.51-1.84.4-.05.81,0,1.22-.02.21,0,.52.15.56-.2.05-.37-.23-.49-.56-.49-.46,0-.94-.07-1.39.01-.58.11-.67-.28-.8-.65-.17-.49.32-.34.5-.5.47-.42,1.05-.18,1.57-.3.17.01.35.03.52.05M44.34,19.09c-.44.07-1.06-.16-1.09.56-.01.34.13.73.66.7.63-.03,1.12-.29,1.18-.91.06-.61-.53-.18-.76-.35"/>
      <path class="cls-3" d="M25.59,73.76c1.28-.45,1.52-.73,1.2-2.13-.23-1.04.03-2.09-.3-3.1.55-.13,1.11-.3,1.53.29.04.05.22,0,.33,0,.01,1.04.01,2.09.03,3.13.02.95.69,1.77,1.46,1.81.82.05,1.51-.63,1.69-1.59.05-.3.2-.58.31-.86.7,1.2.47,3.01-.52,3.96-.33.32-.66.32-.99,0-.28-.27-.6-.46-1-.46-.72,0-1.43.06-1.95-.65-.18-.25-.59-.32-.73.15-.09.32-.26.54-.61.47-.43-.08-.16-.39-.18-.62-.02-.14-.18-.27-.27-.41"/>
      <path class="cls-3" d="M32.26,69.74c.24-1.64.83-3.17,1.38-4.71.78-2.2,1.51-4.42,2.9-6.35.13-.19.26-.38.4-.56.13-.16.27-.32.51-.26.25.08.34.37.33.53-.08,1.21.36,2.41.1,3.62-.25-.46-1.33-.86-1.63-.53-.44.48-.95.92-1.23,1.53-.21.46-.2.84.2,1.25.6.63.4,1.6-.4,1.96-.48.21-.25.58-.32.88-.67.35-.95.85-.77,1.63.2.84-.1,1.09-.96.89-.15-.03-.33.06-.5.1"/>
      <path class="cls-3" d="M62.81,80.92c.89-1.81,1.67-3.66,1.9-5.7.1-.91.37-1.79.33-2.71-.01-.29.2-.31.35-.42,1.44-1.15,3.08-2.01,4.64-2.98.36-.22.74-.42,1.11-.63.14.38.46.38.78.42.35.04.63.26.59.63-.04.44-.44.45-.74.39-.49-.11-.96-.1-1.44,0-.44.09-1.29-.32-.82.78.07.17-.12.64-.6.54-.3-.06-.62-.05-.91-.06-.2.27.07.38.14.55.09.21.3.41.18.64-.16.3-.4.05-.61.03-.65-.06-1.19.38-1.84.41-.33.01-.29.46-.27.74.06.94.39,1.93,0,2.82-.55,1.26.46,2.38.18,3.6-.04.16.04.35-.19.54-.22-.47-.33-.94-.34-1.44,0-.36-.18-.67-.52-.71-.48-.06-.32.38-.35.63-.03.31-.17.58-.09.93.25,1.11,0,1.32-1.1,1.05-.11-.03-.23-.03-.35-.04M68.82,70.39s-.11-.07-.14-.06c-.03.01-.05.09-.07.14.05.02.11.07.14.06.03-.01.05-.09.07-.14"/>
      <path class="cls-6" d="M64.52,21.25c-.38-.15-.24-.49-.25-.75-.02-.73-.01-1.45-.03-2.18-.01-.65-.51-.88-1.01-.9-.54-.02-.7.44-.71.91-.02.78-.04,1.57,0,2.35.03.61-.33.56-.72.54-.37-.02-.83.17-.81-.54.04-1.16.02-2.32,0-3.49,0-1.09.21-1.32,1.23-1.02.4.12.67.08,1.03-.06.77-.31,1.5-.18,2.13.4,0,.06.01.12.04.17-.03.11.04.16.13.18h0c.19.46.19.94.19,1.42,0,.92.02,1.84.03,2.76-.37.38-.85.06-1.25.21"/>
      <path class="cls-3" d="M63.83,66.66c-.8-.87-1.85-1.39-2.93-1.76-.61-.21-.4-.37-.2-.69.71-1.1,1.45-2.18,2.1-3.32.88-1.55,1.17-3.17.53-4.92-.36-.98-1.2-1.32-1.92-1.84.19-.06.41-.14.58.01.39.35.61.15.8-.21.24-.44.65-.45,1.06-.39.48.07.32.49.31.77,0,.47.44,1.02-.22,1.4-.1.06.03.18.14.25.47.29.29.71.15,1.07-.31.8-.39,1.59-.15,2.44.22.79-.18,1.73-.87,2.08-.32.16-.27.43-.32.66-.08.39-.06.69-.47,1.04-.39.34.19.91.65,1.02.85.21,1.21.82,1.55,1.51.16.32-.07.51-.18.77-.19.46-.43.02-.61.11"/>
      <path class="cls-3" d="M1.51,64.49c.76.58,1.54.39,2.1-.58.53-.9,1.02-1.83,1.52-2.75.08-.15.1-.37.32-.34.25.04.15.27.15.43.06,1.7-.23,3.35-.66,4.98-.11.41-.29.66-.85.76-1.47.27-2.15,1.4-1.71,2.55-.19.63-.55.44-.65.03-.22-.83-.39-1.67.08-2.53.24-.43.78-1.03-.14-1.48-.35-.17-.13-.7-.16-1.07"/>
      <path class="cls-3" d="M56.92,76.25c-1.09,1.22-2.25,2.39-2.99,3.85-.71,1.41-1.33,2.86-.59,4.53.39.88,1.08,1.34,1.78,1.85-.72.06-1.44.14-2.16.17-.36.01-.47-.27-.48-.6-.02-.91-.2-1.79-.4-2.69-.24-1.08.02-2.35.63-3.42.13-.23.32-.42.29-.71-.09-.69.25-.95.9-.95.29,0,.53-.18.6-.43.28-.97,1.21-1.42,1.76-2.17.26-.35.58.19.65.57"/>
      <path class="cls-3" d="M37.78,63.11c-.12,1.76-.22,3.52-.39,5.28-.1,1.1-.32,2.18-.49,3.27-.38.03-.58-.18-.47-.53.28-.94-.04-1.82-.18-2.72-.12-.76.22-1.49.16-2.24-.03-.4.05-.81-.11-1.21-.12-.29,0-.61.3-.59.78.04.92-.37.87-1.01-.01-.17.15-.23.3-.26"/>
      <path class="cls-3" d="M36.96,72.35c.34.15.11.51.29.75.59.8,1.35.89,2.13.15.1-.1.18-.2.33-.23.04.28.15.49.46.56.3.06.45.25.43.56-.02.33-.23.54-.51.63-1.12.38-2.29.4-3.34-.06-.58-.26-.91-1.02-1.15-1.66-.12-.31.21-.36.45-.34.37.03.68-.07.92-.36"/>
      <path class="cls-3" d="M13.55,14.38c-1.49-.05-2.81.24-3.63,1.67-.5.88-.81,1.76-.37,2.76.11.25.13.55.18.82-.03,0-.07,0-.08,0-.37-.37-1.1.39-1.27-.33-.11-.44.06-.96.16-1.44.05-.25.18-.51.1-.76-.27-.82-.32-1.42.84-1.57.69-.09.61-.79.44-1.47,1.03,0,1.98,0,2.94,0,.27,0,.61-.11.7.32"/>
      <path class="cls-3" d="M67.68,67.31c-.66.77-1.62,1.15-2.34,1.85-.17.16-.38.12-.48-.22-.19-.62-.46-1.21-.7-1.81,1.18-.06,2.36-.03,3.52.18"/>
      <path class="cls-3" d="M1.16,60.51c-.2,1.28-.25,2.56.18,3.81-1.44.02-1.61-.3-1.04-1.65.3-.7.07-1.54.49-2.23.21-.34.27-.09.36.07"/>
      <path class="cls-3" d="M65.78,21.04c0-.92-.03-1.84-.03-2.76,0-.49,0-.97-.19-1.43.63-.02.89.32.88.92,0,.81,0,1.63,0,2.44,0,.43-.08.84-.66.82"/>
      <path class="cls-3" d="M71.27,68.32c.15-.78.34-1.56-.29-2.24.37-.35.82-.14,1.23-.17.31-.02.32.27.41.47.12.28,0,.45-.25.54-.48.17-.42.51-.22.82.13.2.51.33.32.61-.22.32-.57.14-.87.04-.11-.04-.22-.05-.33-.08"/>
      <path class="cls-3" d="M34.5,68.34c0-.23-.03-.47.01-.7.03-.17-.21-.47.16-.52.29-.04.55.07.6.37.11.59.2,1.19.26,1.79.04.37-.14.63-.55.61-.37-.02-.48-.27-.48-.6,0-.32,0-.64,0-.96"/>
      <path class="cls-3" d="M18.81,65.74c-.03,1.4-.1,2.8-.37,4.18-.39.03-.69-.12-.83-.48-.15-.39.08-.66.38-.87.48-.35.22-.85.26-1.28.06-.57-.08-1.19.56-1.55"/>
      <path class="cls-6" d="M59.28,14.23c-.29.66-.89.99-1.46,1.34-.2.12-.5.14-.71-.1-.26-.29.06-.41.18-.56.34-.43.34-1.37,1.3-.9.23.07.46.14.69.21"/>
      <path class="cls-6" d="M54.02,14.24c-.11.47.49,1.21-.68,1.25-1.17.04-.88-.62-.84-1.25.51,0,1.02,0,1.52,0"/>
      <path class="cls-3" d="M2.91,70.07c.4,0,.8,0,1.2-.01.14.41.49.86-.24,1.09-.87.28-.97.17-.96-1.08"/>
      <path class="cls-3" d="M69.77,65.9c-.69.47-1.3,1.08-2.09,1.41-.15-.75.75-1.68,1.52-1.56.19.03.38.1.57.15"/>
      <path class="cls-3" d="M74.95,67.26c-.24-.13-.65-.17-.58-.53.07-.32.12-.83.62-.77.37.04.53.38.52.78-.01.37-.27.47-.57.52"/>
      <path class="cls-3" d="M39.7,73.03l.54-1.73c.67.29.27.78.24,1.22-.04.55-.47.43-.78.51"/>
      <path class="cls-3" d="M138.37,73.66c-.02.31.05.68-.33.71-.35.03-.38-.3-.36-.55.03-.32.03-.8.4-.82.35-.02.26.42.29.66"/>
      <path class="cls-3" d="M45.6,75.5c-.7,0-1.17,0-1.64,0-.15,0-.31-.05-.3-.22.01-.15.15-.26.3-.27.5-.01,1.03-.18,1.64.49"/>
      <path class="cls-3" d="M3.81,72.7c-.29,0-.53-.1-.54-.43,0-.27.19-.41.45-.42.3-.02.53.1.54.42,0,.27-.19.4-.45.43"/>
      <path class="cls-3" d="M10.07,73.2c.21.22.61.18.71.54-.27.09-.3.7-.72.4-.36-.26-.14-.63,0-.94"/>
      <path class="cls-3" d="M10.06,19.97c.28.19.52.41.69.71-.03,0-.06.01-.08,0-.32-.15-.49.51-.81.19-.34-.35.29-.56.2-.9"/>
      <path class="cls-3" d="M70.92,64.56c.21,0,.32.1.34.24.03.19-.08.32-.27.34-.16.02-.27-.1-.3-.23-.04-.2.1-.3.23-.35"/>
      <path class="cls-3" d="M35.85,75.25c-.02.16-.13.23-.29.23-.19,0-.35-.05-.32-.29.02-.18.17-.21.32-.2.16,0,.27.07.29.25"/>
      <path class="cls-3" d="M11.41,75.21c0,.13-.03.23-.17.25-.18.03-.27-.06-.28-.23,0-.12.08-.21.21-.22.12,0,.22.05.23.19"/>
      <path class="cls-3" d="M71.67,55.25c0,.11,0,.25-.16.25-.15,0-.16-.14-.16-.25s0-.25.16-.25c.15,0,.15.14.16.25"/>
      <path class="cls-3" d="M18.41,70.62c.02.25.15.52-.14.71.02-.24-.08-.51.14-.71"/>
      <path class="cls-3" d="M65.15,44.21s-.04.1-.06.15c-.05-.02-.12-.03-.14-.07-.01-.04.03-.09.06-.14.05.02.1.04.15.06"/>
      <path class="cls-3" d="M32.03,70.43c.02-.11.04-.22.06-.34.15.14.13.26-.06.34"/>
      <path class="cls-3" d="M58.85,72.99s.04.05.04.07c0,.02-.03.04-.05.06,0-.04,0-.09.01-.13"/>
      <path class="cls-3" d="M31.89,71.14c0-.11.01-.23.02-.34.15.12.15.24-.02.34"/>
      <path class="cls-3" d="M57.51,75.68c.02.12-.04.17-.15.17.05-.06.1-.11.15-.17"/>
      <path class="cls-3" d="M65.57,16.85c-.1-.02-.16-.06-.13-.18.04.06.09.12.13.18"/>
      <path class="cls-3" d="M9.83,72.49c0,.07.01.15.02.22-.02-.05-.05-.1-.07-.15,0-.02.03-.05.05-.07"/>
      <path class="cls-3" d="M31.91,70.61c-.03-.11.03-.17.13-.19-.05.06-.09.13-.13.19"/>
      <path class="cls-3" d="M49.51,55.92c-.11.03-.17-.02-.2-.13l.2.13Z"/>
      <path class="cls-1" d="M49.43,32.27c-1.57,2.02-3,3.95-4.51,5.81-.75.93-1.53,1.85-2.51,2.58-.62.46-1.38.59-2.02.53-.83-.07-1.19-.94-1.5-1.64-.48-1.09-.31-2.28.05-3.3.4-1.14.69-2.34,1.27-3.44.67-1.26,1.47-2.39,2.53-3.33,1.23-1.09,3.8-1.1,5.1.08.57.52.81.35,1.15-.17.25-.38.57-.72.85-1.08.37-.5.83-.74,1.48-.6.66.14.93.57,1,1.2.31,2.57.32,5.14.03,7.71-.09.77-.14,1.56-.16,2.32-.03,1.49-.38,2.92-.62,4.37-.08.47-.12.71.4.81.45.09.55.41.54.84,0,.44-.24.6-.61.71-.46.13-.81.28-1.01.86-.6,1.71-1.25,3.42-2.38,4.9-.79,1.05-1.8,1.7-3.05,1.93-1.57.29-3.64-1.4-3.23-3.52.24-1.22.98-2.14,1.83-2.94.94-.88,2-1.7,3.28-2,.85-.2,1.06-.66,1.2-1.39.33-1.75,1.1-9.12.92-11.19M41.49,38.58s-.06.23.17.33c.23.09.36-.14.48-.27.67-.72,1.24-1.51,1.81-2.31,1.01-1.43,2.09-2.82,3.12-4.24.44-.6.31-.99-.39-1.07-.81-.1-1.61-.06-2.26.59-1.88,1.87-2.46,4.29-2.94,6.98M47.73,46.57c-1.41.65-2.62,1.24-3.32,2.45-.27.46-.43,1.21.08,1.59.53.39,1.01-.12,1.39-.52.88-.93,1.47-2.02,1.85-3.52"/>
      <path class="cls-1" d="M23.81,44.78c-.14-2.34-.23-4.68-.16-7.17-.82,1.01-.99,2.2-1.54,3.19-.69,1.25-1.31,2.53-2.26,3.61-.71.82-1.61,1.25-2.65,1.02-.8-.17-1.33-.78-1.65-1.6-.74-1.86-.55-3.81-.39-5.69.16-1.9.25-3.84.82-5.7.26-.84.9-1.26,1.94-1.1.8.12,1.1.61,1.06,1.39-.09,1.71-.52,3.37-.81,5.05-.28,1.6-.3,3.22-.23,4.84,0,.18.01.35.26.37.24.02.48.06.64-.17.24-.35.47-.72.68-1.09,1.3-2.39,2.31-4.9,3.18-7.49.53-1.57.8-3.22,1.53-4.72.25-.51.67-.93,1.28-.78.54.13.89.5,1.01,1.15.09.48.16.96.15,1.45-.05,3.6-.13,7.21.01,10.81.05,1.25.2,2.5.88,3.64.49.81.32,1.78-.25,2.19-.58.41-1.42.23-2.15-.35-.82-.65-.9-1.65-1.29-2.51-.02-.11-.03-.23-.05-.34"/>
      <path class="cls-1" d="M13.54,34.13c.28,1.52.21,3.38.22,5.23.02,2.42-.18,4.83-.53,7.23-.08.52-.06.97.69,1.01.4.02.78.33,1.19.42.67.16.78.62.7,1.17-.1.65-.68.58-1.14.65-.49.08-.88-.25-1.3-.41-.56-.21-.73.08-.8.43-.4,1.89-1.36,3.49-2.55,4.94-1.03,1.25-3.28,1.8-4.49,1.33-1.66-.64-2.37-2.69-1.59-4.28.61-1.25,1.5-2.24,2.47-3.14.78-.72,1.81-1.1,2.86-1.29.46-.09.62-.29.68-.71.14-1.08.33-2.16.43-3.25.27-3.01.33-6.03.13-9.04-.07-1.11-.02-2.24-.26-3.35-.21-.95.24-1.69.98-1.82,1.19-.21,1.91.22,2.08,1.35.16,1.06.31,2.12.23,3.52M9.02,49.83c-.05-.54-.44-.37-.73-.23-1.21.58-2.02,1.55-2.61,2.74-.22.44-.19.8.16,1.08.36.27.72.06,1.03-.18.79-.59,1.22-1.45,1.63-2.3.17-.35.53-.62.52-1.11"/>
      <path class="cls-1" d="M27.99,41.37c.08-3.57.8-6.56,2.24-9.35.71-1.38,2.65-2.97,4.93-2.61,2.21.35,3.34,3.06,2.68,5.3-.87,2.97-2.99,4.65-5.84,5.48-.72.21-.97.53-.9,1.2.1.94-.11,1.89.07,2.84.1.54.27,1.07.8,1.2.64.16,1.35.11,1.84-.44,1.03-1.14,1.88-2.39,2.25-3.92.14-.58.52-.94,1.11-1,1.24-.13,1.86.96,1.17,2.29-1,1.91-2.16,3.79-4.36,4.48-2.22.7-3.97.19-5.26-2.36-.55-1.1-.86-2.28-.73-3.11M36.4,33.44c.02-.69-.02-1.41-.76-1.67-.78-.27-1.38.11-1.91.76-1.32,1.62-1.84,3.53-2.24,5.51-.13.62.09.43.44.36.84-.17,1.55-.62,2.17-1.14,1.18-.99,2.38-2.04,2.31-3.81"/>
      <path class="cls-5" d="M23.81,44.78c.02.11.03.23.05.34-.26.33-.44.66-.13,1.08.21.27.19.65.09.93-.34,1,.25,1.52.96,1.94.5.29.67.66.63,1.21-.05.63-.61.48-.93.56-.56.14-.64.37-.59.92.08.81,0,1.63-.04,2.45-.02.41-.31.83.17,1.18.18.13.1.29-.08.42-.26.18-.55.47-.85.26-.67-.46-1.26-.09-1.88.06-.11,0-.16-.06-.18-.16-.06-.06-.13-.12-.19-.18h0c-.04-.52.43-1.24-.6-1.4-.34-.05-.29-.37,0-.57.17-.12.32-.28.2-.51-.1-.18-.3-.14-.47-.15-.2,0-.41,0-.61,0-.47-.01-.88-.05-.65.69.18.56-.21.87-.77.87-.23,0-.45-.08-.68-.1-.25-.02-.44.13-.34.35.08.17-.15.49.2.51.11,0,.27-.34.34,0,.03.17-.09.39-.35.41-.45.04-.9.11-1.35.12-.35,0-.79.14-.74.41.13.75-.13,1.67.75,2.17-.01.06-.02.11-.04.17-.5-.17-1.22.32-1.5-.47-.16-.46-.26-.94-.32-1.42-.03-.28.31-.73-.16-.77-.46-.04-1.05-.44-1.45.19-.06-.01-.12-.02-.18-.03-.06-.05-.12-.09-.18-.14h0c.05-.51-.2-1.12.54-1.38.16-.06.16-.29.16-.47.03-1.08-.02-2.15.32-3.23.2-.63.46-1.01,1.05-.83.92.28,1.83-.09,2.74.12.28.07.94.16.88-.21-.1-.62,1.19-.96.24-1.71-.38-.3-.18-.77.38-.84.34-.04.7.01,1.05-.02.42-.03,1.09.13.62-.72-.17-.31.13-.38.31-.26.76.5.75-.1.79-.55.12-1.37.18-1.44,1.57-1.16.43.09.79-.21,1.19-.1"/>
      <path class="cls-5" d="M39.03,51.95c.06-.38-.2-.73.08-1.16.27-.4-.19-.43-.47-.43-.86,0-1.75-.14-2.58.03-.98.2-1.9-.06-2.84-.04-.49.01-.94-.06-1.29.48-.28.43-.8-.05-1.22.03-.54.1-1.4-.19-.79.91.14.25-.04.5-.25.69-.21.18-.42.17-.64.05-.52-.29-.92-.69-1.22-1.21-.22-.39-.3-.9-.98-.8.21-.42.4-.23.58-.2.51.07,1.04.23.84-.67-.07-.33.05-.79.43-.98.46-.23.65-.55.78-1.05.16-.64.92-.37,1.2-.3,1.41.38,2.83.09,4.24.2.71.06,1.43.01,2.14.07.63.05.82-.22.77-.81-.04-.46-.01-.93,0-1.39.01-.74.56-1.1,1.25-.82,1.18.48,1.49.22,1.57-1.08.03-.46-.53-.97.13-1.42.49-.33.94-.12,1.42-.08.84.07,1.6-.13,2.29-.63.36-.26.73-.51.87.2.04.22.2.31.39.42.56.34,1.09.73.54,1.49-.02.02-.03.06-.03.08.25,1.51-.82,1.22-1.67,1.23q-1.15,0-1.15,1.19c0,1.11-.43,1.56-1.53,1.6-.94.03-1.22.48-.73,1.29.27.45.34.71-.15,1.05-.57.4-.41,1.22-.84,1.75-.27.33-.47.66-.95.62h0c-.04-.06-.08-.12-.12-.18-.02-.05-.03-.11-.05-.16M29.42,49.41c-.02-.22-.14-.4-.4-.41-.22,0-.41.1-.39.34.02.22.11.46.39.47.22,0,.36-.14.4-.4"/>
      <path class="cls-6" d="M27.66,20.8c0,.49-.04.91,0,1.33.09.68-.32.64-.79.67-.55.03-.76-.1-.75-.71.04-1.71.01-3.43.01-5.14,0-.93.6-1.31,1.43-.82.26.16.4.21.67.08,1.46-.67,3.2.23,3.31,2.11.08,1.39-.37,2.56-2.13,3.02-.71.19-1.1-.33-1.75-.54M27.67,18.65c0,.84.46,1.35,1.21,1.35.72,0,1.08-.47,1.09-1.45,0-.88-.32-1.21-1.18-1.2-.77.01-1.12.42-1.11,1.29"/>
      <path class="cls-5" d="M31.74,58.05c0-.24,0-.47,0-.7.24-1.3.18-1.37-.93-1.21h-.08s-.07-.03-.07-.03c-.34-.24-.69-.24-1.04,0-.4.02-.56.4-.87.57-.18-.34.15-1.01-.66-.93-.21.02-.22-.22-.17-.41.13-.5.38-.9.85-1.14.35-.18.57-.2.71.26.1.3.21.73.71.52.29-.12.93.13.68-.64-.07-.21,1.01-.56,1.15-.33.62,1,1.52.52,2.31.44.37-.04.59,0,.8.31.37.55.92.62,1.53.5.33-.06.33-.07.27.39-.06.05-.12.09-.18.14-.06.05-.12.1-.17.15-.36.36-.72.71-1.07,1.07-.11,0-.22,0-.32,0-.02-.08-.05-.15-.07-.23-.02.01-.04.03-.07.04.04.06.09.12.13.19,0,.12,0,.24,0,.37-.01.13.03.29-.16.34-.16-.02-.2-.35-.4-.2-.21.17-.19.39.06.55-.26.75-.65,1.42-1.06,2.09-.26-.04-.78-.07-.34-.42.8-.63.32-.85-.15-1.33-.46-.47-.94-.28-1.42-.35M32.29,56.01c.1.25.31.3.55.29.18,0,.39-.01.39-.24,0-.29-.25-.38-.48-.39-.19,0-.4.08-.46.34M35.5,56.18c-.02-.14-.12-.19-.24-.19-.13,0-.22.09-.21.22,0,.17.1.26.28.23.13-.03.17-.13.17-.25"/>
      <path class="cls-6" d="M32.21,18.69c-.19-1.67,1.37-2.7,2.47-2.72,2.12-.05,3.1,1.21,3.1,2.57,0,1.57-1.01,2.74-2.89,2.88-1.21.09-2.93-1.24-2.68-2.73M35.02,17.36c-.77,0-1.38.55-1.4,1.29-.01.74.6,1.37,1.34,1.37.68,0,1.27-.63,1.27-1.34,0-.87-.4-1.3-1.21-1.31"/>
      <path class="cls-6" d="M21.59,18.7c.01,1.62-1.23,2.79-2.99,2.68-1.35-.08-2.55-1.22-2.62-2.8-.06-1.25,1.43-2.58,2.63-2.64,1.64-.08,3.23,1.26,2.98,2.76M18.88,17.36c-.94,0-1.31.36-1.31,1.28,0,.84.55,1.38,1.38,1.37.63-.01,1.23-.67,1.25-1.39.02-.61-.66-1.26-1.32-1.26"/>
      <path class="cls-6" d="M54.75,18.73c-.22-1.52,1.22-2.76,2.61-2.76,1.51,0,2.97.8,2.97,2.57,0,1.54-.96,2.75-2.68,2.84-1.65.08-2.87-1.07-2.9-2.65M58.76,18.71c.01-.89-.41-1.33-1.27-1.34-.7-.01-1.3.55-1.34,1.25-.03.59.78,1.52,1.35,1.55.62.03,1.25-.7,1.26-1.45"/>
      <path class="cls-6" d="M39.03,51.95c.02.05.04.11.05.16-.04.11.03.15.12.18h0c.32,1.43-.81,1.91-1.95,1.64-1.93-.45-3.89-.9-5.9-.45-.38.08-.84.14-1-.4-.16-.55.12-.87.61-1.06,1.75-.67,3.58-.76,5.4-.53.89.11,1.86-.15,2.67.45"/>
      <path class="cls-6" d="M49.81,15.97c.51-.08.98.03,1.39.33.25.18.86.18.45.75-.27.38-.47.88-1.13.5-.59-.34-1.23-.35-1.68.28-.42.58-.33,1.25.05,1.75.4.53,1.08.62,1.63.25.64-.43.95.02,1.19.39.31.49-.26.59-.54.78-1.19.83-3.03.37-3.78-1.06-.87-1.66-.04-3.19,1.31-3.84.37-.18.74-.06,1.1-.13"/>
      <path class="cls-6" d="M23.89,16.7c.2-.19.3-.26.37-.35.25-.36.65-.49.98-.33.4.2.12.67.19,1.01.08.44-.18.45-.53.55-.65.17-1.06.64-1.03,1.39.01.43,0,.87,0,1.3,0,.94-.31,1.16-1.24.95-.41-.09-.3-.36-.3-.6,0-1.3,0-2.61,0-3.91,0-.33-.09-.78.47-.7.42.06,1.12-.36,1.11.68"/>
      <path class="cls-6" d="M38.43,18.66c0-.52,0-1.05,0-1.57,0-.89.63-1.41,1.29-.89.48.38.59.05.88-.05.29-.1.75-.42.84.04.09.42.39,1.18-.32,1.34-.99.22-1.08.92-1.16,1.67-.04.4-.01.81-.01,1.22,0,.71-.69,1.1-1.34.78-.26-.13-.16-.35-.16-.53-.01-.67,0-1.34,0-2.01h0Z"/>
      <path class="cls-5" d="M28.35,68.81c-.11,0-.29.06-.33,0-.42-.59-.98-.42-1.53-.29.04-.99.08-1.98.12-2.97.68-.14,1.39-1.2,1.18-1.96-.14-.55.13-1.01.09-1.52-.03-.43.37-.33.64-.35v.52c-.43.17-.62.38-.12.71l-.05,5.87Z"/>
      <path class="cls-6" d="M52.58,18.6c0-.67.03-1.33,0-2-.04-.64.36-.6.78-.6.4,0,.73-.02.71.57-.04,1.36-.04,2.73,0,4.09.02.58-.28.6-.7.56-.36-.04-.86.19-.81-.53.04-.69,0-1.39,0-2.09h.01"/>
      <path class="cls-5" d="M41.85,56c-.92.24-1.1-.23-1.08-1.07.04-2.1.07-2.16,2.13-1.75.33.07,1.07.11.56.86-.1.14-.05.39-.05.59-.02,1.26-.21,1.43-1.55,1.36"/>
      <path class="cls-6" d="M25.75,51.75c.84,0,1.4.59,1.4,1.49,0,.71-.57,1.3-1.29,1.31-.76.01-1.51-.83-1.5-1.67.02-.79.43-1.13,1.38-1.13"/>
      <path class="cls-1" d="M12.33,26.59c0,.82-.44,1.25-1.29,1.26-.66.01-1.53-.9-1.51-1.59.02-.74.49-1.2,1.24-1.21.99,0,1.56.55,1.55,1.54"/>
      <path class="cls-5" d="M27.03,56.65c-.17-.26-.26-.58-.56-.73-.22-.59-.07-1.04.72-1.52-.6,1,.19,1.44.36,2.07.06.22.53.39.18.63-.36.25-.32-.3-.53-.39-.05-.02-.11-.04-.16-.05"/>
      <path class="cls-5" d="M26.67,62.58v-.52c.27.11.56-.3.79.02.07.09-.05.32-.09.49-.21.7-.46-.12-.69.02"/>
      <path class="cls-5" d="M28.64,57.02c-.02.34-.05.68-.07,1.02-.41.03-.54-.16-.54-.56,0-.45.25-.52.61-.47"/>
      <path class="cls-5" d="M47.71,55.74c-.08,0-.16,0-.24,0,.03-.07.04-.2.08-.21.16-.04.16.1.17.2"/>
      <path class="cls-2" d="M143.56,43.74l.06.34c-.53.63-.43,1.35-.11,1.98.24.48.24.93.28,1.42.19,2.76-.31,5.49-.6,8.21-.18,1.68-.62,3.39-1.34,5-.2.44-.62,1.03-.06,1.57-.08.18-.16.35-.25.53-.61.25-1.25.85-1.26,1.28-.03,1.05-.62,1.78-1.03,2.6-.7,1.38-1.56,2.67-2.46,3.95-.46.65-1.43,1.06-1.18,2.12,0,0,0,0,0,0-.73.24-1.32.6-1.35,1.48-.13.39-.4.63-.77.77-.7.36-1.39.65-1.96,1.29-.48.54-1.18.87-1.37,1.66h0c-.05.06-.1.11-.16.16-.93.63-1.85,1.26-2.78,1.89-.24.16-.49.3-.79.31-.41-.13-.61.04-.61.46-.25.25-.53.45-.9.46-1.13.27-2.13.81-3.12,1.41l-.37.21c-.73.14-1.52.16-2.18.45-.55.24-1.25.18-1.65.75-.67-.04-1.23.46-1.91.4-.6-.31-1.16-.4-1.59.27-.27.03-.53.06-.8.09-.11-.03-.19,0-.24.11-.23,0-.47.01-.7.02-.06-.15-.12-.14-.17,0-.11,0-.23.02-.34.03-.09-.19-.26-.22-.44-.2-2.7.38-5.37.09-8.04-.32-.19-.03-.35-.03-.44.16-.42.05-.81-.11-1.21-.21-.53-.84-1.53-.97-2.29-1.12-1.46-.28-2.7-1.22-4.21-1.24-.08,0-.17-.06-.23-.12-.52-.5-1.22-.61-1.84-.91-.25-.12-.61-.1-.66-.47-.06-.43.39-.44.59-.66.53-.57,1.4-.57,1.89-1.1.56-.6,1.24-1.03,1.88-1.5,1.21-.88,2.3-1.9,3.38-2.92.43-.41.95-.74,1.31-1.25,1.49-2.11,3.25-4.01,4.6-6.24,1.54-2.53,2.86-5.15,3.76-7.95.79-2.47,1.4-4.99,1.79-7.57.08-.55.29-.96.9-1.12.5-.13,1.01-.32,1.44-.59,2.25-1.43,4.34-3.05,6.04-5.13,1.1-1.34,2.15-2.73,2.87-4.31,1.24-2.75,1.68-5.69,1.99-8.66.08-.72.35-.88.94-.49.42.28.8.67,1.37.62h0c-.07.22.08.37.2.54,1.87,2.57,2.17,5.22.36,7.95-.29.44-.21.99.13,1.17.95.51,1.53,1.56,2.72,1.74.47.07.71-.05.96-.34.32-.37.53-.77.22-1.25.22-.4.44-.79.47-1.26.34-.13.44-.4.52-.73.5-2.09.44-4.18-.05-6.26-.18-.77-.41-1.54-.63-2.36.36.02.57.15.77.32,1.43,1.17,2.65,2.56,3.9,3.91.79.85,1.24,1.08,2.19.44.72-.49,1.31-.68,2.05-.19.04.03.05.06.03.11-.04.12,0,.21.12.26.19.45.37.9.56,1.35-.01.57.04,1.12.58,1.46.03.11.06.22.08.33-.08,1.09.23,2.07.79,2.98.31.36.18.8.23,1.21-.29.3,0,.49.14.7"/>
      <path class="cls-2" d="M92.1,18.6c.17-.09.34-.17.51-.26.35.43.67.19,1.05,0,1.07-.54,2.19-.99,3.29-1.45,1.32-.55,2.75-.86,4.15-1.14,1.8-.37,3.59-.88,5.46-.84,1.48.03,2.96.07,4.44-.01,1.18-.06,2.28.37,3.43.42.68.03.76.41.32.96-.16.2-.52.37-.15.69.05.13,0,.25-.08.35-.16.37.18.5.33.73.35.5.95.62,1.39,1.01,1.51,1.35,2.57,3.01,3.58,4.73.11.19.31.43.1.63-.27.26-.46-.04-.66-.19-1.7-1.3-5.53-.72-5.83,2.17-.11,1.04-.09,2.04.58,2.97.86,1.2,1.96,1.66,3.38,1.44,1.67-.25,2.54-.79,3.11-2.25.06-.16-.05-.44.35-.45.07.59.19,1.19.2,1.78.04,2.75-.38,5.41-1.65,7.9-.83,1.64-1.92,3.11-3.22,4.38-1.25,1.22-2.73,2.15-4.31,2.97-3.27,1.69-6.68,1.92-10.19,1.27-1.85-.34-3.45-1.29-5.05-2.27-2.25-1.38-4.11-3.04-5.1-5.56-.55-1.4-1.41-1.96-2.3-1.45-1.3.75-2.75,1.19-4.02,2-.43.28-.53.55-.32,1.01.34.76.85,1.42,1.24,2.14.68,1.26,1.62,2.31,2.59,3.28,1.12,1.11,2.32,2.19,3.71,3.05.52.32,1.09.5,1.59.82,1.22.79,2.55,1.33,3.96,1.63,1.5.32,1.76.73.93,2.03-1.23,1.9-2.31,3.88-4.26,5.26-2.34,1.65-4.8,2.78-7.66,2.81-2.3.02-4.57-.26-6.58-1.54-.19-.12-.45-.36-.67,0-.18.01-.35.03-.53.04-.12,0-.17.05-.16.17h0c-.28-.07-.39.13-.56.3-.64.67-.9,1.59-1.54,2.27-.35.38-.57.44-.74-.02-.39-1.05-.84-2.1-1.02-3.18-.28-1.62-1.05-3.07-1.42-4.64-.05-.47-.11-.93-.16-1.4.22-.61.45-1.22-.14-1.76-.09-1.27-.1-2.54.03-3.81.41.01.41-.27.46-.58.3-1.6.11-3.29.87-4.8.11-.22.14-.5.16-.76.06-.79.24-1.55.54-2.27.67-1.57,1.15-3.2,1.96-4.74.71-1.35,1.34-2.76,2.25-3.98.81-1.1,1.43-2.32,2.48-3.29.49-.45,1.01-1.02,1.43-1.64.52-.77,1.31-1.48,2.06-1.97.85-.56,1.38-1.45,2.29-1.9.14-.07.11-.32.05-.49h.01c.31.04.63.1.92-.1.89-.64,1.71-1.39,2.78-1.75.29-.1.38-.41.35-.73M110.43,41.01c.16-3.16-2.28-5.85-5.51-5.86-3.26,0-5.72,2.49-5.64,5.68.08,3.07,1.89,5.62,5.78,5.48,3.08-.11,5.1-1.7,5.37-5.3"/>
      <path class="cls-6" d="M79.21,59.66c.18-.01.35-.03.53-.04.59.64,1.42.95,2.19,1.18,4.25,1.27,8.32.94,12.15-1.48,2.71-1.71,4.4-4.17,5.6-7.05.2-.49.3-1-.37-1.18-1.84-.49-3.58-1.18-5.27-2.08-3.86-2.04-6.61-5.12-8.7-8.88-.25-.44-.15-.6.33-.78,1.18-.46,2.34-1,3.49-1.54,1.08-.5,1.07-.51,1.6.57.94,1.91,2.21,3.57,3.84,4.96,1.94,1.65,4.14,2.77,6.6,3.4,2.32.59,4.67.55,6.96.09,5.79-1.18,9.94-4.53,12.14-10.02,1.16-2.88,1.5-5.94.99-9.09-.67-4.13-2.62-7.42-5.9-9.95-.25-.19-.42-.61-.87-.43.09-.1.13-.22.08-.35.73-.41,1.16-1.22,1.96-1.55.31.12.63.24.94.36.39.45.73.96,1.27,1.26h0c1.19,1.57,2.32,3.19,3.19,4.97.14.28.27.61.74.61,1.27.01,2.49.34,3.72.65,3.27.81,6.1,2.44,8.73,4.47,1.25.96,2.24,2.17,3.35,3.26.54.84,1.1,1.67,1.63,2.51.16.26.36.53.32.87-.74.08-1.35.51-1.96.86-.61.35-.91.17-1.29-.29-.85-1.02-1.67-2.07-2.67-2.96-1.15-1.02-2.38-1.92-3.98-2.68.19.4.27.58.37.76,1.19,2.22,2.07,4.5,1.86,7.1-.08,1.04-.39,2.02-.52,3.04-.03.47-.25.86-.47,1.26-.15.17-.36.33-.43.53-.23.67-.57.68-1.09.29-.61-.45-1.24-.85-1.89-1.24-.32-.19-.4-.33-.17-.68,1.44-2.17,1.31-4.48.43-6.79-.28-.74-.59-1.56-1.44-1.93h0c-.4-.91-1.3-.99-2.1-1.3-.7-.27-.8-.05-.78.58.09,2.28-.39,4.47-1.03,6.63-.6,2.02-1.56,3.85-2.8,5.57-1.96,2.72-4.35,4.91-7.41,6.32-1.14.53-2.42.9-2.05,2.6.01.05-.02.11-.04.17-.57,3.09-1.4,6.1-2.61,9.02-1.39,3.38-3.3,6.43-5.5,9.3-2.72,3.54-6.08,6.41-9.89,8.75-.58.36-1.29.52-1.71,1.13-.42-.04-.54-.4-.72-.7-.58-1.06-1.13-2.13-1.74-3.17-.28-.48-.21-.72.28-1.01,3.08-1.83,5.56-4.32,7.68-7.19.89-1.21,1.52-2.57,2.3-3.85.15-.25.3-.58.06-.8-.22-.19-.45.05-.67.2-.38.26-.8.46-1.21.68-3.38,1.85-6.99,2.81-10.84,2.88-.9.02-1.67-.5-2.57-.55-1.71-.1-3.36-.51-4.91-1.33-.68-.36-1.31-.99-2.2-.84-.05-.33-.53-.45-.4-.86,1.06-1.23,2.02-2.53,2.67-4.04h0c.05-.07.11-.12.16-.18"/>
      <path class="cls-2" d="M88.85,78.92s-.08,0-.1-.04c.02-.53-.3-.83-.7-1.11-1-.72-2.17-1.32-2.94-2.24-1.05-1.27-2.51-2.18-3.27-3.7-.08-.15-.19-.33-.33-.4-.87-.41-1.07-1.37-1.64-2.03-.78-.9-1.18-2.08-1.95-3-.13-.15-.16-.31-.09-.48.08-.2.28-.2.45-.17.22.05.45.11.65.23,1.84,1.04,3.92,1.41,5.94,1.63,4.34.46,8.53-.37,12.42-2.44.2-.11.45-.41.68-.13.19.22.04.53-.12.72-.64.76-.92,1.73-1.56,2.51-1.12,1.35-2.18,2.73-3.51,3.89-1.19,1.05-2.41,2.05-3.75,2.91-.7.45-1.02,1.02-.45,1.81.25.35.43.76.66,1.12.32.51.3.87-.4.94"/>
      <path class="cls-1" d="M110.84,2.7c3.07-.1,5.17,2.27,5.18,5.25,0,2.51-2.24,5.12-5.41,5.11-2.63,0-5.11-2.66-5.07-5.26.04-2.87,2.62-5.39,5.31-5.1"/>
      <path class="cls-4" d="M91.32,80.41c.41-.61,1.13-.78,1.71-1.13,3.81-2.34,7.17-5.2,9.89-8.75,2.2-2.87,4.11-5.92,5.5-9.3,1.2-2.92,2.04-5.92,2.61-9.02.01-.06.05-.12.04-.17-.36-1.7.91-2.07,2.05-2.6,3.06-1.41,5.45-3.6,7.41-6.32,1.24-1.71,2.2-3.55,2.8-5.57.64-2.16,1.12-4.36,1.03-6.63-.02-.63.08-.86.78-.58.79.31,1.69.4,2.1,1.31-.58.05-.95-.33-1.37-.62-.59-.4-.87-.23-.94.49-.31,2.97-.75,5.91-1.99,8.66-.72,1.59-1.77,2.97-2.87,4.31-1.7,2.08-3.8,3.7-6.04,5.13-.43.27-.94.46-1.44.59-.62.16-.82.58-.9,1.12-.38,2.57-1,5.1-1.79,7.57-.9,2.8-2.22,5.42-3.76,7.95-1.36,2.23-3.12,4.13-4.6,6.24-.36.51-.88.84-1.31,1.25-1.07,1.02-2.16,2.05-3.38,2.92-.64.46-1.32.89-1.88,1.5-.49.54-1.36.53-1.89,1.1-.2.22-.64.23-.59.66.05.37.41.35.66.47.62.29,1.32.41,1.84.91.06.06.15.11.23.12,1.51.02,2.76.95,4.21,1.24.76.15,1.76.28,2.29,1.12-1.21.03-2.27-.55-3.42-.76-1.87-.34-3.48-1.34-5.24-1.95-.67-.23-1.26-.7-1.73-1.26"/>
      <path class="cls-4" d="M88.85,78.92c.7-.07.72-.42.4-.94-.23-.37-.41-.77-.66-1.12-.57-.79-.26-1.36.45-1.81,1.34-.86,2.56-1.86,3.75-2.91,1.32-1.17,2.39-2.55,3.51-3.89.65-.78.92-1.75,1.56-2.51.16-.19.31-.5.12-.72-.24-.27-.48.03-.68.13-3.89,2.08-8.08,2.9-12.42,2.44-2.01-.21-4.09-.59-5.94-1.63-.2-.11-.43-.18-.65-.23-.16-.03-.36-.04-.45.17-.07.17-.04.33.09.48.77.92,1.17,2.11,1.95,3,.57.66.77,1.62,1.64,2.03.14.07.25.25.33.4.76,1.52,2.21,2.43,3.27,3.7.77.93,1.93,1.52,2.94,2.24.4.29.72.59.7,1.11-.83-.26-1.35-.96-2.02-1.44-2.82-2.02-5.26-4.42-7.06-7.42-.84-1.39-1.74-2.76-2.59-4.14-.21-.34-.44-.7-.3-1.14.89-.15,1.53.48,2.2.84,1.55.82,3.2,1.24,4.91,1.33.91.05,1.67.56,2.57.55,3.85-.07,7.46-1.03,10.84-2.88.41-.22.83-.42,1.21-.68.22-.15.46-.4.68-.2.24.22.1.55-.06.8-.78,1.28-1.4,2.64-2.3,3.85-2.12,2.87-4.59,5.36-7.68,7.19-.49.29-.56.54-.28,1.01.6,1.04,1.16,2.11,1.74,3.17-.79.19-1.3-.23-1.75-.79"/>
      <path class="cls-4" d="M118.79,17.05c-.54-.3-.88-.81-1.27-1.26.27-.13.51-.12.81-.05,3.48.76,6.7,2.1,9.59,4.18,1.96,1.41,4.02,2.72,5.7,4.45.97,1,1.84,2.12,2.76,3.19.52.61,1.14,1.12,1.54,1.86.29.52.49,1.03.6,1.59-1.11-1.09-2.11-2.3-3.35-3.26-2.64-2.03-5.46-3.66-8.73-4.47-1.23-.31-2.45-.63-3.72-.65-.47,0-.61-.33-.74-.61-.87-1.78-2-3.4-3.19-4.97.48-.14.66.27.91.53,1.2,1.28,1.87,2.91,2.91,4.3.17.23.29.38.59.39,1.33.05,2.62.2,3.89.69,2.51.96,5.1,1.76,7.15,3.62.11.1.23.24.37.14.17-.12.12-.31,0-.46-.3-.35-.58-.72-.93-1.02-1.3-1.12-2.62-2.21-3.92-3.33-.87-.75-1.85-1.37-2.79-2.03-1.16-.81-2.54-1.32-3.84-1.93-.49-.23-1.08-.3-1.52-.59-.72-.47-1.53-.61-2.31-.84-.43-.13-.44.25-.49.53"/>
      <path class="cls-4" d="M88.04,21.17c.06.17.08.42-.05.49-.91.45-1.44,1.34-2.29,1.9-.76.49-1.54,1.2-2.06,1.97-.42.62-.94,1.2-1.43,1.64-1.05.96-1.67,2.19-2.48,3.29-.91,1.22-1.54,2.63-2.25,3.98-.81,1.54-1.29,3.17-1.96,4.74-.31.72-.48,1.48-.54,2.27-.02.26-.05.54-.16.76-.76,1.52-.57,3.21-.87,4.8-.06.31-.05.59-.46.58-.19-.76.05-1.5.11-2.24.26-2.77,1.1-5.4,1.92-8.04.9-2.91,2.54-5.41,4.2-7.88,1.69-2.52,3.59-4.92,6.19-6.64.74-.49,1.25-1.29,2.13-1.61"/>
      <path class="cls-4" d="M116.57,15.42c-.8.33-1.23,1.13-1.96,1.55-.37-.32,0-.49.15-.69.44-.55.36-.93-.32-.96-1.16-.05-2.25-.49-3.43-.42-1.48.08-2.96.05-4.44.01-1.87-.04-3.66.48-5.46.84-1.41.28-2.84.59-4.15,1.14-1.1.46-2.22.92-3.29,1.45-.39.19-.7.43-1.05,0,1.6-1.13,3.46-1.7,5.26-2.37,4.5-1.69,9.2-1.73,13.91-1.55,1.65.06,3.26.33,4.79,1"/>
      <path class="cls-4" d="M132.27,40.21c.13-1.02.44-2,.52-3.04.21-2.6-.68-4.88-1.86-7.1-.09-.17-.17-.35-.37-.75,1.6.76,2.83,1.66,3.98,2.68,1,.89,1.82,1.94,2.67,2.96.39.47.68.65,1.29.29.61-.35,1.22-.78,1.96-.86.2.3.6.49.55.94-.74-.49-1.33-.3-2.05.19-.95.65-1.4.42-2.19-.44-1.25-1.35-2.47-2.74-3.9-3.91-.2-.17-.41-.3-.77-.32.22.82.45,1.59.63,2.36.48,2.08.55,4.17.05,6.26-.08.33-.19.6-.52.73"/>
      <path class="cls-4" d="M141.78,62.25c-.56-.54-.13-1.13.06-1.57.72-1.6,1.16-3.31,1.34-5,.29-2.72.79-5.45.6-8.21-.03-.49-.03-.94-.28-1.42-.32-.63-.42-1.35.11-1.98.43.64.2,1.39.3,2.08.3,2.14.31,4.3.16,6.48-.15,2.26-.4,4.49-1.07,6.66-.31,1.02-.65,2.05-1.23,2.96"/>
      <path class="cls-4" d="M79.05,59.84c-.65,1.5-1.61,2.8-2.67,4.04-1.26-1.79-1.55-3.92-2.11-5.95-.31-1.11-.65-2.2-.5-3.37.38,1.58,1.15,3.02,1.42,4.64.19,1.09.64,2.14,1.02,3.18.17.46.39.4.74.02.63-.69.9-1.6,1.54-2.27.17-.17.28-.37.56-.29"/>
      <path class="cls-4" d="M135.59,72.73c-.25-1.05.73-1.47,1.18-2.12.9-1.27,1.76-2.56,2.46-3.95.42-.82,1.01-1.55,1.03-2.6.01-.44.65-1.03,1.26-1.28-.52,2.29-1.61,4.29-3.03,6.15-.87,1.14-1.51,2.46-2.5,3.52-.12.13-.22.27-.42.27"/>
      <path class="cls-4" d="M130.15,77.92c.19-.79.89-1.12,1.37-1.66.57-.64,1.27-.93,1.96-1.29-.29.92-1.11,1.41-1.8,1.9-.49.35-.82,1.01-1.53,1.04"/>
      <path class="cls-4" d="M92.1,18.6c.04.32-.06.63-.35.73-1.07.36-1.89,1.11-2.78,1.75-.28.2-.6.14-.91.09,1.25-1.01,2.57-1.91,4.04-2.57"/>
      <path class="cls-4" d="M143.18,41.82c-.57-.91-.87-1.9-.8-2.98.39.96.81,1.91.8,2.98"/>
      <path class="cls-4" d="M134.25,74.2c.02-.88.62-1.24,1.35-1.48-.2.71-.81,1.07-1.35,1.48"/>
      <path class="cls-4" d="M73.46,51.4c.59.54.36,1.15.14,1.76-.35-.56-.2-1.16-.14-1.76"/>
      <path class="cls-4" d="M142.3,38.51c-.55-.35-.6-.89-.58-1.46.43.39.45.95.58,1.46"/>
      <path class="cls-4" d="M143.56,43.74c-.15-.21-.43-.4-.14-.7.28.19.2.45.14.7"/>
      <path class="cls-4" d="M141.16,35.7c-.12-.05-.15-.14-.12-.26.1.06.15.14.12.26"/>
      <path class="cls-5" d="M51.81,61.36c.92.41,1.86-.09,2.8.04.42.06.87.25,1.4-.08.79-.5.97-1.31,1.35-2.01.26-.47.39-.89,1.07-.61.31.13.68.1.98-.16.38-.33.77-.33,1.22,0-.75.45-.43,1.35-.9,1.99-.26.36.47.2.75.31.03.11-.03.16-.13.18-.06.06-.13.12-.19.18h0c-.24,0-.36.12-.34.36h0c-.32-.01-.63-.02-.95-.02-1.05,0-1.51.46-1.52,1.5,0,.43,0,.86,0,1.29-.12.2-.24.39-.49.45-.94-.61-1.48-.61-2.2.09-.31.29-.64.37-1.03.35-.46-.02-.92-.06-1.21.45-.22.39-.58.09-.87.05-.42-.06-.16-.39-.21-.6-.16-.63-.07-1.18.29-1.71.34-.51-.03-1.01-.04-1.52h0c.16-.07.18-.2.18-.35-.01-.06,0-.11.03-.16"/>
      <path class="cls-3" d="M56.28,83.66c-.68-.05-.99-.36-.89-1.03.21-1.44,1.04-2.56,1.92-3.64,1.42-1.73,2.97-3.31,4.77-4.66.15-.11.29-.25.43-.18.18.08.09.27.05.45-.58,2.52-1.56,4.86-3.2,6.87-.71.86-1.56,1.6-2.6,2.06-.16.07-.33.09-.46.13"/>
      <path class="cls-3" d="M57.36,64.32c0-.43,0-.86,0-1.29,0-1.04.47-1.49,1.52-1.5.31,0,.63,0,.95.01-.64,1.09-1.5,1.98-2.47,2.77"/>
      <path class="cls-3" d="M59.82,61.56c-.01-.24.1-.37.34-.37.01.24-.08.39-.34.37"/>
      <path class="cls-3" d="M60.16,61.2c.06-.06.13-.12.19-.18-.06.06-.13.12-.19.18"/>
      <path class="cls-3" d="M61.92,36.91c-.28,2.39-.67,4.67-1.63,6.8-.22.48-.58.86-.95,1.21-.87.83-1.57.78-2.17-.28-.78-1.37-1.07-2.9-.78-4.43.32-1.66.7-3.32,1.31-4.91.25-.66.48-1.09,1.31-1.01.52.05,1.07-.16,1.59-.3.51-.13.85,0,.94.54.14.82.26,1.64.37,2.37"/>
      <path class="cls-3" d="M59.31,30.61c.44.13.64.45.88.71.17.18.44.4.27.65-.19.28-.55.26-.87.22-.42-.05-.25-.38-.26-.61-.03-.3,0-.6,0-.97"/>
      <path class="cls-3" d="M31.73,58.05c.48.07.96-.12,1.42.35.47.48.95.69.15,1.33-.44.35.08.38.34.42-.02.06-.04.11-.05.17-.05.06-.09.13-.14.19-.46,1.72-1.21,3.33-1.95,4.98.08-2.48.15-4.96.23-7.45"/>
      <path class="cls-3" d="M30.81,56.14c1.11-.16,1.16-.09.93,1.21-.19-.49-.61-.81-.93-1.21"/>
      <path class="cls-3" d="M28.4,62.94c-.5-.33-.3-.54.12-.71,0,.24.15.51-.12.71"/>
      <path class="cls-3" d="M34.7,58.06c-.25-.16-.27-.38-.06-.55.19-.15.24.17.4.2-.03.2-.09.36-.34.35"/>
      <path class="cls-3" d="M29.61,56.1c.35-.23.69-.24,1.04,0-.35,0-.69,0-1.04,0"/>
      <path class="cls-3" d="M35.2,57.37c0-.12,0-.24,0-.37h0c.11,0,.22,0,.32,0,0,.21-.17.28-.32.37"/>
      <path class="cls-3" d="M36.59,55.93c.06-.05.12-.1.17-.15-.02.1-.05.17-.17.15"/>
      <path class="cls-5" d="M33.46,60.51c.05-.06.09-.13.14-.19.03.12-.05.16-.14.19"/>
      <path class="cls-3" d="M12.32,56.3c.4-.64.98-.23,1.45-.19.47.04.13.49.16.77.06.48.16.96.32,1.42.27.8,1,.3,1.5.47-1.17,2.02-1.87,4.24-2.61,6.45-.1-.02-.19-.03-.29-.05,0-.81.02-1.63,0-2.44-.06-1.47.11-2.94.19-4.4.04-.78-.13-1.47-.71-2.02"/>
      <path class="cls-3" d="M15.78,58.6c-.88-.5-.62-1.42-.75-2.17-.05-.28.39-.41.74-.41.45,0,.9-.08,1.35-.12.26-.02.38-.24.35-.41-.07-.35-.23,0-.34,0-.35-.02-.13-.34-.2-.51-.1-.22.1-.37.34-.35.23.02.45.11.68.1.56,0,.95-.32.77-.87-.23-.74.17-.7.65-.69.2,0,.41,0,.61,0,.17,0,.37-.04.47.15.13.23-.02.38-.2.51-.28.2-.34.52,0,.57,1.03.16.57.88.6,1.41-1.91-.89-2.95-.16-4.01,1.29-.37.5-.72,1.01-1.07,1.51"/>
      <path class="cls-3" d="M20.86,55.79c.06.06.13.12.19.18-.06-.06-.13-.12-.19-.18"/>
      <path class="cls-3" d="M11.97,56.13c.06.05.12.09.18.14-.12.03-.15-.05-.18-.14"/>
      <path class="cls-3" d="M50.39,59.72c-.12,1.74-.99,2.95-2.22,3.89-.66.5-1.39.97-2.22,1.19-.34.09-.75.23-.58-.41.42-1.58.75-3.18,1.66-4.6.23-.36.51-.67.77-1,.46-.58,1.08-.99,1.8-.65.64.3.78,1.01.78,1.59"/>
      <path class="cls-3" d="M51.77,61.52c0,.15-.03.29-.18.36.06-.12.12-.24.18-.36"/>
      <path class="cls-3" d="M4.27,68.04c-.2.34-.4.7-.83.8-.19.04-.23-.13-.2-.28.08-.4.37-.61.73-.72.12-.03.3-.04.29.2"/>
      <path class="cls-3" d="M44.34,19.09c.23.17.82-.26.76.35-.06.62-.55.88-1.18.91-.54.02-.68-.36-.66-.7.02-.72.64-.48,1.09-.56"/>
      <path class="cls-5" d="M68.82,70.39s-.03.12-.07.14c-.03.01-.09-.03-.14-.06.02-.05.03-.12.07-.14.03-.01.09.03.14.06"/>
      <path class="cls-3" d="M41.49,38.58c.47-2.69,1.06-5.11,2.94-6.98.65-.65,1.46-.68,2.26-.59.7.08.82.47.39,1.07-1.03,1.42-2.11,2.81-3.12,4.24-.57.8-1.14,1.59-1.81,2.31-.12.13-.26.36-.48.27-.23-.09-.17-.34-.17-.33"/>
      <path class="cls-3" d="M47.73,46.57c-.38,1.5-.97,2.6-1.85,3.52-.38.4-.86.91-1.39.52-.51-.38-.35-1.12-.08-1.59.7-1.21,1.91-1.8,3.32-2.45"/>
      <path class="cls-3" d="M9.02,49.83c0,.49-.35.76-.52,1.11-.41.85-.84,1.71-1.63,2.3-.31.24-.67.45-1.03.18-.36-.27-.38-.64-.16-1.08.59-1.19,1.4-2.16,2.61-2.74.29-.14.68-.32.73.23"/>
      <path class="cls-3" d="M36.4,33.44c.07,1.78-1.13,2.82-2.31,3.81-.61.52-1.32.98-2.17,1.14-.35.07-.57.26-.44-.36.41-1.98.92-3.89,2.24-5.51.53-.65,1.13-1.03,1.91-.76.75.26.78.98.76,1.67"/>
      <path class="cls-3" d="M29.42,49.41c-.05.26-.18.41-.4.4-.28,0-.37-.25-.39-.47-.02-.24.17-.35.39-.34.26.01.39.19.4.41"/>
      <path class="cls-3" d="M39.2,52.3c-.09-.03-.16-.07-.12-.18.04.06.08.12.12.18"/>
      <path class="cls-3" d="M27.67,18.65c0-.88.34-1.28,1.11-1.29.86-.01,1.18.31,1.18,1.2,0,.97-.36,1.45-1.09,1.45-.75,0-1.2-.51-1.21-1.35"/>
      <path class="cls-3" d="M32.29,56.01c.06-.27.27-.35.46-.34.23,0,.48.1.48.39,0,.23-.21.24-.39.24-.24,0-.46-.04-.55-.29"/>
      <path class="cls-3" d="M35.5,56.18c0,.13-.03.23-.17.25-.18.03-.27-.06-.28-.23,0-.13.08-.22.21-.22.12,0,.22.05.24.19"/>
      <path class="cls-3" d="M35.19,57c-.04-.06-.09-.12-.13-.19.02-.01.04-.03.07-.04.02.08.05.15.07.23h0"/>
      <path class="cls-3" d="M35.02,17.36c.81,0,1.22.44,1.21,1.31,0,.71-.59,1.34-1.27,1.34-.74,0-1.36-.62-1.34-1.37.01-.73.62-1.29,1.4-1.29"/>
      <path class="cls-3" d="M18.88,17.36c.66,0,1.33.65,1.32,1.26-.02.72-.61,1.38-1.25,1.39-.83.01-1.38-.53-1.38-1.37,0-.92.37-1.28,1.31-1.28"/>
      <path class="cls-3" d="M58.76,18.71c0,.75-.64,1.48-1.26,1.45-.57-.03-1.38-.96-1.35-1.55.04-.7.64-1.26,1.34-1.25.86.01,1.28.46,1.27,1.34"/>
      <path class="cls-4" d="M127.22,31.65c.85.36,1.16,1.18,1.44,1.93.87,2.31,1.01,4.62-.43,6.79-.23.34-.14.48.17.68.65.39,1.28.8,1.89,1.24.52.39.86.38,1.09-.29.07-.2.28-.35.43-.53.31.48.1.88-.22,1.25-.25.29-.49.41-.96.34-1.19-.18-1.77-1.24-2.72-1.74-.34-.18-.42-.73-.13-1.17,1.8-2.74,1.51-5.38-.36-7.95-.12-.17-.26-.31-.2-.54"/>
      <path class="cls-4" d="M114.53,17.32c.44-.18.62.24.87.43,3.28,2.53,5.23,5.83,5.9,9.95.51,3.15.17,6.21-.99,9.09-2.21,5.49-6.36,8.84-12.14,10.02-2.29.47-4.64.51-6.96-.09-2.47-.63-4.66-1.75-6.61-3.4-1.63-1.39-2.9-3.04-3.84-4.96-.53-1.08-.52-1.07-1.6-.57-1.15.54-2.3,1.08-3.49,1.54-.48.19-.57.34-.33.78,2.09,3.76,4.84,6.84,8.7,8.88,1.69.89,3.43,1.58,5.27,2.08.67.18.57.7.37,1.18-1.2,2.88-2.89,5.34-5.6,7.05-3.84,2.42-7.91,2.75-12.15,1.48-.77-.23-1.59-.54-2.19-1.18.22-.36.48-.12.67,0,2.02,1.28,4.28,1.56,6.58,1.54,2.87-.03,5.33-1.16,7.66-2.81,1.96-1.38,3.03-3.37,4.26-5.26.84-1.29.57-1.7-.93-2.03-1.41-.3-2.74-.85-3.96-1.63-.5-.32-1.07-.5-1.59-.82-1.38-.86-2.58-1.94-3.71-3.05-.97-.96-1.92-2.02-2.59-3.28-.39-.72-.9-1.38-1.24-2.14-.2-.45-.11-.73.32-1.01,1.27-.81,2.72-1.26,4.02-2,.9-.51,1.76.05,2.31,1.45.99,2.52,2.85,4.18,5.1,5.56,1.6.98,3.2,1.93,5.05,2.27,3.52.65,6.92.41,10.19-1.27,1.58-.81,3.06-1.75,4.31-2.97,1.3-1.26,2.38-2.74,3.22-4.38,1.27-2.49,1.69-5.15,1.65-7.9,0-.59-.13-1.19-.2-1.78-.4,0-.29.28-.35.45-.57,1.46-1.43,2-3.11,2.25-1.42.21-2.52-.25-3.38-1.44-.67-.93-.69-1.93-.58-2.97.3-2.9,4.13-3.48,5.83-2.18.19.15.38.45.66.19.21-.2,0-.44-.1-.63-1-1.72-2.07-3.38-3.58-4.73-.44-.39-1.04-.51-1.39-1.01-.16-.22-.5-.36-.33-.73M120.2,27.21c.19-1.95-1.46-3.17-3.16-3.23-1.77-.06-3.26,1.4-3.28,3.13-.02,1.97,1.37,3.32,3.46,3.33,1.65.01,2.97-1.42,2.98-3.24"/>
      <path class="cls-4" d="M110.43,41.01c-.27,3.6-2.29,5.19-5.37,5.3-3.89.14-5.7-2.41-5.78-5.48-.09-3.19,2.37-5.68,5.63-5.68,3.23,0,5.67,2.7,5.51,5.86M109.91,40.61c.27-2.53-2.32-5.02-5.25-4.98-2.9.04-5.18,2.9-5.05,5.31.14,2.73,2.42,5.13,5.29,5.05,2.54-.07,5.25-2.09,5.01-5.38"/>
      <path class="cls-4" d="M79.21,59.66c-.05.06-.11.11-.16.17,0-.11.04-.17.16-.17"/>
      <path class="cls-2" d="M118.79,17.05c.05-.28.06-.66.49-.53.78.23,1.59.37,2.31.84.45.29,1.03.36,1.52.59,1.3.61,2.67,1.12,3.84,1.93.94.65,1.92,1.27,2.79,2.03,1.3,1.12,2.62,2.21,3.92,3.33.35.3.63.67.93,1.02.12.14.18.33,0,.46-.14.1-.26-.04-.37-.14-2.05-1.86-4.63-2.66-7.15-3.62-1.27-.48-2.56-.64-3.89-.69-.3-.01-.42-.16-.59-.39-1.04-1.39-1.71-3.03-2.91-4.3-.25-.26-.42-.66-.91-.53,0,0,0,0,0,0"/>
      <path class="cls-6" d="M120.2,27.21c-.02,1.82-1.33,3.26-2.98,3.24-2.09-.02-3.48-1.36-3.46-3.33.02-1.73,1.51-3.19,3.28-3.13,1.7.05,3.36,1.28,3.16,3.23"/>
      <path class="cls-6" d="M109.91,40.61c.24,3.3-2.47,5.32-5.01,5.38-2.87.08-5.15-2.32-5.29-5.05-.12-2.41,2.16-5.27,5.05-5.31,2.93-.04,5.52,2.45,5.25,4.98"/>
    </g>
  </g>
</svg>