<?xml version="1.0" encoding="UTF-8"?>
<svg id="Layer_2" data-name="Layer 2" xmlns="http://www.w3.org/2000/svg" viewBox="0 0 63.16 63.23">
  <defs>
    <style>
      .cls-1 {
        fill: #dc142d;
      }

      .cls-1, .cls-2, .cls-3, .cls-4 {
        stroke-width: 0px;
      }

      .cls-2 {
        fill: #f5e214;
      }

      .cls-3 {
        fill: #0669a9;
      }

      .cls-4 {
        fill: #fff;
      }
    </style>
  </defs>
  <g id="Capa_1" data-name="Capa 1">
    <g id="layer1">
      <g id="g19980">
        <rect id="rect4351" class="cls-1" x=".02" width="63.14" height="63.23" rx="3.34" ry="3.34"/>
        <path id="rect841" class="cls-4" d="M20.01,4.1c-3.52,0-7.46.86-11.84,3.02L0,11.9v18.63l16.94,30.34,16.46-9.49c3.2-1.78,5.33-3.56,7.1-5.22,9.24-8.42,2.72-24.56.83-28-1.67-2.97-8.75-14.04-21.31-14.05ZM18.61,18.29c2.27-.03,6.4.87,9.57,6.99,4.38,8.42,1.54,11.75.95,12.34-.36.24-1.18.95-3.67,2.37l-2.37,1.42-11.13-20.29.24-.12c3.79-2.14,4.26-2.37,4.74-2.49,0,0,.65-.21,1.68-.22Z"/>
        <circle id="path3691" class="cls-2" cx="43.82" cy="18.22" r="11.86"/>
        <path id="path20-3" class="cls-3" d="M41.95,9.47l5.6,10.83,3.1-1.67,1.67,3.1-9.53,5.12-1.67-3.1,2.74-1.43-3.45-6.67s-.48.83-1.31,1.67c-.83.83-1.19.83-1.19.83l-1.55-2.98s1.19-1.07,1.91-2.02c.6-.95.83-2.26.83-2.26l2.86-1.43Z"/>
      </g>
    </g>
  </g>
</svg>