<?xml version="1.0" encoding="UTF-8"?>
<svg id="Layer_2" data-name="Layer 2" xmlns="http://www.w3.org/2000/svg" viewBox="0 0 127.37 29.39">
  <defs>
    <style>
      .cls-1 {
        fill: #000;
        stroke-width: 0px;
      }
    </style>
  </defs>
  <g id="Capa_1" data-name="Capa 1">
    <g>
      <path class="cls-1" d="M32.38,11.77c1.16.09,1.54.64,1.32,1.77-.3,1.57-.96,3.07-.94,4.7,0,.45-.21,1.03.38,1.26.58.24.94-.23,1.26-.6,1.34-1.49,2.15-3.26,2.79-5.13.25-.74.44-1.51.77-2.21.21-.45.15-.68-.22-.99-1.13-.94-1.39-2.18-.76-3.32.43-.79,1.3-1.31,2.02-1.19,1.15.18,1.93.84,2.14,1.81.05.25.1.51.12.77.1,1.12.15,1.17,1.3,1.23.78.23,1.58.13,2.37.05.3-.03.61-.08.91-.06.79.06,1.19.53,1.21,1.32.02,1.13-.65,1.99-1.09,2.94-.7,1.52-1.54,3-1.55,4.74,0,.93.18,1.06,1.1.84,1-.24,1.58-1.02,2.19-1.74.89-1.06,1.17-2.39,1.57-3.66.35-1.1.68-2.2,1.06-3.29.25-.74.72-1.04,1.39-1.03,1,.02,1.39.58,1.09,1.54-.51,1.63-1.02,3.26-1.54,4.9-.03.11-.04.21.06.43,1.32-1.63,2.34-3.4,3.48-5.07.5-.37.9-.86,1.44-1.2,1.21-.76,2.92-1,4.14.48,1.11,1.89.56,3.7-.27,5.48-.32.69-.57,1.39-.52,2.17.05.72.52,1.06,1.22.86.39-.12.73-.31.98-.62.78-.96,1.5-1.96,1.85-3.16.5-1.71,1.19-3.36,1.87-5.01.27-.65.99-.96,1.66-.74.63.22.99.94.74,1.64-.54,1.52-1.24,2.98-1.67,4.54-.2.7-.42,1.39-.59,2.1-.23.93.48,1.55,1.42,1.3,1.22-.33,2.08-1.16,2.83-2.08.74-.9,1.3-1.92,1.77-3.01.84-1.94,2.08-3.56,4.16-4.32.34-.13.71-.17,1.07-.25.26.01.52,0,.78.04,1.52.22,2.55.81,2.85,2.18.45,2.04-.49,3.76-2.43,4.61-1.27.55-2.58.84-3.96.46-.48-.13-.68,0-.66.52.02.56.31.94.72,1.25,1.04.77,2.22.77,3.41.54,2.36-.46,4-1.75,4.81-4.07.48-1.37.86-2.76,1.32-4.13.38-1.12.73-1.37,1.9-1.35.85.41.97.71.68,1.64-.5,1.59-1.01,3.18-1.51,4.77-.04.14-.05.29-.1.58.54-.48.79-1,1.13-1.45.99-1.29,1.67-2.8,2.8-3.99.85-.91,1.83-1.58,3.15-1.56,1.23.02,2.17.83,2.55,2.01.53,1.68-.07,3.13-.7,4.61-.25.57-.49,1.13-.5,1.77,0,.51.04.99.54,1.22.44.21.83-.06,1.19-.29.3-.07.47-.32.64-.53,1.14-1.43,2-2.99,2.09-4.87.24-.99.48-1.98.74-3-.46,0-.87.02-1.29,0-.76-.03-1.41-.7-1.4-1.44,0-.68.6-1.17,1.42-1.18h.92q1.31,0,1.78-1.19c.67-1.65,1.48-3.23,2.59-4.64.42-.54,1.06-.81,1.57-1.24.71-.08,1.4-.16,2.13-.06,1.2.16,2.28,1.88,2.32,2.92.06,1.32-.35,2.48-.88,3.63-.1.21-.27.4-.24.71.3,0,.61,0,.91,0,.69.01,1.18.37,1.25.91.13.96-.08,1.32-.92,1.58-.04,0-.07.01-.11.03-.8.13-1.61.04-2.41.05-.35,0-.61.1-.84.38-1.35,1.66-2.96,3.02-4.81,4.08-.37.21-.49.46-.5.88-.01.93.13,1.81.68,2.59.5.65,1.2,1.02,1.97.87,1.82-.34,3.2-1.41,3.91-3.09.5-1.18.87-2.41,1.45-3.56h0c.14-.04.19-.13.14-.27h0c.12.03.11-.05.11-.13.5-.5,1-1.01,1.52-1.51.48-.48,1.13-.72,1.67-1.11.99-.14,1.95-.21,2.94.11,1.15.37,1.79,1.27,1.9,2.49.28,3.04-2.32,4.28-4.32,4.62-.84.14-1.62.05-2.41-.15-.25-.06-.34.04-.36.3-.07.81.49,1.61,1.43,1.93,1.79.61,3.45.15,5.01-.76,1.05-.62,1.8-1.52,2.3-2.65.21-.47.5-.83,1.13-.8,1.07.04,1.65.94,1.18,1.92-1.59,3.26-4.22,4.9-7.84,5.04-1.87.07-3.52-.4-4.82-1.81-.22-.24-.37-.17-.58.04-1.24,1.22-2.77,1.9-4.47,1.97-1.39.06-2.66-.49-3.65-1.55-.09-.09-.18-.19-.27-.28-.22-.16-.15-1.03-.72-.34-1.12,1.36-2.49,2.1-4.28,1.98-2.17-.38-3.13-2.48-2.85-4.46.21-1.4,1.06-2.57,1.35-3.95.02-.09.07-.17.06-.25,0-.32.12-.71-.21-.9-.31-.19-.56.13-.8.3-.56.41-.95.97-1.3,1.54-1.39,2.26-2.95,4.39-4.59,6.47-.52.67-1.13,1.18-2.04,1.23-.75.05-1.24-.29-1.58-.9-.15-.27-.28-.33-.56-.18-.4.21-.83.38-1.24.57-1.68.56-3.38.73-5.1.28-1.17-.3-2.17-.88-2.89-1.88-.16-.23-.28-.29-.49-.06-.97,1.08-2.17,1.78-3.57,2.17-1.06-.01-2.18.16-3.05-.62-.63-.56-1-.67-1.83-.09-1.66,1.16-3.83,1.06-5.02-.61-.84-1.18-.85-2.47-.53-3.82.17-.74.57-1.39.82-2.09.04-.12.12-.23.05-.37h-.02c.18-.01.12-.15.13-.26.32-.39.3-.85.26-1.3-.03-.4-.25-.52-.63-.33-.48.24-.84.61-1.14,1.05-.96,1.4-1.9,2.8-2.85,4.21-.06.09-.07.2-.1.3-.81.85-1.44,1.83-2.18,2.73-.58.71-1.25,1.23-2.25,1.21-.41,0-.71-.17-.97-.43s-.49-.29-.8-.09c-.66.43-1.43.6-2.18.75-1.42.29-3.25-1.02-3.38-2.38-.03-.11-.05-.23-.08-.34-.23-1.91.35-3.65,1.13-5.35.29-.63.55-1.26.86-1.95-.57-.1-1.13.04-1.65-.15-.34-.05-.71-.04-1.01-.18-.55-.24-.67.07-.82.47-.69,1.79-1.17,3.67-2.12,5.36-.65,1.14-1.31,2.26-2.29,3.16-.91.84-1.97,1.23-3.22,1.13-.6-.05-1-.51-1.53-.67-.34-.6-.8-1.12-.95-1.83-.1-.43-.35-.17-.53.05-.81,1-1.76,1.8-3.01,2.18-1.41.43-2.68-.11-3.46-1.13-.85-1.1-1.15-2.38-.98-3.83.23-1.93.97-3.6,2.06-5.16,1.75-2.5,5.39-2.25,7.1-.22.32.38.61.28.97.22M24.77,17.55c0,.15-.03.31,0,.46.31,1.33.77,1.87,1.97.9,1.26-1.01,2.26-2.29,3.07-3.68.43-.74.04-1.85-.69-2.32-.78-.49-2.05-.46-2.56.21-1,1.3-1.62,2.78-1.79,4.43M103.26,8.38c.29-.06.73.18.94-.15.75-1.19,1.58-2.36,1.54-3.86,0-.25-.02-.52-.26-.62-.26-.11-.56-.09-.81.1-.31.24-.56.54-.79.86-.56.81-1,1.68-1.4,2.57q-.5,1.09.77,1.1M75.49,14.82c.78-.09,1.55-.19,2.16-.75.35-.32.65-.75.36-1.2-.26-.42-.78-.35-1.2-.22-.89.27-1.5.92-2.03,1.65-.28.38-.1.48.25.52.15.02.3,0,.46,0M110.96,14.81c.73,0,1.4-.22,2-.61.42-.27.85-.72.59-1.24-.25-.5-.8-.42-1.31-.28-.95.26-1.47,1-2.04,1.7-.17.21-.02.37.18.42.18.05.39,0,.58,0M100.82,11.83c.54-.15.81-.51,1.11-.86-.81-.31-.97.2-1.11.86"/>
      <path class="cls-1" d="M120.29,14.39c.81-1.44,1.7-2.72,3-3.71,1.03-.79,2.8-.75,3.65.08.62.61.59,1.12-.2,1.5-.81.38-1.71.46-2.55.73-1.05.32-2.07.69-3.06,1.16-.25.12-.47.34-.83.24"/>
      <path class="cls-1" d="M119.11,13.81c-.07-1.57.07-2.95.62-4.28.17-.42.46-.71.95-.56.46.14.8.39.77.98-.03.67-.25,1.26-.63,1.8-.48.69-1,1.35-1.71,2.06"/>
      <path class="cls-1" d="M76.54,28.18c-.05-.05-.11-.1-.16-.16,0-.04,0-.07,0-.1.29-.33.42-.68.13-1.07v-.11c.23-.44-.02-.59-.41-.65-.28-.04-.55.05-.83.06.32-.36.74-.39,1.17-.29.38.09.57.36.6.76,0,.1.07.2.1.29-.19.25-.17.55-.1.8.15.55-.19.48-.5.47"/>
      <path class="cls-1" d="M122.84,8.94c.35-.03.56.06.58.45.03.46-.27.45-.58.49-.35.05-.47-.14-.46-.43,0-.3.09-.57.47-.51"/>
      <path class="cls-1" d="M22.15.79C23.43.24,24.76-.1,26.18.03c1.71.15,3.07.77,3.58,2.55.33,1.13-.13,2.44-1.12,3.05-1.51.93-3.15.95-4.83.74-.95-.12-1.9-.31-2.85-.46-.46-.29-.7-.04-.92.34-.76,1.34-1.24,2.81-1.92,4.2-.16.32,0,.48.36.46.52-.02,1.04-.02,1.56-.03.97.04,1.45.35,1.57,1.01.16.91-.38,1.56-1.36,1.63-.19.01-.39,0-.58,0-.81-.29-1.64-.08-2.46-.12-.22,0-.26.2-.32.36-.66,1.53-1.26,3.09-1.98,4.59-.78,1.61-1.76,3.08-3.64,3.6-1.53.43-2.74.05-3.58-1.12-.63-.87-.69-2.2-.13-3.01.48-.69,1.58-.73,2.1-.09.27.33.17.71.17,1.07,0,.72.23.88.9.6.46-.19.79-.53,1.08-.92,1.18-1.56,1.72-3.41,2.48-5.21-.45-.02-.84-.07-1.18-.28-.51-.31-.79-.92-.61-1.46.18-.57.59-1.01,1.2-.9,1.35.26,1.91-.39,2.29-1.58.38-1.19.96-2.33,1.5-3.47.19-.4.11-.53-.29-.6-1.05-.17-2.09-.31-3.16-.27-1.15.04-2.08.63-2.48,1.68-.25.65-.99,1.1-1.5.92-.72-.24-1.13-1.13-.86-1.85.78-2.06,2.62-3.31,4.81-3.38,1.56-.05,3.07.23,4.56.59.53.13.96.11,1.36-.31.64-.67,1.47-1.08,2.23-1.6M22.8,3.51c.24.34.61.16.91.24,1.06.26,2.13.34,3.17-.11.16-.07.34-.1.36-.33.02-.23-.1-.37-.29-.47-.15-.08-.32-.18-.48-.19-1.29-.06-2.57-.09-3.68.85"/>
      <path class="cls-1" d="M8.2,5.91c-2.32.35-4.46,1.05-6.6,1.76-.32.11-.64.13-.96.08-.51-.08-.73-.43-.61-.9.34-1.37,1.35-2.68,3.55-2.42,1.43.16,2.72.61,4.01,1.15.21.09.41.22.61.32"/>
      <path class="cls-1" d="M8.28,6.76c-.79,1.07-1.66,2.03-2.79,2.71-.42.25-.88.46-1.26-.09-.34-.49-.26-1.13.24-1.51,1.12-.81,2.43-1.06,3.8-1.11"/>
      <path class="cls-1" d="M67.89,8.54c-.89,0-1.34-.46-1.33-1.35,0-.72.46-1.13,1.25-1.13,1.1,0,1.5.33,1.51,1.22,0,.84-.48,1.27-1.42,1.27"/>
      <path class="cls-1" d="M50.43,27.4c-.35.38-.77-.11-1.19.09.32.47.79.51,1.25.55.38.03.78.07.85.53.08.52-.37.67-.74.75-.42.1-.87.11-1.27-.15-.3-.19-.52-.42-.2-.78.1-.11.16-.23.05-.35-.41-.44-.1-.98-.14-1.45-.05-.6.91-1,1.6-.68.18.08.55-.05.57.4.03.62-.07,1.06-.8,1.09.1-.1.22-.2.3-.32.24-.35.12-.7-.17-.92-.33-.24-.7-.28-1.01.11-.31.38-.07.63.18.88.19.19.45.24.72.23M49.98,28.32c-.28-.02-.55.03-.55.28,0,.41.39.58.71.61.3.02.83,0,.79-.43-.05-.56-.72-.18-.95-.46"/>
      <path class="cls-1" d="M55.32,27.61c-.37.52-1.21.75-1.68.55-.46-.2-.81-.92-.71-1.43.11-.54.63-.92,1.25-.91.68.01.86.22,1.08,1.32-.55,0-1.09,0-1.63,0-.29,0-.34.09-.18.34.34.55.92.62,1.87.12M53.27,26.87c.5,0,.89,0,1.27,0,.4,0,.39-.18.23-.43-.18-.28-.43-.38-.77-.35-.44.04-.52.37-.73.78"/>
      <path class="cls-1" d="M59.33,26.45c.09-.64.51-.64.87-.61.34.03.78,0,.85.5.09.57-.15,1.16.16,1.71.08.14-.11.13-.14.12-.4-.21-.79.01-1.18.02-.32,0-.57-.09-.66-.41-.08-.29.03-.52.3-.71.23-.16.48-.17.72-.27.17-.08.47-.04.4-.38-.06-.3-.29-.33-.54-.36-.31-.04-.5.17-.79.39M60.77,27.19c-.01-.09.05-.37-.21-.29-.37.11-.85.19-.92.68-.04.25.21.48.44.44.38-.07.75-.25.68-.83"/>
      <path class="cls-1" d="M64.12,27.47c.18.54-.05.75-.58.73-.36-.16-.49-.49-.51-.83-.03-.71,0-1.42-.02-2.13,0-.29.14-.41.37-.41.28,0,.17.27.16.4-.04.42.06.68.57.59-.13.2-.31.1-.44.16-.07,0-.11.01-.1.1v1.45c0,.16-.08.4.24.26.03,0,.06,0,.09-.01.18-.03.22-.15.2-.3h.02Z"/>
      <path class="cls-1" d="M57.43,25.55v.55s-.02.07,0,.11v.41s-.02.07,0,.11v.29c0,.34-.14.69.09,1.01-.13.28-.36.13-.55.12.02-.08.03-.16.04-.23.18-1,.18-2,0-3-.21-.43.21-.29.35-.39.02.34.04.69.06,1.03"/>
      <path class="cls-1" d="M57.01,24.91c.18,1,.18,2,0,3v-3"/>
      <path class="cls-1" d="M57.52,28.03c-.23-.32-.1-.67-.09-1.01.15.33.06.68.09,1.01"/>
      <path class="cls-1" d="M66.04,26.09c.2-.13.41-.16.64-.13,0,.04,0,.08,0,.12-.37.07-.52.36-.59.68-.02.11.16.12.26.1.41-.05.9.19,1.21-.16.14-.16-.09-.48-.36-.58-.03-.05-.07-.11-.1-.16.13-.01.25-.03.38-.04.12.13.26.24.35.38.14.2.23.45.14.68-.1.27-.38.13-.58.15-.28.02-.57,0-.85,0-.16.01-.41-.09-.44.13-.02.13.14.31.26.42.52.45,1.04.29,1.55-.04-.1.34-.21.46-.57.51-.57.08-1.07,0-1.46-.5-.41-.51-.24-.97.03-1.44.04-.04.08-.09.12-.14h0Z"/>
      <path class="cls-1" d="M71.06,26.1c-.86.02-.97.14-.97.91,0,.3,0,.61.01.91.01.15.02.25-.17.26-.18,0-.26-.04-.25-.26.02-.58,0-1.17-.02-1.75,0-.13.03-.27.12-.23.39.14.83-.34,1.28.16"/>
      <path class="cls-1" d="M76.51,26.74s0,.07,0,.11c-.27.13-.55.24-.81.39-.17.1-.33.27-.19.48.12.19.27.41.57.29.1-.04.2-.06.3-.09,0,.03,0,.07,0,.1-.24.21-.52.18-.8.12-.25-.05-.42-.22-.49-.47-.07-.25.12-.41.29-.53.33-.24.71-.38,1.13-.41"/>
      <path class="cls-1" d="M73.23,28.05c-.18.18-.29.18-.52-.02.21-.65.18-1.31.01-1.97.04-.22.18-.27.38-.22.05.74-.15,1.49.12,2.21"/>
      <path class="cls-1" d="M73.23,28.05c-.27-.72-.07-1.47-.12-2.21.24.73.03,1.48.12,2.21"/>
      <path class="cls-1" d="M72.72,26.07c.17.66.2,1.32-.01,1.97,0-.66,0-1.32.01-1.97"/>
    </g>
  </g>
</svg>