<?xml version="1.0" encoding="UTF-8"?>
<svg id="Layer_2" data-name="Layer 2" xmlns="http://www.w3.org/2000/svg" viewBox="0 0 122.69 52">
  <defs>
    <style>
      .cls-1 {
        fill: #f0bcc5;
      }

      .cls-1, .cls-2, .cls-3, .cls-4, .cls-5, .cls-6, .cls-7 {
        stroke-width: 0px;
      }

      .cls-2 {
        fill: #c80224;
      }

      .cls-3 {
        fill: #d53f59;
      }

      .cls-4 {
        fill: #c80123;
      }

      .cls-5 {
        fill: #c90326;
      }

      .cls-6 {
        fill: #c80124;
      }

      .cls-7 {
        fill: #c80023;
      }
    </style>
  </defs>
  <g id="Capa_1" data-name="Capa 1">
    <g>
      <path class="cls-6" d="M20.92,22.8c.76-.52.87-1.23.86-2.05-.03-3.4-.03-6.8,0-10.2,0-.87-.03-1.66-1.22-2.1,1.28-.33,2.29-.75,3.38-.62.62.07,1.07.54,1.14,1.39,1.17-1.31,2.47-2.18,4.16-2.26,1.76-.09,3.13.55,3.92,2.26.85-.96,1.81-1.71,3.02-2.02,1.41-.36,2.78-.45,4.08.44.95.65,1.39,1.56,1.47,2.63.34,4.63.05,9.28.16,13.92.03,1.41.3,2.8.99,4.06,1.09,2,3.62,2.03,4.94.29.53-.71.91-1.5,1.14-2.36.13-.46.34-.89.88-.94.55-.04,1.12-.11,1.46.53.29.53.28,1-.06,1.5-1.18,1.75-2.9,2.56-4.91,2.76-1.73.19-3.37-.17-4.81-1.23-1.63-1.2-2.7-2.8-2.88-4.8-.37-4.2-.08-8.43-.14-12.64,0-.61-.12-1.19-.31-1.76-.3-.84-.83-1.23-1.72-1.23-.7,0-1.39-.04-2.05.31-1.15.62-1.33.88-1.02,2.11.08.33.11.65.11.97,0,3.02.03,6.04,0,9.06,0,.82.06,1.52,1.07,1.96h-5.29c1.14-.66.84-1.75.85-2.74,0-2.93,0-5.85,0-8.78,0-.65-.11-1.31-.39-1.89-.51-1.02-2.21-1.38-3.32-.78-.88.47-1.37,1.03-1.33,2.19.11,3.23.04,6.47.04,9.7,0,.87-.2,1.81,1.1,2.31h-5.3Z"/>
      <path class="cls-7" d="M.11,22.64c2.57,0,5.11-.04,7.66.02,1.76.04,3.51.35,5.08,1.18,1.73.91,3.08,2.22,3.58,4.22.6,2.38-.32,4.91-2.34,6.38-2.21,1.6-4.71,2.05-7.36,1.98-.92-.02-.92,0-.92.93,0,1.79.07,3.59-.02,5.38-.07,1.34.28,2.35,1.57,2.97H0c-.01-.3.34-.32.51-.42.83-.46,1.11-1.17,1.11-2.07-.01-5.95-.02-11.9,0-17.84,0-1.1-.27-1.97-1.35-2.42-.06-.03-.1-.1-.14-.15-.01-.02,0-.04-.03-.16M5.8,29.53v5.03c0,1.44,0,1.44,1.45,1.42,1.64,0,3.47-.9,4.19-2.86.73-2.04.72-4.11.3-6.19-.27-1.32-.86-2.46-2.06-3.18-.96-.58-2.03-.69-3.14-.68-.57,0-.77.11-.76.72.04,1.91.02,3.82.02,5.74"/>
      <path class="cls-2" d="M108.72,43.9c-.79.82-1.53,1.45-2.44,1.93-1.78.94-4.06.08-4.9-1.84-1.07-2.46-.04-4.68,2.34-5.96,1.3-.69,2.68-1.24,4-1.89.78-.38,1.15-1.05,1.04-1.75-.15-.88-.34-1.75-1.35-2.05-1.24-.37-2.39.19-3.07,1.47-.18.33-.33.67-.62.93-.42.37-.79.31-1.14-.08-.35-.38-.21-.7.1-1.03,1.03-1.08,2.24-1.64,3.77-1.63,1.21,0,2.37.08,3.42.74,1.61,1.03,2.26,2.58,2.29,4.43.03,2.71-.09,5.44.07,8.14.11,2.01.76,3.89,2.71,4.95,1.6.88,3.21.9,4.8-.07,1.36-.84,1.85-2.16,1.94-3.66.04-.86.11-1.74-.06-2.6-.31-1.52-1.41-2.55-2.36-3.64-1.87-2.15-3.98-4.08-5.97-6.13-2.44-2.52-4.13-5.49-4.74-8.97-.27-1.55-.07-3.1,1.22-4.27,1.2-1.09,3.96-1.1,4.38.99.27,1.35-.04,2.42-1.68,3.44-.27.17-.57.31-.88.43-.76.3-.95.65-.73,1.45.57,2.03,1.77,3.74,2.85,5.51,1.64,2.72,3.72,5.06,5.98,7.28,1.24,1.21,2.3,2.61,2.8,4.34.51,1.76.21,3.43-.75,4.93-1.18,1.84-2.99,2.81-5.19,2.69-3.53-.19-6.92-2.54-7.62-6.5-.08-.48-.09-.96-.17-1.59M108.76,35.68c-.69.74-1.32,1.19-1.99,1.59-2.07,1.22-2.98,4.3-1.9,6.38.15.28.31.54.57.75.64.52,1.28.42,1.93.08.85-.44,1.6-.91,1.41-2.12-.13-.88-.03-1.79-.03-2.68v-4Z"/>
      <path class="cls-4" d="M53.12,45.76h-5.21c1.26-.59.96-1.73.97-2.75,0-2.24.03-4.48,0-6.73-.02-.94-.13-1.87-.96-2.56-.85-.7-2.7-.43-3.72.3-.53.38-.64.84-.46,1.37.16.46.12.92.12,1.39,0,2.29,0,4.58,0,6.87q0,1.3.96,2.1h-5.53c1.23-.53,1.26-1.41,1.24-2.36-.06-2.55.09-5.09-.08-7.64-.09-1.34-.65-2.14-1.6-2.4-1.04-.28-2.56.29-3.23,1.2-.17.23-.11.45-.11.67,0,2.86.02,5.72-.02,8.57,0,.84.1,1.53.94,1.95h-5.45c1.52-.68,1.13-1.87,1.14-2.92.02-2.24,0-4.49,0-6.73,0-1.01.26-2.12-1.12-2.69.84-.2,1.51-.33,2.16-.52,1.03-.29,1.95-.04,2.33,1.2,1.16-1.16,2.42-2,4.15-2.07,1.77-.08,3.05.52,3.83,2.18.95-1.03,2.01-1.8,3.33-2.03,1.35-.23,2.71-.38,3.93.57,1.06.83,1.44,1.98,1.47,3.22.07,2.64.05,5.29.02,7.93,0,.8.17,1.42.9,1.88"/>
      <path class="cls-6" d="M73.9,20.84c-.59.46-.99,1.08-1.59,1.55-1.62,1.3-3.99,1.09-5.49-.2-1.63-1.39-2.5-3.17-2.72-5.32-.38-3.75,2.14-7.14,5.87-7.76,1.3-.22,2.64-.06,3.92.36.11.04.14-.01.11-.11,0-1.96,0-3.92.01-5.87,0-.77-.27-1.39-.98-1.86,1.9-.44,3.8-.86,5.7-1.33,1.2-.3,2.41-.33,3.62-.28,1.72.07,3.95,1.48,4.17,3.58.23,2.15-.87,3.99-2.94,4.61-1.43.43-2.94-.5-3.03-1.87-.05-.76.44-1.76,1.15-1.98.75-.24,1.57-.24,2.26.29.53.41.78,1.41.57,2.14-.05.17-.09.34-.14.53.87-.21,1.61-1.14,1.83-2.14.65-3.03-1.92-4.83-4.11-4.89-1.39-.04-2.74.15-4.08.43-.53.11-.73.31-.73.92.03,5.42.02,10.85.02,16.28,0,.69.04,1.37,0,2.05-.07.84.12,1.52,1.11,1.95-.76.26-1.39.4-2.03.52-.64.11-1.26.31-1.87.49-.35.1-.53.05-.51-.38.03-.57,0-1.13,0-1.7,0-.04,0-.07,0-.11-.03.03-.06.06-.08.09M74.01,15.71v-4.03c0-.23.01-.46-.11-.69-.5-.89-1.18-1.53-2.25-1.62-1.28-.12-2.34.19-3.02,1.41-.47.85-.75,1.74-.91,2.68-.35,2.16-.41,4.31.38,6.39.63,1.68,2.4,2.56,3.93,1.98,1.25-.46,1.98-1.52,1.98-2.87v-3.25Z"/>
      <path class="cls-2" d="M89.7,33.35c1.3-.3,2.61-.57,3.9-.91.39-.1.44,0,.42.33-.02.42,0,.84,0,1.33.82-.88,1.61-1.64,2.73-1.95.71-.19,1.41-.18,2.12.01.5.14.82.39.82.95,0,.46-.01.89-.54,1.08-.5.18-.92.16-1.33-.26-.95-.94-2.1-.9-3.11,0-1.43,1.26-2.14,2.97-2.96,4.61-.78,1.54-1.49,3.12-2.53,4.52-1.62,2.19-3.7,3.36-6.45,3.11-1.2-.11-2.27-.66-3.21-1.37-2.26-1.72-3.13-4.09-2.79-6.83.27-2.14,1.19-4.01,3.14-5.23,2.16-1.35,5.89-.96,7.46,1.7.62,1.06,1.01,2.16,1.01,3.4,0,.45-.15.5-.52.49-2.32,0-4.63.03-6.94-.02-.68-.01-.81.2-.79.82.05,1.23.19,2.44.56,3.62.81,2.61,2.83,3.31,5.21,2.37,2.33-.91,3.65-2.85,4.7-4.99.08-.15.04-.37.04-.56,0-1.28,0-2.55,0-3.83,0-.92.15-1.89-.95-2.43M82.67,38.01c.69,0,1.37-.02,2.05,0,.39.01.53-.08.53-.5-.01-.7-.07-1.4-.14-2.1-.08-.76-.19-1.5-.56-2.18-.3-.55-.7-.88-1.37-.93-.8-.05-1.5.08-1.91.86-.16.31-.28.63-.42.95-.51,1.14-.47,2.39-.7,3.58-.07.34.19.31.4.31h2.13"/>
      <path class="cls-6" d="M65.79,44.92c-1.31.32-2.63.65-3.94.97-.29.08-.37-.07-.36-.34,0-.47,0-.94,0-1.64-.63.67-1.19,1.16-1.82,1.56-2.85,1.82-5.53-.03-5.9-2.74-.28-2.07.67-3.44,2.3-4.48,1.12-.72,2.36-1.21,3.61-1.68,1.79-.69,2.38-2.54,1.16-3.78-.53-.54-1.87-.69-2.52-.3-.72.45-1.19,1.09-1.54,1.85-.34.73-1,.87-1.42.33-.28-.36-.29-.77.04-1.08.93-.88,1.96-1.56,3.31-1.57,1.02,0,2.05-.08,3.04.3,1.88.71,3.09,2.46,3.1,4.58.01,2.08.02,4.16,0,6.23,0,.76.2,1.33.95,1.77M61.49,35.97c-.07-.02-.13-.04-.19-.07-.45.55-1.07.88-1.64,1.26-2.02,1.31-2.87,3.48-2.33,5.84.34,1.48,1.4,2.04,2.78,1.49.93-.37,1.39-1.06,1.39-2.06v-6.47Z"/>
      <path class="cls-6" d="M107.31,21.94c-1.51.37-2.83.7-4.15,1.02-.24.06-.34-.06-.34-.31.01-.4,0-.8,0-1.2,0-.11.05-.24-.1-.31-.15-.06-.22.06-.3.14-.51.48-.98.97-1.6,1.35-2.33,1.43-5.02.3-5.68-2.35-.52-2.06.56-3.95,2.35-5.02,1.15-.69,2.38-1.18,3.61-1.66,1.56-.61,2.1-1.82,1.41-3.24-.5-1.04-2.23-1.42-3.11-.65-.55.47-1.06.98-1.31,1.7-.15.44-.48.66-.96.65-.38,0-.51-.28-.64-.55-.22-.45.13-.7.38-.95.96-.96,2.12-1.44,3.48-1.48,1.25-.04,2.46.07,3.55.76,1.54.99,2.22,2.45,2.25,4.23.04,1.93.02,3.87,0,5.8,0,.83-.06,1.67,1.13,2.07M102.83,12.88c-.75.63-1.46,1.13-2.19,1.6-1.92,1.25-2.85,4.37-1.59,6.5.35.59,1.11.99,1.75.86,1.33-.28,2.03-1.14,2.03-2.53v-6.43Z"/>
      <path class="cls-6" d="M56.21,21.94c-1.51.38-2.81.71-4.11,1.03-.32.08-.4-.09-.39-.39.02-.46,0-.93,0-1.57-.79.83-1.56,1.43-2.45,1.87-2.62,1.27-4.91-.59-5.25-2.94-.35-2.46.85-3.87,2.79-4.89,1.22-.64,2.51-1.17,3.77-1.73.94-.42,1.2-1.18,1.07-2.13-.1-.72-.32-1.4-1.07-1.66-.87-.3-1.73-.32-2.48.34-.5.44-.85.99-1.12,1.58-.19.4-.5.6-.92.6-.31,0-.52-.19-.6-.48-.14-.46.03-.82.37-1.13,2.07-1.88,5.5-1.76,7.42-.33,1.26.94,1.79,2.3,1.81,3.83.04,2.03.04,4.06,0,6.09-.02.82.15,1.48,1.15,1.91M51.71,16.82c0-1.13,0-2.26,0-3.39,0-.13.06-.3-.1-.38-.17-.08-.26.08-.34.18-.4.43-.88.77-1.38,1.04-1.95,1.08-2.9,3.55-2.35,5.74.45,1.83,1.89,2.33,3.4,1.21.6-.44.84-.91.78-1.64-.06-.91-.01-1.84-.01-2.76"/>
      <path class="cls-7" d="M57.49,1.64c1.21-.28,2.41-.53,3.59-.85.64-.18.76.01.76.61-.02,6.45,0,12.89-.01,19.33,0,.8-.08,1.62,1.11,2.05h-5.32c.86-.54.88-1.35.88-2.21-.02-5.62-.02-11.23,0-16.85,0-.83-.11-1.53-.96-1.9-.03-.02-.03-.12-.04-.18"/>
      <path class="cls-6" d="M16.94,33.42c1.37-.34,2.59-.64,3.81-.95.64-.16.57.31.62.77.28-.27.31-.56.38-.83.52-1.74,1.22-3.39,2.7-4.57.95-.76,3.11-1.12,3.97,0,.53.71.55,1.44.24,2.16-.28.66-.87,1.08-1.62,1.17-.81.1-1.47-.18-1.9-.88-.54-.88-.53-1.15-.01-2.45-.95.5-1.54,1.2-1.95,2.02-1.14,2.26-1.87,4.63-1.75,7.22.09,2.1.02,4.2.02,6.3q0,1.44.88,2.37h-5.4c1.49-.73,1.13-1.93,1.14-3.01.02-2.33-.01-4.67.02-7.01.01-.94-.07-1.8-1.13-2.33"/>
      <path class="cls-5" d="M69.65,32.62c-.28.3-.4.61-.2,1.01,1.28,2.63,2.55,5.26,3.88,7.99.57-1.28,1.13-2.47,1.64-3.67,1.24-2.94,2.76-5.76,3.63-8.85.31-1.12.78-2.22.41-3.44-.28-.92-.96-1.3-1.91-1.04-.92.26-1.55.92-2.21,1.53-1.39,1.29-3.02,1.99-4.89,1.74-1.83-.24-3.55-.9-5.1-1.95-.27-.19-.57-.29-.83-.52-.42-.39-.48-.88-.36-1.36.12-.5.6-.77,1.05-.76.46,0,.93.15,1.2.67.57,1.12,1.38,2.06,2.39,2.8,1.87,1.36,3.75,1.02,5.64-.31.84-.58,1.51-1.36,2.41-1.89.74-.44,1.45-.37,2.17-.11.74.27.8.98.84,1.62.09,1.52-.38,2.95-.92,4.32-1.98,5.02-4.25,9.92-6.42,14.85-.08.19-.08.5-.38.49-.29,0-.24-.32-.32-.49-1.72-3.75-3.44-7.5-5.14-11.26-.32-.72-.95-1.06-1.55-1.44.04-.08.09-.15.14-.22h4.8c0,.09.01.17.02.26"/>
      <path class="cls-7" d="M93.93,22.39c-1.53.91-3.11,1.32-4.76.33-.84-.51-1.38-1.23-1.38-2.25,0-3.31-.02-6.61.01-9.92,0-.59-.09-.88-.75-.77-.26.04-.55.1-.86-.11.33-.27.69-.15,1-.15.46.01.63-.16.61-.62-.05-.83-.11-1.63-1.18-2.12,1.22-.3,2.25-.57,3.29-.79,1.22-.26,1.22-.23,1.22,1.02,0,.66.02,1.32,0,1.98-.01.39.1.56.52.53.49-.03.99,0,1.64,0-.56.45-1.07.27-1.52.27-.46,0-.66.06-.65.6.04,3.44.03,6.89.05,10.34,0,1.37.99,2.1,2.3,1.76.15-.04.31-.05.47-.08"/>
      <path class="cls-7" d="M29.45,45.75h-5.19c1.04-.53.92-1.48.92-2.39-.01-2.5,0-5,0-7.51,0-.93.2-1.95-1.23-2.42,1.69-.4,3.11-.74,4.61-1.09v.8c0,3.56.02,7.13-.02,10.69,0,.83.14,1.48.92,1.91"/>
      <path class="cls-7" d="M85.14,22.8h-5.33c1.41-.66,1.14-1.75,1.14-2.75,0-2.45,0-4.9,0-7.35,0-.88.05-1.73-1.08-2.1.04-.05.07-.1.1-.15,1.07-.26,2.13-.55,3.2-.77,1.13-.23,1.13-.2,1.13.95,0,3.42.01,6.83,0,10.25,0,.79.07,1.48.84,1.93"/>
      <path class="cls-6" d="M94.91,45.76h-5.16c-.08-.27.15-.25.27-.34.39-.3.69-.68.61-1.19-.3-2.01.43-3.72,1.38-5.41.54-.96.93-2.02,1.55-2.94.1-.15.2-.3.45-.45v1.49c0,2.26.03,4.53-.02,6.79-.02.85.06,1.57.91,2.04"/>
      <path class="cls-3" d="M64.83,32.36c-.04.08-.09.15-.14.22-.11,0-.17-.06-.14-.16.05-.14.17-.09.27-.06"/>
      <path class="cls-3" d="M69.65,32.62c0-.09-.01-.17-.02-.26.05.02.13.04.14.08.03.09-.03.15-.12.19"/>
      <path class="cls-1" d="M74,9.36c.03.1,0,.15-.11.12.04-.04.08-.08.11-.12"/>
      <path class="cls-1" d="M73.9,20.84s.06-.06.08-.09c0,.04,0,.07,0,.1h-.05s-.04,0-.04,0Z"/>
    </g>
  </g>
</svg>