<?xml version="1.0" encoding="UTF-8"?>
<svg id="Layer_2" data-name="Layer 2" xmlns="http://www.w3.org/2000/svg" viewBox="0 0 138.95 44.85">
  <defs>
    <style>
      .cls-1 {
        fill: #c90426;
      }

      .cls-1, .cls-2, .cls-3, .cls-4 {
        stroke-width: 0px;
      }

      .cls-2 {
        fill: #c9072a;
      }

      .cls-3 {
        fill: #c80324;
      }

      .cls-4 {
        fill: #c80124;
      }
    </style>
  </defs>
  <g id="Capa_1" data-name="Capa 1">
    <g>
      <path class="cls-4" d="M47.52,27.46c-1.35,2.58-2.58,5.19-3.63,7.88-.43,1.1-.65,1.21-1.79.65-.94-.46-1.67-1.05-1.46-2.44-.91,1-1.46,2-2.26,2.82-1.06,1.1-3.11.91-4.04.2-.44-.33-.47-.88-.68-1.43-.58.81-1.01,1.6-1.6,2.29-.57.68-1.26.72-1.96.56-.92-.21-1.78-.63-2.41-1.41-.66-.82-.5-1.8-.31-2.66.53-2.37,1.34-4.63,2.37-6.85,1.06-2.27,2.75-2.13,4.46-1.31.48.23.91.56,1.37.96.11-.43.34-.73.28-1.11-.13-.81.32-.94.98-.89,1.46.11,2.25,1.19,1.95,2.59-.53,2.47-1.02,4.95-1.5,7.43-.05.25.01.51.02.78.83-.03,1.13-.71,1.46-1.23.88-1.4,1.78-2.81,2.48-4.3.87-1.81,1.22-3.8,1.41-5.8.06-.59.2-.71.74-.7.85.01,1.48.45,2.02.99.6.6.13,1.35,0,1.97-.18.91-.26,1.86-.62,2.74-.05.11-.01.36.06.4.19.1.31-.06.39-.23,1.01-2.17,2-4.35,3.04-6.51.14-.28.42-.43.84-.33,2.03.49,2.45,1.28,1.89,3.54-.27,1.07-.56,2.14-.54,3.29.5-.97,1-1.94,1.49-2.91.78-1.57,1.54-3.15,2.54-4.6.24-.35.47-.45.84-.43,1.52.07,2.27,1.09,2.05,2.6-.4,2.67-1.04,5.29-1.58,7.93-.06.3-.01.63-.01,1.01.62-.16.92-.6,1.19-1.02,2-3.11,3.47-6.44,4.04-10.13.01-.08.01-.17.02-.26.06-1.03.44-1.26,1.42-.88,1.5.6,1.67.9,1.37,2.69-.15.93-.37,1.84-.6,2.76-.05.2-.2.41.03.51.25.1.31-.16.39-.35.86-2.21,2.16-4.21,3-6.43.08-.23.34-.32.55-.34,1.52-.14,2.61,1.18,2.29,2.69-.29,1.38-.52,2.78-.65,4.21.65-1.28,1.31-2.54,1.94-3.83.62-1.29,1.3-2.55,2.12-3.74.12-.17.2-.33.42-.39,1.29-.35,2.82,1.11,2.54,2.4-.58,2.72-1.14,5.44-1.68,8.16-.06.29,0,.61,0,1.07,1.21-.77,1.64-1.91,2.27-2.92,1.58-2.53,2.22-5.46,3.5-8.13,1.09-2.27,2.66-2.11,4.39-1.35.52.22.97.57,1.43,1.01.12-.42.35-.74.29-1.11-.13-.81.33-.93.98-.88,1.46.11,2.24,1.19,1.94,2.59-.53,2.47-1.02,4.95-1.5,7.42-.05.25.01.51.03.78.83-.04,1.12-.72,1.46-1.24,1.14-1.7,2.18-3.45,2.99-5.32.64-1.49.98-3.11,1.08-4.73.04-.64.21-.76.78-.75.82.02,1.42.46,1.96.95.63.58.11,1.32.04,1.97-.09.93-.4,1.83-.61,2.74-.04.17-.12.36.08.44.21.08.29-.12.37-.28.65-1.39,1.33-2.77,1.94-4.19.34-.78.99-1.42,1.08-2.33.02-.23.34-.31.55-.33,1.53-.13,2.6,1.18,2.28,2.69-.29,1.38-.51,2.78-.64,4.21.65-1.28,1.31-2.54,1.93-3.83.63-1.29,1.31-2.55,2.12-3.73.1-.14.17-.3.34-.37,1.1-.45,2.88.94,2.67,2.13-.28,1.56-.64,3.11-.95,4.67-.27,1.39-.52,2.79-.76,4.18-.03.15-.08.34.12.52,1-.53,1.46-1.52,1.92-2.43,1.06-2.09,2.31-4.11,2.74-6.47.18-.95.45-1.88.6-2.84.07-.45.24-.5.61-.49.97.01,1.71.47,2.26,1.23.39.53-.01,1.13-.1,1.65-.41,2.44-.94,4.85-1.45,7.27-.05.25-.14.45.09.61.29.21.42-.08.57-.22.76-.68,1.25-1.56,1.76-2.43.87-1.48,1.79-2.94,2.21-4.64.35-1.41,1.07-2.66,1.74-3.92.68-1.27,1.68-1.63,3.12-1.21.8.23,1.58.68,2.33,1.35.26-.39.37-.81.33-1.26-.05-.55.23-.69.73-.7,1.65-.04,2.49,1.04,2.14,2.68-.52,2.44-.98,4.9-1.45,7.35-.05.24.02.51.04.79.84-.11,1.15-.78,1.5-1.35,1.29-2,2.51-4.05,3.42-6.26.09-.22.18-.66.56-.53.32.1.27.46.26.76,0,.2-.01.39-.11.59-1.1,2.29-2.12,4.65-3.72,6.63-1.35,1.67-1.88,2.07-3.99,1.61-.97-.21-1.39-.87-1.56-1.91-.61.87-1.02,1.67-1.64,2.35-.47.5-.96.68-1.61.6-1.21-.14-3.05-1.05-3.2-2.68-.83,1.24-1.58,2.43-2.63,3.38-.88.8-1.87.87-2.89.59-1.17-.33-1.42-.87-1.43-2.59-.67.98-1.24,1.84-1.83,2.68-1.27,1.81-3.19,1.91-4.45.28-.7-.9-.26-1.82-.07-2.71.26-1.25.62-2.48.94-3.72.03-.12-.01-.26-.04-.64-.88,1.54-1.68,2.85-2.4,4.2-.52.98-1.23,1.86-1.45,3-.06.32-.55.35-.9.31-1.15-.14-2.01-1.13-2.05-2.28-.04-1.28.38-2.48.66-3.7.04-.14.07-.27-.07-.54-.85,1.83-1.71,3.56-2.45,5.34-.44,1.06-1.07,2.04-1.22,3.24-.07.57-.8.47-1.26.31-1.39-.47-1.88-1.17-1.97-2.82-.5.33-.71.85-.97,1.28-.45.76-1.05,1.38-1.7,1.95-1.45,1.27-3.86.5-4.39-1.44-.66.71-1,1.61-1.65,2.28-.45.47-.92.62-1.53.59-1.42-.07-2.82-1.08-3.28-2.45-.61.9-1.19,1.78-1.8,2.63-1.28,1.79-3.22,1.86-4.45.2-.66-.89-.22-1.78-.05-2.64.27-1.38.66-2.74.81-4.19-.7,1.22-1.45,2.43-2.11,3.68-.56,1.08-1.36,2.05-1.62,3.3-.08.35-.54.37-.88.34-1.12-.11-2.04-1.14-2.08-2.25-.06-1.43.49-2.74.58-4.17-.52,1.05-1.07,2.08-1.55,3.15-.62,1.36-1.22,2.73-1.78,4.11-.14.34-.34.67-.33,1.11.01.59-.59.52-.99.48-1.16-.12-2.15-1.19-2.26-2.52-.6.86-1.12,1.63-1.66,2.38-1.29,1.78-3.23,1.84-4.45.18-.64-.88-.21-1.78-.04-2.64.27-1.38.66-2.73,1-4.1-.07-.02-.13-.05-.2-.08-.7,1.23-1.44,2.44-2.1,3.69-.57,1.08-1.36,2.05-1.62,3.29-.07.33-.54.37-.89.33-1.13-.12-2.03-1.14-2.07-2.26-.06-1.42.5-2.74.63-4.12M123.54,13.2c-.8-.34-1.07.4-1.39,1-1.14,2.19-1.66,4.58-2.09,6.99-.05.29-.15.74.21.84.26.07.58-.18.75-.48,1.35-2.36,2.63-4.75,3.41-7.38.28-.97.26-.97-.9-.97M84.54,19.5c-.75-.25-1.08.34-1.38.94-1.15,2.22-1.69,4.63-2.12,7.07-.05.26-.15.66.17.78.3.12.59-.11.76-.4,1.37-2.35,2.63-4.75,3.43-7.36.32-1.02.27-1.04-.86-1.04M34.32,27.55c-.73-.23-1.04.32-1.35.89-1.17,2.25-1.73,4.68-2.15,7.15-.05.26-.14.67.19.78.29.09.59-.14.76-.44,1.36-2.36,2.63-4.75,3.42-7.37.3-1,.27-1.01-.87-1.01"/>
      <path class="cls-4" d="M18.58,31.64c1.04-2.44,2.1-4.88,3.13-7.33.71-1.69,1.46-3.37,1.99-5.13.03-.11.09-.21.11-.32.16-1.03.32-1.13,1.28-.64.61.31,1.16.74,1.7,1.15,1.01.79.5,1.84.33,2.73-.56,2.87-1.14,5.73-1.57,8.62-.31,2.08-.57,4.16-.5,6.26,0,.06,0,.12,0,.18-.05.57.53,1.31-.48,1.63-.94.29-1.75.13-2.49-.49-.82-.69-1.04-1.6-.85-2.59.61-3.16,1.26-6.31,1.88-9.47.06-.28,0-.58,0-.98-.6.61-.74,1.36-1.04,2-1.56,3.34-3.07,6.7-4.24,10.19-.2.59-.37,1.2-.47,1.81-.14.89-1.08,1.44-1.94,1.11-1.4-.54-1.87-1.76-1.53-3.5.4-2.07.7-4.16,1.01-6.25.31-2.09.59-4.18.87-6.27.03-.25,0-.5-.17-.79-.58,1.28-1.13,2.58-1.73,3.85-1.91,3.98-3.85,7.95-6.65,11.42-.82,1.02-1.67,2.01-2.77,2.72-1.21.79-2.54,1.02-3.91.33-.33-.16-.6-.42-.5-.82.1-.43.48-.2.73-.21,1.53-.08,2.58-1.05,3.58-2.02,1.74-1.69,3.06-3.72,4.3-5.8,1.95-3.27,3.7-6.65,5.26-10.12.67-1.49,1.5-2.9,2.15-4.4.21-.48.46-.47.77-.39,1.01.29,1.86.88,2.61,1.61.34.34.46.79.37,1.28-.48,2.75-.91,5.5-1.25,8.27-.1.78-.12,1.55.04,2.36"/>
      <path class="cls-1" d="M84.34,34.2c.04.29,0,.56-.13.84-.08.16-.15.48.19.57,1.28.33,1.33,1.21,1.02,2.27-.13.46-.2.94-.3,1.41-.04.17-.12.36.08.44.19.07.3-.1.39-.26.77-1.32,1.28-2.74,1.56-4.24.06-.3-.15-.8.46-.68.47.09.91.3.77.92-.23,1.05-.31,2.13-.65,3.16-.04.13,0,.28,0,.48.45-.15.66-.46.89-.8.71-1.05,1.23-2.2,1.74-3.35.69-1.55,1.49-1.34,2.63-.57.12-.41.2-.95.81-.71.57.22.59.61.42,1.19-.27.92-.35,1.9-.53,2.85-.02.13-.05.25.06.29.21.08.4.01.52-.19.42-.72.84-1.44,1.26-2.17.14-.24.26-.49.4-.77.34.32.09.54,0,.74-.43.9-.81,1.87-1.51,2.59-.79.81-1.39,1.12-2.26-.1-1.15,1.42-1.79,1.41-2.84-.05-.38.48-.7,1-1.18,1.38-.44.36-.94.54-1.39.11-.46-.43-.74-.24-.93.18-.19.42-.55.62-.92.73-.74.21-1.39-.56-1.16-1.34.19-.62.38-1.24.58-1.86.11-.34.09-.66-.28-.8-.39-.14-.39.27-.5.46-.62,1.1-1.23,2.21-2.14,3.11-1.03,1.03-2.05,1.14-2.87.1-.32-.4-.56-.3-.75.09-.16.33-.43.54-.68.78-.3.31-.63.64-1.11.46-.52-.2-.73-.61-.72-1.16,0-.16.07-.35-.19-.57-.48.69-1.32.95-1.85,1.66-.76,1.02-1.65,1.09-2.51.22-.4-.41-.59-.3-.83.12-.18.29-.38.59-.63.82-.35.32-.75.57-1.22.17-.36-.31-.79-.5-.5-1.19.31-.74.37-1.57.49-2.39-.88,1-1.42,2.2-2.14,3.29-.15.22.13.69-.44.68-.49-.01-.82-.21-1.01-.65-.02-.05-.05-.11-.09-.21-.59.61-.96,1.51-1.93,1.53-.46.01-.84-.32-1.05-.78-.07.05-.16.09-.2.15-.8,1.23-1.18,1.29-2.26.29-.35-.32-.54-.47-.82.07-.36.71-1.1,1-1.78,1.29-.49.21-1.43-.41-1.49-.99-.16-1.54.33-2.9,1.33-4.05.6-.68,1.56-.45,2.15.44-.4.36-1.08-.22-1.43.48-.5,1.01-.54,2.05-.48,3.11.02.3.2.45.55.26.35-.18.59-.43.82-.75.73-1,1.32-2.06,1.76-3.23.62-1.68,1.25-1.66,2.74-.79.02-.53.23-.91.8-.69.45.18.58.51.43,1.05-.27.98-.4,2-.6,3.01-.02.12-.03.23.12.27.18.05.35,0,.46-.17.8-1.29,1.65-2.56,1.84-4.12.03-.25-.15-.61.37-.6.47.01.75.18.87.66.12.49-.33.92-.1,1.48.52-.33.66-.88.96-1.3.26-.38.48-.78.77-1.15.21-.27.43-.43.87-.24.42.18.52.39.48.78-.12,1.19-.41,2.35-.67,3.51-.03.13,0,.27,0,.56.9-.58,1.12-1.46,1.53-2.22.53-1,.54-2.2,1.43-3.07.52-.5,1.08-.49,1.59-.34.53.16.81.67.86,1.29.05.66-.16,1.29-.16,2.04.95-.52,1.5-1.3,1.69-2.18.3-1.39.54-2.81.57-4.26,0-.33-.26-.93.49-.79.54.1,1.18.26,1.05.99-.28,1.68-.69,3.34-.95,5.03-.09.59-.34,1.19-.17,1.96.95-.74,1.26-1.73,1.67-2.66.32-.71.57-1.44,1.12-2.02.57-.59,1.36-.71,1.93-.27.51.39.62,1.33.22,1.97-.39.62-.93,1.08-1.65,1.26-.3.08-.57.13-.58.51,0,.26-.05.55.25.69.29.13.53,0,.79-.18,1.34-.91,2.12-2.23,2.81-3.63.14-.28-.06-.3-.19-.43-1.09-1.02-1.14-1.54-.35-2.76.39-.6.91-.75,1.57-.63-.14.09.4.8-.35.36-.29-.18-.4.2-.45.37-.2.62-.29,1.25.2,1.78.49-.16.04-.84.6-.95M91.03,38.5c.24-.16.35-.21.41-.29.67-.91.96-2.01,1.46-3,.07-.14.15-.44-.17-.47-.27-.03-.62-.12-.78.21-.49,1.08-1.05,2.14-.92,3.56M60.22,43.21c.25.11.37,0,.45-.12.65-.92.95-2.01,1.45-3.01.07-.14.09-.41-.11-.44-.27-.04-.63-.16-.8.16-.56,1.08-1.08,2.18-.98,3.41M73.16,38.38c0-.27-.01-.45,0-.62.02-.3.05-.62-.29-.74-.33-.11-.62.01-.83.3-.14.18-.29.35-.44.53-.21.25-.08.42.17.46.99.17.72.73.44,1.31-.1.21-.46.48.02.67.37.14.59-.06.71-.4.18-.52.27-1.05.22-1.51M79.85,37.99c.67-.29.91-.63,1.12-1,.12-.22.16-.51-.01-.63-.27-.2-.4.15-.5.3-.21.34-.34.73-.61,1.33M71.32,41.43c.47.17.8.18.95-.26.12-.34-.23-.42-.39-.43-.53-.04-.2.53-.56.69"/>
      <path class="cls-4" d="M133.63,13.14c.21-1.09.42-2.18.64-3.27.34-1.73.65-3.47.86-5.22.15-1.3.11-2.6.13-3.89.01-.61.23-.9.84-.66.2.08.4.06.59.11,2.2.55,2.61,1.28,2.01,3.43-.85,3.06-1.8,6.09-2.49,9.19-.12.53-.19,1.07-.24,1.61-.03.31.08.66-.35.78-.37.11-.73.21-1.09-.09-.62-.52-.92-1.16-.91-1.98"/>
      <path class="cls-3" d="M116.03,7.56c.06.28-.07.54-.3.73-1.03.84-2.06,1.66-3.35,2.14-.58.21-.96-.09-1.18-.4-.32-.43.16-.64.49-.89.85-.64,1.51-1.47,2.17-2.29.26-.32.49-.87,1.15-.56.6.27,1.01.68,1.02,1.27"/>
      <path class="cls-4" d="M136.32,18.73c0,1.46-.93,2.51-2.18,2.44-1.06-.06-1.63-.97-1.15-1.92.43-.87.88-1.77,2.08-1.76,1.16.01,1.24.07,1.24,1.24"/>
      <path class="cls-2" d="M89.09,31.81c-.01.34-1.48,1.35-1.83,1.23-.14-.05-.34-.14-.15-.37.36-.44.88-.75,1.16-1.28.08-.15.38-.12.56-.01.15.09.26.23.26.42"/>
    </g>
  </g>
</svg>