<?xml version="1.0" encoding="UTF-8"?>
<svg id="Layer_2" data-name="Layer 2" xmlns="http://www.w3.org/2000/svg" viewBox="0 0 123.51 52.95">
  <defs>
    <style>
      .cls-1 {
        fill: #ebd217;
      }

      .cls-1, .cls-2, .cls-3, .cls-4, .cls-5, .cls-6, .cls-7, .cls-8, .cls-9, .cls-10, .cls-11, .cls-12, .cls-13, .cls-14, .cls-15, .cls-16 {
        stroke-width: 0px;
      }

      .cls-2 {
        fill: #216ea5;
      }

      .cls-3 {
        fill: #549bbd;
      }

      .cls-4 {
        fill: #e5b23a;
      }

      .cls-5 {
        fill: #1da3d8;
      }

      .cls-6 {
        fill: #78bbe2;
      }

      .cls-7 {
        fill: #ecd3e0;
      }

      .cls-8 {
        fill: #363b80;
      }

      .cls-9 {
        fill: #d03779;
      }

      .cls-10 {
        fill: #f5f5ff;
      }

      .cls-11 {
        fill: #1d81be;
      }

      .cls-12 {
        fill: #80b22c;
      }

      .cls-13 {
        fill: #9d4837;
      }

      .cls-14 {
        fill: #262626;
      }

      .cls-15 {
        fill: #edf1f2;
      }

      .cls-16 {
        fill: #216435;
      }
    </style>
  </defs>
  <g id="Capa_1" data-name="Capa 1">
    <g>
      <path class="cls-8" d="M20.19,14.21c-4.81-.05-9.62-.12-14.42-.13-.74,0-1.02-.25-1.28-.9C3.07,9.59,1.6,6.02.15,2.44c-.05-.12-.08-.25-.15-.48,7.42-.1,14.78-.21,22.13-.31,2.06.02,4.13.11,6.19-.11,8-.13,15.99-.26,23.99-.39,19.45-.32,38.91-.63,58.36-.95,4.04-.07,8.08-.1,12.12-.2.72-.02.8.21.68.83-.78,4.21-1.53,8.42-2.29,12.63-.06.34-.16.67-.22,1.01-.09.49-.31.69-.88.68-4.23-.07-8.46-.11-12.7-.14-12.61-.12-25.23-.23-37.84-.34-.16,0-.33-.01-.49-.02-2.88-.21-5.77-.12-8.65-.1-8.61-.07-17.21-.14-25.82-.21-3.04-.14-6.09-.15-9.14-.1-.14,0-.27,0-.4,0-.14,0-.28,0-.42,0-.31,0-.61,0-.92-.01-1.17-.08-2.34-.08-3.51-.02ZM83.35,13.83c0,.11,0,.21,0,.32,4.73,0,9.45-.01,14.18,0,7.28.03,14.57.07,21.85.12.53,0,.79-.13.87-.7.21-1.41.48-2.81.73-4.21.47-2.59.94-5.18,1.42-7.77.11-.58-.08-.82-.68-.76-.52.05-1.04.08-1.56.09-7.14.08-14.29.16-21.43.32-6.89.16-13.79.17-20.69.32-7.2.16-14.4.18-21.59.34-6.48.15-12.97.17-19.45.31-8.54.19-17.09.27-25.63.41-3.16.05-6.32-.02-9.48.12-.59.03-.64.2-.44.69,1.26,3.07,2.52,6.14,3.75,9.22.21.52.51.6,1,.61,5.3.07,10.6.19,15.91.22,12.42.06,24.84.17,37.26.32,8,.1,15.99.02,23.99.02Z"/>
      <path class="cls-1" d="M39.41,27.89c-.06.49-.66.54-.79.97-.06.06-.12.12-.19.18,0,0,.02,0,.02,0-.56.41-.81,1.3-1.8,1.03.14.27.23.46.33.64,0,0,0,0,0,0-1.24-.08-1.59.12-1.66.94l-.02.07c-.29,0-.61-.06-.8.27-.62-.26-1.01.52-1.61.36-1.09-.34-2.04.53-3.12.34-.23-.04-.23.24-.25.43-.06,0-.12,0-.18,0-.39-.36-.93-.15-1.29-.26-.73-.23-1.3.12-1.93.13-.44-.15-.89-.21-1.35-.18-.31-.47-.82-.53-1.31-.64.15-.26-.2-.29-.21-.48,0-.35-.23-.38-.5-.37h0c-.07-.17-.08-.41-.21-.51-.74-.6-1.51-1.15-1.99-2.01-.09-.16-.29-.12-.45-.11h0c-.01-.23.16-.32.33-.42.64,0,.71-.66,1.11-.94.13-.09.06-.31-.07-.33-.47-.08-.79-.61-1.34-.42-.17-.36-.72-.04-.85-.46.43-.5,1.04-.87,1.27-1.54.06-.06.13-.12.19-.18.35-.47.78-.91,1.02-1.43.43-.95,1.27-1.71,1.32-2.83.18-.34.37-.68.55-1.02.41.05.63-.46,1.06-.34.11.23.11.73.53.22.94-1.16,1.76-1.33,3.14-.67.27.13.7.04.55-.19-.42-.68.23-.49.44-.67.75-.05,1.5-.15,2.24-.23.4-.04,1.01.16,1.27-.44.07.01.14.02.22.04.03.26-.11.61.16.74.33.16.45-.2.59-.41.23-.34.53-.26.84-.2.48.09.78.44,1.12.74.25.53.9.6,1.22,1.01.61.79,1.39,1.42,1.82,2.39.49,1.12.81,2.22.71,3.44-.02.2-.1.39-.29.46-.11.04-.36-.01-.37-.05-.07-.46-.52-.86-.49-1.24.07-1.04-.3-1.91-.78-2.77-.25-.46-.37-1.06-1.04-1.14-.45-.13-.71-.55-1.15-.73-.85-.33-1.04-.3-1.43.54-1,2.15.56,5.03,2.91,5.4.29.07.53-.05.78-.18.17-.09.41-.22.51-.02.23.46.59.55,1.05.59.19.02.35.26.18.51-.21.32-.21,1.49,0,1.94ZM30.32,26.37c.45-.02.66-.26.65-.7.7-1.45.62-2.85-.26-4.2-.95-1.46-2.58-2.82-4.56-1.66-.51.24-.98.37-1.16,1.1-.29,1.25-.32,2.47-.25,3.73.03.42.58.6.43,1.01-.28.79.22.73.71.73.27,0,.55.02.82.03.64.21,1.23.61,1.94.62.65,0,1.34.08,1.69-.67h0ZM31.01,28.49c.96-.22,1.98-.26,2.81-.93-1,.41-2.1.42-3.12.76-.53.06-1.07.12-1.6.18-1.55.23-2.89-.51-4.43-1.09.3.54.49.93.72,1.28.6.91,2,1.57,2.83,1.36.46.63,1.1.46,1.7.37.19-.03.52.02.55-.24.03-.22-.11-.47-.4-.52-.14-.24-.28-.48-.42-.71.3-.61.93-.24,1.36-.46ZM24.38,26.07c-.08-.29-.29-.36-.56-.33-.21.03-.38.14-.33.37.06.25.3.28.52.28.2,0,.38-.05.36-.32Z"/>
      <path class="cls-1" d="M88.19,21.41c.01-.13-.01-.25-.14-.33.12-.29.62-.23.61-.65.04-.02.08-.05.11-.09h0c.21-.02.42-.04.63-.06v.04c.31.33.49-.04.71-.12.69-.25,1.34.03,1.14.48-.19.43.08.53.24.74.45.59,1.11.29,1.69.37.2.62.78.18,1.13.39.24.14.58.22.75-.03.18-.27.17-.63-.17-1.13,0,.47.21.9-.25.88-.66-.04-.64-.61-.66-1.17q-.42,1.02-.79,1.06c-.06-.21-.12-.42-.17-.63-.03-.16-.04-.39-.22-.4-.28,0-.25.22-.18.42.04.13,0,.22-.13.25-.16.04-.25-.06-.29-.21-.04-.16-.05-.34-.14-.47-.36-.56-.33-.69.33-.93.19-.07.36-.13.46-.31.22-.01.43-.02.65-.03.93.18,1.86.32,2.81.35.13.23.6.29.51.53-.37.97.38.73.82.83.45.77,1.14.51,1.8.42.91.08,1.46.63,1.84,1.4.21.23.23.61.58.73.07.12.15.24.22.36.05.33.31.35.55.33.39-.04.75.08,1.11.16h0c0,.26-.03.53.08.8.46,1.13,1.08,2.28-.28,3.27-.09.06-.09.24-.14.37-.05.05-.09.1-.14.16-.99-.06-1.98.16-2.96-.13-.18-.05-.44-.09-.57.17-.21,0-.33.13-.25.31.26.52.13,1.06.16,1.59.02.33.05.65.33.87.02.78.14,1.49,1.15,1.53-.51.19-.9.51-1.13,1.01-.83.16-1.51.73-2.35.82-.06.01-.12.02-.18.04-.63-.15-1.26-.1-1.89-.04-.19-.03-.38-.06-.58-.09-.15-.19-.28-.42-.57-.4-.88.07-1.76-.21-2.51-.45-1.01-.33-2.06-.74-3.05-1.22-.49-.24-.68-.86-1.29-.85-.13-.59-.82-.79-.95-1.35-.18-.8-.59-1.5-.86-2.26-.01-.1-.03-.2-.04-.31.24-.17.22-.42.18-.66-.05-.23-.02-.36.25-.35.24.01.44-.05.44-.34,0-.28-.07-.6-.38-.64-.47-.07-.46-.37-.45-.7.03-.1.06-.19.08-.29.17-.05.48.05.48-.17,0-.3-.34-.13-.52-.22.52-.98.6-2.2,1.6-2.92.1.63.47.73,1,.52.08.32-.19.5-.32.73-.49.86-.98,1.74-.78,2.78.11.54.16,1.18.93,1.28.77.1,1.39-.27,1.73-1.05.14-.19.28-.38.42-.58.22-.01.32-.14.41-.34.38-.82.47-1.67.29-2.56-.2-1-.41-1.16-1.43-1.07-.56.12-1.1.19-1.46-.41ZM93.18,27.21c.04.44-.14.98.5,1.15h0c.17.82.73,1.05,1.49.99h0c.31.48.78.43,1.15.2.66-.4.68-.03.67.46-1.05.76-2.26.88-3.5.86-.63-.12-1.26-.24-1.87-.36.51.51,1.33.17,1.83.7-.14.24-.27.48-.41.72-.44.83-.38.92.6.91.66,0,1.3-.07,1.83-.51,1.02-.42,1.65-1.21,2.04-2.21.14-.09.13-.18,0-.27-.04-.01-.06-.04-.04-.08.11-.36-.37-.46-.34-.79h0c.58.14,1.01-.36,1.57-.34.17,0,.17-.13.18-.29.07-1.2.48-2.36.5-3.57q.54.05.92-.2c-.64.02-1.1-.15-1.12-.86.28-.23.72-.32.73-.86-.33.65-.91.44-1.42.5-.04-.07-.07-.15-.11-.22l.02.02c-.65-.41-1.04-1.33-2.05-1.02-.79.24-1.5.66-2,1.3-.38.49-.64,1.07-.95,1.6-.6.66-.43,1.4-.2,2.14h0Z"/>
      <path class="cls-16" d="M101.13,33.51c-1.01-.04-1.13-.75-1.15-1.53.05-.94-.13-1.85-.24-2.77.13-.26.39-.22.57-.17.98.29,1.98.06,2.96.13.85.36,1.75.07,2.62.16.3.03.3-.24.23-.47.09-.45.2-.9-.1-1.32-.03-.87.98-.45,1.22-.98,1.22.6,2.53.25,3.79.33.77.04,1.53.11,2.3.12.4,0,.55.11.46.52-.1.46-.1.93-.24,1.38-.17.56.04.63.54.65,2.53.09,5.05.24,7.57.32.61.02.81.18.76.81-.08.94-.07,1.81.48,2.73.85,1.41.11,2.91-1.67,3.83.44.06.45.32.45.65,0,4.28,0,8.57.02,12.85,0,.41-.11.57-.53.63-1.6.22-3.2.47-4.8.72-.37.06-.48-.02-.41-.42.75-4.57,1.5-9.15,2.19-13.73.12-.8.66-.52,1.03-.63-1.06-1.4-2.68-1.44-4.22-1.66-.65-.09-1.31-.15-1.95-.3-.49-.11-.62.08-.68.51-.54,3.66-1.1,7.32-1.66,10.98-.27,1.76-.57,3.51-.83,5.27-.05.32-.14.48-.49.51-1.12.08-2.24.19-3.36.31-.42.04-.58-.06-.57-.52.12-5.19.09-10.38.44-15.55.18-2.65.24-2.66-2.36-3.03-.79-.11-1.56-.35-2.36-.31ZM103.88,30.04s0-.02,0-.03c-.41,0-.82,0-1.24,0-1.96,0-1.95-.01-1.75,1.94.05.47.22.65.69.71,1.54.22,3.08.51,4.62.73.52.07.69.28.65.8-.08,1.04-.1,2.08-.15,3.12-.09,1.81-.18,3.61-.27,5.42-.14,2.93.04,5.87-.17,8.8-.02.32.08.53.47.49.54-.06,1.09-.1,1.64-.15.4-.03.6-.18.67-.64.52-3.44,1.08-6.88,1.62-10.32.3-1.92.58-3.84.86-5.76.08-.58.21-.89.96-.73,1.39.29,2.82.39,4.22.64.56.1.72-.01.72-.59-.03-1.92,1.73-2.97,3.42-2.68.29.05.7.31.69-.3,0-.37.18-.82-.53-.84-2.22-.06-4.44-.21-6.66-.29-1.89-.07-1.91-.05-1.58-1.89.08-.48-.04-.64-.53-.65-1.12-.01-2.25-.09-3.37-.11-1.74-.02-1.75-.01-1.82,1.68-.02.5-.19.67-.69.65-.82-.03-1.65,0-2.47,0ZM120.75,44.22c0-1.95,0-3.68,0-5.41,0-.38.02-.78-.53-.68-.46.08-1.16-.38-1.31.53-.63,3.97-1.25,7.95-1.9,11.91-.09.53.11.57.51.5.89-.15,1.78-.34,2.67-.43.57-.05.7-.32.65-.8-.2-1.95-.02-3.9-.1-5.63ZM120.31,32.28c-1.29-.01-2.37.98-2.4,2.21-.03,1.26.99,2.28,2.3,2.29,1.35.01,2.41-.92,2.45-2.15.05-1.26-1.03-2.34-2.35-2.35Z"/>
      <path class="cls-8" d="M18.79,28.02c1.85,1.99,2.24,4.43,1.91,6.98-.67,5.17-6.01,7.61-10.13,6.79-.65-.13-1.3-.27-1.88-.58-.51-.27-.62-.16-.64.4-.12,3.13-.29,6.25-.4,9.38-.02.61-.19.79-.81.75-1.45-.08-2.91-.11-4.36-.1-.51,0-.69-.13-.73-.67-.23-3.92-.49-7.83-.75-11.75-.27-4.13-.53-8.27-.82-12.4-.04-.51.04-.71.61-.77,2.68-.28,5.34-.63,8.02-.92,1.59-.17,3.18-.11,4.76.16.15.03.32.14.45-.05,0,0-.02-.01-.02-.01-.08.2-.05.29.18.18.31.09.4.5.77.49.02.11.04.21.06.32-.07.07-.13.13-.2.2-2.1-.49-4.21-.68-6.37-.4-2.01.27-4.03.49-6.05.68-1.3.12-1.33.08-1.25,1.38.32,5.31.66,10.63,1,15.94.13,2.05.3,4.1.43,6.16.03.43.12.65.61.64.99-.02,1.98,0,2.97.04.41.01.58-.12.6-.56.03-1.07.12-2.14.17-3.2.11-2.3.22-4.61.3-6.91.02-.58.16-.69.65-.34.98.7,2.1,1.06,3.29,1.19,3.08.34,5.7-.66,7.52-3.14,1.88-2.57,1.88-7.38-1.17-9.9-.03-.12-.07-.23-.22-.26h-.01c.27-.34.6.11.89-.08.15.02.3.04.46.06.02.12-.03.28.16.31Z"/>
      <path class="cls-16" d="M80.65,40.92c.06,3.32.11,6.64.21,9.96.02.64-.14.8-.76.72-1.2-.15-2.4-.26-3.61-.32-.5-.03-.48-.34-.54-.65-.52-2.97-1.04-5.94-1.56-8.91-.41-2.32-.83-4.64-1.22-6.96-.09-.55-.3-.69-.85-.6-3.14.49-6.29.94-9.44,1.41-1.01.15-1,.17-1.03-.88-.05-1.92-.07-3.84-.16-5.76-.03-.64.14-.84.8-.87,2.85-.09,5.71-.27,8.56-.35.73-.02.9-.24.72-.9-.12-.45-.13-.93-.27-1.37-.19-.57.06-.65.54-.66,2.44-.03,4.89-.08,7.33-.15.48-.01.66.13.61.59,0,.08,0,.16,0,.25q.05,1.95,1.98,1.87c.82-.04,1.64-.08,2.47-.12.3,0,.52.18.76.32.05.2.09.39.14.59-1.4-.16-2.79.1-4.19.09-1.91-.01-1.91.02-1.98-1.9,0-.05,0-.11,0-.16.02-.46-.2-.63-.65-.62-1.81.03-3.63.05-5.44.06-.45,0-.58.19-.51.61.1.54.15,1.09.28,1.62.11.44-.02.61-.46.62-.24,0-.49.07-.73.09-2.77.13-5.54.26-8.31.36-.53.02-.72.16-.7.71.05,1.32.04,2.63.05,3.95.01,1.25.01,1.22,1.23,1.03,3.11-.48,6.22-.92,9.33-1.39.4-.06.57.07.64.5.84,4.85,1.7,9.7,2.57,14.54.13.74-.09,1.74.54,2.14.58.36,1.5.17,2.25.31.68.13.76-.13.74-.72-.12-3.34-.2-6.68-.3-10.03.1.11.2.21.31.32-.02.25.09.36.34.31-.05.25.13.32.31.38Z"/>
      <path class="cls-8" d="M46,33.67c.83.33.82.84.54,1.64-.68,1.95-1.23,3.95-1.83,5.93-.06.18-.14.36-.19.54-.19.7-.38,1.08-1.28.62-1.22-.62-2.7-.1-3.53.99-.72.93-.75,2.34-.07,3.32.71,1.02,2.21,1.54,3.45,1.06.66-.25.89-.13,1.06.51.21.82.51,1.62.78,2.42.09.28.18.5-.24.61-4.31,1.15-9.42-.75-11.42-5.13.29-.05.49-.35.82-.31.03.13.03.28.1.39,2.1,3.43,5.42,4.88,9.2,4.48.19-.02.48-.05.44-.27-.11-.53-.26-1.06-.48-1.56-.18-.41-.59-.16-.89-.15-1.54.05-2.82-.47-3.66-1.77-.85-1.32-.82-2.75.1-4.02.96-1.32,2.33-1.92,3.96-1.55.68.16.86-.09,1.03-.62.57-1.86,1.14-3.72,1.72-5.57.17-.54-.03-.79-.56-.96-1.13-.36-2.27-.43-3.45-.39-3.2.13-5.56,1.66-7.24,4.29-.52.8-.96,1.67-.9,2.68-.16-.04-.31-.11-.47-.12-.58-.03-.69-.27-.38-.75.05-.08.01-.21.02-.32.06-.08.16-.15.19-.24,1.18-3.13,3.42-5.12,6.61-6.08.17-.05.4-.02.49-.24.1,0,.2.01.3.02.42.34,2.46-.15,2.78-.67.37.57.87.61,1.45.38.63.32.95.11,1.08-.58.18-.95.41-1.9.63-2.84.06.14.12.28.19.42-.24,1.28-.35,2.6-1.21,3.73.32.03.58.05.85.08Z"/>
      <path class="cls-8" d="M45.48,43.61c-.2-4.3,3.62-8.5,8.7-8.79,3.91-.22,7.01,1.36,8.92,4.72,2.35,4.13.87,9.03-3.23,11.59-5,3.11-11.68,1-13.87-4.38-.41-1.01-.53-2.07-.52-3.14ZM63.21,43.66c.24-4.61-4.22-8.07-8.26-8.04-4.84.03-8.63,3.51-8.63,7.98,0,4.55,3.75,8.18,8.46,8.14,4.85-.05,8.66-3.94,8.42-8.07Z"/>
      <path class="cls-16" d="M97.64,35.35c.85-.1,1.53-.67,2.35-.82.71-.03,1.43-.02,2.13-.1.53-.07.66.07.61.6-.2,2.07-.37,4.15-.55,6.23-.31,3.64-.64,7.27-.91,10.91-.05.65-.24.82-.87.79-1.32-.06-2.64-.07-3.95-.02-.56.02-.72-.2-.74-.69-.03-.59-.07-1.19-.12-1.9-1.28.89-2.56,1.47-4.01,1.62-3.66.37-6.61-1.26-8.3-4.53-.95-1.85-1.06-3.83-1.18-5.83.29.1.58.21.88.31.04.35.12.7.12,1.06.02,1.89.57,3.58,1.62,5.16,2.21,3.31,6.91,4.1,10.07,1.69.5-.39.86-.95,1.49-1.25.11,1.05.25,2.02.31,3.01.03.44.21.56.61.54.74-.02,1.49-.06,2.22.01.78.08.97-.24,1.01-.97.14-2.32.34-4.64.55-6.96.24-2.67.61-5.33.6-8.02,0-.92-.13-1.08-1.04-.81-.95.28-1.89.25-2.84.26-.02-.09-.05-.18-.07-.27Z"/>
      <path class="cls-2" d="M18.79,28.02c-.2-.03-.15-.19-.16-.31.18-.42.39-.88.01-1.26-.11-.11-.55-.39-.7-.04-.18.41-.4.94.23,1.25-.28.18-.62-.26-.89.07-.99-.12-1.98-.24-2.47-1.31.07-.07.13-.13.2-.2.45.57.83.19,1.22-.09.17-.12.29-.25.11-.45-.14-.16-.26-.37-.52-.16-.25.21-.52.38-.87.38-.36,0-.46-.41-.77-.49-.06-.06-.12-.12-.18-.18,0,0,.02.01.02.01,0-.06,0-.12.01-.17.49.12.89,0,1.2-.41.13-.17.13-.34.02-.52-.07-.11-.21-.28-.31-.17-.28.3-.86.23-.94.76-.48.07-.47-.43-.73-.63-.25-.19-.25-.6-.62-.67,0-.1,0-.21,0-.31.35-.97.81-1.2,1.68-.84.54.75,1.09,1.5,1.6,2.27.26.4.47.42.84.12.78-.64,1.59-1.25,2.39-1.86.29-.22.34-.5.36-.85.14-2.56,1.17-4.68,3.24-6.25.38-.29.79-.48,1.23-.65.04.06.07.11.11.17-.6.47-.83,1.11-.87,1.84-.02.45.06.95-.11,1.33-.31.66.08.68.51.75-.18.34-.37.68-.55,1.02-.43.77-.92,1.51-1.28,2.31-.31.68-.91,1.19-1.06,1.95-.06.06-.13.12-.19.18-.5.44-1.12.8-1.27,1.54.14.43.68.1.85.46-.25.51-.39,1.04-.18,1.61v.04c-.38-.1-.74-.32-1.16-.22ZM20,22.02c.29-.18.61-.24.62-.62.01-.93.15-1.84.3-2.76-.57,1.03-1.07,2.08-.91,3.37ZM14.49,22.93c-.11-.31-.29-.36-.48-.3-.39.12-.78.28-.83.76-.02.16.15.25.28.18.36-.2.71-.43,1.04-.64Z"/>
      <path class="cls-8" d="M23.46,32.18c.49.1,1,.17,1.31.64-.6.26-1.28.16-1.9.42-.39.16-.52.28-.38.69.4,1.28.78,2.56,1.16,3.85.13.46.31.64.87.55,1.28-.2,2.57.55,3.1,1.68.08.29.06.62.26.88.05.5,0,.71-.61.46-.99-.4-2.02-.43-3.07-.13-1.92.55-3.31,2.4-3.23,4.37.07,1.85,1.58,3.59,3.49,3.96,1.54.3,2.94,0,4.11-1.12.35-.33.59-.42.66.18.02.13.09.26.1.4.05.7.57.4.93.43.4.04.59-.11.59-.56.01-.9.08-1.81.13-2.71.31,0,.63.02.94.03-.08,1.12-.18,2.24-.23,3.37-.02.41-.13.59-.56.61-.58.02-1.15.08-1.72.16-.4.06-.72.14-.82-.44-.1-.57-.41-.11-.58-.03-2.32,1.13-5.11.64-6.6-1.19-1.36-1.66-1.69-3.49-.78-5.45.91-1.94,2.57-2.83,4.64-3.03.46-.05.93,0,1.39,0-.35-.95-1.51-1.41-2.61-.91-.57.26-.75.21-.93-.41-.51-1.79-1.08-3.57-1.65-5.34-.14-.42-.07-.66.38-.79.55-.16,1.09-.37,1.63-.56Z"/>
      <path class="cls-1" d="M14.34,22.27c-.87-.36-1.33-.13-1.68.84-.39.31-.87.29-1.33.37,0,0-.02-.02-.02-.02.11-.39-.16-.55-.43-.71h0c0-.14-.02-.27-.2-.32-.04-.06-.08-.12-.12-.18.29-.46-.02-.47-.35-.5-.67-.05-1.33.29-2.01.04,0,0,.01-.01.01-.01.13-1.29.46-1.5,1.66-1.06.2.07.41.1.61.2.85.42,1.95-.35,1.94-1.41-.21.2-.44.33-.54.53-.28.56-.6.46-1.12.32-.37-.1-.56-.66-1.04-.4-.23.03-.37-.13-.51-.28-.13-.52-.31-1.04.03-1.56.21,0,.43,0,.64,0,.33.24.65.47.98.71.12.09.25.14.37.06.15-.1.08-.23,0-.34-.37-.48-.3-1.07-.42-1.61,0,0,.03-.02.03-.02.56-.11,1.23-.36,1.49.36.29.82.91,1.47,1.14,2.5.21-.89.26-1.65,1.02-2.05.38-.2.72-.22,1.03.09.32.31.34.76.05,1-1.03.87-.6,2.19-1.07,3.22l-.17.21Z"/>
      <path class="cls-1" d="M81.17,24.26c-.58.38-1.07.33-1.47-.27-.43-.65-.91-1.03-1.63-.34-.31.3-.58.06-.76-.16-.25-.31-.17-.66.07-.98.18-.24.47-.22.75-.32-.37-.37-.92-.58-.94-1.18,0-.29.13-.53.47-.56.62-.13,1.07.56,1.8.41-.35-.32-.58-.62-.95-.75-.27-.41-.24-.78.2-1.05.52-.33.94-.08,1.31.27.25.24.35.62.72.81.22-.43.35-.92.88-1.1.38-.13.7-.1.98.18.27.27.28.61.09.9-.33.53-.39,1.03-.12,1.62.18.4-.08.79-.29,1.15-.12.01-.25.02-.37.04-.94.05-.88.66-.74,1.32Z"/>
      <path class="cls-1" d="M49.63,19.34c.34-.39.77-.64,1.22-.86,1.18.43,1.41.88.69,1.44-.59.45-1.28.79-2.07.7-.19-.02-.24.04-.29.17-.34.85.38,1.94,1.3,1.96.44.01.88,0,1.31,0,0,0-.01,0-.01,0,.3.42.58.91.17,1.33-.42.44-.84.08-1.2-.24-.07-.06-.2-.05-.31-.08h0c-.47-.56-.8-.49-1.32.31h0c-.58-.1-1.06.6-1.68.2,0,0,.01.02.01.02-.07-.27-.31-.29-.52-.37-.08-.12-.16-.24-.25-.36.64-.52.66-.94.1-1.78-.44-.51-.11-1.01.02-1.51,0,0,0,.01,0,.01.05-.07.1-.13.15-.2,0,0-.01.03-.01.03.52-.66-.04-1.32.02-1.99,0,0-.01,0-.01,0,.25,0,.36-.11.32-.36,0,0,0,.01,0,.01.4,0,.8.02,1.2.02h0c-.06.38.46.65.2,1.07-.21.34-.24.79.07.94.29.14.67-.13.86-.47ZM48.61,20.28s-.03-.04-.04-.05c-.02.01-.03.03-.05.04.02.02.04.05.06.07l.02-.06Z"/>
      <path class="cls-8" d="M68.91,42.19c.02-.69.3-.97,1.04-.79,1.09.26,2.2.44,3.39.68-1.28,1.75-2.51,3.43-3.74,5.1-.73.99-1.49,1.97-2.2,2.98-.27.38-.5.44-.95.32-1.71-.47-1.76-.48-.87-1.97.74-1.24,1.08-2.39.42-3.82-.53-1.16-.78-2.45-1.18-3.74.92-.15,1.77.09,2.63.08.31,0,.31.24.37.45.14.52.29,1.04.44,1.58.38-.24.24-.74.64-.88.16.81-.54,1.31-.71,2-.65-.38-.52-1.11-.61-1.66-.17-1-.75-1.08-1.54-1.07-.42,0-.54.13-.42.53.23.75.45,1.51.67,2.27,0,.37-.11.77.31,1.01h0c.01.34-.18.77.33.96.18.77-.45,1.25-.66,1.89-.56.35-.71.95-.93,1.51-.04.11.12.15.23.14.14.02.31,0,.4.08.61.49.9.16,1.26-.35.34-.48.67-.97,1.03-1.44,1.3-1.68,2.51-3.41,3.77-5.12.29-.39.31-.63-.26-.68-.64-.05-1.28-.15-1.9-.34-.25-.07-.5-.05-.59.26-.13,0-.26.02-.38.02Z"/>
      <path class="cls-2" d="M32.86,16.84c-.25.6-.87.4-1.27.44-.74.07-1.49.17-2.24.23-.79.05-1.54-.06-2.13-.66-.86-1.56-1.51-2.11-3.12-1.62-.04-.06-.07-.11-.11-.17.56-.44,1.24-.5,1.91-.57,1.25-.24,2.5-.17,3.74.02,1.42.2,2.77.58,3.89,1.54-.07.04-.15.09-.22.13-.6-.43-1.22-.8-1.99-.83-.02-.01-.05-.02-.07-.04l.07.03c.37.63.92,1.1,1.53,1.49Z"/>
      <path class="cls-1" d="M111.03,26.88c-1.27-.08-2.57.27-3.79-.33-.08-.5-.15-.98.23-1.43.23-.27.15-.64.05-.95-.18-.57-.15-1.04.5-1.25.5-.17,1.06.25,1.25.91.04.15.06.32.09.52.38-.11.55-.46.82-.63.41-.26.86-.51,1.35-.1.43.37.37.74.03,1.13-.49-.06-.79.24-1.29.66h2.21s0,0,0,0c.09.4-.32.64-.33,1-.3.27-.61.35-1.04.22-.37-.12-.26.11-.08.27Z"/>
      <path class="cls-9" d="M101.28,22.99c-.38-.78-.93-1.32-1.84-1.4-.55-.99-1.24-1.15-1.8-.42-.44-.11-1.19.13-.82-.83.09-.24-.39-.3-.51-.53,0-.08.01-.16.02-.23.43-.6,1.8-1.27,2.39-1.16.23.05.48.09.53.39-.28.03-.46.05-.5.47-.04.4.21.35.34.53.4.52.7-.2,1.04-.01.4.82,1.15,1.15,2.09,1.03.46-.06,1.04-.33,1.38.29-.33.05-.59.42-.99.22-.19-.09-.24,0-.23.23,0,.29-.36.67.13.79.28.07.63.61,1.03-.13.21-.38-.06-.7.19-.96.16.04.29.24.49.13.21.16.43.32.64.48-.09.3.22.84-.46.79-.05,0-.1.01-.16.02-.3.06-.58.27-.43.53.19.32.38-.06.56-.16.05-.02.1-.03.15-.05.2.59-.15.78-.64.87-.22-.13-.42-.23-.65,0-.34.33-.75.3-1.17.2-.07-.12-.15-.24-.22-.36.59-.02.7-.23.36-.74-.36-.55-.63-.19-.94.01ZM97.17,19.6c-.07-.09-.14-.12-.24-.04.05.05.1.1.15.15.16.63.51.96.69.7.1-.14.6,0,.32-.45-.24-.37-.45-.66-.92-.36Z"/>
      <path class="cls-2" d="M46.35,29.85c-.06-.14-.12-.28-.19-.42.17-1.15-.3-2.1-1-2.96-.39-.48-.94-.51-1.5-.39-1.29.28-1.82,1.19-1.57,2.52.13.65.62,1.16.6,1.85-.23-.2-.43-.05-.63.06-.34-.15.08-.83-.54-.79-.13-.03-.31-.03-.39-.11-.43-.49-.87-.15-1.21.04-.36.19-.4.64-.34,1.04.08.45.38.71.82.8.37.08.74.22,1.13.14.39.11.55-.06.51-.44.29-.21.94.47.96-.4.51,0,.73.35.93.76-.36.19-.73.03-1.06.12-.61.15-1.45-.04-1.75.57-.23.47-.54.68-.92.92-.1,0-.2-.01-.3-.02-.35-.26-.78-.25-1.18-.34.71-.31.59-.86.38-1.41-.12-.3-.4-.53-.35-.89.36.04.36-.25.43-.47.38-1.13,1.17-1.43,2.14-.81.2.13.36.42.62.21.23-.19-.05-.39-.12-.58-.66-1.8.77-3.91,2.7-3.96.27,0,.55,0,.82.01.13.3.42.44.65.63.01.06.02.12.03.18-.08.26.13.28.28.35.05.13.1.26.15.39-.22.26-.09.52.01.78,0,.65.02,1.3.02,1.95-.1.21.04.48-.16.67Z"/>
      <path class="cls-2" d="M46.8,21.79c.56.84.53,1.26-.1,1.78-.51.11-1.03.23-1.54.34.05-.4-.24-.71-.29-1.09-.03-.27-.14-.43-.41-.34-.23.08-.44.19-.42.51.05.57.39.82.9.9-1.68.56-3.36,1.11-5.04,1.67.06-.66.11-1.32.17-1.99,1.98-.78,4.09-1.15,6.06-1.96.22.05.44.11.67.16ZM43.35,23.97c-.43-.14-.05-.93-.74-.87-.23.02-.64-.1-.56.35.06.38.14.86.63.91.21.02.54-.02.67-.39ZM41.5,24.47c-.31-.17,0-.81-.54-.81-.22,0-.76,0-.6.53.09.3,0,.8.49.78.21,0,.64.02.65-.5ZM46.68,22.74c-.05-.3-.21-.62-.58-.73-.15-.05-.31.17-.21.35.17.32.08.84.56.91.23.03.23-.25.23-.52Z"/>
      <path class="cls-9" d="M93.5,19.45c-.22.01-.43.02-.65.03-.23-.18-.51-.31-.75-.11-.48.41-1.04.42-1.62.43-.44,0-.78.2-1.07.5,0,0-.01-.04-.01-.04-.06-.32-.12-.63-.18-.95-.31.1-.57-.34-.92-.05-.22.18-.32.43-.47.64.31.11.35.66.82.51.01.42-.49.36-.61.65-.19-.27-.2-.64-.57-.82-.26-.13-.36-1.55-.17-1.57.5-.05,1.02-.41,1.49-.18.59.29,1.11.56,1.74.16.12.13.23.15.32-.03,0,0,.01-.01.01-.01.55.47,1.08.18,1.57-.09.37-.2-.28-.37-.07-.68.17-.26-.39-.24-.34-.54.32-.23.66-.35,1.06-.34.23,0,.42.07.58.24.37.43-.39.8-.15,1.03.32.3.7.45.29.93-.2-.02-.26.11-.29.27Z"/>
      <path class="cls-4" d="M40.08,23.59c-.06.66-.11,1.32-.17,1.99-.17.77-.33,1.54-.5,2.31-.21-.45-.21-1.62,0-1.94.17-.26.02-.49-.18-.51-.46-.04-.82-.13-1.05-.59-.1-.2-.34-.07-.51.02-.24.13-.49.25-.78.18,1.14-.85,1.36-1.85.84-3.19-.29-.74-.81-1.33-1.17-2.02.67.08.79.68,1.04,1.14.48.86.85,1.73.78,2.77-.03.38.42.78.49,1.24,0,.04.26.09.37.05.19-.07.27-.26.29-.46.1-1.21-.22-2.32-.71-3.44-.43-.97-1.2-1.6-1.82-2.39-.32-.41-.97-.48-1.22-1.01.14-.04.25-.11.3-.26.63.06.79.69,1.18.96.66.46.97,1.12,1.42,1.71.6.77.82,1.7,1.05,2.63.07.28.22.54.34.81Z"/>
      <path class="cls-4" d="M51.8,22.75c-.44,0-.88,0-1.31,0-.92-.02-1.64-1.12-1.3-1.96.05-.13.1-.19.29-.17.79.09,1.48-.24,2.07-.7.73-.56.5-1.01-.69-1.44.52-.36.93-.13,1.26.27.51.6-.04,1.03-.31,1.53.57.19,1.32.14,1.39.92.04.46-.27.81-.77.91.04-.1.07-.21.13-.29.48-.64.33-1.17-.43-1.13-.7.04-1.43-.03-2.14.32-.43.21-.38.4-.36.72.03.41.31.41.59.37.46-.07.84.08,1.21.33.12.11.24.22.37.32Z"/>
      <path class="cls-9" d="M81.17,24.26c-.14-.66-.19-1.27.75-1.32.01.16.02.31-.1.46-.15.19-.53.41-.2.65.29.21.44-.22.65-.35.2-.13.25-.35.24-.58h.07c.01.24.17.37.37.46,0,0,0,0,0,0,.04.17.18.25.32.32,0,0,0,0,0,0-.18.15-.34.34-.55.44-.29.14-.38.3-.18.55.22.28.48.21.68-.03.15-.18.24-.4.36-.61,0,0,0-.01,0-.01.06.16.2.24.36.29h.01c0,.11.05.16.16.15.55.24.9.68,1.21,1.17-.3.32-.61.63-1.07.74-.14-.04-.29-.06-.34-.23.08-.11.15-.21.23-.32.33-.13.7-.24.34-.7-.19-.19-.38-.62-.54.01h0c-.13.01-.28,0-.31.18h0c-.19.1-.15.3-.23.44-.76-.55-1.23-1.47-2.22-1.75Z"/>
      <path class="cls-1" d="M51.43,22.43c-.36-.25-.75-.4-1.21-.33-.27.04-.56.04-.59-.37-.02-.32-.06-.52.36-.72.71-.34,1.44-.28,2.14-.32.76-.04.91.49.43,1.13-.06.08-.09.19-.13.29-.28.28-.74-.01-1,.32Z"/>
      <path class="cls-4" d="M14.5,22.07c.47-1.03.05-2.35,1.07-3.22.29-.25.27-.69-.05-1-.32-.31-.65-.29-1.03-.09-.76.4-.82,1.16-1.02,2.05-.23-1.04-.85-1.68-1.14-2.5-.26-.72-.93-.47-1.49-.36.79-.67,1.64-.45,2.01.54.14.38.23.78.58,1.16.3-.65.69-1.16,1.45-1.25.5-.05.86.11,1.09.53.22.41.16.82-.17,1.12-.56.52-.88,1.05-.66,1.87.12.47-.26.85-.62,1.15Z"/>
      <path class="cls-2" d="M32.89,32.35c.6.16.99-.63,1.61-.36.13.46.51.38.79.28.3-.11-.03-.36,0-.55,0,0,.02-.07.02-.07.14-.02.29-.04.43-.06.13.04.27.09.27.25-.01.48.28.53.64.45.39-.09.25-.41.23-.66-.02-.21-.07-.42-.1-.63.16-.04.22-.14.2-.29,0,0,0,0,0,0,.19-.04.41-.02.52-.24.11.06.23.12.34.19-.18.68.24,1.32.13,1.99-1.22,0-2.44.01-3.67-.01-.42,0-.87.18-1.27-.11l-.14-.18Z"/>
      <path class="cls-14" d="M36.08,17.47c-.04.15-.16.22-.3.26-.34-.3-.64-.65-1.12-.74-.31-.06-.62-.14-.84.2-.14.21-.27.57-.59.41-.27-.13-.13-.48-.16-.74.08-.23.16-.47.25-.7.07-.04.15-.09.22-.13,1.13-.04,1.98.45,2.54,1.43Z"/>
      <path class="cls-14" d="M31.91,46.21c-.31,0-.63-.02-.94-.03-.62.04-1.14-.23-1.67-.52-.45-.24-.76-.69-1.26-.82h0c0-.16-.04-.3-.18-.41h0c.06-.03.12-.07.17-.11,1.05.85,2.1,1.63,3.57,1.6,1.33-.02,2.59-.34,3.83-.75-.31.5-.86.53-1.34.7-.33-.05-.52.26-.82.31-.46-.1-.92,0-1.38.03Z"/>
      <path class="cls-9" d="M37.97,32.65c.11-.67-.31-1.31-.13-1.99.31-.05.62-.1.93-.15-.04.36.24.59.35.89.22.54.33,1.09-.38,1.41-.29.11-.51-.14-.78-.15Z"/>
      <path class="cls-4" d="M9.72,19.99c.48-.26.67.29,1.04.4.52.14.84.24,1.12-.32.1-.2.34-.34.54-.53.02,1.06-1.08,1.83-1.94,1.41-.2-.1-.41-.13-.61-.2-1.19-.44-1.53-.24-1.66,1.06-.38-.83.07-1.48,1.02-1.51.18,0,.64.3.49-.3Z"/>
      <path class="cls-14" d="M47.16,25.74c.69,2.52-.22,4.9-.68,7.31-.04.24-.13.49-.48.43.56-1.38.61-2.87.96-4.29,0-.11.01-.23.02-.34.12-.07.15-.18.12-.31.08-.45.11-.89-.02-1.33-.03-.05-.06-.1-.09-.14,0-.23-.02-.45-.03-.68,0-.18.03-.36-.13-.49.05-.07.11-.14.16-.21.06.02.11.03.17.05Z"/>
      <path class="cls-15" d="M46.97,29.19c-.36,1.42-.41,2.91-.96,4.29,0,.06,0,.13-.01.19-.27-.02-.53-.05-.85-.08.86-1.13.96-2.45,1.21-3.73.2-.19.06-.46.16-.67.15,0,.31,0,.46,0Z"/>
      <path class="cls-4" d="M103.4,29.01c.04-.13.05-.31.14-.37,1.36-.99.74-2.14.28-3.27-.11-.27-.08-.53-.08-.8.77.47.86,1.3.91,2.05.04.52.4,1.2-.29,1.61-.03.09-.05.18-.08.27-.03.05-.06.11-.1.16-.35-.08-.51.27-.79.34Z"/>
      <path class="cls-4" d="M85.32,28.11c-.05-.2-.09-.39-.14-.59.29-.51.27-1.07.27-1.63.1-.06.2-.12.31-.18,0,.33-.02.63.45.7.31.04.37.36.38.64,0,.29-.2.35-.44.34-.28-.01-.3.12-.25.35.05.24.06.49-.18.66-.19-.02-.28-.17-.4-.29Z"/>
      <path class="cls-7" d="M103.74,21.26c-.25.26.02.58-.19.96-.41.74-.75.2-1.03.13-.49-.12-.13-.5-.13-.79,0-.23.05-.32.23-.23.41.2.66-.17.99-.22.04.05.08.1.13.14Z"/>
      <path class="cls-3" d="M29.65,14.5c-1.25-.19-2.5-.26-3.74-.02-.09-.22-.34-.11-.47-.24,3.05-.05,6.09-.04,9.14.1-1.39,0-2.77,0-4.16.02-.26,0-.55-.12-.77.14Z"/>
      <path class="cls-7" d="M92.03,17.32c-.05.29.51.28.34.54-.2.3.45.47.07.68-.49.27-1.02.55-1.57.09.43-.4.43-1.17,1.16-1.3Z"/>
      <path class="cls-4" d="M20.1,28.7c.16-.01.36-.04.45.11.48.86,1.25,1.42,1.99,2.01.13.1.14.34.21.51-.18-.05-.44-.03-.53-.15-.67-.86-1.82-1.32-2.12-2.49Z"/>
      <path class="cls-2" d="M60.39,14.55c2.89-.03,5.77-.12,8.65.1-2.89.05-5.77.05-8.65-.1Z"/>
      <path class="cls-7" d="M85.45,25.89c0,.56.02,1.12-.27,1.63-.24-.14-.46-.33-.76-.32-.05-.19-.11-.38-.16-.57.45-.11.76-.42,1.07-.74.04,0,.09,0,.13,0Z"/>
      <path class="cls-9" d="M104.28,28.5c.03-.09.06-.18.08-.27.39-.15.79-.3,1.18-.44.22.31.05.81.49,1-.12.26-.35.3-.61.29-.37-.22-.62-.68-1.15-.58Z"/>
      <path class="cls-4" d="M50.45,23.76c.1.02.24.02.31.08.36.32.79.68,1.2.24.4-.42.12-.91-.17-1.33.57.07.66.5.66.94,0,.4-.22.74-.62.87-.42.13-.83.16-1.07-.35-.07-.16-.3-.23-.31-.45Z"/>
      <path class="cls-6" d="M44.95,23.9c-.51-.09-.86-.34-.9-.9-.03-.33.19-.44.42-.51.27-.09.38.07.41.34.05.37.34.68.29,1.09-.07,0-.14,0-.21,0Z"/>
      <path class="cls-7" d="M100.14,19.79c-.34-.19-.64.53-1.04.01-.13-.17-.38-.13-.34-.53.04-.42.21-.44.5-.47.38-.17.36.09.36.33-.21.06-.51-.11-.62.22-.01.04.07.17.1.16.24-.03.5-.04.52-.38.49-.03.51.31.53.66Z"/>
      <path class="cls-4" d="M49.63,19.34c-.19.34-.57.62-.86.47-.31-.15-.28-.6-.07-.94.25-.41-.27-.69-.2-1.07.51.18.66.61.64,1.08-.02.42.14.52.5.46Z"/>
      <path class="cls-4" d="M10.81,16.96c.12.54.05,1.13.42,1.61.09.11.16.25,0,.34-.12.08-.26.02-.37-.06-.32-.24-.65-.47-.98-.71.41-.06.88-.04.69-.71-.04-.15.04-.37.23-.47Z"/>
      <path class="cls-6" d="M14.01,24.73c.07-.54.66-.46.94-.76.1-.11.23.05.31.17.11.18.11.35-.02.52-.31.41-.71.53-1.2.41,0-.11-.02-.23-.03-.34Z"/>
      <path class="cls-2" d="M28.32,1.54c-2.06.21-4.12.12-6.19.11,2.06-.13,4.12-.16,6.19-.11Z"/>
      <path class="cls-14" d="M82.98,41.89c-.29-.1-.58-.21-.88-.31-.47-.17-.93-.35-1.31-.67.03-.04.07-.09.1-.13.94.52,1.94.8,3,.91.19.02.45-.07.57.2-.49.19-.98-.14-1.48,0Z"/>
      <path class="cls-4" d="M37.5,30.47c-.11.21-.33.2-.52.24-.09-.18-.19-.37-.33-.64.99.27,1.24-.62,1.8-1.03.04.72-.52,1.03-.95,1.44Z"/>
      <path class="cls-13" d="M88.19,21.41c.35.61.9.53,1.46.41-.31.29-.59.61-1.06.63-.33-.24-.67-.48-1-.72.2-.11.41-.21.61-.32Z"/>
      <path class="cls-4" d="M93.5,19.45c.03-.16.09-.29.29-.27.82.28,1.7.24,2.54.39,0,.08-.01.15-.02.23-.95-.03-1.88-.17-2.81-.35Z"/>
      <path class="cls-4" d="M112.48,25.4h-2.21c.5-.42.8-.72,1.29-.66-.11.29.09.29.28.31.26.03.53.06.64.35Z"/>
      <path class="cls-4" d="M8.2,21.81c.67.25,1.34-.09,2.01-.04.33.02.65.04.35.5-.4-.71-.93-.22-1.33-.07-.52.18-.8.05-1.02-.38Z"/>
      <path class="cls-7" d="M83.59,24.28c-.12.2-.21.43-.36.61-.2.24-.45.31-.68.03-.2-.25-.11-.42.18-.55.21-.1.37-.29.55-.44.24,0,.34.12.31.36Z"/>
      <path class="cls-4" d="M102.08,24.08c.42.1.83.12,1.17-.2.23-.22.44-.13.65,0-.27.18-.15.45-.16.69-.37-.07-.72-.2-1.11-.16-.25.03-.5,0-.55-.33Z"/>
      <path class="cls-4" d="M87.58,21.73c.33.24.67.48,1,.72-.06.06-.12.12-.18.18-.53.21-.9.11-1-.52-.02-.16.03-.3.18-.39Z"/>
      <path class="cls-7" d="M82.51,23.12c0,.23-.04.44-.24.58-.21.14-.36.57-.65.35-.33-.25.05-.46.2-.65.12-.15.11-.3.1-.46.12-.01.25-.02.37-.04.07.07.15.15.22.22Z"/>
      <path class="cls-7" d="M106.04,28.79c-.45-.2-.28-.69-.49-1,.05-.28.27-.24.47-.25.3.42.18.87.1,1.32,0-.04-.03-.06-.07-.06Z"/>
      <path class="cls-4" d="M46.8,21.79c-.22-.05-.45-.11-.67-.16.15-.49.09-1.09.69-1.35-.14.5-.46,1-.02,1.51Z"/>
      <path class="cls-4" d="M78.51,20.12c.37.13.6.42.95.75-.74.15-1.18-.54-1.8-.41.23-.24.69.09.85-.33Z"/>
      <path class="cls-3" d="M20.19,14.21c1.17-.06,2.34-.05,3.51.02-1.17.12-2.34.08-3.51-.02Z"/>
      <path class="cls-4" d="M11.33,23.49c.46-.08.94-.06,1.33-.37,0,.1,0,.21,0,.31-.42.54-.87.48-1.33.06Z"/>
      <path class="cls-4" d="M47.46,24.27c.62.4,1.1-.3,1.68-.2-.69.76-1.05.8-1.68.2Z"/>
      <path class="cls-7" d="M104.54,23.01c-.05.02-.11.02-.15.05-.18.1-.38.48-.56.16-.15-.26.13-.47.43-.53.05-.01.1-.02.16-.02.04.12.09.23.13.35Z"/>
      <path class="cls-4" d="M9.24,18.15c-.34.51-.16,1.03-.03,1.56-.69-.84-.68-1.22.03-1.56Z"/>
      <path class="cls-4" d="M49.14,24.07c.51-.8.84-.87,1.32-.3-.54-.34-.88.2-1.32.3Z"/>
      <path class="cls-15" d="M46.02,25.54c-.23-.19-.52-.33-.65-.63.35.05.65-.3,1.03-.11-.07.28-.5.37-.38.74Z"/>
      <path class="cls-4" d="M46.98,18.13c-.06.66.49,1.33-.02,1.99.25-.66-.4-1.33.02-1.99Z"/>
      <path class="cls-4" d="M48.5,17.81c-.4,0-.8-.02-1.2-.02.41-.38.81-.46,1.2.02Z"/>
      <path class="cls-13" d="M104.87,21.87c-.21-.16-.43-.32-.64-.48.47-.08.52-.03.64.48Z"/>
      <path class="cls-4" d="M112.14,26.4c.01-.37.43-.6.33-1,.44.52.07.77-.33,1Z"/>
      <path class="cls-4" d="M85.8,25.03c.17.09.52-.08.52.22,0,.22-.31.11-.48.17-.1-.12-.1-.25-.04-.39Z"/>
      <path class="cls-4" d="M10.87,22.76c.27.16.55.31.43.71-.36-.1-.43-.39-.43-.71Z"/>
      <path class="cls-4" d="M20.44,28.28c-.17.1-.34.19-.33.43-.2-.1-.16-.29-.16-.46,0,0,0-.04,0-.04.16.02.33.05.49.07Z"/>
      <path class="cls-4" d="M22.75,31.33c.27-.01.5.02.5.37-.17-.12-.33-.24-.5-.37Z"/>
      <path class="cls-14" d="M80.65,40.92c-.18-.06-.36-.13-.31-.38l.02-.03c.18.09.36.18.53.27-.03.04-.07.09-.1.13-.05,0-.1.01-.14,0Z"/>
      <path class="cls-7" d="M84.14,26.08c-.08.11-.15.21-.23.32-.21-.01-.3-.13-.31-.33,0,0,.03-.03.03-.03.17.01.34.02.51.04Z"/>
      <path class="cls-4" d="M47.29,17.77c.04.25-.07.37-.32.36,0-.21.08-.36.32-.36Z"/>
      <path class="cls-15" d="M46.49,27.24c-.1-.26-.24-.52-.01-.78,0,.26,0,.52.01.78Z"/>
      <path class="cls-15" d="M47.16,25.74c-.06-.02-.11-.03-.17-.05-.06-.07-.13-.15-.19-.22.04-.02.08-.06.12-.06.2.01.23.16.24.32Z"/>
      <path class="cls-7" d="M82.95,23.59c-.2-.09-.36-.22-.37-.47.27.04.37.21.37.47Z"/>
      <path class="cls-15" d="M46.33,26.07c-.16-.07-.36-.09-.28-.35.21.02.29.14.28.35Z"/>
      <path class="cls-4" d="M46.95,23.92c.21.08.45.1.52.37-.27.01-.43-.12-.52-.37Z"/>
      <path class="cls-7" d="M83.95,24.56c-.16-.05-.29-.12-.36-.29.22-.03.36.05.36.29Z"/>
      <path class="cls-15" d="M46.84,25.89c.17.13.14.31.13.49-.16-.13-.14-.31-.13-.49Z"/>
      <path class="cls-7" d="M83.28,23.91c-.14-.07-.28-.15-.32-.32.22,0,.34.09.32.32Z"/>
      <path class="cls-3" d="M24.61,14.24c.14,0,.28,0,.42,0-.14.11-.28.12-.42,0Z"/>
      <path class="cls-7" d="M83.39,26.01c.08-.14.05-.35.23-.43,0,.15,0,.31,0,.46,0,0-.03.03-.03.03-.07-.02-.14-.04-.22-.06Z"/>
      <path class="cls-4" d="M10.68,22.44c.17.04.2.18.2.33-.07-.11-.13-.22-.2-.33Z"/>
      <path class="cls-15" d="M47.11,28.53c.03.13,0,.24-.12.31.04-.1.08-.21.12-.31Z"/>
      <path class="cls-15" d="M46.8,25.06s-.01.04-.02.06c-.02-.02-.04-.05-.07-.07.02-.01.03-.03.05-.04.01.02.03.04.04.05Z"/>
      <path class="cls-7" d="M90.85,18.63c-.09.18-.2.15-.32.03.11,0,.21-.02.32-.03Z"/>
      <path class="cls-7" d="M84.11,24.71c-.1,0-.15-.04-.16-.14.05.05.1.09.16.14Z"/>
      <path class="cls-15" d="M47,27.06s.06.1.09.14c-.03-.05-.06-.1-.09-.14Z"/>
      <path class="cls-4" d="M46.97,20.09c-.05.07-.1.13-.15.2.05-.07.1-.13.15-.2Z"/>
      <path class="cls-4" d="M38.43,29.05c.06-.06.12-.12.19-.18-.06.06-.12.12-.19.18Z"/>
      <path class="cls-5" d="M83.35,13.83c-8,0-15.99.08-23.99-.02-12.42-.16-24.84-.26-37.26-.32-5.3-.03-10.6-.15-15.91-.22-.48,0-.79-.09-1-.61-1.22-3.08-2.48-6.15-3.75-9.22-.2-.48-.15-.66.44-.69,3.16-.14,6.32-.07,9.48-.12,8.54-.14,17.09-.22,25.63-.41,6.48-.14,12.97-.17,19.45-.31,7.2-.16,14.4-.18,21.59-.34,6.9-.15,13.79-.16,20.69-.32,7.14-.17,14.28-.24,21.43-.32.52,0,1.04-.03,1.56-.09.6-.06.79.17.68.76-.48,2.59-.95,5.18-1.42,7.77-.25,1.4-.52,2.8-.73,4.21-.08.57-.35.7-.87.7-7.28-.05-14.57-.09-21.85-.12-4.73-.02-9.45,0-14.18,0,0-.11,0-.21,0-.32ZM96.34,4.33h0c-.35-.01-.36.23-.36.48,0,.37,0,.74,0,1.1-.21.02-.42.04-.62.06-.59-.1-.66.35-.73.74-.06.34.23.18.39.2h0c-.02.29.14.36.39.34.19,0,.38.02.56.03,0,1.03,0,2.06.01,3.1,0,.42.04.85.62.86.88.42,1.78.47,2.7.12.37-.14.58-.45.55-.83-.02-.3-.18-.63-.56-.59-.88.08-.9-.47-.87-1.1.02-.33.02-.66,0-.98-.02-.39.07-.63.53-.6.45.02.88-.14.89-.64,0-.56-.44-.7-.93-.66-.42.03-.48-.2-.5-.56-.06-1.11-.18-1.23-1.27-1.41-.29.07-.74-.24-.81.35ZM80.17,6.31h0c-.28,0-.67-.13-.65.33.01.33-.33.86.37.94.43.5.91.28,1.31,0,.41-.29.84-.37,1.31-.33.24.02.59-.12.62.32.02.36-.27.34-.5.4-.91.26-1.9.16-2.76.64-.36-.04-.67.03-.69.47-.02.54-.03,1.08.01,1.61.02.25.13.54.5.51h0c0,.5.38.33.65.35.39-.1.65.46,1.07.23.48-.27,1.07-.2,1.54-.53.28-.19.59-.28.91.12.29.36.83.24,1.23.12.42-.13.49-.54.48-.95,0-.88,0-1.75,0-2.63-.02-1.26-.34-1.67-1.59-2.03.07-.09.35-.24-.03-.25-.84-.02-1.67,0-2.51,0-.15,0-.17.09-.07.2-.17.05-.34.09-.51.14-.27.02-.65-.16-.67.35ZM102.26,3.67h0c-.46.01-.67.3-.67.72,0,.39-.03.84.55.89.57.28,1.14.42,1.57-.2.41-.58.16-1.06-.33-1.47-.21-.45-.77-.42-1.13.06ZM37.28,11.21c.01.38.28.35.54.33.91.21,1.8.25,2.54-.46.19-.18.28-.08.36.08.3.55.8.54,1.29.38.53-.17.63-.68.64-1.14.02-1.65.04-3.29,0-4.94-.04-1.27-.41-1.56-1.7-1.47-.76.04-.7.59-.71,1.11,0,.37.17.88-.51.86-1.1-.28-2.13-.23-2.96.67-.14.07-.14.19-.14.32h0c-.24-.02-.28.15-.37.33-.53.99-.18,1.95-.02,2.94.11.67.44.92,1.04.99h0ZM106.39,11.21c0,.37.25.36.51.33,1.26.02,1.58-.28,1.58-1.51,0-1.48,0-2.96,0-4.45,0-1.4-.24-1.64-1.62-1.61-.83-.06-.95.56-.96,1.13-.04,1.77-.02,3.55-.01,5.32,0,.35.01.74.51.79h0ZM45.39,11.54c1.27,0,1.56-.28,1.56-1.53,0-.82,0-1.65,0-2.47,0-1.5-.22-1.7-1.75-1.59-.6-.04-.67.38-.67.81-.01,1.32,0,2.63,0,3.95,0,.57.27.87.86.83ZM101.93,6.28c-.3.01-.34.21-.34.45,0,1.33,0,2.66,0,3.99,0,.27.04.5.39.48.46.39.97.48,1.51.2.52-.27.56-.75.55-1.26-.01-.95-.02-1.91,0-2.86.01-.56-.06-1.05-.62-1.3-.56-.26-1.06-.09-1.5.31ZM31.24,5.96c-.12,0-.21.06-.24.19,0,.04-.01.08-.04.11-.23.05-.3.21-.3.42,0,1.36-.02,2.73.01,4.09.01.49.31.8.85.77,1.32.02,1.58-.24,1.58-1.56,0-.22,0-.44,0-.66.01-.71.29-1.21,1.03-1.39.21-.05.41-.15.61-.24.45-.2.69-.55.63-1.04-.04-.37-.23-.68-.63-.78-.46-.12-.87-.02-1.19.35-.17.2-.31.43-.48.67-.5-1.09-.65-1.17-1.85-.94ZM62.24,3.99c-.77-.06-.85.56-.86,1.03-.05,1.91-.02,3.82-.02,5.73,0,.35.08.59.51.44,1.4.77,2.26.27,2.27-1.31,0-1.37,0-2.73,0-4.1,0-1.71-.21-1.9-1.9-1.8ZM74.52,7.27c0,1.12,0,2.23.02,3.35,0,.57.23.94.86.92,1.31.01,1.6-.27,1.6-1.57,0-.6.02-1.21,0-1.81-.02-.52-.05-.98.7-.99.27,0,.58-.27.54-.63-.03-.32-.26-.52-.6-.59-.22-.05-.64.16-.6-.32.03-.37.37-.33.63-.37.32-.05.57-.21.62-.56.05-.32-.15-.52-.4-.66-1.26-.71-2.93.04-3.17,1.44-.04.22-.03.43-.33.47-.41.04-.67.29-.63.71.04.43.37.57.76.61ZM49.93,11.56c1.06-.08,1.35-.37,1.37-1.41.01-.63-.03-1.27.07-1.88.13-.8.73-.95,1.41-.4,0,.9-.02,1.79-.01,2.69,0,.28-.1.64.38.66.73.62,1.81.44,1.95-.4.2-1.28.32-2.61-.12-3.88-.36-1.03-2.15-1.58-2.95-.92-.52.43-.92.68-1.36-.03-.04-.06-.14-.07-.22-.11-.25-.48-.69-.3-1-.2-.45.15-.63.58-.63,1.05,0,1.28-.02,2.57,0,3.85.02.67.38,1.06,1.1.97ZM70.65,11.53c1.76.03,1.89-.09,1.89-1.9,0-.55,0-1.1,0-1.64-.04-1.77-1.44-2.68-3.06-2.01-.58.24-1.21.2-1.72-.11-.42-.43-.98-.39-1.23.01-.31.48-.74,1.11-.13,1.72,0,.11,0,.21,0,.32-.08.07-.22.13-.22.21-.04.85-.15,1.7-.06,2.54.05.46.28,1.06,1.02.88,1.23,0,1.49-.26,1.5-1.47,0-.41,0-.82,0-1.22-.02-.67.23-1.14.95-1.27.58.65.31,1.44.34,2.17.03.7.16,1.32.73,1.78ZM18.22,4.33c-.55-.01-.41.4-.41.69-.02,1.52-.02,3.03-.02,4.55-.39-.03-.85.26-1.02-.43-.26-1.03-.49-1.11-1.59-.89-.29-.02-.61.04-.63.37-.04.65-.15,1.31.07,1.94.14.4.4.72.91.65.97.37,1.87.82,3.02.38,1.21-.46,1.98-1.14,2.02-2.47.04-1.34.02-2.69,0-4.03-.01-.77-.42-1.11-1.2-1.16-.45-.03-.79.18-1.14.38ZM91.48,8.1c-.14.94-.32,1.87.1,2.79.21.75.8.73,1.38.64.62-.1.84-.56.85-1.13.01-.74,0-1.48,0-2.22.01-.9-.19-1.73-1.07-2.14-.87-.4-1.79-.36-2.55.29-.34.29-.45.22-.67-.09-.28-.41-.71-.44-1.18-.34-.5.11-.69.51-.71.9-.04,1.23-.06,2.47.02,3.7.04.65.46,1.12,1.22,1.05.74-.07,1.02-.53,1.01-1.23,0-.68.01-1.37.06-2.05.03-.39.22-.67.67-.69.41-.02.79,0,.85.53ZM28.74,9.14s-.01,0-.02,0c0-.47-.02-.93,0-1.4.03-.81-.29-1.44-1.05-1.68-1.45-.46-2.93-.46-4.3.28-.45.24-.57.76-.35,1.22.21.43.61.4,1,.21.15-.07.33-.1.44-.21.41-.39.91-.31,1.4-.31.23,0,.46.05.49.33.03.3-.19.34-.42.38-.65.1-1.3.2-1.94.32-.68.13-1.24.43-1.42,1.18-.17.67-.07,1.34.49,1.71.58.39,1.19.89,2.07.49.7-.32,1.38-.86,2.32-.18.68.49,1.35-.13,1.31-1.02-.02-.44,0-.88,0-1.32ZM45.38,5.38c.58-.15.91-.69,1.36-1.07.27-.24.38-.57.06-.84-.29-.24-.63-.19-.87.1-.32.4-.59.83-.9,1.25-.3.41-.03.5.35.57Z"/>
      <path class="cls-15" d="M26.14,19.81c1.99-1.16,3.61.2,4.56,1.66.89,1.35.97,2.75.26,4.2-.29.17-.49.41-.65.7,0,0,0,0,0,0-.53.31-1.2.26-1.69.67-.71-.02-1.29-.41-1.94-.62-.03-.15-.13-.26-.27-.28-.83-.09-1-.76-1.19-1.38-.58-1.8-.23-3.45.9-4.94ZM30.2,23.23c.04-.67-.15-1.26-.6-1.74-.39-.42-.78-.44-1.15.07-.43.6-.36,1.27-.19,1.9.16.58.37,1.37,1.15,1.28.8-.09.75-.88.78-1.51Z"/>
      <path class="cls-5" d="M27.61,40.01c-.53-1.13-1.82-1.88-3.1-1.68-.56.09-.74-.1-.87-.55-.37-1.29-.75-2.57-1.16-3.85-.13-.41,0-.53.38-.69.62-.25,1.3-.15,1.9-.42.46-.03.91.02,1.35.18,0,.09-.2.22.06.26.4.06.79.13,1.19.19.08.53.44.86.8,1.2.13.21.12.5.37.65.21.52.34,1.05.3,1.62-.02.25-.06.54.17.76-.19.26-.18.55-.1.84.12.42-.05.86-.38.95-.38.11-.56.47-.93.54Z"/>
      <path class="cls-15" d="M36.56,19.83c.35.69.88,1.28,1.17,2.02.53,1.35.3,2.35-.84,3.19-2.36-.38-3.92-3.26-2.91-5.4.39-.85.58-.88,1.43-.54.45.18.7.6,1.15.73ZM36.77,22.3c-.05-.43-.17-.87-.45-1.26-.2-.29-.44-.5-.81-.45-.38.06-.49.34-.59.69-.16.55-.03,1.03.24,1.49.22.37.46.82,1.01.64.5-.16.56-.62.61-1.11Z"/>
      <path class="cls-11" d="M24.11,15.22c1.61-.49,2.26.06,3.12,1.62-1.84.05-2.31.41-2.53,1.96-.43-.12-.65.39-1.06.34-.43-.07-.82-.09-.51-.75.18-.38.09-.88.11-1.33.03-.74.26-1.38.87-1.84Z"/>
      <path class="cls-14" d="M28.22,30.07c-.83.21-2.23-.45-2.83-1.36-.23-.35-.42-.74-.72-1.28,1.54.58,2.88,1.31,4.43,1.09.34-.05.43.23.55.45.14.24.28.48.42.71-.69-.22-1.28.03-1.85.4Z"/>
      <path class="cls-14" d="M24.7,18.81c.22-1.56.69-1.92,2.53-1.96.59.6,1.33.71,2.13.66-.2.17-.86-.02-.44.67.14.23-.29.32-.55.19-1.37-.66-2.2-.49-3.14.67-.42.51-.42.01-.53-.22Z"/>
      <path class="cls-4" d="M26.14,19.81c-1.13,1.5-1.48,3.14-.9,4.94.2.62.37,1.28,1.19,1.38.14.02.24.13.27.28-.27,0-.55-.03-.82-.03-.49,0-.99.05-.71-.73.15-.41-.41-.6-.43-1.01-.08-1.26-.05-2.48.25-3.73.17-.73.65-.87,1.16-1.1Z"/>
      <path class="cls-6" d="M20.44,28.28c-.16-.02-.33-.05-.49-.07-.21-.57-.07-1.09.18-1.61.55-.2.87.34,1.34.42.13.02.2.24.07.33-.4.28-.47.95-1.11.94Z"/>
      <path class="cls-2" d="M28.17,34.65c-.36-.34-.72-.67-.8-1.2h0c.53.45,1,.32,1.46-.13.17-.08.42.06.52-.2.06,0,.12,0,.18,0,.12,0,.24,0,.35-.01.21.16.45.3.48.6-.2.21-.47.22-.72.28-.52.14-1.09.19-1.46.66Z"/>
      <path class="cls-13" d="M28.22,30.07c.57-.37,1.16-.62,1.85-.4.29.05.43.3.4.52-.03.26-.36.21-.55.24-.6.09-1.25.26-1.7-.37Z"/>
      <path class="cls-4" d="M29.34,33.13c-.1.26-.35.11-.52.2-.47.19-1.01-.43-1.46.12h0c-.39-.05-.79-.12-1.19-.18-.27-.04-.07-.17-.06-.26.64-.02,1.2-.36,1.93-.13.36.11.89-.1,1.29.26Z"/>
      <path class="cls-16" d="M20.74,24.42c.15-.76.75-1.27,1.06-1.95.36-.8.85-1.54,1.28-2.31-.05,1.12-.89,1.88-1.32,2.83-.24.52-.67.95-1.02,1.43Z"/>
      <path class="cls-4" d="M29.88,33.11c-.12,0-.24,0-.35.01.01-.19.01-.47.25-.43,1.08.19,2.04-.68,3.12-.34.05.06.09.12.14.18-1.03.32-2.1.4-3.16.58Z"/>
      <path class="cls-11" d="M33.32,16.17c-.08.23-.17.47-.25.7-.07-.01-.14-.02-.22-.04-.61-.39-1.15-.86-1.53-1.49h0c.77.03,1.39.4,1.99.83Z"/>
      <path class="cls-4" d="M35.75,31.6c-.14.02-.29.04-.43.06.07-.82.42-1.02,1.66-.94.02.16-.04.26-.2.29-.33.23-.81.18-1.03.59Z"/>
      <path class="cls-4" d="M30.7,28.33c1.02-.34,2.11-.35,3.12-.76-.82.67-1.84.7-2.81.93-.1-.06-.21-.11-.31-.17Z"/>
      <path class="cls-6" d="M35.3,31.72c-.04.19.29.44,0,.55-.28.1-.66.18-.79-.28.18-.33.5-.26.8-.27Z"/>
      <path class="cls-4" d="M24.38,26.07c.02.27-.16.32-.36.32-.22,0-.46-.03-.52-.28-.05-.23.12-.34.33-.37.27-.03.48.04.56.33Z"/>
      <path class="cls-13" d="M30.7,28.33c.1.06.21.11.31.17-.43.22-1.06-.14-1.36.46-.13-.22-.21-.5-.55-.45.53-.06,1.07-.12,1.6-.18Z"/>
      <path class="cls-16" d="M19.28,26.13c.15-.74.76-1.09,1.27-1.54-.23.67-.83,1.03-1.27,1.54Z"/>
      <path class="cls-4" d="M28.64,27.03c.49-.41,1.16-.36,1.69-.67-.35.75-1.04.67-1.69.67Z"/>
      <path class="cls-4" d="M30.32,26.37c.16-.28.37-.53.65-.7,0,.44-.2.68-.65.7Z"/>
      <path class="cls-12" d="M85.32,28.11c.11.12.21.28.4.29.01.1.03.2.04.31-.26.38-.06,1.53.35,1.98-.04.38-.3.44-.63.49-1.75.27-3.5.57-5.25.84-.62.09-.95.26-.89,1.02.17,2.18.25,4.36.36,6.54,0,.11,0,.22-.01.33.1,3.34.18,6.68.3,10.03.02.59-.07.85-.74.72-.75-.14-1.66.06-2.25-.31-.63-.4-.41-1.4-.54-2.14-.88-4.84-1.73-9.69-2.57-14.54-.08-.44-.24-.56-.64-.5-3.11.46-6.22.91-9.33,1.39-1.22.19-1.21.22-1.23-1.03-.01-1.32,0-2.64-.05-3.95-.02-.55.18-.69.7-.71,2.77-.1,5.54-.23,8.31-.36.25-.01.49-.08.73-.09.44,0,.57-.18.46-.62-.13-.53-.18-1.08-.28-1.62-.08-.42.05-.61.51-.61,1.81,0,3.63-.02,5.44-.06.46,0,.67.16.65.62,0,.05,0,.11,0,.16.07,1.92.07,1.89,1.98,1.9,1.4,0,2.79-.25,4.19-.09Z"/>
      <path class="cls-15" d="M93.39,25.08c.31-.54.57-1.12.95-1.6.5-.65,1.21-1.06,2-1.3,1.01-.31,1.4.61,2.05,1.02,0,0-.02-.02-.02-.02.04.07.07.15.11.22.12.17.24.35.35.53.06.22.12.44.18.66-.01.3-.04.59-.03.89.03.8-.16,1.56-.37,2.32-.21.75-1,.81-1.49,1.23,0,0,0,0,0,0-.67.06-1.26.51-1.97.34h0c-.5-.33-.99-.66-1.49-.99h0c-.17-.38-.33-.77-.5-1.15h0c-.05-.72,0-1.43.2-2.13ZM96.16,26.09c0-.33,0-.65-.17-.96-.31-.57-.8-.69-1.28-.31-.69.55-.93,1.97-.46,2.71.36.58.86.63,1.35.13.43-.44.56-.98.57-1.58Z"/>
      <path class="cls-15" d="M88.4,22.63c.06-.06.12-.12.18-.18.47-.02.75-.34,1.06-.63,1.02-.09,1.22.07,1.43,1.07.18.88.09,1.73-.29,2.56-.09.19-.19.32-.41.34-.21-.46.19-.97-.14-1.45-.21-.32-.41-.51-.78-.36-.46.18-.8,1.11-.67,1.72.14.67.6.77,1.17.67-.33.78-.96,1.15-1.73,1.05-.77-.1-.83-.73-.93-1.28-.2-1.04.3-1.91.78-2.78.13-.23.4-.4.32-.73Z"/>
      <path class="cls-9" d="M95.57,35.35c.63-.06,1.26-.12,1.89.04-.36.65.07,1.41-.3,2.05-.13.03-.28.03-.38.1-.15.11-.5-.06-.48.24.02.32.23.55.61.49.08-.01.16-.03.24-.05-.07.8-.14,1.61-.21,2.41-.62-.02-1.06.47-.91,1.01.03.12,0,.27,0,.4-.61-.33-1.23,0-1.85-.02.3-1.45.48-2.91.5-4.39.2-.12.12-.34.19-.51.05-.03.09-.06.14-.1.1.03.22.11.31.09.29-.08.6.48.77.09.12-.28.47-.82-.21-1.07-.13-.05-.18-.32-.27-.49.12-.03.24-.05.35-.08-.13-.07-.26-.13-.39-.2ZM94.87,39.3c-.09.64-.22,1.2.46,1.5.52-.66.12-1.06-.46-1.5Z"/>
      <path class="cls-14" d="M93.48,30.88c1.24.02,2.45-.1,3.5-.86.16-.08.33-.15.49-.23-.02.04,0,.07.04.08,0,.09,0,.18,0,.27-.39,1-1.02,1.78-2.04,2.21-.77-.41-1.61-.38-2.44-.4.14-.24.27-.48.41-.72.11-.1.07-.23.04-.35Z"/>
      <path class="cls-13" d="M96.94,40.62c.07-.8.14-1.61.21-2.41,0-.26,0-.52,0-.78.38-.64-.06-1.41.3-2.05.06-.01.12-.02.18-.04.02.09.05.18.07.27-.36,1.64-.21,3.31-.32,4.97-.03.53-.2,1.09.47,1.4.15.07.12.28-.05.4-.04-.11-.17-.2-.22-.12-.13.2.1.21.2.29.06.16.11.32.17.49-.1.02-.2.03-.3.05-.03-.72-.72-.73-1.13-1.05.69-.31.34-.92.4-1.41Z"/>
      <path class="cls-14" d="M89.96,26.36c-.57.1-1.03,0-1.17-.67-.13-.61.21-1.55.67-1.72.37-.15.57.05.78.36.33.48-.08.99.14,1.45-.14.19-.28.38-.42.58Z"/>
      <path class="cls-4" d="M87.57,32.32c.61,0,.8.62,1.29.85.99.48,2.04.9,3.05,1.22.75.24,1.64.52,2.51.45.3-.02.42.21.57.4,0,0-.05.06-.04.06-.14,0-.28,0-.42,0-.77-.2-1.56-.29-2.36-.35-.92-.44-1.82-.92-2.89-.87,0-.05-.02-.1-.04-.15-.55-.55-1.35-.81-1.78-1.5.04-.04.08-.08.11-.12Z"/>
      <path class="cls-4" d="M89.42,20.31c.29-.3.63-.5,1.07-.5.57,0,1.13-.02,1.62-.43.24-.2.52-.07.75.11-.1.18-.27.24-.46.31-.66.24-.69.38-.33.93.08.13.09.31.14.47.04.15.13.25.29.21.12-.03.17-.12.13-.25-.07-.2-.1-.42.18-.42.18,0,.19.23.22.4.04.21.11.42.17.63h0c-.57-.08-1.23.22-1.69-.37-.16-.21-.43-.31-.24-.74.2-.45-.45-.73-1.14-.48-.23.08-.4.45-.7.12Z"/>
      <path class="cls-13" d="M93.03,31.95c.83.02,1.67-.02,2.44.4-.53.45-1.18.51-1.83.51-.98.01-1.04-.08-.6-.91Z"/>
      <path class="cls-4" d="M97.12,29.01c.49-.42,1.27-.48,1.49-1.23.22-.76.41-1.52.37-2.32-.01-.3.02-.59.03-.89.05.04.1.08.16.13,0,.11.04.17.14.19,0-.05.01-.08.06-.08-.02,1.21-.43,2.37-.5,3.57,0,.16-.01.29-.18.29-.56-.02-.99.48-1.57.35Z"/>
      <path class="cls-4" d="M86.11,30.68c-.41-.45-.61-1.59-.35-1.98.27.76.68,1.46.86,2.26.13.56.82.77.95,1.35-.04.04-.08.08-.11.12-.38-.08-.41-.59-.81-.64-.12-.4,0-.91-.53-1.12Z"/>
      <path class="cls-7" d="M88.66,20.42c-.47.15-.51-.4-.82-.51.15-.21.25-.46.47-.64.35-.29.61.15.92.05.06.32.12.63.18.95-.21.02-.42.04-.63.06,0,0,0,0,0,0-.03.04-.07.06-.11.09Z"/>
      <path class="cls-7" d="M97.65,21.17c.56-.73,1.25-.56,1.8.42-.65.09-1.35.35-1.8-.42Z"/>
      <path class="cls-4" d="M93.18,21.77q.37-.04.79-1.06c.03.56,0,1.13.66,1.17.47.03.26-.41.25-.88.34.5.35.85.17,1.13-.17.26-.52.17-.75.03-.36-.21-.93.24-1.13-.39h0Z"/>
      <path class="cls-13" d="M106.04,28.79s.06.02.07.06c.07.23.07.5-.23.47-.87-.09-1.77.2-2.62-.16.05-.05.09-.1.14-.16.28-.07.44-.42.79-.34.13.99.77.47,1.25.42.25,0,.48-.03.61-.29Z"/>
      <path class="cls-4" d="M97.47,29.79c-.16.08-.33.15-.49.23,0-.49,0-.86-.67-.46-.38.23-.84.28-1.15-.21.71.17,1.3-.28,1.97-.34-.03.32.46.43.34.79Z"/>
      <path class="cls-13" d="M95.57,35.35c.13.07.26.13.39.2-.12.03-.24.05-.35.08-.53.32-.34.95-.59,1.39-.05.03-.09.06-.14.1-.11-.6-.05-1.2.08-1.8,0,0,.05-.06.05-.06.19.03.38.06.58.09Z"/>
      <path class="cls-7" d="M101.28,22.99c.31-.2.58-.56.94-.01.34.52.23.72-.36.74-.35-.12-.37-.5-.58-.73Z"/>
      <path class="cls-12" d="M99.73,29.21c.11.92.3,1.84.24,2.77-.28-.23-.31-.54-.33-.87-.03-.53.09-1.07-.16-1.59-.09-.17.04-.3.25-.31Z"/>
      <path class="cls-16" d="M99.17,24.7c-.05-.04-.1-.09-.16-.13-.06-.22-.12-.44-.18-.66.11-.07.17-.21.33-.17.02.71.48.88,1.12.86q-.38.25-.92.2s-.07.03-.06.08c.07-.15-.06-.15-.14-.19Z"/>
      <path class="cls-13" d="M93.48,30.88c.03.12.07.25-.04.35-.5-.54-1.32-.2-1.83-.71.62.12,1.25.24,1.87.36Z"/>
      <path class="cls-14" d="M99.17,23.75c-.16-.04-.23.1-.33.17-.12-.18-.24-.35-.35-.53.5-.06,1.09.15,1.42-.5,0,.54-.44.63-.73.86Z"/>
      <path class="cls-4" d="M93.68,28.36c.5.33.99.66,1.49.99-.76.06-1.32-.17-1.49-.99Z"/>
      <path class="cls-4" d="M93.39,25.08c-.2.7-.25,1.41-.2,2.14-.23-.74-.39-1.47.2-2.14Z"/>
      <path class="cls-4" d="M93.18,27.21c.17.38.33.77.5,1.15-.64-.18-.46-.71-.5-1.15Z"/>
      <path class="cls-4" d="M97.51,30.14c0-.09,0-.18,0-.27.13.09.14.18,0,.27Z"/>
      <path class="cls-14" d="M98.37,23.17s.02.02.02.02c0,0-.02-.02-.02-.02Z"/>
      <path class="cls-9" d="M88.77,20.34s0,0,0,0,0,0,0,0Z"/>
      <path class="cls-12" d="M103.88,30.04c.82,0,1.65-.02,2.47,0,.49.02.67-.15.69-.65.07-1.69.09-1.71,1.82-1.68,1.12.02,2.25.09,3.37.11.48,0,.61.17.53.65-.32,1.84-.31,1.82,1.58,1.89,2.22.08,4.44.23,6.66.29.71.02.53.47.53.84.01.61-.4.35-.69.3-1.69-.29-3.45.76-3.42,2.68,0,.58-.16.69-.72.59-1.4-.24-2.83-.34-4.22-.64-.75-.16-.88.15-.96.73-.28,1.92-.56,3.84-.86,5.76-.54,3.44-1.1,6.88-1.62,10.32-.07.46-.28.61-.67.64-.55.05-1.09.09-1.64.15-.39.04-.49-.17-.47-.49.21-2.93.03-5.87.17-8.8.09-1.81.18-3.61.27-5.42.05-1.04.07-2.08.15-3.12.04-.52-.13-.73-.65-.8-1.54-.22-3.08-.51-4.62-.73-.47-.07-.64-.24-.69-.71-.2-1.95-.22-1.95,1.75-1.94.41,0,.82,0,1.24,0,0,.01,0,.02,0,.03Z"/>
      <path class="cls-12" d="M120.75,44.22c.08,1.73-.1,3.68.1,5.63.05.48-.08.75-.65.8-.9.09-1.78.28-2.67.43-.4.07-.6.03-.51-.5.65-3.97,1.28-7.94,1.9-11.91.14-.91.84-.45,1.31-.53.55-.1.53.3.53.68,0,1.73,0,3.46,0,5.41Z"/>
      <path class="cls-1" d="M120.31,32.28c1.32.01,2.4,1.09,2.35,2.35-.05,1.23-1.11,2.16-2.45,2.15-1.31-.01-2.33-1.03-2.3-2.29.03-1.23,1.11-2.22,2.4-2.21Z"/>
      <path class="cls-5" d="M14.81,26.42c.48,1.07,1.48,1.19,2.47,1.31,0,0,.01,0,.01,0,0,.14.06.25.22.26,3.05,2.51,3.06,7.33,1.17,9.9-1.82,2.48-4.44,3.48-7.52,3.14-1.19-.13-2.31-.49-3.29-1.19-.49-.35-.63-.24-.65.34-.08,2.3-.19,4.61-.3,6.91-.05,1.07-.14,2.14-.17,3.2-.01.44-.18.57-.6.56-.99-.03-1.98-.05-2.97-.04-.49,0-.58-.22-.61-.64-.13-2.05-.3-4.1-.43-6.16-.34-5.31-.68-10.62-1-15.94-.08-1.29-.05-1.25,1.25-1.38,2.02-.19,4.04-.41,6.05-.68,2.16-.29,4.27-.09,6.37.4ZM11.25,31.99c-1.95,0-3.35,1.3-3.37,3.14-.02,1.89,1.32,3.21,3.26,3.21,1.9,0,3.36-1.39,3.37-3.19,0-1.81-1.39-3.17-3.26-3.17Z"/>
      <path class="cls-6" d="M18.16,27.66c-.63-.31-.41-.84-.23-1.25.15-.34.59-.07.7.04.38.38.17.84-.01,1.26-.15-.02-.3-.04-.46-.06Z"/>
      <path class="cls-6" d="M14.95,25.9c.34,0,.62-.17.87-.38.26-.21.38,0,.52.16.19.21.06.33-.11.45-.39.28-.76.67-1.22.09-.02-.11-.04-.21-.06-.32Z"/>
      <path class="cls-2" d="M17.51,27.99c-.16-.01-.21-.12-.22-.26.14.03.19.14.22.26Z"/>
      <path class="cls-10" d="M14,25.23c.06.06.12.12.18.18-.23.12-.26.02-.18-.18Z"/>
      <path class="cls-14" d="M79.69,39.91c0-.11,0-.22.01-.33.34-.52.21-1.26.76-1.68,0,.06.02.13.03.19-.15.42-.4.8-.44,1.26-.15.28-.12.57-.05.86h-.01c-.1-.09-.2-.2-.31-.31Z"/>
      <path class="cls-14" d="M80.34,40.54c-.25.04-.36-.06-.34-.31h.01c.12.09.23.19.35.29l-.02.03Z"/>
      <path class="cls-5" d="M34.1,45.88c.48-.18,1.03-.21,1.34-.7.31-.33.64-.66.46-1.18,0-.16.08-.35-.13-.46-.24-1.34-.87-2.34-2.3-2.65-.06-1.02.38-1.88.9-2.68,1.69-2.63,4.05-4.16,7.24-4.29,1.18-.05,2.32.02,3.45.39.52.17.73.42.56.96-.58,1.85-1.15,3.71-1.72,5.57-.16.53-.35.77-1.03.62-1.63-.37-3,.22-3.96,1.55-.92,1.27-.95,2.7-.1,4.02.84,1.3,2.12,1.82,3.66,1.77.3-.01.71-.27.89.15.22.5.37,1.03.48,1.56.04.21-.25.25-.44.27-3.78.4-7.1-1.05-9.2-4.48-.07-.11-.07-.26-.1-.39Z"/>
      <path class="cls-10" d="M29.88,33.11c1.05-.18,2.13-.26,3.16-.58.4.29.85.1,1.27.11,1.22.03,2.44.01,3.67.01.27,0,.49.26.78.15.4.09.83.08,1.18.34-.09.22-.32.19-.49.24-3.19.96-5.42,2.95-6.61,6.08-.03.09-.13.16-.19.24-.11-.26-.22-.52-.33-.79.14-1.38-.49-2.57-.97-3.8-.07-.29-.27-.49-.47-.69-.17-.24-.33-.48-.5-.72-.03-.3-.27-.44-.48-.6Z"/>
      <path class="cls-11" d="M40.22,33.15c.38-.24.68-.45.92-.92.31-.61,1.14-.41,1.75-.57.33-.08.7.08,1.06-.12-.2-.42-.42-.75-.93-.76-.11-.11-.21-.22-.32-.33.02-.69-.48-1.2-.6-1.85-.26-1.32.28-2.24,1.57-2.52.56-.12,1.11-.1,1.5.39.7.86,1.16,1.8,1,2.96-.21.95-.45,1.89-.63,2.84-.13.69-.45.9-1.08.58-.34-.63-.57-.69-1.45-.37-.32.52-2.36,1.02-2.78.67Z"/>
      <path class="cls-2" d="M32.3,38.91c.11.26.22.52.33.79,0,.11.03.24-.02.32-.31.48-.2.72.38.75.16,0,.31.08.47.12,1.43.3,2.06,1.31,2.3,2.65-.43.4-.76.94-1.42,1.01-.24-.21-.29-.41-.24-.76.26-1.93-1.48-3.28-3.26-2.57-.22.09-.44.25-.69.1-.04-.03-.07-.15-.04-.21.14-.27.42-.19.65-.24.19-.03.37-.08.55-.15.52-.18.98-1.13.7-1.5-.36-.49-.94-.62-1.47-.54-.53.08-1.25.14-1.39.83-.11.56-.18,1.25.36,1.65.45.33.33.5,0,.71-.77.48-1.06,1.23-1.17,2.08-.1,0-.21-.02-.31-.03-.18-.25-.07-.51-.01-.77.11-.47.24-.94.32-1.41.08-.47-.16-.85-.49-.85-.2-.26-.18-.58-.26-.88.37-.07.54-.43.93-.54.33-.09.5-.53.38-.95-.09-.29-.1-.58.1-.84.07-.04.14-.07.21-.11.61,0,1.23,0,1.84,0,.4-.03.61.11.59.55-.02.44.19.72.65.79Z"/>
      <path class="cls-1" d="M43.01,32.48c.88-.32,1.11-.26,1.45.37-.58.24-1.09.2-1.45-.37Z"/>
      <path class="cls-5" d="M63.21,43.66c.23,4.14-3.57,8.03-8.42,8.07-4.71.04-8.46-3.58-8.46-8.14,0-4.47,3.79-7.94,8.63-7.98,4.04-.03,8.51,3.43,8.26,8.04ZM55.01,42.5c-2.09,0-3.56,1.39-3.57,3.35,0,1.99,1.44,3.4,3.51,3.42,1.97.02,3.59-1.46,3.59-3.28,0-2.03-1.48-3.49-3.53-3.49Z"/>
      <path class="cls-12" d="M97.81,42.37c.18-.11.21-.33.05-.4-.67-.31-.5-.87-.47-1.4.1-1.66-.04-3.33.32-4.97.95,0,1.89.03,2.84-.26.91-.27,1.03-.1,1.04.81.02,2.69-.35,5.35-.6,8.02-.21,2.32-.41,4.63-.55,6.96-.04.72-.24,1.04-1.01.97-.73-.07-1.48-.03-2.22-.01-.4.01-.58-.1-.61-.54-.07-.98-.2-1.96-.31-3.01-.63.3-.99.87-1.49,1.25-3.16,2.42-7.86,1.62-10.07-1.69-1.05-1.58-1.61-3.28-1.62-5.16,0-.35-.08-.71-.12-1.06.49-.14.98.19,1.48,0,.67.04,1.34.04,1.97.31,1.31.45,1.84.01,1.7-1.41-.29-.57.28-.99.26-1.52.11-.45.21-.9.32-1.35.29-.51.5-1.09,1.1-1.34.13.3.04.59-.02.88-.29,1.59-.49,3.19-.4,4.81.08,1.51.45,2.92,1.81,3.84.54.4,1.07.8,1.8.7.07.28.34.19.52.26.76.16,1.52.11,2.29.05.94-.09,1.63-.62,2.23-1.29.53-.63.53-1.24,0-1.97-.03-.28-.06-.56-.09-.84-.06-.16-.11-.32-.17-.49,0-.06.01-.11.02-.17Z"/>
      <path class="cls-11" d="M20,22.02c-.15-1.29.34-2.34.91-3.37-.15.92-.28,1.83-.3,2.76,0,.38-.33.44-.62.62Z"/>
      <path class="cls-6" d="M14.49,22.93c-.33.21-.67.44-1.04.64-.13.07-.3-.03-.28-.18.05-.48.45-.64.83-.76.19-.06.38,0,.48.3Z"/>
      <path class="cls-5" d="M27.87,40.89c.33,0,.57.38.49.85-.08.47-.21.94-.32,1.41-.06.26-.16.52.01.77,0,.13,0,.27,0,.4-.06.04-.12.08-.17.11-.34.02-.44-.29-.64-.46-1.04-.83-2.61-.73-3.28.23-.09.06-.19.12-.29.18-.85.89-.8,2.24.12,3.13.95.93,2.59.91,3.57.02.85-.77.79-1.73.69-2.71.51.14.82.58,1.26.82.53.29,1.04.56,1.67.52-.05.9-.12,1.81-.13,2.71,0,.44-.19.59-.59.56-.36-.03-.88.27-.93-.43-.01-.13-.08-.26-.1-.4-.08-.6-.31-.52-.66-.18-1.16,1.12-2.57,1.42-4.11,1.12-1.91-.37-3.42-2.12-3.49-3.96-.07-1.97,1.31-3.82,3.23-4.37,1.05-.3,2.08-.26,3.07.13.61.24.66.03.61-.46Z"/>
      <path class="cls-4" d="M48.61,20.28l-.02.06s-.04-.05-.06-.07c.02-.01.03-.03.05-.04.01.02.03.04.04.05Z"/>
      <path class="cls-1" d="M66.29,48.11c.21-.63.84-1.12.66-1.89-.02-.36-.17-.66-.33-.97h0c-.02-.35-.1-.69-.31-1-.22-.76-.44-1.51-.67-2.27-.12-.4,0-.52.42-.53.79-.01,1.37.07,1.54,1.07.09.55-.04,1.28.61,1.66.67-.51.82-1.3,1.1-2.03.09-.32.35-.34.59-.26.62.19,1.26.29,1.9.34.57.05.55.29.26.68-1.26,1.71-2.47,3.45-3.77,5.12-.36.47-.69.96-1.03,1.44-.36.51-.65.85-1.26.35-.09-.08-.26-.05-.4-.08.03-.63.53-1.07.7-1.65Z"/>
      <path class="cls-14" d="M69.3,42.17c-.28.72-.43,1.51-1.1,2.03.17-.69.87-1.2.71-2,0,0,0,0,0,0,.13,0,.26-.02.38-.02Z"/>
      <path class="cls-14" d="M66.29,48.11c-.17.58-.67,1.01-.7,1.65-.11,0-.27-.03-.23-.14.22-.55.37-1.16.93-1.51Z"/>
      <path class="cls-14" d="M66.61,45.25c.16.31.31.62.33.97-.51-.19-.32-.61-.33-.97Z"/>
      <path class="cls-14" d="M66.3,44.26c.21.3.29.65.31,1.01-.42-.24-.31-.64-.31-1.01Z"/>
      <path class="cls-11" d="M31.33,15.34l-.07-.03s.05.02.07.04h0Z"/>
      <path class="cls-7" d="M97.17,19.6c.48-.3.69,0,.92.36.28.44-.22.31-.32.45-.18.26-.54-.07-.69-.7.03-.04.06-.07.09-.11Z"/>
      <path class="cls-7" d="M97.08,19.7s-.1-.1-.15-.15c.1-.08.17-.05.24.04-.03.04-.06.07-.09.11Z"/>
      <path class="cls-11" d="M41.55,31.63c-.39.09-.76-.05-1.13-.13-.44-.1-.75-.35-.82-.8-.07-.4-.02-.84.34-1.04.35-.19.79-.53,1.21-.04.07.09.26.08.39.11,0,.4,0,.8.01,1.2,0,.11,0,.21,0,.32,0,.13,0,.26,0,.39Z"/>
      <path class="cls-12" d="M41.55,31.24c0-.11,0-.21,0-.32.45.22.49-.08.52-.41.2-.11.4-.26.63-.06.11.11.21.22.32.33-.02.87-.67.19-.96.4-.17.02-.34.04-.51.05Z"/>
      <path class="cls-16" d="M42.07,30.52c-.03.32-.07.62-.52.41,0-.4,0-.8-.01-1.2.62-.04.2.64.54.79Z"/>
      <path class="cls-16" d="M41.55,31.24c.17-.02.34-.04.51-.05.04.39-.12.55-.51.44,0-.13,0-.26,0-.39Z"/>
      <path class="cls-6" d="M43.35,23.97c-.12.37-.46.42-.67.39-.5-.05-.57-.53-.63-.91-.08-.45.33-.33.56-.35.68-.06.3.73.74.87Z"/>
      <path class="cls-6" d="M41.5,24.47c0,.52-.43.49-.65.5-.5.02-.4-.48-.49-.78-.17-.54.37-.53.6-.53.55,0,.23.64.54.81Z"/>
      <path class="cls-6" d="M46.68,22.74c0,.27,0,.55-.23.52-.49-.07-.4-.59-.56-.91-.09-.18.06-.39.21-.35.37.11.53.43.58.73Z"/>
      <path class="cls-10" d="M83.63,26.04c0-.15,0-.31,0-.46,0,0,0-.01,0-.01.14,0,.25-.04.31-.18h0c.18,0,.36,0,.54-.01.36.46,0,.58-.34.7-.17-.01-.34-.02-.51-.04Z"/>
      <path class="cls-7" d="M84.48,25.37c-.18,0-.36,0-.54.01.17-.64.36-.21.54-.01Z"/>
      <path class="cls-7" d="M83.94,25.39c-.06.14-.17.18-.31.18.03-.19.18-.17.31-.18Z"/>
      <path class="cls-12" d="M35.75,31.6c.22-.41.71-.36,1.03-.59.03.21.08.42.1.63.03.25.16.57-.23.66-.35.08-.65.03-.64-.45,0-.16-.14-.21-.27-.25Z"/>
      <path class="cls-8" d="M28.04,44.84c.1.99.16,1.94-.69,2.71-.98.88-2.62.91-3.57-.02-.92-.9-.97-2.24-.12-3.13.11.27-.28.52-.02.79-.28.39-.27.78-.07,1.22.43.95,1.03,1.29,2.21,1.25.82-.03,1.43-.42,1.67-1.18.24-.74.12-1.44-.53-2.01-.78-.67-1.59-.73-2.47-.26-.17,0-.34,0-.51,0,.67-.96,2.24-1.07,3.28-.23.2.16.3.48.64.46,0,0,0,0,0,0-.03.18-.03.35.18.42h0Z"/>
      <path class="cls-15" d="M28.03,44.32c0-.13,0-.27,0-.4.1,0,.21.02.31.03.93.61,1.84,1.08,3.05,1.13,1.03.04,1.98.07,2.91-.37.59.06,1.06-.16,1.28-.71.15-.37.2-.05.29,0,.19.53-.14.85-.46,1.18-1.25.41-2.5.73-3.83.75-1.47.03-2.52-.76-3.57-1.6Z"/>
      <path class="cls-5" d="M28.04,44.85c-.21-.07-.22-.24-.18-.42.14.11.19.25.18.42Z"/>
      <path class="cls-7" d="M105.43,29.08c-.48.05-1.12.58-1.25-.42.03-.05.06-.11.1-.16.53-.1.78.36,1.15.58Z"/>
      <path class="cls-10" d="M99.61,19.14c-.01.34-.28.35-.52.38-.03,0-.12-.12-.1-.16.11-.33.41-.16.62-.22h0Z"/>
      <path class="cls-7" d="M86.44,42.21c-.63-.28-1.31-.27-1.98-.31-.11-.27-.38-.18-.57-.2-1.06-.11-2.06-.39-3-.91-.18-.09-.36-.18-.53-.27-.12-.1-.23-.2-.35-.3-.07-.29-.1-.58.05-.86.14.08.28.16.42.23h0c.17.52.69.58,1.09.8.16.02.34,0,.48.06,1.76.83,3.62,1.1,5.55.9.2.02.38.08.28.34-.07.2-.17.38-.43.41-.34.03-.67.08-1.01.12Z"/>
      <path class="cls-15" d="M36.76,6.63c.83-.9,1.86-.95,2.96-.67.15.19.32.35.65.34.07-.8-.17-1.69.57-2.31,1.29-.08,1.66.2,1.7,1.47.05,1.64.03,3.29,0,4.94,0,.46-.11.97-.64,1.14-.49.15-.99.17-1.29-.38-.09-.16-.18-.26-.36-.08-.74.71-1.63.67-2.54.46-.13-.19-.32-.29-.54-.33h0c-1.21-1.26-1.2-2.72-.64-4.25,0,0,0,0,0,0,.15-.07.15-.19.14-.32ZM40.29,8.75c-.09-1.03-.31-1.29-.85-1.27-.67.03-.94.55-.86,1.56.05.61.37,1.05.97.96.87-.14.64-.94.73-1.25Z"/>
      <path class="cls-15" d="M80.84,5.97c.17-.05.34-.09.51-.14.87-.04,1.74-.08,2.61.05,1.25.36,1.57.77,1.59,2.03.01.88,0,1.75,0,2.63,0,.41-.06.82-.48.95-.41.12-.94.24-1.23-.12-.33-.41-.64-.31-.91-.12-.48.33-1.06.26-1.54.53-.42.24-.67-.33-1.07-.23-.18-.19-.39-.31-.65-.36,0,0,0,0,0,0-.44-.9-.65-1.78.18-2.59.86-.47,1.85-.37,2.76-.64.23-.07.52-.04.5-.4-.03-.44-.37-.3-.62-.32-.47-.04-.9.04-1.31.33-.4.28-.87.5-1.31,0-.18-.49.03-.88.29-1.27,0,0,0,0,0,0,.26-.05.49-.15.67-.35ZM82.79,9.19c-.45.15-1.11-.09-1.22.58-.07.43.34.58.73.57.57,0,.91-.31.95-.87.03-.33-.27-.25-.46-.28Z"/>
      <path class="cls-15" d="M28.74,9.14c0,.44-.02.88,0,1.32.04.89-.63,1.51-1.31,1.02-.94-.67-1.62-.13-2.32.18-.88.4-1.49-.1-2.07-.49-.55-.37-.65-1.04-.49-1.71.19-.75.74-1.05,1.42-1.18.64-.13,1.29-.22,1.94-.32.23-.04.45-.08.42-.38-.03-.28-.26-.33-.49-.33-.49,0-.99-.08-1.4.31-.11.11-.3.14-.44.21-.39.19-.79.22-1-.21-.22-.46-.1-.98.35-1.22,1.38-.74,2.85-.75,4.3-.28.76.24,1.08.88,1.05,1.68-.02.47,0,.93,0,1.4,0,0,.01,0,.02,0ZM26.01,9.2c-.45.13-1.12-.12-1.24.62-.07.47.38.51.68.51.51,0,.99-.16,1.08-.77.05-.39-.26-.33-.51-.35Z"/>
      <path class="cls-15" d="M91.48,8.1c-.06-.53-.43-.55-.85-.53-.45.02-.65.3-.67.69-.05.68-.06,1.37-.06,2.05,0,.71-.27,1.16-1.01,1.23-.76.07-1.18-.4-1.22-1.05-.08-1.23-.07-2.47-.02-3.7.01-.39.2-.79.71-.9.47-.1.9-.08,1.18.34.22.32.33.38.67.09.76-.65,1.68-.7,2.55-.29.88.41,1.08,1.24,1.07,2.14-.01.74,0,1.48,0,2.22-.01.57-.24,1.04-.85,1.13-.58.09-1.17.11-1.38-.64-.03-.93-.06-1.86-.1-2.79Z"/>
      <path class="cls-15" d="M15.17,8.26c1.1-.22,1.33-.14,1.59.89.18.69.64.4,1.02.43.42-.5.26-1.12.3-1.68.09-1.19-.12-2.38.13-3.57.35-.2.69-.41,1.14-.38.78.05,1.18.38,1.2,1.16.02,1.34.03,2.69,0,4.03-.04,1.33-.8,2.01-2.02,2.47-1.15.43-2.05,0-3.02-.38-1.06-1.16-1.16-1.99-.35-2.96Z"/>
      <path class="cls-15" d="M67.76,5.87c.51.31,1.14.35,1.72.11,1.62-.67,3.02.24,3.06,2.01.01.55,0,1.1,0,1.64,0,1.81-.13,1.93-1.89,1.9-.49-.95-.35-1.97-.37-2.98-.01-.48,0-.98-.7-.96-.72.13-.96.59-.95,1.27,0,.41,0,.82,0,1.22,0,1.21-.27,1.46-1.5,1.47-.55-.33-.73-.81-.7-1.43.03-.73-.02-1.46-.03-2.19,0-.11,0-.21,0-.32q.15-1.63,1.36-1.74Z"/>
      <path class="cls-15" d="M52.78,7.87c-.68-.54-1.28-.4-1.41.4-.1.62-.06,1.25-.07,1.88-.02,1.04-.31,1.33-1.37,1.41-.65-.3-.87-.8-.84-1.51.05-.92,0-1.85.01-2.77,0-1.24.11-1.34,1.34-1.4.07.03.18.05.22.11.44.72.84.46,1.36.03.8-.67,2.59-.12,2.95.92.44,1.26.33,2.59.12,3.88-.13.84-1.22,1.02-1.95.4-.24-.51-.18-1.05-.21-1.59-.03-.58.16-1.19-.16-1.75Z"/>
      <path class="cls-15" d="M97.15,3.98c1.09.18,1.21.3,1.27,1.41.02.35.07.59.5.56.49-.04.94.1.93.66,0,.5-.44.66-.89.64-.46-.03-.56.21-.53.6.02.33.02.66,0,.98-.03.63,0,1.17.87,1.1.38-.03.54.3.56.59.03.37-.18.69-.55.83-.91.35-1.82.3-2.7-.12-.41-.43-.42-.96-.46-1.51-.06-.81.25-1.66-.17-2.44-.19,0-.38-.02-.56-.03-.08-.17-.2-.29-.39-.34,0,0,0,0,0,0-.07-.38.07-.69.34-.94.21-.02.42-.04.62-.06.38-.47.01-1.11.35-1.59,0,0,0,0,0,0,.27-.12.54-.23.81-.35Z"/>
      <path class="cls-15" d="M74.52,7.27c-.39-.03-.72-.18-.76-.61-.04-.42.22-.67.63-.71.31-.03.29-.24.33-.47.25-1.4,1.91-2.15,3.17-1.44.25.14.44.34.4.66-.05.35-.29.51-.62.56-.27.04-.61,0-.63.37-.03.48.38.27.6.32.34.07.57.27.6.59.03.35-.27.62-.54.63-.75.01-.72.47-.7.99.02.6,0,1.21,0,1.81,0,1.3-.29,1.59-1.6,1.57-.59-.44-.68-1.04-.7-1.74-.02-.84.25-1.72-.18-2.54Z"/>
      <path class="cls-15" d="M62.24,3.99c1.69-.11,1.9.09,1.9,1.8,0,1.37,0,2.73,0,4.1,0,1.58-.87,2.09-2.27,1.31-.17-.3-.18-.62-.18-.95,0-1.66.03-3.32,0-4.98-.01-.54.15-.95.56-1.28Z"/>
      <path class="cls-15" d="M106.86,3.97c1.37-.03,1.62.22,1.62,1.61,0,1.48,0,2.96,0,4.45,0,1.23-.32,1.53-1.58,1.51-.17-.11-.34-.22-.51-.33,0,0,0,0,0,0-.13-.36-.19-.73-.19-1.12.01-1.58.03-3.16,0-4.74-.01-.6.16-1.06.66-1.39Z"/>
      <path class="cls-15" d="M30.97,6.27s.03-.07.04-.12c.08-.06.16-.13.24-.19,1.2-.22,1.35-.15,1.85.94.17-.24.31-.47.48-.67.31-.37.72-.48,1.19-.35.4.1.59.41.63.78.06.49-.18.84-.63,1.04-.2.09-.4.19-.61.24-.74.17-1.02.68-1.03,1.39,0,.22,0,.44,0,.66,0,1.33-.26,1.59-1.58,1.56-.27-.3-.66-.53-.66-.99.01-1.43-.14-2.86.09-4.29Z"/>
      <path class="cls-15" d="M101.93,6.28c.44-.4.93-.57,1.5-.31.56.25.64.75.62,1.3-.02.95-.02,1.91,0,2.86,0,.51-.03.99-.55,1.26-.55.28-1.05.19-1.51-.2-.39-1.64-.31-3.28-.05-4.92Z"/>
      <path class="cls-10" d="M45.2,5.95c1.53-.11,1.75.09,1.75,1.59,0,.82,0,1.65,0,2.47,0,1.25-.29,1.53-1.56,1.53-.53-.39-.73-.89-.7-1.55.05-.87.04-1.75,0-2.62-.02-.55.11-1.02.5-1.41Z"/>
      <path class="cls-15" d="M103.39,3.61c.49.4.74.89.33,1.47-.43.62-1,.48-1.57.2-.35-.57-.27-1.11.12-1.62,0,0,0,0,0,0,.37-.09.75-.16,1.13-.06Z"/>
      <path class="cls-15" d="M45.38,5.38c-.38-.07-.65-.16-.35-.57.3-.41.57-.85.9-1.25.24-.29.58-.34.87-.1.32.27.22.61-.06.84-.44.38-.77.92-1.36,1.07Z"/>
      <path class="cls-3" d="M62.24,3.99c-.41.33-.57.73-.56,1.28.03,1.66.01,3.32,0,4.98,0,.33.01.65.18.95-.43.15-.51-.1-.51-.44,0-1.91-.03-3.82.02-5.73.01-.47.1-1.09.86-1.03Z"/>
      <path class="cls-3" d="M106.86,3.97c-.5.33-.67.78-.66,1.39.03,1.58.02,3.16,0,4.74,0,.39.06.76.19,1.12-.49-.06-.5-.45-.51-.79-.01-1.77-.03-3.55.01-5.32.01-.57.13-1.19.96-1.13Z"/>
      <path class="cls-3" d="M50.44,5.88c-1.23.06-1.33.16-1.34,1.4,0,.92.04,1.85-.01,2.77-.04.71.19,1.21.84,1.51-.73.08-1.09-.3-1.1-.97-.03-1.28-.01-2.57,0-3.85,0-.47.18-.91.63-1.05.31-.1.75-.28,1,.2Z"/>
      <path class="cls-3" d="M18.22,4.33c-.25,1.18-.04,2.38-.13,3.57-.04.57.12,1.18-.3,1.68,0-1.52,0-3.03.02-4.55,0-.29-.14-.71.41-.69Z"/>
      <path class="cls-3" d="M36.64,6.96c-.55,1.54-.57,2.99.64,4.26-.59-.07-.92-.32-1.04-.99-.17-.99-.52-1.95.02-2.94.1-.18.13-.35.37-.33Z"/>
      <path class="cls-3" d="M66.4,7.92c.01.73.06,1.46.03,2.19-.03.63.16,1.11.7,1.43-.74.18-.97-.42-1.02-.88-.08-.84.02-1.69.06-2.54,0-.07.15-.14.22-.21Z"/>
      <path class="cls-3" d="M45.2,5.95c-.39.39-.52.86-.5,1.41.03.87.04,1.75,0,2.62-.04.66.17,1.17.7,1.55-.59.05-.86-.25-.86-.83,0-1.32,0-2.63,0-3.95,0-.43.07-.85.67-.81Z"/>
      <path class="cls-3" d="M69.58,7.59c.7-.02.69.49.7.96.02,1.01-.12,2.03.37,2.98-.57-.46-.71-1.08-.73-1.78-.03-.73.25-1.52-.34-2.17Z"/>
      <path class="cls-3" d="M30.97,6.27c-.23,1.43-.08,2.86-.09,4.29,0,.45.39.69.66.99-.54.03-.84-.27-.85-.77-.03-1.36-.01-2.73-.01-4.09,0-.21.06-.37.3-.42Z"/>
      <path class="cls-3" d="M101.93,6.28c-.26,1.64-.34,3.28.05,4.92-.35.02-.39-.21-.39-.48,0-1.33,0-2.66,0-3.99,0-.24.04-.44.34-.45Z"/>
      <path class="cls-3" d="M67.76,5.87q-1.22.11-1.36,1.74c-.61-.62-.18-1.24.13-1.72.26-.41.81-.44,1.23-.01Z"/>
      <path class="cls-3" d="M15.17,8.26c-.81.97-.71,1.8.35,2.96-.51.07-.76-.25-.91-.65-.22-.63-.11-1.29-.07-1.94.02-.33.33-.39.63-.37Z"/>
      <path class="cls-3" d="M74.52,7.27c.44.81.17,1.69.18,2.54.01.7.11,1.3.7,1.74-.63.02-.86-.36-.86-.92-.01-1.12-.01-2.23-.02-3.35Z"/>
      <path class="cls-3" d="M95.97,7.28c.43.79.11,1.63.17,2.44.04.55.05,1.08.46,1.51-.59,0-.62-.44-.62-.86-.02-1.03-.01-2.06-.01-3.1Z"/>
      <path class="cls-3" d="M40.94,3.99c-.74.62-.5,1.51-.57,2.31-.33.01-.5-.15-.65-.34.68.02.5-.49.51-.86.01-.52-.05-1.08.71-1.11Z"/>
      <path class="cls-3" d="M79.86,8.61c-.82.81-.61,1.69-.18,2.59-.37.03-.48-.26-.5-.51-.04-.53-.03-1.08-.01-1.61.02-.43.32-.51.69-.47Z"/>
      <path class="cls-3" d="M52.78,7.87c.31.56.12,1.16.16,1.75.03.54-.03,1.08.21,1.59-.48-.01-.38-.38-.38-.66,0-.9,0-1.79.01-2.69Z"/>
      <path class="cls-3" d="M102.27,3.66c-.39.51-.47,1.05-.12,1.62-.58-.05-.55-.5-.55-.89,0-.43.2-.71.67-.73Z"/>
      <path class="cls-3" d="M83.97,5.88c-.87-.13-1.74-.09-2.61-.05-.09-.11-.08-.2.07-.2.84,0,1.67-.02,2.51,0,.38,0,.1.16.03.25Z"/>
      <path class="cls-3" d="M80.18,6.3c-.26.39-.47.78-.29,1.27-.69-.08-.35-.61-.37-.94-.02-.45.38-.33.65-.34Z"/>
      <path class="cls-3" d="M91.48,8.1c.03.93.06,1.86.1,2.79-.42-.92-.24-1.86-.1-2.79Z"/>
      <path class="cls-3" d="M95.36,5.97c-.27.26-.41.56-.34.94-.16-.02-.44.13-.39-.2.07-.39.14-.84.73-.74Z"/>
      <path class="cls-3" d="M103.39,3.61c-.38-.1-.76-.03-1.13.06.36-.47.92-.5,1.13-.06Z"/>
      <path class="cls-3" d="M96.34,4.33c-.34.48.02,1.11-.35,1.59,0-.37,0-.74,0-1.1,0-.25,0-.49.36-.48Z"/>
      <path class="cls-3" d="M97.15,3.98c-.27.12-.54.23-.81.35.07-.59.52-.28.81-.35Z"/>
      <path class="cls-3" d="M80.84,5.97c-.18.19-.41.3-.67.35.02-.5.4-.33.67-.35Z"/>
      <path class="cls-3" d="M79.68,11.19c.26.05.47.17.65.36-.27-.03-.64.14-.65-.36Z"/>
      <path class="cls-3" d="M37.28,11.21c.22.04.41.14.54.33-.26.02-.52.05-.54-.33Z"/>
      <path class="cls-3" d="M95.02,6.91c.19.04.31.16.39.34-.25.03-.41-.05-.39-.34Z"/>
      <path class="cls-3" d="M106.39,11.21c.17.11.34.22.51.33-.26.02-.51.03-.51-.33Z"/>
      <path class="cls-3" d="M36.76,6.63c.01.13,0,.26-.14.32,0-.13,0-.25.14-.32Z"/>
      <path class="cls-3" d="M31.24,5.96c-.08.06-.16.13-.24.19.03-.13.12-.18.24-.19Z"/>
      <path class="cls-14" d="M30.2,23.23c-.03.63.02,1.42-.78,1.51-.78.09-1-.7-1.15-1.28-.17-.62-.24-1.3.19-1.9.37-.51.76-.49,1.15-.07.44.49.64,1.08.6,1.74Z"/>
      <path class="cls-16" d="M30.36,33.7c.17.24.33.48.5.72-.58.56-1.33.72-2.08.88h-.24c-.25-.15-.24-.44-.37-.65.37-.47.94-.52,1.46-.66.26-.07.53-.07.72-.28Z"/>
      <path class="cls-8" d="M28.54,35.3c.08,0,.16,0,.24,0,.15.24.17.55.52.68.18.07-.14.14-.13.26-.26.45-.07.88.05,1.32-.07.04-.14.07-.21.11-.23-.21-.19-.5-.17-.76.04-.57-.09-1.1-.3-1.62Z"/>
      <path class="cls-14" d="M36.77,22.3c-.05.49-.11.95-.61,1.11-.55.17-.79-.27-1.01-.64-.26-.45-.4-.94-.24-1.49.1-.34.21-.63.59-.69.37-.06.61.16.81.45.28.39.4.83.45,1.26Z"/>
      <path class="cls-6" d="M27.37,33.44c.45-.55.98.07,1.46-.12-.45.45-.93.57-1.46.12Z"/>
      <path class="cls-16" d="M80.46,37.9c-.56.42-.42,1.16-.76,1.68-.11-2.18-.19-4.36-.36-6.54-.06-.76.27-.93.89-1.02,1.75-.27,3.5-.57,5.25-.84.33-.05.59-.11.63-.49.52.21.41.72.53,1.12-1.88.32-3.76.69-5.65.95-.66.09-.71.35-.68.89.08,1.42.1,2.84.15,4.26Z"/>
      <path class="cls-14" d="M96.16,26.09c0,.59-.14,1.14-.57,1.58-.49.5-.99.45-1.35-.13-.46-.74-.22-2.16.46-2.71.48-.39.96-.26,1.28.31.17.3.17.63.17.96ZM94.91,25.21c-.25,0-.4.13-.41.39-.01.24.15.34.35.35.23.01.44-.08.46-.34.02-.25-.16-.37-.4-.4Z"/>
      <path class="cls-10" d="M92.17,34.96c.8.06,1.59.15,2.36.35.05.77.1,1.54.15,2.31-.02,1.48-.2,2.94-.5,4.39-.17.03-.34.05-.51.08-.94.26-1.65.79-2,1.74-.5.16-.29.67-.47.98-.05,0-.11.01-.16,0-.17-.37-.41-.73-.49-1.12-.58-2.72-.09-5.38.58-8.02.37-.21.76-.39,1.04-.72Z"/>
      <path class="cls-4" d="M93.67,42.08c.17-.03.34-.05.51-.08.62.03,1.24-.3,1.85.02.17,0,.33,0,.5,0,.41.31,1.1.32,1.13,1.05.1-.02.2-.03.3-.05.03.28.06.56.09.84-.04.36.33.76-.11,1.08.04-.29-.05-.55-.28-.73-1.17-.95-2.06-2.44-3.93-2.08-.02,0-.04-.03-.06-.05Z"/>
      <path class="cls-7" d="M96.53,42.03c-.17,0-.33,0-.5,0,0-.13.03-.28,0-.4-.15-.54.28-1.03.91-1.01-.06.49.29,1.1-.4,1.41Z"/>
      <path class="cls-7" d="M95.01,37.01c.25-.44.06-1.07.59-1.39.09.17.14.44.27.49.69.25.33.79.21,1.07-.17.4-.48-.17-.77-.09-.09.02-.21-.05-.31-.09Z"/>
      <path class="cls-7" d="M94.87,39.3c.58.44.98.84.46,1.5-.68-.3-.55-.86-.46-1.5Z"/>
      <path class="cls-16" d="M94.68,37.61c-.05-.77-.1-1.54-.15-2.31.14,0,.28,0,.42,0-.14.59-.19,1.19-.08,1.8-.07.17.01.39-.19.51Z"/>
      <path class="cls-7" d="M97.16,37.44c0,.26,0,.52,0,.78-.08.02-.16.03-.24.05-.38.06-.59-.17-.61-.49-.02-.3.33-.12.48-.24.1-.07.25-.07.38-.1Z"/>
      <path class="cls-4" d="M97.81,42.37c0,.06-.01.11-.02.17-.1-.08-.33-.1-.2-.29.05-.08.18.01.22.12Z"/>
      <path class="cls-10" d="M80.46,37.9c-.05-1.42-.07-2.84-.15-4.26-.03-.54.02-.8.68-.89,1.89-.26,3.77-.62,5.65-.95.4.05.44.56.81.64.43.69,1.23.95,1.78,1.5-.33-.02-.57.15-.81.34-.09.08-.27.17,0,.26.22.07.36.18.2.4-.15.22-.35-.02-.53,0-.39-.35-.6.18-.92.18-.98-.01-1.96-.03-2.94-.04q-1.51-.02-1.63,1.49c-.33.29-.87.14-1.13.57-.25.26-.5.52-.75.78-.08.05-.16.1-.24.15,0-.06-.02-.13-.03-.19Z"/>
      <path class="cls-9" d="M87.18,35.13c.32,0,.53-.54.92-.18.04.49.49.37.74.41.34.05-.01-.39.21-.47.44-.17-.46-.72.24-.8,1.06-.05,1.97.43,2.89.87-.28.33-.67.51-1.04.72-.2-.05-.36.06-.54.13-.15-.52-.32-.53-1.47-.09.11.26.4.27.59.41-.1.19.03.32.11.47-.61.25-.81.83-1.1,1.34-.36.38-.71.78-1.18,1.04-.29-.64-.64-1.22-1.3-1.55.05-.03.07-.07.07-.12.08-.49.61-.78.6-1.31.32-.21.32-.52.26-.85ZM87.33,36.62c-.2.13-.47.26-.4.53.04.16.22.46.42.39.16-.05.56-.12.43-.42-.07-.16-.09-.51-.45-.5Z"/>
      <path class="cls-7" d="M89.28,34.09c-.69.08.21.63-.24.8-.22.08.13.52-.21.47-.25-.04-.7.08-.74-.41.18-.03.38.21.53,0,.16-.22.01-.33-.2-.4-.26-.08-.09-.18,0-.26.24-.19.48-.37.81-.34.03.04.04.09.04.15Z"/>
      <path class="cls-1" d="M99.17,24.7c.08.04.21.05.14.19-.1-.02-.15-.09-.14-.19Z"/>
      <path class="cls-8" d="M11.25,31.99c1.88,0,3.27,1.36,3.26,3.17,0,1.8-1.47,3.18-3.37,3.19-1.94,0-3.28-1.32-3.26-3.21.02-1.84,1.41-3.14,3.37-3.14ZM8.83,33.62c-.71.37-.87,2.08-.25,2.7.66,1.28,1.42,1.63,3.09,1.44,1.1-.12,1.84-.74,2.15-1.76.32-1.01.19-1.95-.72-2.72-1.25-1.07-3.12-.95-4.29.35Z"/>
      <path class="cls-13" d="M80.49,38.09c.08-.05.16-.1.24-.15-.18.53-.48,1.05-.25,1.65-.14-.08-.28-.15-.42-.23.03-.46.29-.84.44-1.26Z"/>
      <path class="cls-8" d="M35.9,43.99c-.1-.04-.15-.36-.29,0-.22.55-.69.77-1.29.71,0-.05.02-.11.03-.16.66-.08.99-.61,1.42-1.01.21.11.12.3.13.46Z"/>
      <path class="cls-2" d="M29.16,36.25c0-.12.32-.19.13-.26-.34-.14-.36-.45-.52-.68.75-.16,1.5-.32,2.08-.88.2.2.4.4.47.69-.15.38.03.82-.26,1.17-.64-.01-1.27-.03-1.91-.04Z"/>
      <path class="cls-8" d="M31.07,36.29c.29-.34.11-.79.26-1.17.48,1.23,1.11,2.41.97,3.8-.46-.06-.67-.35-.65-.79.02-.44-.19-.59-.59-.55.24-.43-.04-.86.01-1.29Z"/>
      <path class="cls-11" d="M34.35,44.55c0,.05-.02.11-.03.16-.93.44-1.88.42-2.91.37-1.21-.05-2.12-.52-3.05-1.13.11-.85.4-1.59,1.17-2.08.34-.21.46-.38,0-.71-.54-.39-.47-1.09-.36-1.65.14-.69.86-.75,1.39-.83.52-.08,1.1.05,1.47.54.28.37-.18,1.32-.7,1.5-.18.06-.37.11-.55.15-.23.04-.51-.04-.65.24-.03.05,0,.18.04.21.25.15.47,0,.69-.1,1.78-.71,3.52.64,3.26,2.57-.05.35,0,.56.24.76Z"/>
      <path class="cls-9" d="M31.07,36.29c-.06.43.23.86-.01,1.29-.61,0-1.23,0-1.84,0-.12-.44-.31-.87-.05-1.32.64.01,1.27.03,1.91.04Z"/>
      <path class="cls-8" d="M55.01,42.5c2.05,0,3.54,1.46,3.53,3.49,0,1.82-1.62,3.3-3.59,3.28-2.07-.02-3.52-1.43-3.51-3.42,0-1.96,1.48-3.34,3.57-3.35ZM52.41,47.51c.16.44.58.6.92.82,1.84,1.16,4.29.08,4.63-1.99.22-1.29-.68-3.05-2.37-3.18-1.82-.15-2.91.25-3.49,1.66-.09.05-.24.09-.25.16-.14.8-.09,1.6.15,2.38.06.2.27.12.42.15Z"/>
      <path class="cls-1" d="M80.48,39.58c-.23-.6.07-1.11.25-1.65.25-.26.5-.52.75-.78.89-.14,1.77-.38,2.67-.08.32-.03.54.16.76.37.49.73,1.37,1.2,1.49,2.18.04.28.21.07.34.08.62.08,1.03-.63,1.67-.42.02.52-.56.95-.26,1.52-.18.18-.37.36-.55.54-1.93.19-3.78-.07-5.55-.9-.14-.06-.32-.04-.47-.06-.2-.5-.7-.58-1.09-.8h0Z"/>
      <path class="cls-16" d="M90.59,35.8c.17-.07.34-.18.54-.13-.67,2.64-1.16,5.29-.58,8.02.08.39.32.75.49,1.12.03.29-.14.61.15.86,0,.15.02.29.03.44-1.36-.92-1.73-2.33-1.81-3.84-.09-1.62.11-3.22.4-4.81.05-.29.15-.59.02-.88-.07-.15-.2-.28-.11-.47.35.06.58-.22.88-.31Z"/>
      <path class="cls-13" d="M88.4,39.28c-.64-.21-1.05.5-1.67.42-.12-.02-.3.2-.34-.08-.13-.99-1-1.45-1.49-2.18.45-.24.93-.18,1.41-.14,0,.05-.02.1-.07.12-.25.04-.59-.2-.73.12-.11.25.24.38.36.58.18.3.41.57.59.87.36.6.56.6,1.07-.02.47-.26.82-.66,1.18-1.04-.11.45-.21.9-.32,1.35Z"/>
      <path class="cls-16" d="M87.59,41.34c.18-.18.37-.36.55-.54.13,1.42-.39,1.86-1.7,1.41.34-.04.67-.09,1.01-.12.26-.02.35-.2.43-.41.09-.26-.08-.32-.28-.34Z"/>
      <path class="cls-16" d="M97.94,44.95c.45-.32.07-.72.11-1.08.54.72.54,1.34,0,1.97-.08,0-.15,0-.23-.01q.4-.54.06-.76s.02-.08.05-.12Z"/>
      <path class="cls-14" d="M97.83,45.82c.08,0,.15,0,.23.01-.61.67-1.29,1.2-2.23,1.29.05-.09.1-.18.15-.27.71-.19,1.23-.69,1.85-1.03Z"/>
      <path class="cls-16" d="M95.98,46.85c-.05.09-.1.18-.15.27-.76.07-1.53.12-2.29-.05.11-.08.23-.15.34-.23.7,0,1.4,0,2.1,0Z"/>
      <path class="cls-14" d="M91.21,46.12c0-.15-.02-.29-.03-.44h.01c.41.68,1.26.68,1.82,1.14h0c-.73.09-1.27-.3-1.8-.7Z"/>
      <path class="cls-14" d="M93.88,46.85c-.11.08-.23.15-.34.23-.18-.08-.44.02-.52-.26h0c.29.01.57.02.86.03Z"/>
      <path class="cls-14" d="M23.63,45.18c-.26-.27.13-.52.02-.79.1-.06.19-.12.29-.18.17,0,.34,0,.51,0-.27.33-.54.65-.81.98Z"/>
      <path class="cls-1" d="M23.63,45.18c.27-.33.54-.65.81-.98.88-.47,1.69-.42,2.47.26.65.56.76,1.27.53,2.01-.24.76-.85,1.15-1.67,1.18-1.18.05-1.78-.3-2.21-1.25-.2-.44-.21-.83.07-1.22Z"/>
      <path class="cls-13" d="M80.47,39.57c.4.22.9.31,1.09.8-.41-.21-.93-.27-1.09-.8Z"/>
      <path class="cls-5" d="M40.29,8.75c-.1.31.14,1.11-.73,1.25-.6.1-.92-.34-.97-.96-.09-1.01.18-1.53.86-1.56.54-.03.75.24.85,1.27Z"/>
      <path class="cls-5" d="M82.79,9.19c.19.03.48-.04.46.28-.05.56-.39.87-.95.87-.38,0-.8-.14-.73-.57.11-.67.77-.43,1.22-.58Z"/>
      <path class="cls-5" d="M26.01,9.2c.25.02.56-.04.51.35-.08.62-.56.78-1.08.77-.3,0-.75-.04-.68-.51.12-.74.79-.49,1.24-.62Z"/>
      <path class="cls-15" d="M94.91,25.21c.24.03.42.15.4.4-.02.25-.23.35-.46.34-.2-.01-.36-.11-.35-.35.01-.25.16-.38.41-.39Z"/>
      <path class="cls-1" d="M97.94,44.95s-.04.07-.05.12c-.56.44-1.16.81-1.88.92-1.07-.22-2.14-.26-3.21.01-.35.05-.48-.43-.84-.34-.04-.05-.08-.1-.12-.15v.02c-.47-.52-.28-1.11-.17-1.7.35-.95,1.05-1.48,2-1.74.02.02.05.05.06.05,1.87-.36,2.76,1.13,3.93,2.08.23.19.32.44.28.73Z"/>
      <path class="cls-13" d="M91.68,43.82c-.1.58-.29,1.17.18,1.7-.17-.07-.33-.14-.5-.21-.05-.17-.11-.33-.16-.5.18-.32-.02-.82.47-.98Z"/>
      <path class="cls-14" d="M91.2,44.81c.05.17.11.33.16.5-.18.06-.16.22-.16.36h-.01c-.28-.24-.12-.56-.15-.86.05,0,.11,0,.16,0Z"/>
      <path class="cls-16" d="M87.18,35.13c.06.33.06.64-.26.85-.95-.02-1.9-.02-2.85-.06-.49-.02-.62.23-.61.65-.28,0-.57,0-.85.01q.12-1.52,1.63-1.49c.98.01,1.96.03,2.94.04Z"/>
      <path class="cls-13" d="M82.61,36.58c.28,0,.57,0,.85-.01.33.03.64.09.69.5-.9-.3-1.78-.06-2.67.08.25-.43.8-.29,1.13-.57Z"/>
      <path class="cls-12" d="M84.15,37.07c-.05-.41-.36-.47-.69-.5,0-.41.12-.67.61-.65.95.04,1.9.04,2.85.06,0,.53-.52.82-.6,1.31-.48-.04-.96-.09-1.41.14-.21-.2-.43-.39-.76-.37Z"/>
      <path class="cls-4" d="M87.54,38.97c-.51.62-.71.61-1.07.02-.18-.3-.41-.57-.59-.87-.12-.2-.47-.33-.36-.58.14-.32.48-.08.73-.12.65.33,1.01.91,1.3,1.55Z"/>
      <path class="cls-7" d="M90.59,35.8c-.3.09-.53.38-.88.31-.19-.14-.48-.15-.59-.41,1.15-.44,1.32-.43,1.47.09Z"/>
      <path class="cls-7" d="M87.33,36.62c.35-.01.37.33.45.5.14.3-.26.37-.43.42-.21.07-.38-.23-.42-.39-.07-.27.2-.4.4-.53Z"/>
      <path class="cls-1" d="M8.83,33.62c1.16-1.3,3.04-1.42,4.29-.35.9.77,1.03,1.71.72,2.72-.32,1.02-1.05,1.64-2.15,1.76-1.68.19-2.44-.16-3.1-1.44-.27-.93-.25-1.83.25-2.69Z"/>
      <path class="cls-14" d="M8.83,33.62c-.5.86-.51,1.76-.25,2.69-.62-.61-.46-2.32.25-2.69Z"/>
      <path class="cls-1" d="M52.1,44.82c.58-1.42,1.67-1.81,3.49-1.66,1.68.14,2.59,1.89,2.37,3.18-.35,2.07-2.79,3.15-4.63,1.99-.34-.21-.76-.38-.92-.82-.46-.86-.53-1.76-.31-2.69Z"/>
      <path class="cls-14" d="M52.1,44.82c-.22.93-.16,1.84.31,2.69-.15-.03-.36.05-.42-.15-.23-.78-.29-1.58-.15-2.38.01-.07.17-.11.25-.16Z"/>
      <path class="cls-15" d="M91.2,45.67c0-.14-.02-.3.16-.36.17.07.33.14.5.21,0,0,0-.02,0-.02.04.05.08.1.12.15.36-.09.49.39.84.34.11.12.25.16.4.14.92.03,1.84.17,2.75-.11h.04s.02-.04.02-.04c.72-.11,1.32-.48,1.88-.92q.34.22-.06.76c-.62.34-1.15.85-1.85,1.03-.7,0-1.4,0-2.1,0-.29-.01-.57-.02-.86-.03-.56-.46-1.4-.46-1.82-1.15Z"/>
      <path class="cls-4" d="M93.21,46.13c-.16.02-.29-.02-.4-.14,1.07-.28,2.14-.23,3.2-.01,0,0-.01.04-.01.04,0,0-.04,0-.04,0-.91.16-1.84-.15-2.75.11Z"/>
      <path class="cls-13" d="M91.97,45.65c-.04-.05-.08-.1-.12-.15.04.05.08.1.12.15Z"/>
      <path class="cls-13" d="M93.21,46.13c.91-.26,1.84.05,2.75-.11-.91.28-1.83.14-2.75.11Z"/>
    </g>
  </g>
</svg>