<?xml version="1.0" encoding="UTF-8"?>
<svg id="Layer_2" data-name="Layer 2" xmlns="http://www.w3.org/2000/svg" viewBox="0 0 191.12 29.92">
  <defs>
    <style>
      .cls-1 {
        fill: #d5d5d6;
      }

      .cls-1, .cls-2, .cls-3 {
        stroke-width: 0px;
      }

      .cls-2 {
        fill: #009342;
      }

      .cls-3 {
        fill: #fff;
      }
    </style>
  </defs>
  <g id="Capa_1" data-name="Capa 1">
    <g>
      <g>
        <path class="cls-2" d="M7.98,0h21.94v21.94c0,4.41-3.58,7.98-7.98,7.98H0V7.98C0,3.58,3.58,0,7.98,0Z"/>
        <g>
          <path class="cls-1" d="M22.66,10.29c-1.12-1.93-3.27-3.01-5.94-3.01-3.99,0-7.98,2.73-9.55,6.28h-1.17c-1.06,0-1.78-1.2-1.23-2.11,0,0,0-.01.01-.02,4.13-6.8,15.06-8.81,17.88-1.14Z"/>
          <path class="cls-3" d="M22.66,10.28s0,0,0,0h3.3c-1.29-3.65-4.92-6.13-9.26-6.13-4.9,0-9.64,2.96-11.9,7.24,4.15-6.77,15.04-8.76,17.85-1.11Z"/>
          <path class="cls-3" d="M7.28,19.63s0,0,0,0h-3.31c1.29,3.72,4.92,6.13,9.25,6.13,4.85,0,9.54-2.9,11.83-7.11-3.47,5.81-14.39,8.92-17.76.98Z"/>
          <path class="cls-3" d="M25.52,14.58c-.49-.69-1.28-1.03-2.17-1.03H6.01c-.99,0-1.68-1.04-1.33-1.92-.22.44-.42.9-.58,1.37-.29.83-.18,1.68.3,2.36.49.69,1.28,1.07,2.17,1.07h16.18,0s1.12,0,1.12,0c1.01,0,1.69,1.15,1.27,2.05.27-.51.5-1.04.69-1.59.29-.83.18-1.64-.3-2.32Z"/>
          <path class="cls-1" d="M23.86,16.44h-1.12c-1.57,3.53-5.55,6.27-9.53,6.27-2.64,0-4.82-1.14-5.93-3.08,3.37,7.96,14.33,4.82,17.78-1.01,0,0,0-.01.01-.02.53-.91-.16-2.16-1.21-2.16Z"/>
        </g>
      </g>
      <path class="cls-2" d="M96.46,21.73c0,.22-.18.4-.4.4h-1.3c-.22,0-.4-.18-.4-.4v-12.7c0-.22.18-.4.4-.4h1.3c.22,0,.4.18.4.4v12.7ZM91.84,8.86h-1.16c-.26,0-.48.06-.58.29l-4.02,9.71-4.02-9.68c-.1-.24-.33-.32-.58-.32h-1.18c-.12,0-.24.06-.32.16-.13.18-.16.36-.08.57l5.03,12.07c.1.23.33.46.58.46h1.13c.25,0,.48-.25.58-.48l5.03-12.05c.09-.21.06-.37-.09-.57-.07-.1-.19-.15-.31-.15ZM78.29,9.81l-.52.94s-.06.09-.1.13c-.23.19-.51.21-.73.09-.2-.11-.27-.15-.3-.16-.44-.19-.92-.29-1.44-.29-2.04.02-3.63,1.63-3.63,3.65v7.55c0,.22-.18.4-.4.4h-1.3c-.22,0-.4-.18-.4-.4v-12.46c0-.22.18-.4.4-.4h.3c.7,0,1.29.43,1.38,1.11.91-.91,2.21-1.52,3.66-1.52.05,0,.1,0,.14,0,.72,0,1.42.15,2.1.45.12.05.35.18.69.37.19.11.26.35.15.54ZM47.21,14.09l-.44-.08c-1.41-.25-3.17-.56-3.21-1.77-.01-.36.11-.68.37-.94.52-.53,1.56-.85,2.79-.85h.09c.96,0,1.99.09,3,.77.07.05.22.17.43.34.11.09.25.14.4.14.17,0,.34-.07.46-.2l.53-.56c.14-.15.2-.35.16-.55-.03-.15-.12-.28-.23-.38-.28-.24-.48-.4-.6-.48-1.13-.76-2.52-1.15-4.13-1.15-.04,0-.08,0-.12,0-1.78,0-3.33.53-4.26,1.45-.66.66-.99,1.49-.98,2.46.03,2.91,2.88,3.39,5.18,3.77,2.48.4,3.66.79,3.63,1.97-.07,1.71-2.38,1.89-3.38,1.89s-1.94-.23-2.76-.68c-.58-.32-1.02-.78-1.29-1.11-.12-.15-.3-.24-.49-.24-.15,0-.3.06-.42.16l-.64.57c-.25.22-.28.6-.07.86.29.36.86,1.02,1.5,1.43,1.12.72,2.55,1.1,4.15,1.1,5.03,0,5.5-2.98,5.53-3.89.14-3.15-3.06-3.69-5.18-4.04ZM173.41,20.01c1.67-1.13,2.73-3.12,2.73-5.18,0-1.7-.44-3.04-1.37-4.19l.96-1.12c.11-.13.12-.35.03-.49-.4-.56-1.14-.75-1.78-.41-.14.08-.27.19-.37.31l-.34.39c-1.02-.62-2.25-.97-3.41-.97-3.74,0-6.25,2.6-6.25,6.48s2.63,6.43,6.25,6.43c1.94,0,4.2.84,4.2,3.23,0,3.02-3.21,3.25-4.19,3.25-1.82,0-3.86-.74-4.11-2.81,0-.03-.01,0-.02-.32,0-.22-.18-.39-.4-.39h-1.3c-.22,0-.39.18-.39.39,0,.05,0,.09,0,.11,0,.19.01.3.02.37.29,2.92,2.73,4.79,6.23,4.79,3.89,0,6.31-2.07,6.31-5.38,0-2-.97-3.54-2.8-4.48ZM169.87,19.1c-2.69,0-4.1-2.15-4.1-4.27s1.08-4.32,4.1-4.32c2.52,0,4.15,1.7,4.15,4.32,0,2.32-1.9,4.27-4.15,4.27ZM190.72,8.86h-.55c-.76,0-1.38.62-1.38,1.38h0c-1.16-1.15-2.67-1.82-4.51-1.82-3.81,0-6.69,2.91-6.69,6.78s2.88,6.83,6.68,6.83c1.79,0,3.36-.66,4.52-1.92v1.62c0,.22.18.4.4.4h1.53c.22,0,.4-.18.4-.4v-12.46c0-.22-.18-.4-.4-.4ZM184.35,19.9c-2.65,0-4.57-1.98-4.57-4.7s1.92-4.67,4.57-4.67c3.21,0,4.68,2.43,4.68,4.69s-1.46,4.69-4.68,4.69ZM136.86,19.91c-.1-.23-.32-.4-.57-.41-.1,0-.19.01-.28.05-.26.11-.37.16-.42.18-.41.15-.77.22-1.1.22-1.51,0-1.76-.77-1.76-2.38v-6.84h3.79c.22,0,.4-.18.4-.4v-1.07c0-.22-.18-.4-.4-.4h-3.79v-3.56c0-.22-.18-.4-.4-.4h-.46c-.68,0-1.24.55-1.24,1.24v2.72h-2.4c-.22,0-.4.18-.4.4v1.07c0,.22.18.4.4.4h2.4v6.84c0,2.98,1.26,4.43,3.87,4.43.54,0,1.09-.11,1.69-.33.14-.05.41-.17.83-.37.2-.09.29-.32.2-.52l-.38-.88ZM148.65,9.72l-.56,1.01c-.11.2-.32.32-.55.32-.11,0-.21-.03-.31-.08-.2-.11-.28-.15-.31-.16-.44-.19-.94-.29-1.45-.29-2.04.02-3.66,1.63-3.66,3.65v7.55c0,.22-.18.4-.4.4h-1.3c-.22,0-.4-.18-.4-.4v-12.46c0-.22.18-.4.4-.4h.37c.7,0,1.29.43,1.38,1.11.91-.91,2.21-1.52,3.66-1.52.05,0,.1,0,.14,0,.72,0,1.42.15,2.1.45.13.06.39.2.78.42.14.08.19.26.11.39ZM126.69,14.25v7.47c0,.22-.18.4-.4.4h-1.3c-.22,0-.4-.18-.4-.4v-7.45c0-1.18-.36-2.12-1.04-2.8-.65-.64-1.68-1-2.88-1-.03,0-.05,0-.08,0-2.26.02-3.9,1.71-3.9,4.02v7.22c0,.22-.18.4-.4.4h-1.3c-.22,0-.4-.18-.4-.4v-12.42c0-.25.2-.44.44-.44h.23c.71,0,1.29.45,1.38,1.14.98-.96,2.38-1.6,3.96-1.6h0c3.68,0,6.08,2.27,6.08,5.85ZM67.25,14.94c0-3.19-2.05-6.57-6.56-6.57-3.83,0-6.73,2.94-6.73,6.83s2.77,6.8,6.73,6.8c1.96,0,3.82-.69,5.09-1.9.09-.09.25-.26.46-.52.13-.15.18-.35.13-.55-.03-.15-.13-.27-.24-.36l-.6-.48c-.11-.09-.25-.14-.39-.14-.18,0-.36.08-.48.22-.25.29-.35.39-.4.43-.87.74-2.28,1.32-3.58,1.32-2.26,0-4.06-1.39-4.48-3.48h10.93s.1-.88.1-1.6ZM56.22,14.91c0-2.33,1.31-4.48,4.49-4.48,2.92,0,4.49,1.69,4.49,4.48h-8.98ZM112.2,14.94c0-3.19-2.05-6.57-6.56-6.57-3.83,0-6.73,2.94-6.73,6.83s2.77,6.8,6.73,6.8c1.96,0,3.82-.69,5.09-1.9.09-.09.25-.26.46-.52.13-.15.18-.35.13-.55-.03-.15-.13-.27-.24-.36l-.6-.48c-.11-.09-.25-.14-.39-.14-.18,0-.36.08-.48.22-.25.29-.35.39-.4.43-.87.74-2.28,1.32-3.58,1.32-2.26,0-4.06-1.39-4.48-3.48h10.93s.1-.88.1-1.6ZM101.16,14.91c0-2.33,1.3-4.35,4.48-4.35,2.92,0,4.5,1.56,4.5,4.35h-8.98ZM161.85,14.94c0-3.19-2.05-6.57-6.56-6.57-3.83,0-6.73,2.94-6.73,6.83s2.77,6.8,6.73,6.8c1.96,0,3.82-.69,5.09-1.9.09-.09.25-.26.46-.52.13-.15.18-.35.13-.55-.03-.15-.13-.27-.24-.36l-.6-.48c-.11-.09-.25-.14-.39-.14-.18,0-.36.08-.48.22-.25.29-.35.39-.4.43-.87.74-2.28,1.32-3.58,1.32-2.26,0-4.06-1.39-4.48-3.48h10.93s.1-.88.1-1.6ZM150.81,14.91c0-2.33,1.3-4.35,4.48-4.35,2.92,0,4.5,1.56,4.5,4.35h-8.98ZM96.46,6.2v-.89c0-.22-.18-.4-.4-.4h-.89c-.45,0-.81.36-.81.81v.89c0,.22.18.4.4.4h.89c.45,0,.81-.36.81-.81Z"/>
    </g>
  </g>
</svg>