<?xml version="1.0" encoding="UTF-8"?>
<svg id="Layer_2" data-name="Layer 2" xmlns="http://www.w3.org/2000/svg" viewBox="0 0 187.85 69.6">
  <defs>
    <style>
      .cls-1, .cls-2, .cls-3 {
        stroke-width: 0px;
      }

      .cls-1, .cls-3 {
        fill: #000;
      }

      .cls-2 {
        fill: #010101;
      }

      .cls-3 {
        fill-rule: evenodd;
      }
    </style>
  </defs>
  <g id="Capa_1" data-name="Capa 1">
    <g>
      <path class="cls-3" d="M118.48,32.94c-3.26,10-12.42,17.78-24.03,17.78-12.31,0-20.59-7.68-23.91-17.56,3.46,9.21,12.87,15.82,23.93,15.82s20.62-6.71,24.01-16.03M70.48,17.68C73.75,7.7,81.5,0,94.45,0c12.03,0,20.88,7.81,24.08,17.9-3.35-9.4-12.86-16.19-24.07-16.19s-20.57,6.68-23.99,15.97"/>
      <path class="cls-3" d="M94.96,15.22c.16-.23.62-.08.95-.07.45,0,.34.66.95.53.61-.13.62.58,1.5.55.88-.03-.17.3-.17.3,0,0-.54-.26-.9-.09-.18.09.07-.05-.24-.3-.48-.39-.42.07-1.23-.6-.57-.48-1.12.06-.86-.32M99.36,32.92c.35.14.78.48.98,1,.47,1.24-.23.24-.23,2.1,0,1.72-.49,1.44-.49,1.44,0,0-.11,2.03-1.17,3.28-.68.67-.15,1.23-.15,1.23,0,0-.23.13-.56,1.6-.11.48.51,1.21,1.05,1.03.4-.14-.98-.27.52-.89.58-.24.11-.69.11-.69,0,0,.97-.07,1.52-1.52.96.14.61-.44,2.6-.87.53-.11.64-.27.57-.76-.07-.49.65.07,2.62-1.91,1.55-1.56.99-1.91,2.07-2.48,1.13-.59,1.24.05,1.62-.43.87-1.11.56-1.04.92-1.75l.26-.39h-12.22ZM88.43,16.48c-.32-.78-.3-2.06.39-3.23.43-.73,1.59-1.06,2.59-.67,1.13-.88,1.4.07,2.4-.36,1.31-.56.58,1.48,1.85,2,.52-1.38-1.2-2.42-.12-3.07.77-.46,1.35-.75,1.67-1.37.45-.88.63-1.53.97-1.65.8-.27.63-1.02.63-1.02,0,0,.85.25,1.51-.37-.51-.27-1.24-.5-1.05-1.04.23-.63,1.94.65,2.45-.38-1.02-.44-2.06-1.39-2.68-1.61-.43.46-.69.27-1.25-.16-.93-.73-1.01-.03-1.59-.54-.47.92.23.85.45,1.08.6.65-.61-.58-.49,1.07.03.43-.61.51-1.09-.42-.25-.48-2.23-.38-2.53-.84.27-.54,2.6-2.45,6.18-1.99-5.2-2.01-12.23.19-12.3.95-.7.43-.46.93-.81,1.04-.6.2-1.27,2.02-1.27,2.02,0,0,.38.25-.8,1.55-.97,1.07-1.26,2.69-1.26,2.69,0,0,.64,1.15.52,2.48-.09,1.01-.13.26.31,1,.26.43.55,1.93.72,1.35.33-1.12-.6-2.15-.45-3.26.03.14.36-.44.35.08-.04,1.37,1.72,4.02,1.72,4.02,0,0-.65.65.03.65h2.94Z"/>
      <path class="cls-1" d="M51.17,20.16h-3.95l.59.69v5.11c0,1.15-.77,1.63-1.92,1.63s-1.93-.48-1.93-1.63v-5.11l.59-.69h-3.95l.59.69v5.19c0,2.55,1.45,3.53,4.69,3.53s4.69-.98,4.69-3.53v-5.19l.59-.69Z"/>
      <polygon class="cls-1" points="64.87 20.16 61.54 20.16 62.14 20.85 62.14 25.51 57.36 20.16 54.36 20.16 54.96 20.85 54.96 28.7 54.36 29.4 57.69 29.4 57.1 28.7 57.1 23.97 62.18 29.4 64.28 29.4 64.28 20.85 64.87 20.16"/>
      <polygon class="cls-1" points="72.55 29.4 71.96 28.7 71.96 20.85 72.55 20.16 68.57 20.16 69.16 20.85 69.16 28.7 68.57 29.4 72.55 29.4"/>
      <polygon class="cls-1" points="85.66 20.16 82.32 20.16 82.91 20.85 80.55 25.94 78.27 20.85 78.86 20.16 74.93 20.16 79.3 29.4 81.25 29.4 85.66 20.16"/>
      <polygon class="cls-1" points="96.83 29.4 96.83 26.89 96.12 27.47 91.33 27.47 91.33 25.7 94.37 25.7 95.06 26.28 95.06 23.28 94.37 23.86 91.33 23.86 91.33 22.08 96.12 22.08 96.83 22.67 96.83 20.16 88 20.16 88.59 20.85 88.59 28.7 88 29.4 96.83 29.4"/>
      <path class="cls-3" d="M110.26,29.4l-2.54-3.64c1.25-.5,2.12-1.45,2.12-2.8,0-1.54-.95-2.8-3.62-2.8h-5.84l.59.69v7.85l-.59.69h3.92l-.59-.69v-2.62h1.18l1.8,2.62-.59.69h4.17ZM107.03,23.15c0,.66-.65,1.21-1.55,1.21h-1.78v-2.27h2.12c.62,0,1.21.31,1.21,1.07"/>
      <path class="cls-1" d="M122.13,26.7c0-1.47-1.2-2.28-2.92-2.84-1.12-.34-2.71-.59-2.71-1.33,0-.36.43-.61,1.19-.61,1.01,0,2.67.42,3.96,1.03v-3.09l-.74.71c-.79-.32-2.15-.65-3.09-.65-3.19,0-4.22,1.38-4.22,2.65,0,1.72,1.15,2.46,2.97,3.09,1.35.46,2.6.5,2.6,1.26,0,.65-.77.74-1.16.74-1,0-2.77-.35-4.34-1.36v3.42l.75-.8c.73.28,2.38.75,3.72.75,2.77,0,4-1.21,4-2.95"/>
      <path class="cls-3" d="M136.15,29.4l-4.61-9.24h-3.16l.34.69-4.17,8.54h3.44l-.59-.69.46-.97h4.47l.45.97-.59.69h3.97ZM131.63,26.07h-3.11l1.55-3.31,1.56,3.31Z"/>
      <polygon class="cls-1" points="147.25 29.4 147.25 26.89 146.54 27.47 142.03 27.47 142.03 20.85 142.62 20.16 138.7 20.16 139.29 20.85 139.29 28.7 138.7 29.4 147.25 29.4"/>
      <path class="cls-1" d="M144.75,21.44c0,.65.53,1.17,1.18,1.17s1.19-.52,1.19-1.17-.53-1.17-1.19-1.17c-.65,0-1.18.52-1.18,1.17M144.62,21.44c0-.71.59-1.29,1.31-1.29s1.31.58,1.31,1.29-.59,1.29-1.31,1.29-1.31-.58-1.31-1.29"/>
      <path class="cls-3" d="M146.42,20.94c-.13-.11-.28-.16-.45-.16-.39,0-.67.29-.67.66s.28.67.67.67c.18,0,.34-.06.47-.18v-.17c-.12.14-.29.23-.48.23-.31,0-.53-.26-.53-.56s.23-.55.54-.55c.19,0,.34.07.46.21v-.17Z"/>
      <path class="cls-2" d="M7.29,63.15l-.41.47v3.51c0,.44-.07.8-.19,1.11-.13.3-.32.55-.58.73-.26.19-.59.33-.99.42-.4.09-.89.13-1.47.13s-1.06-.05-1.46-.13c-.4-.09-.74-.23-1-.42-.26-.19-.46-.43-.59-.74-.13-.3-.19-.67-.19-1.1v-3.51l-.41-.47h2.73l-.41.47v3.46c0,.37.12.65.35.83.24.18.56.27.97.27s.74-.09.98-.27.36-.46.36-.83v-3.46l-.41-.47h2.72Z"/>
      <polygon class="cls-2" points="17.75 63.15 17.34 63.62 17.34 69.4 15.89 69.4 12.38 65.73 12.38 68.93 12.79 69.4 10.5 69.4 10.9 68.93 10.9 63.62 10.5 63.15 12.56 63.15 15.86 66.77 15.86 63.62 15.45 63.15 17.75 63.15"/>
      <polygon class="cls-2" points="24.03 69.4 21.29 69.4 21.7 68.93 21.7 63.62 21.29 63.15 24.03 63.15 23.62 63.62 23.62 68.93 24.03 69.4"/>
      <polygon class="cls-2" points="34.11 63.15 31.07 69.4 29.72 69.4 26.7 63.15 29.42 63.15 29.01 63.62 30.58 67.06 32.21 63.62 31.8 63.15 34.11 63.15"/>
      <polygon class="cls-2" points="42.82 69.4 36.73 69.4 37.14 68.93 37.14 63.62 36.73 63.15 42.82 63.15 42.82 64.85 42.33 64.45 39.03 64.45 39.03 65.65 41.12 65.65 41.6 65.26 41.6 67.29 41.12 66.9 39.03 66.9 39.03 68.09 42.33 68.09 42.82 67.7 42.82 69.4"/>
      <path class="cls-2" d="M53.09,69.4h-2.88l.41-.47-1.24-1.77h-.81v1.77l.41.47h-2.7l.41-.47v-5.31l-.41-.47h4.04c.87,0,1.51.17,1.9.52.4.35.6.8.6,1.37,0,.44-.13.82-.39,1.14-.26.32-.62.57-1.07.75l1.75,2.46ZM50.86,65.17c0-.16-.04-.3-.12-.41-.08-.11-.18-.19-.31-.24-.13-.05-.26-.08-.41-.08h-1.46v1.54h1.23c.31,0,.56-.08.76-.24.2-.16.3-.35.3-.58"/>
      <path class="cls-2" d="M62.28,67.57c0,.3-.05.57-.16.81-.11.24-.28.45-.51.63-.23.18-.52.31-.86.41-.35.1-.76.14-1.23.14-.29,0-.6-.03-.93-.08-.33-.06-.65-.13-.96-.21-.31-.08-.54-.16-.69-.21l-.52.54v-2.31c.49.31,1.02.54,1.57.69.55.15,1.03.23,1.43.23.21,0,.39-.03.56-.1.17-.07.25-.2.25-.4,0-.16-.07-.27-.22-.36-.14-.08-.41-.17-.8-.28-.39-.1-.65-.17-.77-.22-.69-.23-1.2-.5-1.54-.81-.34-.31-.51-.74-.51-1.28,0-.31.09-.6.28-.87.19-.27.5-.49.94-.66.44-.17,1-.26,1.69-.26.16,0,.33.01.51.03.18.02.38.06.6.1.22.05.41.09.58.14.17.05.32.1.45.16l.52-.48v2.09c-.31-.14-.63-.26-.96-.37-.34-.11-.66-.19-.97-.24-.31-.06-.58-.08-.8-.08-.26,0-.46.04-.6.11-.15.08-.22.18-.22.3s.06.22.17.3c.11.08.25.16.42.22.17.06.4.13.67.21.28.08.48.13.61.17.65.2,1.15.46,1.49.76.35.3.52.69.52,1.16"/>
      <path class="cls-2" d="M72.96,69.4h-2.74l.41-.47-.31-.66h-3.09l-.32.66.41.47h-2.38l2.88-5.78-.23-.47h2.18l3.18,6.25ZM69.84,67.15l-1.08-2.24-1.07,2.24h2.14Z"/>
      <polygon class="cls-2" points="81.62 69.4 75.72 69.4 76.13 68.93 76.13 63.62 75.72 63.15 78.43 63.15 78.02 63.62 78.02 68.09 81.13 68.09 81.62 67.7 81.62 69.4"/>
      <polygon class="cls-2" points="97.84 69.4 95.19 69.4 95.6 68.93 95.6 65.93 93.88 69.4 92.98 69.4 91.04 65.88 91.04 68.93 91.45 69.4 89.21 69.4 89.62 68.93 89.62 63.62 89.21 63.15 91.49 63.15 93.59 66.97 95.51 63.15 97.84 63.15 97.43 63.62 97.43 68.93 97.84 69.4"/>
      <path class="cls-2" d="M108.33,63.15l-.41.47v3.51c0,.44-.07.8-.19,1.11-.13.3-.32.55-.58.73-.26.19-.59.33-.99.42-.4.09-.89.13-1.47.13s-1.06-.05-1.46-.13c-.4-.09-.74-.23-1-.42-.26-.19-.46-.43-.59-.74-.13-.3-.19-.67-.19-1.1v-3.51l-.41-.47h2.73l-.41.47v3.46c0,.37.12.65.35.83.24.18.56.27.97.27s.74-.09.98-.27c.24-.18.36-.46.36-.83v-3.46l-.41-.47h2.72Z"/>
      <path class="cls-2" d="M117.32,67.57c0,.3-.05.57-.16.81-.11.24-.28.45-.51.63-.23.18-.52.31-.86.41-.35.1-.76.14-1.23.14-.29,0-.6-.03-.93-.08-.33-.06-.65-.13-.96-.21-.31-.08-.54-.16-.69-.21l-.52.54v-2.31c.49.31,1.02.54,1.57.69.55.15,1.03.23,1.43.23.21,0,.39-.03.56-.1.17-.07.25-.2.25-.4,0-.16-.07-.27-.22-.36-.15-.08-.41-.17-.8-.28-.39-.1-.65-.17-.77-.22-.69-.23-1.2-.5-1.54-.81-.34-.31-.51-.74-.51-1.28,0-.31.09-.6.28-.87.19-.27.5-.49.94-.66.44-.17,1-.26,1.69-.26.16,0,.33.01.51.03.18.02.38.06.6.1.22.05.41.09.58.14.17.05.32.1.45.16l.52-.48v2.09c-.31-.14-.63-.26-.96-.37-.34-.11-.66-.19-.97-.24-.31-.06-.58-.08-.81-.08-.26,0-.46.04-.6.11-.15.08-.22.18-.22.3s.06.22.17.3c.11.08.25.16.42.22.17.06.4.13.67.21.28.08.48.13.61.17.65.2,1.14.46,1.49.76.35.3.52.69.52,1.16"/>
      <polygon class="cls-2" points="123.51 69.4 120.77 69.4 121.17 68.93 121.17 63.62 120.77 63.15 123.51 63.15 123.1 63.62 123.1 68.93 123.51 69.4"/>
      <path class="cls-2" d="M133,68.95c-.12.07-.27.13-.46.2-.19.07-.39.13-.62.18-.22.05-.47.1-.73.14-.26.04-.51.05-.74.05-.51,0-.98-.06-1.43-.19-.45-.13-.84-.32-1.19-.59-.35-.27-.62-.61-.82-1.03-.2-.42-.3-.9-.3-1.45,0-.46.08-.88.25-1.28.17-.4.42-.74.74-1.04.33-.29.73-.52,1.2-.68.48-.16,1.02-.24,1.62-.24.24,0,.48.02.73.05.25.03.48.07.69.12.21.05.41.1.59.17l.44-.41v2.08c-.24-.14-.48-.26-.73-.36-.25-.09-.5-.17-.77-.22-.27-.05-.55-.08-.85-.08-.64,0-1.12.18-1.43.53-.31.35-.47.81-.47,1.36,0,.38.08.71.24.99.16.29.39.51.69.67s.64.24,1.03.24c.36,0,.68-.04.98-.11.29-.07.54-.16.73-.25.19-.1.39-.2.59-.32v1.46Z"/>
      <path class="cls-2" d="M145.63,66.78l-.42-.48h2.31v2.5c-.14.08-.31.17-.54.25-.22.09-.47.17-.74.24-.27.07-.55.13-.83.17-.28.04-.56.06-.82.06-.68,0-1.31-.11-1.89-.34s-1.05-.59-1.4-1.08c-.35-.49-.53-1.1-.53-1.83s.18-1.35.55-1.83c.37-.49.85-.84,1.43-1.07.59-.23,1.2-.34,1.84-.34.45,0,.83.03,1.13.1.3.07.63.17,1,.29l.52-.47v2.14c-.41-.23-.83-.4-1.24-.53-.41-.13-.85-.19-1.32-.19-.3,0-.56.04-.8.13-.23.09-.43.22-.59.39-.16.17-.29.37-.37.6-.08.23-.13.49-.13.78,0,.58.17,1.04.5,1.38.34.35.8.52,1.39.52.24,0,.56-.04.95-.11v-1.29Z"/>
      <path class="cls-2" d="M157.5,69.4h-2.88l.41-.47-1.24-1.77h-.81v1.77l.41.47h-2.7l.41-.47v-5.31l-.41-.47h4.04c.87,0,1.51.17,1.9.52.4.35.6.8.6,1.37,0,.44-.13.82-.39,1.14s-.62.57-1.07.75l1.75,2.46ZM155.27,65.17c0-.16-.04-.3-.12-.41-.08-.11-.18-.19-.31-.24-.13-.05-.26-.08-.41-.08h-1.46v1.54h1.23c.31,0,.56-.08.76-.24.2-.16.3-.35.3-.58"/>
      <path class="cls-2" d="M167.99,66.27c0,.75-.18,1.37-.53,1.87-.35.49-.81.85-1.38,1.08-.56.23-1.17.34-1.82.34s-1.26-.11-1.82-.34c-.57-.23-1.03-.59-1.39-1.09-.36-.5-.54-1.11-.54-1.86,0-.57.1-1.07.31-1.49.21-.42.49-.76.85-1.03.36-.26.76-.46,1.2-.58.44-.12.9-.19,1.38-.19s.95.06,1.39.19c.44.13.83.32,1.19.58.35.26.63.6.84,1.02.21.42.31.92.31,1.49M165.96,66.27c0-.61-.14-1.08-.41-1.42-.27-.34-.7-.51-1.29-.51-.39,0-.71.08-.97.24-.26.16-.44.38-.56.67-.12.29-.18.63-.18,1.03,0,.29.03.55.1.79.07.24.17.45.31.62.14.17.32.3.54.39.22.09.47.14.76.14s.55-.05.77-.14c.22-.09.39-.22.53-.39.14-.17.24-.37.3-.61.06-.23.1-.5.1-.8"/>
      <path class="cls-2" d="M178.11,63.15l-.41.47v3.51c0,.44-.07.8-.19,1.11-.13.3-.32.55-.58.73-.26.19-.59.33-.99.42-.41.09-.89.13-1.47.13s-1.06-.05-1.46-.13c-.4-.09-.74-.23-1-.42-.26-.19-.46-.43-.59-.74-.13-.3-.19-.67-.19-1.1v-3.51l-.41-.47h2.73l-.41.47v3.46c0,.37.12.65.35.83.24.18.56.27.97.27s.74-.09.98-.27.36-.46.36-.83v-3.46l-.41-.47h2.72Z"/>
      <path class="cls-2" d="M187.85,65.22c0,.9-.29,1.51-.86,1.85-.58.34-1.33.51-2.25.51h-1.13v1.35l.41.47h-2.7l.41-.47v-5.31l-.41-.47h3.48c.51,0,.99.06,1.44.17.45.12.84.33,1.15.64.31.31.46.73.46,1.26M185.88,65.33c0-.33-.1-.55-.31-.68s-.5-.19-.88-.19h-1.08v1.89h.91c.46,0,.81-.07,1.03-.22.22-.15.33-.41.33-.79"/>
    </g>
  </g>
</svg>